<svg width="302" height="102" viewBox="0 0 302 102" fill="none" xmlns="http://www.w3.org/2000/svg">
<path d="M115.426 30.3685C112.977 33.1792 112.435 36.6215 111.586 39.9174C110.836 42.8013 110.239 45.7218 109.481 48.6057C109.182 49.7501 108.342 50.5649 107.159 50.8304C105.921 51.1143 104.999 50.4917 104.276 49.5396C102.153 46.7564 101.638 43.3873 100.97 40.0731C100.906 39.7709 100.897 39.4597 100.852 38.9744C99.1807 40.9245 98.6024 43.3873 96.4882 44.8796C93.7958 46.7655 91.0131 46.555 89.1519 43.8359C87.3087 41.1351 86.5317 38.0589 86.3871 34.8271C86.3149 33.3165 86.1522 32.6024 84.3362 33.4355C82.6557 34.1954 80.7313 34.4884 78.8791 34.763C77.2618 35.0102 76.1776 34.0489 75.9608 32.4742C75.7259 30.7714 76.9456 30.2037 78.3822 29.9657C81.0204 29.5262 83.3153 28.098 85.845 27.3382C86.5588 27.1184 86.342 26.505 86.4143 26.0198C86.9654 22.55 87.3268 19.0527 88.3839 15.6836C88.7001 14.6582 89.1157 13.706 89.6668 12.7997C90.3264 11.7193 91.1757 11.4905 92.1063 12.3327C92.811 12.9828 93.6422 13.7426 92.4044 14.7589C91.6274 15.3906 91.7359 16.4617 91.4919 17.3315C90.7059 20.0781 90.4529 22.907 90.2722 25.9282C93.1092 25.0127 95.7383 24.1064 98.4127 23.3373C99.4788 23.026 99.6776 22.4126 99.6957 21.4422C99.7408 19.5196 99.0542 17.6245 99.533 15.6927C99.8402 14.4476 99.7499 12.8637 101.412 12.5616C102.749 12.3236 104.096 13.825 104.412 15.7202C104.638 17.1026 104.629 18.5125 104.43 19.895C103.68 25.205 104.06 30.4875 104.846 35.7426C105.108 37.4913 104.963 39.3498 106.156 41.0618C106.354 38.9104 107.24 36.9878 107.927 35.0102C109.074 31.7143 109.959 28.2903 111.929 25.3698C113.881 22.4767 116.971 22.7239 118.769 25.8184C119.518 27.091 119.898 28.5009 120.033 29.9749C120.25 32.282 120.485 34.5891 120.702 36.9054C120.81 38.1138 120.747 38.5808 122.355 37.766C125.292 36.2645 124.397 33.3531 125.238 31.1833C126.439 28.0523 128.3 25.7726 131.11 24.3261C133.55 23.0718 137.1 25.2233 137.561 28.0523C137.877 30.0023 137.706 31.8608 136.36 33.4905C135.917 34.0306 135.7 34.7813 135.456 35.4588C134.806 37.2258 133.712 38.5716 131.969 39.2766C130.695 39.7893 130.324 40.5491 131.282 41.6661C133.514 44.2845 136.423 45.7768 139.73 46.2254C140.778 46.3719 141.88 46.6099 143.009 46.555C145.349 46.4451 147.473 45.9507 149.135 44.1471C149.903 43.3232 150.725 43.6528 151.439 44.1746C152.406 44.8796 152.74 46.0423 152.225 47.0127C151.276 48.8163 150.12 50.4642 147.861 50.9769C145.214 51.5812 142.729 52.4235 139.847 52.2312C133.08 51.7826 128.734 48.1571 125.716 42.426C125.355 41.7393 125.021 41.3823 124.271 41.3914C123.286 41.4097 122.635 41.9316 122.337 42.8105C122.039 43.6802 121.922 44.6232 121.669 45.5113C121.47 46.2162 121.19 46.9029 120.323 47.0493C119.491 47.1867 118.949 46.7381 118.47 46.1613C117.91 45.493 117.594 44.7056 117.395 43.845C116.537 40.0822 116.175 36.2553 115.85 32.4193C115.796 31.7784 115.968 31.0918 115.444 30.396L115.426 30.3685ZM99.1807 28.7664C99.2981 27.3931 98.4308 27.6677 97.8074 28.0065C95.8919 29.0319 93.8952 29.7734 91.8352 30.4418C91.1124 30.6798 89.956 30.9453 90.0011 31.9798C90.1096 34.9553 90.1818 37.9582 91.5732 40.6956C92.1244 41.7759 93.0188 41.8858 93.7958 41.0435C96.9761 37.5828 98.1507 33.1975 99.1716 28.7572L99.1807 28.7664Z" fill="white"/>
<path d="M180.026 91.3224C179.313 93.0619 178.689 94.2704 178.003 95.4606C176.123 98.6924 171.841 97.8867 170.061 95.4606C167.766 92.3295 166.628 88.7681 166.049 84.987C165.769 83.1651 165.67 81.3066 165.462 79.1917C163.556 81.2059 161.559 82.8355 159.381 84.2363C158.776 84.6299 159.038 85.3257 159.011 85.8934C158.857 88.9421 158.704 91.9907 157.575 94.8746C156.987 96.3761 156.409 97.9142 154.476 98.0424C152.461 98.1797 151.277 97.2825 150.374 95.0211C149.353 92.4668 149.018 89.7843 149.091 86.461C147.735 88.2371 146.751 89.6562 145.639 90.9562C143.769 93.1443 141.601 94.9113 138.764 95.6803C135.99 96.431 134.011 95.6803 132.34 93.2542C129.069 88.4935 129.693 83.4123 131.391 78.3861C132.566 74.8979 133.921 71.4556 136.433 68.6083C138.104 66.704 140.137 65.7336 141.474 66.6033C142.549 67.3083 142.92 70.714 142.116 72.3986C141.926 72.8014 141.7 73.0852 141.239 72.9937C140.806 72.9021 140.634 72.5359 140.507 72.1422C140.273 71.4006 140.751 70.5767 140.236 69.7344C138.619 70.9704 137.996 72.8014 137.101 74.4402C135.059 78.1664 134.047 82.1855 133.912 86.4244C133.876 87.6329 134.273 88.8413 134.879 89.8301C135.665 91.1302 136.948 90.9562 138.176 90.3977C140.995 89.1068 142.983 86.7814 145.142 84.6666C145.766 84.0623 145.224 83.7694 144.962 83.3574C142.902 80.1714 143.073 77.0769 145.757 74.7789C148.043 72.8197 150.717 71.7943 154.186 74.2388C155.496 75.1634 156.707 76.1888 157.285 77.7544C157.827 79.2284 158.46 79.0086 159.345 78.0382C161.559 75.6304 164.116 73.543 165.489 70.4119C165.896 69.4781 166.573 68.1322 167.892 68.4344C169.293 68.7548 170.133 69.8534 170.467 71.3915C170.91 73.4697 170.269 75.4839 170.341 77.5346C170.485 81.7827 170.693 86.0215 172.256 90.0315C172.482 90.5992 172.609 91.5147 173.377 91.5147C174.127 91.5147 174.542 90.8372 174.913 90.1505C176.62 87.0103 177.081 83.513 177.813 80.089C178.373 77.4889 178.644 74.8613 178.843 72.2155C178.933 70.9704 179.132 69.3957 180.749 69.4231C182.204 69.4506 183.18 70.5675 183.541 72.069C184.002 73.9641 183.695 75.905 183.776 77.8185C183.984 82.5883 184.201 87.349 185.393 91.9999C185.718 93.2816 186.008 94.5725 186.712 95.8359C187.544 95.4056 187.309 93.4006 188.872 94.307C190.128 95.0303 190.091 96.2113 189.884 97.4564C189.64 98.8663 189.341 100.368 187.878 100.844C186.333 101.347 185.149 100.322 184.11 99.2325C182.086 97.1268 181.183 94.4077 180.054 91.3041L180.026 91.3224ZM153.644 91.7436C154.846 90.2329 154.981 88.8963 155.352 87.6786C155.542 87.0652 155.722 86.0582 154.629 85.9941C153.698 85.9391 152.958 86.4244 153.075 87.5413C153.202 88.7681 153.4 89.9858 153.644 91.7436V91.7436ZM153.211 81.4531C153.78 80.7115 155.325 81.1327 154.909 79.8418C154.43 78.322 153.265 77.3882 150.916 77.5346C152.768 78.4227 152.786 79.8326 153.211 81.4622V81.4531Z" fill="white"/>
<path d="M223.503 91.3591C222.663 92.7232 221.949 93.8218 221.29 94.9571C220.016 97.1726 218.046 98.4178 215.643 98.8755C213.673 99.2417 212.408 97.9783 211.541 96.4036C210.881 95.2134 210.24 95.2684 209.21 95.8818C203.861 99.0861 200.112 98.2163 196.588 93.0162C196.181 92.4119 195.793 91.7985 195.404 91.176C194.898 90.3795 194.609 89.2442 193.326 90.4893C192.811 90.9837 191.944 90.7274 191.411 90.0499C190.742 89.1985 190.291 87.9716 191.031 87.3125C193.652 84.987 192.504 82.2496 192.07 79.6404C191.302 75.0903 191.447 70.5126 192.125 66.0357C192.622 62.749 193.236 59.151 196.967 57.5214C199.615 56.3678 202.659 57.677 203.409 60.5426C204.71 65.4956 204.168 70.4302 202.813 75.2734C201.91 78.5052 200.807 81.6545 198.792 84.4652C197.519 86.2413 198.811 89.6562 201.078 91.5971C202.605 92.8972 205.397 92.6042 207.376 91.5422C210.366 89.9492 210.502 86.9096 211.568 84.3004C212.905 81.0228 213.836 77.4981 216.926 75.2734C217.531 74.8339 217.133 74.193 217.025 73.6163C216.447 70.4852 215.263 67.5097 214.911 64.3237C214.712 62.5293 214.549 60.744 214.92 58.9771C215.2 57.677 215.688 56.4868 217.26 56.0932C218.778 55.7086 219.672 56.5784 220.458 57.5305C222.274 59.7278 223.088 62.4652 223.539 65.1751C224.352 70.0732 225.202 74.9804 225.175 79.9883C225.157 83.1652 226.837 85.8202 228.156 88.5393C229.62 91.5605 231.346 94.4535 233.035 97.3466C233.767 98.5917 234.336 99.9192 233.134 100.945C231.924 101.979 230.632 101.082 229.602 100.221C227.379 98.3628 226.096 95.7902 224.633 93.3458C224.298 92.7873 223.982 92.2197 223.503 91.3865V91.3591ZM196.561 78.5326C199.335 73.3691 200.229 68.2696 200.012 62.923C199.994 62.5568 200.003 62.0441 199.533 61.9342C198.91 61.7877 198.838 62.392 198.621 62.7673C195.784 67.583 195.974 72.7923 196.57 78.5418L196.561 78.5326ZM220.657 84.8039C218.389 86.3695 217.35 88.3928 215.878 89.9766C215.281 90.6175 214.342 91.0936 214.306 92.1464C214.297 92.4486 214.351 92.8239 214.522 93.0528C214.703 93.3 214.992 93.0711 215.2 92.9246C217.929 91.0478 219.618 88.466 220.657 84.7948V84.8039Z" fill="white"/>
<path d="M254.361 76.2952C254.108 71.5528 253.421 67.0851 253.737 62.5624C253.855 60.8137 254.234 59.1566 254.695 57.4995C255.156 55.8516 256.294 55.5861 257.695 56.584C260.107 58.3052 259.953 61.0518 260.098 63.4504C260.36 67.7534 260.125 72.0747 259.258 76.3318C258.598 79.5819 259.718 82.4933 261.047 85.3223C261.706 86.723 262.718 86.8329 263.802 85.6519C265.889 83.3814 266.558 80.4608 267.47 77.641C267.669 77.0185 267.001 76.9452 266.757 76.5973C265.962 75.517 265.293 74.3909 265.465 72.9536C265.591 71.9099 266.124 71.0767 267.181 71.1042C270.669 71.1958 274.165 70.8753 277.608 70.6373C281.348 70.3809 285.016 70.857 288.712 70.7929C292.208 70.738 295.786 70.6648 298.975 72.5416C299.572 72.8895 300.114 73.4937 300.43 74.1163C301.026 75.2607 301.27 76.5882 300.656 77.7601C300.041 78.9228 298.795 78.5383 297.81 78.4375C291.711 77.815 285.613 77.1283 279.514 76.4692C278.909 76.4051 278.339 76.4417 277.626 76.9452C278.475 78.1446 279.532 79.2432 280.137 80.5524C281.944 84.4342 282.749 88.4534 281.023 92.6465C280.119 94.8437 276.93 95.8416 274.599 94.5507C272.665 93.4796 271.03 92.1063 270.018 90.0464C269.557 89.1034 268.97 88.2245 268.347 87.1442C267.877 87.7118 267.434 88.1604 267.091 88.6731C264.886 92.0239 261.065 92.1612 258.634 89.0027C257.83 87.9498 257.613 85.9723 256.267 86.0089C255.58 86.0272 254.993 88.0871 254.27 89.1583C252.698 91.4929 250.566 93.2232 248.045 94.3676C244.142 96.1529 239.85 93.0218 240.004 88.2886C240.194 82.7039 242.724 78.3002 247.657 75.572C250.277 74.1254 251.515 74.336 254.37 76.2769L254.361 76.2952ZM270.777 78.5016C271.175 79.5636 271.121 80.4975 271.211 81.413C271.455 83.8941 272.34 86.1462 273.768 88.1787C274.427 89.1308 275.286 89.7809 276.424 89.378C277.689 88.9294 277.852 87.7667 277.716 86.5674C277.264 82.4201 274.987 79.8108 270.768 78.4925L270.777 78.5016ZM252.689 81.5595C252.77 80.2045 252.617 79.6003 252.192 79.3164C251.551 78.8861 250.891 79.0509 250.358 79.4721C247.575 81.6327 245.172 84.0863 244.431 87.7576C244.205 88.8653 244.585 89.0576 245.687 88.9386C247.232 88.7829 248.163 87.7209 249.102 86.8237C250.738 85.2673 252.264 83.5278 252.68 81.5503L252.689 81.5595Z" fill="white"/>
<path d="M196.488 51.8375C192.485 52.0847 189.214 51.3157 186.757 48.1571C184.381 45.0993 184.227 41.7484 185.221 38.1962C186.143 34.9186 186.892 31.6136 188.239 28.4276C189.296 25.9374 190.272 23.319 191.058 20.7097C191.934 17.7892 194.256 17.5329 196.37 17.3681C199.84 17.0843 203.345 17.4413 206.787 18.1097C208.089 18.366 209.308 18.8604 209.796 20.3435C210.194 21.5429 209.868 22.4218 208.622 22.5408C204.863 22.907 201.159 23.8317 197.355 23.6303C196.18 23.5662 195.611 23.8134 195.385 25.15C195.096 26.8987 194.238 28.5191 194.012 30.3136C193.949 30.8446 193.759 31.5404 194.635 31.284C197.536 30.4051 200.571 30.5608 203.508 30.0481C204.827 29.8192 206.263 29.9107 207.086 28.4184C207.411 27.8325 208.052 28.1346 208.495 28.4093C209.462 28.9952 210.103 29.8467 209.95 31.0185C209.805 32.0988 209.227 32.8953 208.17 33.4538C204.032 35.6602 199.713 37.299 195.087 38.004C193.461 38.2512 192.178 38.8462 191.32 40.3569C190.299 42.1604 190.759 43.8633 192.711 44.3485C196.777 45.3739 200.897 45.8958 205.053 44.8978C206.029 44.6598 206.751 44.9986 207.284 45.7218C207.836 46.4725 207.917 47.3698 207.348 48.1388C206.688 49.0452 205.929 49.86 204.8 50.2353C201.99 51.16 199.189 52.0755 196.47 51.8283L196.488 51.8375Z" fill="white"/>
<path d="M174.144 25.8825C175.68 23.3465 175.481 21.0485 176.204 18.9977C178.11 13.5779 180.089 8.19458 181.67 2.66483C181.815 2.16129 182.104 1.70353 182.375 1.24577C182.836 0.476731 183.405 -0.219066 184.417 0.0647457C185.365 0.330247 185.98 0.998579 186.133 2.03312C186.314 3.23245 186.233 4.4501 185.971 5.60366C184.561 11.8017 183.287 18.0456 181.58 24.1613C179.628 31.1742 178.092 38.2786 176.809 45.4197C176.466 47.324 176.9 49.3656 175.951 51.2882C175.337 52.5242 174.858 53.8791 173.322 53.8151C171.686 53.7418 170.855 52.396 170.367 50.9769C169.852 49.448 170.123 47.8275 170.196 46.262C170.422 41.6935 171.442 37.2533 172.707 32.8771C172.933 32.108 172.942 31.4488 172.373 30.8538C167.874 26.1846 165.019 20.3802 161.712 14.8962C160.853 13.468 159.905 12.1496 158.875 10.8496C158.351 10.1904 157.971 9.38476 157.664 8.59741C157.348 7.77344 157.267 6.87623 157.989 6.18043C158.775 5.43886 159.589 5.78676 160.329 6.27199C163.501 8.33191 165.488 11.4905 167.422 14.6032C169.645 18.1829 172.698 21.195 174.144 25.8825V25.8825Z" fill="white"/>
<path d="M234.995 44.376C235.148 45.6761 234.959 46.3627 234.173 46.6831C233.441 46.9761 232.754 46.8022 232.176 46.2711C231.48 45.6394 230.965 44.8796 230.667 43.9732C229.854 41.4555 228.481 39.1575 227.857 36.5666C227.586 35.4405 227.134 35.0194 225.942 35.6328C224.722 36.2553 223.421 36.7223 222.002 36.768C220.024 36.8321 218.831 37.8941 218.497 39.8716C218.081 42.3436 217.684 44.7972 216.69 47.1409C216.121 48.4867 215.651 49.6586 213.988 49.3473C212.38 49.0452 210.98 46.7381 211.332 45.1908C211.666 43.726 211.992 42.2612 212.335 40.7963C212.633 39.5146 212.895 38.361 211.811 37.1434C210.917 36.1363 211.188 34.8546 212.434 34.0855C213.763 33.2707 214.034 32.0348 214.512 30.5974C215.895 26.505 215.85 22.1471 217.277 18.0731C217.91 16.2695 218.56 14.3652 218.804 12.3785C219.075 10.2453 220.349 9.67772 222.31 10.5108C224.279 11.3531 225.318 12.9828 226.014 14.9054C227.622 19.3182 229.23 23.731 230.812 28.1438C231.11 28.9769 231.561 29.3615 232.465 29.5537C234.679 30.0206 235.094 31.4672 233.423 33.0052C232.61 33.756 232.853 34.4334 233.106 35.1292C234.236 38.2786 234.516 41.5837 234.977 44.3486L234.995 44.376ZM222.716 22.3211C221.903 25.1043 221.253 27.3381 220.602 29.5629C220.457 30.0481 220.132 30.9178 220.647 30.9453C222.111 31.0277 223.602 30.7988 225.074 30.6432C225.481 30.5974 225.454 30.1854 225.391 29.8467C225.363 29.7185 225.336 29.5903 225.291 29.4622C224.505 27.2649 223.719 25.0768 222.725 22.3119L222.716 22.3211Z" fill="white"/>
<path d="M269.833 42.3069C269.896 35.1384 268.848 28.0431 268.469 20.9112C268.415 19.959 268.089 19.6203 267.204 19.5928C266.481 19.5745 265.767 19.4555 265.063 19.6752C263.048 20.3069 261.141 19.7118 259.325 18.9611C257.464 18.1921 257.356 16.3793 258.847 15.0335C259.858 14.1272 261.114 13.6053 262.271 13.8159C264.963 14.3011 267.412 13.1109 270.023 13.0651C273.899 12.9919 277.775 12.5982 281.651 12.3877C282.22 12.3602 282.825 12.525 283.386 12.6898C284.334 12.9736 285.03 13.5778 285.102 14.6307C285.174 15.6561 284.479 16.1962 283.648 16.5441C281.055 17.6428 278.353 18.4667 275.588 18.897C274.098 19.1259 273.601 19.5287 273.745 21.1217C274.305 27.2557 275.1 33.3623 275.579 39.5146C275.923 43.9091 276.158 48.2304 275.724 52.5882C275.579 54.0714 275.643 56.0031 273.628 56.113C271.767 56.2229 271.089 54.4376 270.881 52.9728C270.375 49.4388 270.167 45.8592 269.833 42.2978V42.3069Z" fill="white"/>
<path d="M258.558 38.1688C258.901 40.3752 257.22 42.0231 255.712 43.6436C253.48 46.0514 251.122 48.3494 248.737 50.6107C247.137 52.1305 245.583 52.2312 244.355 51.1234C243.162 50.0431 243.081 48.3586 244.355 46.6282C246.433 43.8176 248.637 41.1076 250.751 38.3153C252.938 35.4222 252.757 35.175 249.757 33.2708C246.776 31.3756 243.632 29.7185 240.921 27.3839C236.892 23.905 236.648 17.4597 240.207 13.4772C242.014 11.4539 243.803 9.51294 246.387 8.68897C249.315 7.74599 252.613 10.401 252.576 13.4863C252.567 14.5025 252.007 15.3082 251.194 14.6307C249.577 13.2757 248.357 14.4201 247.345 15.1617C245.33 16.6357 243.876 18.7323 242.936 21.076C242.331 22.5774 243.514 23.5845 244.508 24.4085C245.719 25.4156 247.101 26.1846 248.556 26.8163C251.086 27.9149 253.471 29.2882 255.576 31.1284C257.6 32.8954 258.548 35.1109 258.558 38.1688Z" fill="white"/>
<path d="M80.7158 71.2273C80.6074 73.6351 80.5984 76.0521 80.3725 78.4508C80.0924 81.4537 80.3725 84.5939 78.7552 87.3313C77.4542 89.5377 75.9905 89.6201 74.1655 87.8623C72.7289 86.4799 72.0603 84.6763 71.2652 82.946C69.1149 78.2585 67.0188 73.5344 65.4377 68.6089C65.257 68.0504 65.1215 67.4553 65.0853 66.8694C65.0311 66.1187 64.7239 65.1299 65.7449 64.8461C66.6303 64.5989 67.2718 65.3313 67.588 66.0363C68.7716 68.6913 69.7925 71.4104 70.9852 74.0654C72.2501 76.8852 73.6234 79.6593 74.9786 82.5065C75.9002 82.0305 75.7556 81.3438 75.8008 80.7213C76.1712 75.7774 76.5597 70.8336 76.9121 65.8898C77.0115 64.544 77.4452 63.308 78.6739 62.7862C79.984 62.2186 80.8784 63.3813 81.6735 64.1778C83.86 66.3476 84.9803 69.2223 86.4169 71.8865C87.9077 74.6605 89.3533 77.4712 90.826 80.2635C91.0067 80.2452 91.1874 80.2177 91.3681 80.1994C91.3681 78.4141 91.3952 76.6289 91.3681 74.8436C91.2777 70.0097 91.088 65.1848 91.0789 60.36C91.0789 58.2452 92.5065 57.6684 94.2502 58.8586C95.2531 59.5361 95.8404 60.4333 95.9217 61.6418C96.3283 67.9863 96.5451 74.3401 96.3554 80.7121C96.2831 83.1016 96.2921 85.482 95.8856 87.8532C95.6868 88.9793 95.6145 90.1145 94.2502 90.5174C92.7956 90.9476 91.6301 90.4258 90.7356 89.3455C88.8654 87.075 87.9167 84.2735 86.6337 81.6642C84.89 78.1212 83.2727 74.5232 80.7339 71.2365L80.7158 71.2273Z" fill="white"/>
<path d="M113.061 65.9997C112.835 70.5956 110.929 74.8803 106.709 77.929C106.14 78.341 106.113 78.698 106.366 79.2473C107.767 82.2686 112.311 83.8524 114.895 82.6531C115.952 82.1587 117.118 81.9207 117.841 80.8495C118.301 80.1629 118.862 79.6044 119.801 80.172C120.687 80.7122 121.129 81.4904 120.958 82.5066C120.614 84.5574 119.467 86.2969 117.976 87.5053C114.073 90.6547 108.616 90.0505 105.074 86.4891C103.403 84.8046 102.273 82.827 101.307 80.7213C100.566 79.11 100.042 77.398 98.9394 75.9423C98.2798 75.0726 98.2437 74.038 98.9213 72.9852C99.8248 71.5753 99.346 69.8907 99.3912 68.3709C99.4815 64.9286 101.225 62.2919 103.204 59.8932C105.779 56.7713 110.504 57.6776 112.266 61.3855C112.88 62.6764 113.088 64.0314 113.07 65.9997H113.061ZM108.76 65.13C108.733 64.5807 109.05 63.7933 108.399 63.5278C107.83 63.2989 107.36 63.949 106.917 64.2969C104.749 65.9906 104.821 68.5723 104.478 70.9619C104.387 71.5936 104.107 72.6647 104.912 72.8661C105.643 73.0492 106.438 72.2894 106.764 71.6027C107.739 69.5611 109.013 67.5836 108.751 65.13H108.76Z" fill="white"/>
<path d="M15.3269 27.2008C16.3479 33.7468 16.375 41.6294 18.8144 49.155C19.2029 50.3452 19.3294 51.6178 19.6366 52.8263C19.8625 53.696 20.2329 54.1721 21.299 53.6411C23.7475 52.4234 26.196 51.16 28.7709 50.2628C31.0297 49.4754 33.424 48.8895 35.8724 49.1184C36.9295 49.2191 37.7156 49.7593 38.0318 50.867C38.348 51.984 37.9053 52.9361 37.0741 53.4854C35.4839 54.5291 33.8305 55.4904 32.1049 56.2778C28.3734 57.9806 24.4522 59.1983 20.9286 61.4596C18.3536 63.1167 15.4805 64.3069 12.6797 65.5703C11.7039 66.0098 10.5203 66.3394 9.49031 65.5245C8.51453 64.7555 7.71042 63.7851 7.9634 62.4942C8.19831 61.2857 9.06567 60.4709 10.2402 59.9582C12.0743 59.1434 13.8632 58.2461 15.4534 56.9461C16.131 56.3968 16.1581 56.0031 15.8509 55.2982C13.6283 50.1712 12.5351 44.7422 11.7219 39.2399C11.1256 35.1658 10.8636 31.0826 11.1437 26.9627C11.3244 24.3535 11.1076 24.1887 8.88497 25.1683C7.06894 25.9648 5.13545 26.3493 3.22907 26.8163C1.70216 27.1916 0.879976 26.2578 0.364982 25.0127C-0.150012 23.7767 -0.276501 22.5591 1.04261 21.671C2.24426 20.8654 3.4188 20.0322 4.80116 19.5379C9.04759 18.0089 13.2037 16.2237 17.5224 14.9603C20.2871 14.1546 23.2686 13.8616 26.1689 14.6124C27.4247 14.9419 28.3915 15.7018 28.8161 17.0385C29.4215 18.9153 28.9245 19.4372 26.964 19.2357C25.3648 19.0709 24.1179 20.2977 22.6272 20.7097C21.0822 21.1492 19.5824 21.7626 17.9561 22.0647C15.3992 22.5408 15.3811 22.6689 15.3359 27.2374L15.3269 27.2008Z" fill="white"/>
<path d="M40.6064 24.0147C42.4676 21.7534 44.8799 22.0555 46.9941 21.6527C48.5662 21.3597 50.1654 22.202 50.6713 23.9873C50.9966 25.1317 51.4664 26.6789 49.1534 26.3219C48.5842 26.2303 47.8343 26.5691 47.3284 26.9353C45.3949 28.3269 43.0458 28.7755 40.9949 29.8924C40.1907 30.3318 39.8384 30.7072 39.7661 31.6319C39.5583 34.4059 40.1636 37.0518 40.9949 39.6427C41.5279 41.3273 42.3953 41.5653 43.8047 40.5949C45.5033 39.4138 46.9128 37.9856 47.8072 36.063C48.2409 35.12 48.6746 33.9024 49.9395 34.1038C51.3038 34.3327 50.9604 35.6693 51.1953 36.6764C52.2976 41.3181 49.9666 44.1013 46.3345 46.1795C43.1813 47.9831 40.5702 47.3972 38.5193 44.3485C36.5316 41.3914 35.348 38.1046 35.3661 34.47C35.3661 33.2524 35.357 32.3002 33.7127 33.0418C32.6646 33.5179 31.9508 32.8587 31.4359 32.0256C30.9028 31.1558 30.5866 30.2861 31.3003 29.2698C32.1406 28.0705 33.2971 27.3289 34.5529 26.8071C35.6913 26.331 36.0979 25.6078 36.2605 24.4267C36.4593 23.0077 37.2634 21.7351 37.4531 20.2794C37.5345 19.6385 38.0585 19.1991 38.7361 19.309C39.5583 19.4371 40.1636 19.959 40.4799 20.7555C40.8322 21.6527 40.5521 22.5865 40.6154 24.0147H40.6064Z" fill="white"/>
<path d="M56.6443 52.7531C57.2316 51.2791 58.4242 49.8417 59.8879 48.624C62.4538 46.4909 64.5138 43.9183 66.4563 41.2175C67.3327 39.9998 66.7815 39.4963 65.7154 38.9836C64.1162 38.2237 62.5532 37.3997 60.9901 36.5575C57.6291 34.7447 56.825 31.6594 58.8308 28.4734C60.3125 26.1205 62.0924 24.1796 64.9836 23.7493C66.1943 23.5662 67.0887 24.1338 67.3327 25.324C67.5495 26.386 66.9803 26.6881 65.9051 27.1734C64.0439 28.0248 62.6526 29.8284 61.8123 31.7784C61.2521 33.0876 62.6345 33.4722 63.4657 33.7834C65.3811 34.4884 67.2514 35.2483 68.9319 36.4293C71.9495 38.535 72.6452 42.6274 70.7298 45.7493C68.191 49.8875 64.4144 52.6157 60.6287 55.3623C59.8336 55.9391 59.0024 56.3968 58.108 55.8017C57.2045 55.2067 56.6353 54.3094 56.6172 52.7439L56.6443 52.7531Z" fill="white"/>
<path d="M59.3993 19.6477C59.1643 20.8562 58.821 22.2753 58.5319 23.676C58.2608 24.9761 57.8543 26.2029 58.1344 27.5578C58.2608 28.1529 58.1886 28.8213 57.4838 29.0318C56.7791 29.2424 56.3635 28.7023 56.1105 28.1712C54.9179 25.6902 54.8908 23.0901 55.451 20.4442C55.5594 19.9315 55.7853 19.4463 55.8575 18.9336C56.0021 17.9357 56.0382 16.7181 57.3844 16.8737C58.7036 17.0202 59.3179 18.0913 59.4083 19.6477H59.3993Z" fill="white"/>
</svg>
