<svg width="353" height="106" viewBox="0 0 353 106" fill="none" xmlns="http://www.w3.org/2000/svg">
<g clip-path="url(#clip0_1_542)">
<path d="M156.428 67.4397C168.452 67.0347 180.49 66.3461 192.515 66.2921C208.758 66.2111 224.961 66.8592 241.151 68.5738C253.794 69.9105 265.979 72.8403 278.112 76.3507C287.328 79.024 296.572 81.6028 305.829 84.1005C308.637 84.8566 310.182 86.3418 309.483 89.2986C308.825 92.1069 306.46 93.241 303.168 92.1609C293.347 88.9206 283.607 85.4237 273.772 82.2373C264.515 79.24 255.043 77.2013 245.423 75.5406C234.245 73.6099 223 72.7053 211.741 72.1652C199.475 71.5847 187.154 71.8817 174.861 72.0302C158.416 72.2192 142.025 73.5559 125.688 75.1761C111.796 76.5532 97.9975 78.916 84.28 81.7783C72.121 84.3166 60.2173 87.7594 48.3405 91.2428C40.6555 93.4976 33.2123 96.6164 25.9169 100.005C23.4314 101.166 24.5196 102.301 25.6213 103.57C26.1856 104.231 26.9514 104.92 26.0647 105.73C25.3392 106.391 24.7615 105.514 24.1838 105.149C19.468 102.098 19.5351 99.1817 24.3584 96.0493C30.2565 92.2149 36.9608 90.1762 43.4635 87.8674C52.0218 84.8161 60.7413 82.2103 69.5683 79.9556C82.7753 76.5802 96.1165 73.9744 109.619 72.0707C123.35 70.14 137.162 69.0194 150.96 67.7368C152.773 67.5612 154.614 67.5477 156.441 67.4667C156.441 67.4532 156.441 67.4397 156.441 67.4262L156.428 67.4397Z" fill="black"/>
<path d="M246.283 37.3991C248.271 32.0795 250.421 27.2055 251.872 22.129C253.122 17.7545 255.164 13.731 256.588 9.43758C257.085 7.92542 257.784 6.00821 260.215 6.8183C262.567 7.60138 263.561 9.37007 263.185 11.6383C262.714 14.5141 262.069 17.4034 261.129 20.1577C258.455 27.9346 257.757 36.373 253.068 43.5153C249.911 48.3353 246.484 48.9699 242.467 44.8519C240.103 42.4217 238.746 39.4783 237.725 36.2785C235.777 30.1488 233.667 24.0867 231.397 17.2954C228.575 24.0057 226.036 30.1353 223.429 36.2515C221.898 39.8564 220.138 43.3398 217.988 46.6071C217.316 47.6197 216.618 48.8349 215.113 48.2948C213.689 47.7817 213.151 46.4721 213.111 45.0679C213.057 43.1912 213.81 41.4901 214.549 39.8024C217.397 33.3352 220.326 26.895 223.04 20.3738C224.101 17.8085 224.652 15.0272 225.485 12.3539C226.251 9.91013 227.46 7.56088 230.241 7.38536C232.874 7.22334 234.85 8.97853 236.005 11.2873C238.867 16.9984 240.398 23.2091 242.225 29.2982C243.072 32.1065 244.08 34.8068 246.31 37.4126L246.283 37.3991Z" fill="black"/>
<path d="M318.431 33.2136C314.978 40.7474 310.787 47.6872 306.313 54.4649C305.466 55.7341 304.862 57.8808 302.927 56.9762C300.831 56.0041 301.261 53.9384 302.188 52.1967C306.971 43.1507 310.155 33.4026 314.522 24.1811C315.355 22.4395 315.758 19.7932 318.418 19.9147C321.212 20.0497 322.771 22.1154 323.335 24.6672C324.921 31.823 326.318 39.0193 327.85 46.1885C328.253 48.0922 328.857 49.9689 329.421 51.8321C329.65 52.5882 329.677 53.7494 330.778 53.6413C331.638 53.5603 332.055 52.7367 332.35 51.8321C335.024 43.4747 338.168 35.3199 342.709 27.759C344.133 25.3963 345.947 23.4926 348.029 21.8049C349.279 20.7923 350.676 20.3602 352.006 21.5214C353.336 22.669 353.148 24.1946 352.356 25.5313C347.089 34.4153 344.912 44.5819 340.559 53.8439C339.538 56.0176 338.893 58.3804 337.765 60.5001C335.467 64.8206 330.967 65.3201 327.487 61.8367C324.02 58.3534 323.214 53.6413 322.005 49.2129C320.568 43.9473 319.6 38.5602 318.431 33.2271V33.2136Z" fill="black"/>
<path d="M20.717 50.4685C17.0492 53.5198 13.6635 56.2876 10.3584 59.15C9.56568 59.8385 8.43711 60.5676 8.61177 61.8097C9.29697 66.5082 8.8133 71.4363 10.7614 75.8513C11.4198 77.3364 11.1914 78.079 10.3718 79.0241C9.28353 80.2797 8.03405 80.0772 6.77113 79.2536C4.5946 77.8495 4.07062 75.5677 3.681 73.259C3.02267 69.2895 4.1378 64.8476 0.429648 61.7017C-0.215248 61.1482 -0.121201 59.9195 0.483389 59.2985C2.7674 57.0032 1.77318 54.3704 1.62539 51.7106C1.10141 42.4351 0.752096 33.1596 0.3356 23.8841C0.228118 21.3729 0.859579 19.0641 3.27794 18.0785C5.6963 17.0929 7.91313 18.4025 9.43132 20.1847C11.2451 22.3045 12.8842 24.6537 14.1471 27.138C16.7401 32.255 19.8168 37.1021 22.6517 42.0436C26.3061 48.3893 28.1199 55.3965 31.304 61.8502C32.1102 63.4839 32.8357 65.1851 34.1523 66.5082C34.8241 67.1833 35.2003 67.9934 34.542 68.7765C33.8165 69.6406 32.8222 69.5866 31.8818 69.0465C30.2427 68.1014 29.1544 66.6568 28.2811 64.9961C25.809 60.2436 23.31 55.5046 20.6767 50.482L20.717 50.4685ZM7.09357 26.5169C6.28745 34.9418 7.59068 42.6512 7.75191 50.374C7.79221 52.1967 8.86704 52.0077 9.94187 51.4001C12.5752 49.9014 15.1548 48.3353 17.7478 46.7691C18.9167 46.067 18.5673 45.0679 18.0031 44.2443C14.2277 38.7492 11.8228 32.4171 7.09357 26.5304V26.5169Z" fill="black"/>
<path d="M120.246 11.3819C119.454 7.45293 117.223 8.35753 115.235 9.08661C109.001 11.4089 104.164 15.6213 100.093 20.7789C98.4945 22.8041 100.362 23.8842 101.652 24.3973C104.903 25.7204 108.235 27.1111 111.675 27.6646C116.229 28.4072 120.421 29.9329 124.371 32.1201C129.759 35.1039 130.417 39.7754 125.526 43.4883C117.841 49.321 108.934 52.5073 99.2872 50.5901C92.8651 49.3075 92.0053 44.663 96.5599 40.0725C97.5003 39.1274 98.3468 38.0742 99.341 37.2102C100.443 36.2516 101.638 36.3731 102.565 37.4802C103.439 38.5198 102.982 39.5459 102.216 40.464C101.988 40.7475 101.759 41.0311 101.491 41.2876C100.483 42.2732 98.2661 43.0698 99.0588 44.4604C99.7978 45.7701 102.095 45.5946 103.734 45.203C109.794 43.7179 115.463 41.2336 120.985 38.3578C121.536 38.0742 122.221 37.7772 122.141 37.1021C122.047 36.3056 121.254 36.0085 120.555 35.7925C116.955 34.6719 113.394 33.2812 109.713 32.5927C106.542 31.9986 103.613 30.959 100.671 29.7844C93.3622 26.841 91.3604 20.4818 96.3314 14.3117C101.329 8.128 108.437 5.02267 115.88 2.88944C118.056 2.26837 120.569 2.5519 122.02 4.99566C123.363 7.27741 121.926 8.89759 120.246 11.3819V11.3819Z" fill="black"/>
<path d="M146.713 18.8751C151.671 19.1182 156.642 19.3747 161.6 19.6042C162.325 19.6312 163.078 19.6852 163.776 19.5232C164.986 19.2397 166.584 17.957 166.84 20.2658C167.028 22.048 165.442 22.6556 163.844 22.7636C158.389 23.1281 152.947 23.4791 147.493 23.8167C146.042 23.9112 144.537 23.7087 143.14 24.0462C141.286 24.4783 138.572 22.9796 137.94 26.4765C137.161 30.7834 138.196 35.3604 141.138 36.6431C147.224 39.3029 153.445 40.518 159.383 36.0895C160.337 35.3739 161.277 34.8879 162.325 35.8465C163.467 36.8996 163.212 38.0607 162.406 39.1273C158.899 43.7448 153.848 44.8385 148.5 45.095C143.623 45.3245 139.512 43.4478 135.885 40.248C133.171 37.8582 131.585 35.0364 131.451 31.3505C131.223 24.9238 132.472 18.7131 133.856 12.516C134.487 9.64014 135.764 6.85884 133.009 4.03704C131.424 2.40336 132.862 0.904695 134.917 0.472648C138.505 -0.283434 142.145 0.310631 145.76 0.0811059C150.946 -0.242929 156.185 0.472648 161.412 0.540156C164.032 0.58066 166.101 1.66078 168.076 3.14594C168.68 3.59149 169.124 4.26656 168.707 5.04964C168.358 5.71122 167.726 5.5357 167.108 5.37368C160.834 3.65899 154.519 5.07665 148.232 5.14416C147.869 5.14416 147.506 5.21166 147.143 5.29267C144.833 5.83273 141.259 3.74 140.372 6.11626C139.042 9.64014 139.096 13.7851 139.042 17.687C139.015 19.5907 141.138 18.8211 142.32 18.9697C143.758 19.1587 145.236 19.0102 146.7 19.0102V18.8886L146.713 18.8751Z" fill="black"/>
<path d="M193.334 9.46458C190.257 7.50687 186.966 11.7328 183.446 9.73461C182.881 9.41057 182.599 10.0586 182.425 10.4637C181.148 13.4205 180.799 16.6069 180.235 19.7257C179.993 21.0893 181.43 20.6438 182.129 20.6978C189.613 21.3729 197.096 22.0209 204.606 21.3999C205.641 21.3189 206.622 20.9273 206.944 22.2505C207.267 23.5061 206.286 23.8976 205.345 24.2892C203.115 25.2208 200.764 24.6942 198.466 24.9508C192.81 25.6123 187.154 26.7195 181.417 26.0444C179.187 25.7743 179.173 27.246 178.837 28.6907C178.179 31.4315 178.784 33.9967 181.538 34.6853C186.348 35.8869 191.171 37.5746 196.209 37.2371C198.762 37.0616 201.57 38.4387 203.894 36.0895C204.539 35.4279 205.56 35.8869 206.044 36.7375C206.595 37.7096 206.299 38.6682 205.587 39.4378C203.814 41.382 201.368 41.8951 198.977 42.0976C195.229 42.4217 191.453 42.2596 187.691 42.5027C184.265 42.7322 181.135 41.5441 178.233 40.2074C174.458 38.4792 172.214 35.1579 172.335 30.8104C172.577 21.9399 174.417 13.434 178.636 5.54915C179.724 3.49693 181.027 2.83536 183.62 3.2269C192.636 4.56355 201.731 5.36013 210.719 2.74085C211.767 2.43032 212.694 2.68684 213.205 3.71295C213.89 5.10361 212.842 5.73817 211.888 6.27823C207.159 8.95152 201.798 8.68149 196.68 9.45108C195.726 9.59959 194.731 9.47808 193.334 9.47808V9.46458Z" fill="black"/>
<path d="M49.5491 10.1396C51.0136 10.0451 52.2093 10.5311 52.908 11.8813C53.7007 13.3934 52.8811 14.7301 52.2899 16.0667C52.1825 16.3097 51.5644 16.6068 51.4704 16.5258C48.0444 13.7175 47.2114 17.6869 45.6126 18.9695C42.1194 21.8048 38.8546 24.9102 37.0005 29.2576C35.8317 31.9849 36.2213 33.5241 39.1368 34.6042C43.0599 36.0489 47.1845 36.6024 51.1614 37.7501C59.3435 40.1128 61.4394 47.4441 55.6757 53.6818C52.1422 57.5027 47.5473 59.8925 43.3689 62.8358C41.8238 63.9159 40.6012 63.0788 39.5801 61.8367C38.4247 60.4325 38.68 59.2309 40.0235 58.0293C43.1271 55.275 46.1769 52.4397 49.2401 49.6448C49.6969 49.2263 50.194 48.8618 50.5702 48.3892C53.4723 44.7573 53.1229 43.8392 48.5952 42.5971C44.4975 41.4765 40.2116 40.9364 36.4363 38.7357C29.6245 34.7662 28.5228 28.8661 33.6283 22.9254C37.3633 18.5915 40.8699 14.0145 46.1769 11.3682C47.2786 10.8146 48.2862 10.1666 49.5626 10.1531L49.5491 10.1396Z" fill="black"/>
<path d="M284.399 53.3039C285.474 45.9456 287.584 38.5738 289.854 31.2695C291.292 26.625 293.173 22.1155 294.785 17.525C295.322 15.9858 295.712 14.1631 297.862 14.8517C299.783 15.4593 300.253 17.2955 299.931 19.0776C299.313 22.426 298.627 25.7879 297.647 29.0282C294.758 38.5468 290.002 47.4442 288.282 57.3678C288.134 58.1914 287.691 58.7585 286.818 58.6369C285.582 58.4749 284.897 57.5433 284.614 56.4632C284.386 55.5451 284.467 54.5325 284.399 53.2904V53.3039Z" fill="black"/>
</g>
<defs>
<clipPath id="clip0_1_542">
<rect width="353" height="106" fill="white"/>
</clipPath>
</defs>
</svg>
