<svg width="336" height="111" viewBox="0 0 336 111" fill="none" xmlns="http://www.w3.org/2000/svg">
<path d="M90.6887 82.7159C93.1787 79.7659 94.3987 76.4259 95.8487 73.1959C98.0287 68.3459 98.9887 63.1059 100.929 58.1859C101.289 57.2659 101.839 56.3959 102.409 55.5859C103.029 54.7159 103.859 54.4759 104.849 55.1259C106.319 56.0959 107.149 57.3359 107.289 59.1959C107.649 63.8659 107.339 68.5359 107.479 73.2159C107.639 78.6459 109.739 83.4059 111.399 88.3559C111.659 89.1159 112.089 89.8459 112.979 89.9759C114.009 90.1259 114.089 89.0259 114.649 88.5659C117.089 86.5959 115.819 84.0459 115.629 81.8059C115.169 76.5159 114.389 71.2559 113.739 65.9859C113.689 65.5559 113.659 65.1259 113.649 64.6959C113.619 63.7959 113.719 62.9359 114.649 62.4859C115.549 62.0459 116.149 62.7059 116.769 63.1659C118.539 64.5059 118.679 66.6359 119.299 68.5159C119.649 69.5759 119.729 70.7159 120.129 71.8659C120.339 69.4659 122.479 68.0159 122.899 65.7459C122.939 65.5459 123.089 65.3659 123.199 65.1759C126.409 59.9459 134.789 58.3559 139.759 61.9659C141.539 63.2659 141.989 65.0659 141.999 67.0759C141.999 67.7759 141.839 68.5259 140.919 68.7359C140.119 68.9159 139.409 68.7359 139.029 68.0459C138.069 66.2859 136.659 66.5159 135.119 66.9959C131.219 68.2159 128.699 70.5759 127.279 74.5959C125.219 80.3959 125.099 86.4359 124.239 92.3859C123.969 94.2359 123.579 95.8859 121.509 96.2459C119.479 96.6059 118.589 95.0859 117.789 93.5759C117.559 93.1359 117.329 92.6959 117.079 92.2259C114.069 95.8859 112.339 95.9159 109.119 92.4959C105.619 88.7759 103.259 84.5259 102.749 79.3459C102.629 78.1359 102.229 76.9659 101.899 75.5359C100.769 77.0759 100.169 78.6459 99.7387 80.2359C98.7287 83.9559 96.3787 86.8359 94.0587 89.7459C92.8487 91.2659 89.0987 90.9259 87.6587 89.0759C85.7887 86.6759 84.6287 83.9959 84.0887 80.8759C83.3487 76.5559 82.6987 72.2359 82.0487 67.9059C81.6587 65.2959 80.5587 64.7959 77.9187 65.3159C75.0587 65.8759 72.0687 65.9659 69.4587 67.5659C69.9987 68.9259 71.3287 69.5759 71.8787 70.9059C73.9187 75.8459 72.5487 80.3059 70.2787 84.7159C69.2587 86.7059 67.6187 87.9759 65.8287 89.2259C62.8887 91.2859 58.9187 90.9159 56.5187 88.2459C50.7387 81.8359 50.7287 74.4859 52.9487 66.7859C53.3687 65.3259 54.3987 64.1359 55.4787 63.0659C56.0487 62.5059 56.7887 61.9859 57.6087 62.3059C60.7587 63.5559 63.1587 61.3359 65.9087 60.6659C69.8087 59.7159 73.5887 58.5159 77.7787 58.6959C80.7287 58.8259 83.0387 59.4559 84.9987 61.5559C85.9987 62.6259 86.6487 63.8159 87.0187 65.2859C88.1487 69.8259 89.3287 74.3459 89.3487 79.0759C89.3487 80.2759 89.9987 81.3659 90.7087 82.6959L90.6887 82.7159ZM66.8387 75.0959C66.5287 74.2659 67.1687 72.9059 65.9287 72.3359C63.9787 71.4459 61.9987 70.4259 59.8087 70.5159C58.8287 70.5559 57.3087 70.2559 56.9287 71.7359C55.9687 75.4259 56.1987 79.0059 58.2887 82.3159C58.7987 83.1159 59.4687 83.6059 60.6087 83.4859C63.3287 83.2059 66.8487 78.6559 66.8387 75.0959Z" fill="white"/>
<path d="M168.228 78.8859C165.288 83.6359 161.678 86.7859 156.258 87.3159C152.588 87.6759 149.968 85.7759 148.038 83.0859C145.568 79.6359 145.108 75.6659 146.108 71.5159C147.218 66.9059 149.358 62.7759 152.448 59.2759C153.778 57.7759 155.788 56.4059 158.178 56.9459C160.658 57.5059 162.148 59.1659 162.708 61.6259C162.918 62.5559 163.068 63.6659 162.008 64.0759C160.988 64.4759 160.818 63.3859 160.448 62.7159C159.718 61.4059 157.748 61.3759 156.668 62.7159C153.828 66.2459 152.048 70.2659 151.378 74.7459C151.108 76.5459 151.028 78.5159 152.898 79.5759C155.208 80.8859 157.738 81.1759 160.048 79.6059C163.908 76.9759 165.938 73.1759 166.328 68.5559C166.768 63.4259 168.588 58.9959 172.348 55.3759C174.638 53.1759 176.868 51.1759 180.208 50.4259C184.298 49.5159 188.718 52.6159 189.088 56.7459C189.648 62.9559 183.288 67.9559 178.658 69.4559C177.308 69.8959 175.938 70.2959 174.478 70.4459C172.888 70.6059 172.298 71.6959 172.878 73.2459C175.348 79.7759 180.028 83.8959 186.558 86.2959C189.278 87.2959 191.718 88.0459 194.538 86.9259C195.638 86.4859 197.428 88.5959 197.598 90.2659C197.968 93.7959 194.918 96.2859 191.168 95.9459C184.638 95.3659 179.828 91.7059 175.008 87.7659C172.078 85.3759 170.308 82.2359 168.228 78.8759V78.8859ZM175.438 63.3359C178.058 61.5159 181.748 61.2359 183.398 57.8059C180.298 57.8159 176.358 60.4859 175.438 63.3359Z" fill="white"/>
<path d="M17.3482 73.7859C22.9682 75.2859 28.7982 74.6959 34.3982 75.9359C38.0282 76.7359 41.7282 77.3459 44.7882 79.7159C48.0282 82.2159 49.0882 87.8659 47.1982 91.4759C45.5982 94.5059 43.4582 97.0859 40.9282 99.2959C39.3082 100.716 37.1182 101.346 35.4382 102.856C32.3182 105.656 28.2082 106.776 24.5382 108.636C22.4182 109.716 19.9682 109.836 17.6582 110.356C16.0582 110.716 15.1182 109.716 14.4582 108.376C13.6782 106.806 13.6482 105.226 14.8582 103.956C15.8782 102.876 17.1682 102.046 18.3882 101.166C18.6982 100.946 19.2882 100.786 19.5982 100.926C23.0182 102.466 25.2382 100.156 27.4682 98.3559C28.6482 97.4059 30.0282 97.1159 31.2582 96.4159C35.3382 94.1059 38.3482 90.5859 41.4382 87.1859C42.6182 85.8859 42.1482 84.8359 40.4782 84.0159C37.6282 82.6259 34.5282 82.4059 31.4782 82.0159C27.3482 81.4959 23.1982 81.1359 19.0682 80.6259C16.8082 80.3459 14.8382 79.2659 13.0382 77.9159C11.8882 77.0559 11.2582 75.7959 11.0882 74.4159C10.7482 71.7159 11.3082 69.0159 13.2882 67.2259C18.4482 62.5859 23.8282 58.0759 30.4082 55.6259C33.1782 54.5959 36.4482 54.1459 39.3082 56.1259C40.2982 56.8159 41.1382 57.6059 41.0782 58.9059C41.0282 59.8459 40.9982 60.8259 39.4282 60.1059C37.9582 59.4259 36.2982 59.8659 34.8382 60.3459C30.4782 61.7559 26.8082 64.3459 23.2582 67.1959C20.9682 69.0359 18.4582 70.6059 17.3282 73.8059L17.3482 73.7859Z" fill="white"/>
<path d="M225.398 57.356C221.688 62.626 219.458 68.426 218.128 74.606C217.988 75.236 217.838 75.886 217.838 76.526C217.848 77.836 217.168 79.606 218.598 80.276C220.068 80.966 221.658 80.036 222.998 79.186C225.188 77.796 226.918 75.876 228.708 74.026C230.618 72.046 230.408 69.226 231.648 66.946C232.858 64.736 234.008 62.806 236.918 63.086C237.828 63.176 238.188 62.706 238.308 61.846C238.888 57.496 245.278 55.476 248.848 57.016C252.878 58.766 255.168 62.096 257.098 65.726C257.798 67.036 258.358 67.846 259.978 67.436C260.718 67.256 261.548 67.456 262.338 67.476C263.778 67.516 264.588 67.046 265.528 65.656C267.948 62.056 271.048 59.036 275.668 58.276C277.248 58.016 278.478 59.116 280.008 59.356C279.368 55.226 277.958 51.346 277.838 47.216C277.778 45.046 278.278 43.066 279.128 41.166C280.338 38.446 283.888 37.926 285.628 40.316C287.718 43.186 289.038 46.516 289.448 50.026C289.988 54.736 290.398 59.496 289.628 64.216C288.918 68.516 291.428 71.676 293.388 74.896C294.738 77.126 296.098 79.586 298.728 80.886C299.898 81.466 299.988 84.166 299.118 85.236C298.098 86.496 296.998 85.916 295.828 85.396C292.908 84.086 291.198 81.596 289.508 79.096C288.828 78.096 288.248 77.056 286.968 76.226C286.068 80.436 282.678 82.606 279.938 85.286C276.878 88.276 269.438 89.196 266.338 85.616C263.908 82.826 262.418 79.616 262.558 75.796C262.588 74.906 263.258 73.636 261.898 73.276C260.148 72.806 258.588 73.836 258.528 75.476C258.258 81.976 250.438 87.736 243.708 86.136C240.398 85.356 237.728 83.476 235.398 80.996C233.828 79.326 232.058 79.386 230.198 80.886C228.258 82.446 226.618 84.316 224.618 85.856C220.568 88.986 216.268 87.696 213.878 84.506C212.268 82.366 213.408 79.366 211.258 77.546C213.348 73.636 212.758 68.936 214.938 65.076C216.828 61.716 218.238 58.056 220.928 55.156C221.918 54.086 223.038 53.206 224.128 52.306C225.498 51.176 227.388 52.166 227.828 54.096C228.138 55.446 227.708 56.726 227.098 57.836C226.278 59.306 225.838 57.926 225.388 57.356H225.398ZM272.518 81.066C274.388 80.696 276.648 79.606 278.928 78.566C279.148 78.466 279.278 78.136 279.418 77.886C280.608 75.846 281.828 73.816 282.968 71.736C284.528 68.886 282.718 64.246 279.638 63.316C277.448 62.656 275.588 63.656 273.868 64.886C270.818 67.076 269.188 70.266 267.938 73.656C266.598 77.286 268.688 81.086 272.528 81.066H272.518ZM238.458 67.576C237.838 68.506 237.418 69.076 237.068 69.686C234.728 73.836 234.488 73.266 238.408 76.656C242.068 79.816 246.758 80.206 250.378 78.006C251.748 77.176 253.078 76.226 253.158 74.386C247.348 73.986 241.338 74.436 238.458 67.566V67.576ZM252.728 67.916C251.758 64.226 248.238 62.256 244.978 63.506C244.178 63.816 243.218 64.186 243.228 65.166C243.228 66.116 244.128 66.606 244.938 66.896C247.448 67.806 250.078 67.776 252.738 67.916H252.728ZM283.428 46.616C283.228 49.996 283.588 53.306 285.168 56.296C285.388 54.236 284.628 49.366 283.428 46.616Z" fill="white"/>
<path d="M303.288 73.836C304.158 75.826 305.598 77.196 307.108 78.036C311.408 80.396 315.858 81.926 321.058 80.836C323.898 80.236 326.998 81.356 330.008 80.836C330.848 80.696 331.658 80.796 332.398 80.146C333.028 79.586 333.838 79.076 334.728 79.766C335.548 80.406 335.728 81.2861 335.618 82.2761C335.338 84.7361 332.468 87.586 329.548 88.356C325.488 89.426 321.408 89.806 317.238 89.066C314.238 88.536 311.038 88.8261 308.258 87.5061C305.228 86.0661 302.298 84.2961 300.398 81.3861C297.468 76.8861 295.528 72.016 296.498 66.526C297.508 60.806 299.918 55.816 305.438 53.146C307.598 52.096 310.228 51.396 312.448 52.756C315.428 54.576 316.128 57.716 315.498 60.936C314.538 65.836 311.948 69.8361 307.838 72.7561C306.588 73.6361 305.068 73.876 303.278 73.836H303.288ZM302.758 67.746C305.928 66.216 308.268 63.906 309.588 60.246C305.768 61.656 304.148 64.566 302.758 67.746Z" fill="white"/>
<path d="M290.735 35.8904C289.225 36.9404 288.695 39.1304 286.665 38.7004C284.775 38.3004 284.475 36.3404 283.965 34.8204C282.625 30.8704 281.685 26.8104 280.835 22.7304C280.705 22.1004 280.745 21.0704 279.875 21.0204C279.125 20.9804 278.825 21.8804 278.425 22.4704C275.505 26.7404 273.735 31.6204 271.185 36.0904C270.165 37.8804 268.455 38.0704 267.225 36.4304C266.595 35.5904 266.175 34.6004 265.605 33.5804C264.855 34.7104 264.295 35.7704 263.565 36.7404C260.735 40.5004 256.035 39.7304 253.385 35.6504C252.035 33.5704 251.135 31.3204 250.645 28.8904C250.455 27.9404 250.145 27.0104 249.725 25.4504C248.375 29.3104 247.095 32.4704 245.525 35.5204C244.725 37.0804 243.695 38.4104 242.665 39.7804C241.935 40.7404 241.055 41.4304 239.945 40.6504C238.925 39.9304 238.695 38.8604 239.195 37.5804C239.895 35.8004 241.585 34.8304 242.465 33.1404C244.255 29.6804 245.335 26.0204 246.605 22.2704C243.995 22.1404 241.785 23.2604 239.425 23.4204C238.335 23.4904 237.275 23.4704 236.205 23.4204C235.385 23.3704 234.555 23.2004 234.505 22.1504C234.455 21.1504 235.175 20.8704 236.015 20.6404C239.135 19.8004 242.345 19.3604 245.435 18.3504C247.045 17.8304 247.995 17.0404 248.145 15.2404C248.415 12.1604 248.855 9.09038 249.235 6.02038C249.375 4.89038 249.375 3.37038 250.885 3.47038C252.235 3.56038 252.805 4.86038 252.795 6.21038C252.765 8.95038 252.715 11.6804 252.635 14.4204C252.605 15.4904 252.885 15.7604 254.005 15.4104C256.045 14.7604 258.145 14.2904 260.235 13.8004C261.405 13.5304 261.765 12.9004 261.875 11.6904C262.095 9.12038 261.945 6.51038 262.605 3.98038C262.905 2.83038 263.295 1.62038 264.735 1.64038C266.035 1.66038 266.785 2.69038 267.165 3.79038C267.675 5.28038 268.395 6.75038 268.385 8.36038C268.345 12.3204 268.385 16.2804 268.095 20.2304C267.905 22.8304 267.685 25.3404 269.115 27.9004C270.575 25.6104 272.145 23.4704 273.365 21.1404C274.685 18.6104 276.645 16.7504 278.845 15.0704C280.035 14.1604 281.095 14.3604 282.075 15.4404C282.655 16.0804 283.255 16.6904 283.605 17.5104C285.045 20.9604 286.485 24.4004 286.915 28.1604C287.115 29.8704 288.045 31.4304 287.875 33.2204C287.845 33.5704 287.785 34.2004 288.475 34.0804C289.095 33.9804 289.465 33.7304 289.335 32.9104C289.105 31.5004 288.745 30.0004 288.965 28.6304C289.895 23.0404 291.985 18.0004 296.795 14.5504C298.475 13.3404 300.455 12.6204 302.485 13.0004C305.855 13.6304 307.275 17.5004 305.265 20.5304C302.565 24.6304 298.665 27.3204 294.125 28.9604C292.585 29.5204 292.565 29.9804 293.225 31.1904C293.995 32.6004 295.205 33.4004 296.675 33.4704C301.705 33.7004 306.545 32.9704 310.785 29.9704C311.195 29.6804 311.565 29.2504 312.105 29.6304C312.685 30.0404 312.905 30.6404 312.735 31.3404C312.445 32.5004 311.795 33.4904 310.855 34.1704C307.165 36.8404 302.975 38.3204 298.505 38.8204C295.505 39.1604 292.825 38.1104 290.755 35.9004L290.735 35.8904ZM263.605 25.8004C262.995 23.2404 262.535 20.6904 262.345 18.1104C262.255 16.8404 261.495 16.9904 260.675 17.3304C258.425 18.2504 256.195 19.2304 253.835 19.8504C253.295 19.9904 253.025 20.4104 253.055 20.9904C253.325 24.9504 253.665 28.9004 255.835 32.3804C257.035 34.3004 259.465 34.6404 260.765 32.9304C262.335 30.8504 263.065 28.3304 263.595 25.8004H263.605ZM293.575 25.7504C297.025 24.1704 300.045 22.0304 302.315 18.9404C302.585 18.5704 303.005 18.0604 302.695 17.5704C302.335 16.9904 301.645 17.1704 301.125 17.2704C300.515 17.4004 299.925 17.7104 299.355 18.0004C296.215 19.6104 294.635 22.4304 293.575 25.7404V25.7504Z" fill="white"/>
<path d="M36.9651 32.7505C37.0351 37.5705 37.4851 42.0405 38.8651 46.3905C39.2051 47.4605 39.1951 48.5705 38.0451 49.2605C36.9851 49.9005 35.9951 49.5705 35.0151 48.9705C33.1151 47.8105 32.6051 45.9205 32.0251 43.9405C30.9451 40.2705 30.2751 36.4505 28.3651 32.8405C27.6351 34.1705 27.3751 35.4205 27.0651 36.6605C26.0151 40.7705 23.4651 43.9205 20.4851 46.8005C16.6051 50.5305 8.4351 49.1605 4.9051 45.0905C2.6451 42.5005 0.665096 39.8605 0.115096 36.3305C-0.0949043 35.0105 0.0350957 33.7505 0.0950957 32.4805C0.395096 26.2405 1.8151 20.2205 5.6451 15.2405C7.8051 12.4205 9.90509 9.3005 13.3151 7.6105C14.9651 6.7905 16.2451 7.5005 17.4151 8.5305C18.0251 9.0705 18.0151 9.71049 17.2651 10.3405C11.0551 15.5705 7.5051 22.2805 6.0251 30.2305C5.3951 33.6005 5.6651 36.7705 7.0451 39.8505C8.6551 43.4405 11.3251 44.4705 14.8651 42.7905C17.1451 41.7105 18.9751 40.1905 20.2451 37.7805C23.2251 32.1205 24.3051 26.0205 25.0851 19.8105C25.2151 18.7705 25.1951 17.5905 26.3851 17.3605C27.5651 17.1305 28.8351 17.3705 29.7751 18.3105C30.7251 19.2605 31.1751 20.4705 31.3651 22.0305C32.7151 19.3305 32.9951 16.4705 34.5151 14.0405C38.7251 7.3205 42.6751 6.26049 49.7451 7.50049C55.0351 8.43049 60.4651 17.1405 55.6451 23.1405C53.0751 26.3405 50.0751 28.8905 46.7051 31.1105C45.5951 31.8405 45.3251 32.3105 46.8051 32.8605C51.1351 34.4705 54.8851 37.2105 59.0251 39.2005C61.3151 40.3005 62.7851 42.2905 64.4451 44.0505C65.3251 44.9805 65.9151 46.3205 64.7751 47.5505C63.6651 48.7505 62.3851 48.3805 61.2451 47.6005C54.7651 43.1505 47.7851 39.6005 40.7151 36.2105C39.1951 35.4805 38.0451 34.3105 36.9551 32.7605L36.9651 32.7505ZM36.7951 30.4105C37.7451 28.9605 38.4851 27.9105 39.5551 27.4005C43.6451 25.4505 46.8051 22.3305 50.0851 19.3505C51.5751 17.9905 52.0951 16.0805 51.3051 14.2205C50.6351 12.6505 49.0351 12.0705 47.3551 12.1205C44.4251 12.2105 41.8451 13.6905 40.3551 15.8605C37.5251 19.9905 36.7451 24.8805 36.8051 30.4105H36.7951Z" fill="white"/>
<path d="M110.186 34.7305C109.296 37.2505 107.246 38.3605 105.136 39.4605C102.476 40.8405 99.8655 40.7505 97.2655 39.4505C91.7455 36.6905 88.3055 30.0405 88.5655 23.7805C88.7055 20.4205 88.9555 17.1505 90.4155 14.1605C92.0055 10.9005 93.6555 7.60049 96.9655 5.59049C98.6455 4.57049 100.286 4.68049 101.836 5.73049C102.646 6.28049 103.386 7.29049 101.876 7.79049C98.3455 8.94049 97.2555 12.1705 95.7155 14.9005C94.7255 16.6705 94.4555 18.8405 93.8855 20.8405C92.7155 25.0005 93.6455 28.8005 95.9855 32.2905C97.4555 34.4905 101.636 34.8305 103.756 33.2205C107.646 30.2405 108.866 25.8405 109.886 21.4705C111.226 15.6905 111.346 9.71049 112.036 3.82049C112.156 2.79049 112.606 1.90049 113.646 1.80049C114.986 1.67049 116.196 2.26049 117.026 3.34049C117.816 4.37049 117.736 5.60049 117.626 6.86049C117.296 10.7005 116.196 14.4905 116.776 18.4005C116.836 18.7905 116.566 19.3305 117.096 19.5305C117.556 19.7005 117.916 19.3205 118.196 19.0105C121.276 15.6605 125.706 13.9805 128.716 10.5305C129.076 10.1105 129.646 9.86049 130.136 9.56049C131.446 8.75049 132.816 8.70049 133.916 9.78049C135.076 10.9105 134.896 12.3705 133.946 13.5205C131.346 16.6805 128.736 19.8905 125.346 22.2105C123.006 23.8105 121.296 26.0605 119.006 27.6805C118.146 28.2905 118.826 28.5905 119.426 28.7905C126.746 31.2805 133.616 34.5605 139.196 40.0805C139.556 40.4305 139.976 40.7605 140.216 41.1905C140.786 42.2105 141.316 43.3505 140.396 44.4005C139.546 45.3705 138.486 45.0105 137.416 44.6105C133.206 43.0605 129.576 40.4605 125.676 38.3505C123.666 37.2605 121.256 37.0705 119.506 35.3805C118.776 34.6805 118.416 35.5105 118.246 36.1705C117.706 38.2605 117.356 40.4005 117.256 42.5505C117.206 43.5705 116.986 44.4205 115.926 44.7705C114.906 45.1105 114.136 44.6405 113.416 43.9405C111.986 42.5405 111.586 40.7105 111.246 38.8705C111.016 37.6005 110.896 36.3105 110.726 35.0305C110.546 34.9305 110.376 34.8305 110.196 34.7305H110.186Z" fill="white"/>
<path d="M179.496 33.7005C178.326 26.0805 178.566 18.5305 177.836 11.0705C177.676 9.46051 178.076 7.78051 178.316 6.15051C178.406 5.51051 178.806 4.89051 179.596 4.90051C180.596 4.92051 181.476 5.35051 181.866 6.28051C182.596 8.00051 183.426 9.72051 183.806 11.5305C184.536 14.9705 185.056 18.4605 185.506 21.9505C186.236 27.6405 187.026 33.3305 187.336 39.0605C187.416 40.6005 187.756 42.1705 186.076 43.0505C184.456 43.9005 182.786 43.9505 181.146 42.9605C177.606 40.8305 175.246 37.4905 172.586 34.4905C168.336 29.7105 164.306 24.7205 160.196 19.8205C160.016 19.6005 159.886 19.3305 159.316 19.2405C159.236 20.4005 158.876 21.6305 159.136 22.7105C160.116 26.7805 159.945 31.0105 160.925 35.0605C161.665 38.1005 161.316 41.4205 163.246 44.1705C163.566 44.6305 163.376 45.1605 162.946 45.5205C162.276 46.0705 161.536 46.2305 160.736 45.8305C158.886 44.9105 157.736 43.3705 157.116 41.4605C155.056 35.1505 154.106 28.6705 153.526 22.0605C153.286 19.3205 153.296 16.5105 152.766 13.7805C152.176 10.7805 153.696 9.53051 156.576 10.5505C159.446 11.5705 161.786 13.4105 163.656 15.7005C166.476 19.1405 169.246 22.6405 172.226 25.9405C174.606 28.5705 177.076 31.1105 179.506 33.7005H179.496Z" fill="white"/>
<path d="M209.105 25.5505C209.135 25.0505 209.135 24.5405 209.195 24.0405C209.355 22.6205 209.235 21.9105 207.415 22.5505C205.125 23.3605 202.705 23.8705 200.305 24.2805C197.935 24.6905 196.225 23.4405 195.575 21.2005C195.005 19.2105 195.705 17.8705 198.155 16.9305C201.425 15.6805 204.755 14.4305 208.225 13.9805C210.285 13.7105 212.185 14.9205 213.145 16.8605C216.095 22.8105 216.595 28.9105 213.935 35.1405C213.515 36.1305 213.285 37.1905 212.895 38.2005C211.685 41.3505 207.855 43.2605 204.555 42.8105C198.085 41.9205 194.895 37.2705 192.155 32.2105C189.575 27.4405 188.515 22.2405 189.465 16.8405C190.145 12.9905 191.655 9.47047 194.375 6.49047C196.375 4.30047 198.605 2.47047 201.155 1.00047C203.925 -0.599531 207.015 -0.259531 209.325 1.87047C210.205 2.69047 210.795 3.65047 210.765 4.89047C210.745 5.51047 210.875 6.29047 210.085 6.54047C209.405 6.76047 209.055 6.17047 208.745 5.68047C207.885 4.33047 206.755 4.81047 205.685 5.25047C202.315 6.67047 199.855 9.23047 197.975 12.2005C195.775 15.6805 194.205 19.5005 194.685 23.7705C195.235 28.7005 197.435 32.7805 201.415 35.8105C202.745 36.8205 204.025 36.5805 205.325 35.5605C208.635 32.9605 208.985 29.2905 209.115 25.5205L209.105 25.5505Z" fill="white"/>
<path d="M66.5749 37.4105C66.9249 35.9705 66.7249 34.9005 65.8249 33.9805C65.2849 33.4305 65.0049 32.6305 65.3949 31.9805C67.0749 29.1505 66.1649 26.0605 66.1749 23.1305C66.1949 18.9105 66.0249 14.6805 66.1149 10.4505C66.1149 10.2305 66.1149 10.0105 66.1949 9.81049C66.6149 8.63049 66.4849 6.90048 67.9649 6.60048C69.5049 6.28048 70.8049 7.23048 71.7949 8.50048C72.8649 9.86048 73.8249 11.2705 74.5549 12.8605C76.2649 16.5805 78.8549 19.8205 80.3549 23.6605C80.8749 24.9905 81.7849 25.3105 83.0949 24.9405C84.2249 24.6205 85.3849 24.6605 86.5149 24.9605C87.2649 25.1605 87.7349 25.7005 87.8749 26.4905C88.0349 27.3605 87.5049 27.7505 86.8549 28.1805C85.7549 28.9105 83.7949 28.7505 83.5849 30.2405C83.4149 31.3905 84.3149 32.6705 84.6449 33.9205C85.4549 36.9805 86.2149 40.0505 86.9649 43.1205C87.1749 43.9705 87.2849 44.8705 86.2649 45.3605C85.2849 45.8405 84.5149 45.3105 84.0149 44.6105C82.7449 42.8605 82.1049 40.7705 81.2249 38.8105C80.3349 36.8405 79.5349 34.8405 78.6549 32.8705C78.4549 32.4105 78.2349 31.4905 77.5049 32.1105C75.9949 33.3805 74.0949 33.5405 72.3549 34.1205C71.5249 34.3905 71.3949 34.8705 71.3949 35.5505C71.3949 38.3405 71.3849 41.1305 71.3949 43.9205C71.3949 44.6905 71.7049 45.6005 70.6849 45.9505C69.7749 46.2605 69.1149 45.6505 68.6849 45.0005C67.1149 42.6405 67.0549 39.8605 66.6049 37.4205L66.5749 37.4105ZM71.5349 28.4505C72.7049 27.6705 73.6749 27.4305 74.8049 27.5205C75.7749 27.6005 76.2449 27.0505 75.6849 26.0005C74.3949 23.5905 73.1349 21.1505 71.8649 18.7305C71.6349 21.9005 71.1049 24.9805 71.5449 28.4505H71.5349Z" fill="white"/>
<path d="M148.315 14.9704C148.445 21.3804 149.225 27.1304 150.105 32.8804C150.425 34.9504 149.955 37.1304 151.565 38.9804C152.275 39.7904 151.095 42.8004 150.155 43.1404C148.565 43.7304 147.695 42.5804 147.025 41.5004C145.475 39.0204 144.825 36.1404 144.375 33.3504C143.185 26.0104 142.375 18.6004 143.105 11.1304C143.165 10.5004 143.375 9.87043 143.595 9.28043C143.925 8.39043 143.935 7.09043 145.395 7.30043C146.675 7.49043 147.805 8.15043 147.965 9.55043C148.195 11.5404 148.235 13.5504 148.315 14.9704V14.9704Z" fill="white"/>
</svg>
