<svg width="300" height="294" viewBox="0 0 300 294" fill="none" xmlns="http://www.w3.org/2000/svg">
<g clip-path="url(#clip0_1_839)">
<path d="M144.943 280.701C146.114 281.714 147.364 281.358 148.401 281.381C153.087 281.484 157.764 281.556 162.418 280.567C166.194 279.76 170.04 279.174 173.887 278.787C183.63 277.806 192.866 274.712 202.301 272.402C205.308 271.666 208.063 270.345 210.92 269.277C211.941 268.897 213.017 268.715 214.014 268.257C219.111 265.907 224.185 263.526 229.314 261.255C233.944 259.206 237.656 255.583 242.238 253.589C245.586 252.133 247.953 249.372 251.237 247.853C252.622 247.213 253.778 245.48 254.941 244.182C257.284 241.588 259.888 239.309 262.413 236.92C263.284 236.097 264.059 235.045 264.851 234.08C266.457 232.094 268.159 230.187 269.6 228.043C270.557 226.619 271.317 225.085 272.322 223.692C273.723 221.754 277.316 220.694 279.374 221.968C280.023 222.363 280.609 222.838 281.171 223.384C282.603 224.768 282.738 226.184 281.63 227.798C280.403 229.594 279.208 231.406 277.989 233.21C274.459 238.407 270.605 243.391 266.18 247.83C264.392 249.625 262.231 251.224 260.205 252.853C258.147 254.507 256.018 256.152 254.063 257.948C250.367 261.342 246.291 264.016 241.851 266.405C238.107 268.423 234.324 270.448 230.683 272.703C228.894 273.81 227.026 274.823 224.834 274.95C224.525 274.965 224.169 275.068 223.932 275.25C220.022 278.32 215.257 279.317 210.682 280.764C210.374 280.859 210.017 280.883 209.78 281.065C206.717 283.367 202.902 283.692 199.459 284.997C193.856 287.133 187.848 287.521 182.173 289.142C178.208 290.274 174.18 290.741 170.198 291.5C167.199 292.07 164.057 291.864 160.994 292.165C157.677 292.489 154.345 292.821 151.084 293.478C146.154 294.467 141.231 293.415 136.3 293.778C132.865 294.032 129.406 294.119 125.939 293.707C112.563 292.117 99.1796 290.709 86.2944 286.366C80.8095 284.514 75.7361 281.801 70.4254 279.601C68.233 278.692 65.8981 277.695 64.2281 276.31C61.173 273.771 57.2315 272.79 54.4139 269.831C52.1819 267.481 49.0318 266.065 46.6653 263.723C44.9558 262.038 43.1354 260.464 41.4812 258.731C39.1543 256.279 36.3129 254.341 34.3738 251.493C31.8648 247.806 28.6039 244.562 26.7994 240.488C24.8365 236.042 21.2195 232.545 19.874 227.822C19.1775 225.377 18.7897 222.846 17.4046 220.646C16.3519 218.969 15.4101 217.244 14.769 215.33C14.4286 214.325 14.5869 213.233 14.2149 212.379C12.8694 209.262 12.7507 205.9 11.9434 202.743C11.2073 199.863 10.5267 196.881 10.1784 194.025C9.76686 190.568 9.07827 187.063 9.26823 183.534C9.33155 182.348 9.00704 181.24 8.80917 180.133C8.4451 178.131 8.61131 176.216 8.97538 174.27C9.02287 174.025 9.05453 173.74 8.97538 173.519C7.66945 170.243 9.37903 167.205 9.67188 164.057C10.028 160.133 10.962 156.217 8.31055 152.498C6.26855 149.642 5.0101 146.28 3.75166 142.981C3.34801 141.921 3.41133 140.837 3.33218 139.761C3.22137 138.274 3.07891 136.715 2.39824 135.473C0.285008 131.628 0.474962 127.435 0.213776 123.314C0.0238223 120.331 -0.174046 117.285 0.190032 114.334C0.52245 111.629 0.197946 108.765 1.00525 106.241C2.84938 100.458 3.65668 94.3582 7.03627 88.9943C8.49258 86.6842 9.31572 83.7728 10.8749 81.3994C12.0226 79.651 12.8932 77.6732 14.2545 76.1463C16.716 73.3932 18.6788 70.3394 20.6654 67.2619C21.5756 65.8537 23.0636 64.8094 24.322 63.6465C26.5619 61.5816 28.5248 59.2399 30.7172 57.1196C32.9966 54.9282 35.1731 52.626 37.5634 50.5295C39.4154 48.9077 41.9561 48.3302 43.5786 46.4789C46.5308 43.1166 50.409 40.9489 53.9469 38.3698C56.6142 36.4316 59.8434 35.2686 62.5027 33.3303C64.9642 31.5345 67.8056 30.5693 70.3383 28.9475C74.7547 26.131 79.4877 23.8605 84.4661 22.1675C84.7669 22.0646 85.1547 22.1042 85.3842 21.9301C89.2545 19.0425 93.9163 17.9033 98.2298 15.9967C101.388 14.6043 104.696 13.6945 107.925 12.5632C110.878 11.5268 113.956 10.8148 116.869 9.58059C119.489 8.47301 122.267 7.57112 125.14 7.09644C127.506 6.70879 129.699 5.6645 132.105 5.25311C135.231 4.71514 138.215 3.54427 141.405 3.03794C143.74 2.66611 146.011 1.52688 148.457 1.50315C152.596 1.45568 156.569 0.189871 160.725 -0.00791176C163.297 -0.126581 165.798 0.751574 168.346 0.134492C168.813 0.0237335 169.375 0.174048 169.866 0.308541C172.581 1.03638 174.837 2.62655 177.045 4.28002C180.416 6.80372 180.321 13.9793 178.058 17.658C177.892 17.9349 177.702 18.1881 177.535 18.465C175.557 21.7165 175.707 21.8036 179.205 23.101C182.229 24.2244 185.086 25.7909 188.038 27.1279C192.225 29.0266 196.119 31.3683 199.902 34.0107C204.248 37.0407 208.458 40.2211 212.582 43.5359C213.342 44.1451 214.006 44.1214 214.885 43.8524C218.336 42.8002 221.739 42.99 225.158 44.2163C226.71 44.7701 228.38 45.0549 230.026 45.2685C236.627 46.1229 240.45 50.5849 243.6 55.7826C245.072 58.2114 246.773 60.6085 247.185 63.5594C247.874 68.4249 248.103 73.2903 247.106 78.14C246.979 78.7571 246.948 79.4058 247.391 79.7697C249.377 81.3994 249.971 83.939 251.483 85.8772C254.538 89.7775 256.746 94.2711 259.777 98.1635C262.358 101.47 263.442 105.497 265.611 108.931C268.381 113.306 269.813 118.227 271.903 122.863C274.293 128.163 275.765 133.859 275.923 139.793C275.963 141.185 276.121 142.57 276.248 143.954C276.359 145.196 276.96 145.489 277.807 144.547C279.73 142.419 281.638 140.267 283.442 138.044C287.234 133.385 290.803 128.59 292.988 122.894C293.929 120.45 296.304 120.363 298.124 122.206C300.57 124.682 300.309 127.19 298.884 130.355C297.333 133.788 295.924 137.293 293.961 140.529C291.436 144.69 288.785 148.788 285.041 152.008C283.814 153.06 282.651 154.136 281.907 155.592C281.052 157.253 279.548 158.376 278.116 159.326C276.169 160.615 275.71 162.475 275.512 164.397C275.037 168.946 273.343 173.052 271.475 177.134C271.024 178.123 269.964 178.495 269.441 179.539C268.586 181.216 268.183 182.973 267.653 184.721C267.288 185.908 267.146 187.205 265.579 187.656C265.151 187.783 264.835 188.669 264.669 189.27C264.146 191.193 262.983 192.68 261.447 193.819C260.363 194.618 260.331 195.971 259.318 196.897C257.878 198.218 256.232 199.262 254.854 200.591C253.731 201.675 252.82 203.02 251.689 204.159C250.747 205.109 250.161 206.287 248.8 206.976C246.322 208.234 244.613 210.702 241.938 211.699C238.598 212.949 236.556 215.781 235.107 218.558C233.888 220.892 231.546 222.624 231.261 225.559C231.174 226.477 229.947 227.363 229.108 228.115C226.979 230.005 225.507 232.418 223.932 234.705C222.8 236.342 221.676 237.94 220.22 239.262C216.872 242.308 213.69 245.519 210.453 248.676C206.313 252.719 201.889 256.421 196.998 259.546C195.961 260.211 194.774 260.424 193.689 260.954C191.964 261.801 190.539 262.869 189.225 264.348C187.334 266.492 184.39 267.228 182.023 268.795C177.86 271.548 173.079 272.98 168.497 274.823C164.674 276.358 160.978 278.272 156.68 278.336C155.62 278.351 154.606 279.277 153.522 279.625C151.306 280.329 149.074 281.01 146.684 280.416C146.209 280.298 145.631 280.567 144.903 280.685L144.943 280.701ZM165.584 19.5014C166.249 19.4776 166.906 19.533 167.159 19.0663C168.726 16.1391 171.599 14.1771 172.889 11.0125C173.578 9.32743 172.961 9.098 171.56 8.87649C168.465 8.3939 165.37 8.08536 162.228 8.29105C159.355 8.48092 156.324 8.13282 153.649 8.9556C149.224 10.3084 144.634 10.7436 140.17 11.8116C136.157 12.7768 132.168 13.8843 128.211 14.9761C124.847 15.9017 121.515 17.1201 118.167 18.2118C117.083 18.5678 115.626 18.3859 114.89 19.0583C113.078 20.7118 110.656 20.5615 108.654 21.6453C105.654 23.2672 102.33 24.2956 99.1637 25.6405C96.2432 26.8747 93.4335 28.4174 90.4338 29.3826C88.7638 29.9206 87.2204 30.6721 85.8591 31.5819C81.3873 34.5566 76.4722 36.7006 71.8025 39.3034C70.6549 39.9442 69.99 41.028 68.7949 41.5502C65.8111 42.8793 63.033 44.6039 60.5953 46.7637C59.131 48.0612 57.1603 48.4963 55.8148 49.8175C54.3585 51.2494 52.7755 52.4441 50.9947 53.3776C48.3591 54.7542 46.1588 56.5975 44.4334 59.0184C44.2118 59.3269 43.9585 59.6354 43.6656 59.857C41.2121 61.7003 38.9722 63.8126 36.7561 65.8775C34.1363 68.322 31.6115 71.004 29.6328 74.0577C28.6197 75.6163 27.8045 77.4438 26.3166 78.4564C24.607 79.6194 23.8076 81.3757 22.9053 82.9184C20.7762 86.5497 18.9321 90.3788 16.8664 94.0338C14.1754 98.7885 13.3601 104.057 11.8801 109.097C10.6533 113.258 10.6137 117.878 10.6533 122.285C10.7008 127.056 12.2917 131.707 12.3945 136.518C12.4104 137.119 12.6399 138.084 13.5659 137.997C14.3732 137.918 14.3574 137.103 14.3811 136.462C14.4603 133.899 15.4101 131.628 16.5894 129.405C17.9903 126.763 19.1854 123.978 20.2697 121.225C21.3699 118.424 22.5966 115.671 23.6968 112.863C24.0609 111.921 24.9711 111.375 25.3826 110.355C26.3878 107.831 27.393 105.205 28.968 103.037C31.5719 99.453 32.403 95.2996 33.5348 91.2411C34.0097 89.5323 34.6745 87.8076 36.0279 87.1193C38.4182 85.9089 38.7348 83.5671 39.3046 81.6526C40.0249 79.208 41.4654 77.4201 42.8821 75.5055C44.283 73.6147 46.2933 72.2935 47.5914 70.2999C48.6678 68.6543 49.76 66.9692 51.9286 66.542C52.3719 66.455 52.7518 66.2097 52.8705 65.6876C53.5195 62.7525 55.9335 61.1386 57.7618 59.0737C60.2312 56.289 63.9907 55.1814 66.3572 52.1276C68.6999 49.0976 72.2932 47.3729 75.4196 45.2131C76.7255 44.3112 77.9918 42.9426 79.7331 42.8635C81.4585 42.7843 82.6536 41.9141 83.8725 40.8698C84.4898 40.3398 85.2655 39.9442 86.0253 39.6277C88.6846 38.5281 91.344 37.46 93.5126 35.4664C93.8609 35.142 94.4782 34.8572 94.9215 34.9126C97.003 35.1816 98.3327 33.7734 99.8286 32.7924C100.699 32.2148 101.617 31.8035 102.575 31.4316C107.72 29.4538 113.086 28.2908 118.46 27.1833C120.043 26.8589 121.293 25.7355 122.995 25.688C125.939 25.601 128.662 24.8494 131.361 23.4491C133.411 22.389 135.603 20.9412 138.231 21.4555C139.062 21.6216 139.79 21.1944 140.352 20.7118C141.658 19.5963 143.059 19.4064 144.666 19.8574C145.964 20.2213 147.19 20.0314 148.275 19.1137C149.185 18.3463 150.309 18.2277 151.369 18.647C153.206 19.3748 155.01 19.1137 156.862 18.8447C158.184 18.6549 159.609 18.0932 160.851 18.7182C162.45 19.5251 164.167 18.9397 165.592 19.4855L165.584 19.5014ZM160.044 108.29C159.078 108.875 159.031 109.785 158.785 110.521C157.875 113.242 156.965 115.924 155.58 118.496C154.345 120.79 152.841 122.934 151.749 125.291C150.214 128.59 148.385 131.707 146.359 134.73C145.172 136.502 143.842 138.329 143.66 140.544C143.463 142.949 143.391 145.386 143.526 147.791C143.621 149.468 142.117 150.956 143.154 152.712C143.866 153.922 144.46 155.196 145.322 156.327C146.027 157.261 146.818 157.664 148.053 157.728C151.005 157.878 153.213 156.573 155.295 154.714C156.237 153.875 157.369 153.21 158.635 152.989C162.213 152.372 163.012 151.383 162.64 147.815C162.545 146.905 162.672 146.027 163.083 145.212C163.439 144.5 163.439 143.78 163.4 142.989C163.265 140.267 162.371 137.483 163.21 134.84C163.89 132.704 163.566 130.703 163.455 128.614C163.4 127.617 162.664 126.882 162.711 125.861C162.877 122.238 161.983 118.701 161.461 115.157C161.128 112.918 160.471 110.663 160.044 108.29ZM220.053 178.02C222.119 178.527 223.789 177.498 225.467 176.612C229.599 174.429 233.714 172.221 237.814 169.974C238.914 169.373 239.84 168.693 240.386 167.324C241.336 164.919 241.344 162.237 242.697 159.967C242.903 159.619 242.848 159.081 242.808 158.638C242.705 157.482 242.879 156.462 243.323 155.331C243.813 154.104 245.001 153.005 244.787 151.668C244.502 149.856 244.731 148.282 245.191 146.502C245.863 143.891 245.879 141.074 246.006 138.361C246.196 134.192 245.887 129.991 245.768 125.806C245.721 124.144 245.175 122.538 245.214 120.853C245.222 120.473 245.175 119.698 244.454 119.73C243.829 119.753 243.679 120.347 243.584 120.853C243.513 121.225 243.568 121.621 243.528 122C243.251 124.682 242.317 127.293 241.059 129.492C238.724 133.575 237.149 138.052 234.284 141.873C233.437 143.005 232.179 144.366 232.242 146.066C232.321 148.147 231.324 149.998 231.213 152.071C231.134 153.511 230.604 155.299 229.614 156.24C227.636 158.115 227.382 160.687 226.773 162.894C225.752 166.58 224.937 170.172 221.921 172.799C221.66 173.028 221.597 173.337 221.636 173.669C221.779 174.785 221.715 175.766 220.576 176.47C220.212 176.691 219.816 177.348 220.053 178.012V178.02ZM70.9398 254.673C69.9821 252.648 68.7158 251.374 67.7739 249.91C65.0592 245.678 63.4129 241.042 61.735 236.374C61.173 234.823 60.8169 233.083 59.3131 231.928C54.9362 228.581 50.0528 225.994 46.0955 221.991C42.5655 218.415 38.8298 215.061 35.7984 211.01C33.234 207.593 31.0417 203.748 30.6855 199.666C30.3372 195.702 30.9783 191.272 35.0307 188.669C35.9963 188.052 36.0121 187.704 35.1494 186.905C32.4663 184.413 29.9178 181.786 27.2584 179.278C26.5698 178.629 26.087 177.166 25.0185 177.577C23.6018 178.123 24.6782 179.5 24.6703 180.496C24.607 185.299 24.694 190.101 25.5488 194.84C26.459 199.887 26.9735 205.029 29.063 209.808C29.4587 210.71 29.1184 211.976 29.5933 212.79C31.2158 215.567 31.7382 218.661 32.5059 221.691C32.8066 222.862 33.147 224.017 34.4371 224.824C34.3975 223.463 33.4556 222.632 33.1707 221.548C32.775 220.053 33.3607 218.74 34.6349 218.51C37.2231 218.044 39.4471 219.104 40.381 221.572C40.9509 223.091 41.7819 224.428 42.4864 225.86C45.4465 231.865 49.9341 236.69 54.3268 241.635C57.4135 245.116 61.0701 247.885 64.6001 250.828C66.3809 252.307 68.3754 253.557 70.9398 254.673ZM67.7423 117.681C69.2302 116.565 71.3039 116.518 72.5386 115.363C74.359 113.662 76.6384 113.306 78.7437 112.499C79.741 112.119 80.3109 111.826 80.3109 110.766C80.3109 108.788 81.221 107.159 82.4716 105.758C83.1839 104.959 83.4768 104.105 83.4847 103.148C83.4847 100.569 84.941 98.5353 85.8353 96.2806C86.7376 93.9942 88.5897 92.3962 89.8402 90.3392C91.1461 88.1953 92.2304 85.8931 93.7817 83.8678C96.7656 79.9754 100.699 77.0957 104.427 74.0657C107.261 71.7635 110.87 70.4502 113.719 68.0293C115.254 66.724 117.194 66.1148 119.204 65.2762C118.373 64.8094 117.922 65.1021 117.455 65.2999C114.51 66.5025 111.455 67.4676 108.559 68.7097C105.369 70.0784 102.092 71.3283 99.0529 73.0293C96.9476 74.2081 95.8554 76.89 93.0615 77.1115C92.8874 77.1273 92.6895 77.4596 92.5866 77.6732C92.0009 78.8678 90.8849 79.5166 89.9035 80.2839C86.2232 83.1716 82.4953 85.9484 79.559 89.7142C78.5854 90.9642 77.6436 92.2854 76.6147 93.48C75.008 95.355 73.1876 97.0717 71.5176 98.9072C70.6232 99.8961 70.4412 101.178 69.5152 102.135C67.8214 103.891 66.7529 106.067 65.819 108.559C67.8452 108.195 69.5547 108.456 70.4254 110.276C71.3356 112.167 70.4254 113.773 69.1511 115.157C68.5021 115.869 67.9955 116.621 67.7423 117.657V117.681ZM102.148 264.174C104.269 266.049 106.588 266.437 108.788 266.73C112.832 267.276 116.703 268.597 120.834 268.913C123.351 269.103 125.931 269.728 128.401 269.285C131.464 268.739 134.503 268.739 137.566 268.747C138.334 268.747 138.975 268.652 139.473 268.083C140.17 267.299 141.08 267.165 142.054 267.007C144.436 266.611 147.143 267.03 149.129 265.598C151.868 263.621 155.168 263.755 158.105 262.553C160.503 261.572 162.6 260.06 165.101 259.309C163.328 258.929 161.635 259.064 159.933 259.119C153.926 259.293 147.887 260.393 141.919 258.755C141.167 258.549 140.455 258.692 139.893 259.072C137.297 260.844 134.274 261.018 131.321 261.532C125.156 262.6 118.99 263.011 112.801 261.73C111.986 261.564 111.147 261.603 110.339 261.92C107.799 262.916 105.242 263.866 102.156 264.174H102.148ZM217.054 104.224C217.141 103.345 216.967 102.538 216.745 101.731C215.542 97.3724 213.009 93.8439 209.875 90.6794C208.696 89.4927 207.319 89.018 205.704 88.6304C203.812 88.1715 202.047 89.4532 200.235 88.6304C199.807 88.4405 199.253 88.3851 198.953 88.6858C198.462 89.1763 199.04 89.6905 199.285 90.0149C201.129 92.4594 202.016 95.3075 203.013 98.1477C204.738 103.069 207.065 107.792 207.588 113.084C207.675 113.986 208.055 115.173 208.862 115.244C209.653 115.315 210.682 114.754 211.323 113.994C211.648 113.606 211.846 113.116 212.131 112.697C213.492 110.711 214.521 108.496 216.357 106.834C217.101 106.162 217.362 105.212 217.046 104.216L217.054 104.224ZM204.944 230.464C200.496 231.461 196.262 233.035 191.75 233.558C189.764 233.787 187.832 235.077 185.838 234.839C183.851 234.602 182.086 235.48 180.187 235.322C179.364 235.251 179 235.844 179.435 236.374C180.48 237.624 180.321 239.032 180.266 240.44C180.242 241.121 180.408 241.69 180.78 242.236C181.224 242.893 181.208 243.558 181.145 244.388C180.947 246.793 179.055 248.478 178.691 250.765C178.596 251.366 177.805 252.102 178.81 252.561C179.672 252.948 180.638 253.004 181.24 252.102C185.102 246.319 192.043 243.929 196.206 238.478C196.317 238.336 196.499 238.217 196.681 238.154C200.488 236.785 202.055 232.972 204.936 230.456L204.944 230.464ZM44.6312 241.034C51.0818 250.844 59.7088 258.383 69.4044 264.752C77.9444 270.361 87.442 273.913 97.1059 277.03C98.0794 277.347 99.1875 277.663 100.351 277.236C100.185 277.062 100.09 276.88 99.9394 276.801C93.7263 273.518 87.2204 270.709 81.9334 265.875C81.1261 265.14 80.0813 264.475 78.9179 264.238C73.2984 263.091 68.2805 260.527 63.5633 257.394C60.9039 255.63 58.0071 254.135 55.7356 251.872C52.2927 248.447 48.3353 245.543 45.3911 241.619C45.209 241.374 44.9003 241.216 44.6471 241.018L44.6312 241.034ZM179.356 54.5959C178.161 54.319 177.464 53.9393 176.76 53.6149C175.343 52.9583 173.974 51.8428 172.288 52.2146C169.336 52.8713 166.558 51.1229 163.637 51.7083C163.408 51.7558 163.139 51.6055 162.885 51.558C159.727 50.9726 156.553 50.6086 153.356 51.2099C152.351 51.3998 151.306 52.1197 151.013 52.895C150.736 53.6149 151.797 54.3428 152.588 54.8491C153.839 55.6402 154.828 56.732 155.849 57.8C157.1 59.1133 158.532 60.0785 160.582 59.3585C163.218 58.4329 165.94 58.9946 168.441 59.7937C170.103 60.3158 171.314 60.6243 172.525 59.1924C172.937 58.7098 173.499 58.3696 173.934 57.9029C175.319 56.4155 177.274 55.8143 179.356 54.6038V54.5959ZM180.741 104.413C181.714 106.083 182.838 107.736 182.783 109.54C182.688 112.784 184.849 115.434 184.785 118.614C184.785 118.717 184.928 118.82 184.991 118.931C187.358 122.847 188.094 127.332 189.344 131.628C189.55 132.34 189.4 133.361 190.144 133.575C190.967 133.82 191.647 133.068 192.146 132.38C192.534 131.858 192.605 131.209 192.803 130.6C194.109 126.431 193.191 122.23 193.151 118.037C193.12 114.682 190.341 112.499 189.653 109.429C189.597 109.2 189.178 109.026 188.901 108.875C186.186 107.38 183.464 105.893 180.741 104.406V104.413ZM110.363 241.334C95.8237 235.884 84.1574 226.366 73.3142 215.188C73.0056 219.468 74.1769 223.202 74.3115 227.023C74.3352 227.616 74.9605 227.687 75.38 227.964C76.7809 228.882 78.4588 229.032 79.9547 229.768C83.0177 231.279 85.9382 233.138 89.3099 234.024C90.8295 234.428 92.3571 235.037 93.6947 235.868C95.895 237.236 98.1348 238.225 100.747 238.542C101.958 238.692 103.256 238.937 104.38 239.602C106.192 240.686 108.242 241.05 110.379 241.327L110.363 241.334ZM109.01 201.778C105.242 196.786 103.264 191.556 101.823 186.082C101.522 184.943 100.604 184.871 99.4962 185.212C97.8024 185.742 96.6548 187.506 95.238 187.799C92.9982 188.257 91.8901 189.911 90.2359 190.947C88.8983 191.786 89.2308 192.601 90.323 193.25C92.3808 194.46 94.2091 196.09 96.5835 196.762C97.7549 197.086 98.7601 197.799 99.8444 198.329C102.615 199.681 105.432 200.939 109.002 201.778H109.01ZM201.96 146.945C200.259 148.472 199.99 150.252 199.625 151.865C198.826 155.441 197.243 158.519 194.758 161.185C193.555 162.475 193.294 164.183 192.977 165.829C192.898 166.248 193.048 166.944 193.642 166.652C194.552 166.193 195.644 166.209 196.444 165.465C199.499 162.641 201.889 159.5 201.77 155.046C201.747 154.223 202.411 153.448 202.095 152.609C201.446 150.869 201.565 149.112 201.96 146.929V146.945ZM206.013 72.9027C205.973 72.8157 205.87 72.6495 205.807 72.4676C204.525 68.947 201.098 66.9613 199.499 63.6623C199.364 63.3854 199.016 63.0769 198.723 63.3617C196.958 65.0705 194.449 64.8015 192.423 65.8063C192.083 65.9724 191.647 66.0673 191.727 66.5578C191.79 66.9376 192.194 66.9138 192.486 67.0167C195.011 67.9265 197.441 68.9945 199.681 70.5293C201.193 71.5657 203.037 72.0878 204.382 73.4248C204.778 73.8204 205.269 73.9074 205.791 73.6147C206.036 73.4723 206.147 73.2666 206.013 72.8948V72.9027ZM143.249 234.119C142.267 234.23 141.515 233.542 140.542 233.407C137.582 232.988 134.519 233.004 131.685 231.967C127.934 230.599 124.151 229.388 120.249 228.526C119.742 228.415 119.148 228.36 118.848 228.835C118.579 229.254 118.927 229.689 119.188 230.061C120.28 231.596 121.475 232.79 123.628 232.814C126.723 232.846 129.564 234.657 132.738 234.341C133.894 234.222 135.065 234.475 136.173 234.341C138.524 234.056 140.874 235.053 143.249 234.127V234.119ZM157.709 248.803C160.242 248.099 163.123 247.972 165.299 245.781C166.083 244.989 167.484 241.619 166.7 240.654C165.671 239.38 164.326 240.527 163.162 240.702C162.537 240.789 161.872 241.327 161.437 241.841C159.878 243.684 158.398 245.607 156.918 247.513C156.704 247.782 156.3 248.083 156.538 248.51C156.751 248.898 157.179 248.866 157.717 248.811L157.709 248.803ZM28.3981 147.063C28.1686 148.574 27.48 149.903 27.108 151.296C26.6569 152.997 26.6173 154.856 26.7202 156.636C26.8231 158.44 25.2876 160.141 26 161.699C26.7044 163.242 28.4931 164.16 29.6091 165.584C30.2106 166.359 30.1077 167.846 31.5561 167.933C31.8331 167.403 31.7302 166.889 31.5007 166.43C30.3214 164.049 29.8465 161.541 29.5379 158.891C29.3242 157.039 29.7041 155.267 29.4983 153.519C29.245 151.375 28.7939 149.239 28.406 147.063H28.3981ZM216.903 131.09C215.874 132.032 214.948 133.139 213.785 133.875C212.566 134.643 212.257 135.624 212.614 136.794C213.397 139.389 213.096 142.063 213.492 144.745C216.096 140.568 216.223 135.742 216.903 131.098V131.09ZM87.8299 254.174C90.0301 258.597 92.9507 259.76 97.1772 257.94C93.8925 257.07 91.249 255.203 87.8299 254.174ZM217.386 74.3742C218.17 75.7824 217.639 77.9264 219.911 78.4485C221.494 78.8124 222.831 79.8567 224.288 80.6083C222.459 77.9738 220.109 75.9881 217.394 74.3742H217.386ZM58.205 122.404C57.374 126.146 56.2422 129.769 54.9204 133.345C56.8358 129.935 60.0491 126.929 58.205 122.404ZM137.479 246.232C133.482 246.366 129.818 245.203 126.018 245.227C127.293 246.366 128.694 246.619 130.3 246.564C131.844 246.508 133.506 246.437 134.899 247.323C136.094 248.091 136.775 247.687 137.479 246.232ZM55.9018 202.791C56.1472 204.776 56.8279 206.564 58.118 208.083C58.1338 207.355 57.6826 206.556 57.9043 206.034C58.759 203.977 57.0732 203.574 55.9018 202.798V202.791ZM130.704 198.795C130.751 198.59 130.799 198.384 130.846 198.178C129.169 197.767 127.491 197.355 125.385 196.833C126.984 199.056 128.852 198.89 130.704 198.787V198.795ZM70.5124 138.005C69.3173 138.749 68.4546 139.706 68.4388 141.668C69.6497 140.418 70.0929 139.215 70.5124 138.005ZM78.253 128.242C77.3508 129.081 76.5197 129.856 75.6887 130.631C76.8917 130.26 78.8308 130.687 78.253 128.242ZM208.078 202.466C208.783 201.897 209.97 202.071 210.659 201.232C210.817 201.034 210.572 200.67 210.287 200.781C209.337 201.153 208.387 201.556 207.493 202.047C207.334 202.134 207.675 202.427 208.078 202.466Z" fill="#F2F2F2"/>
<path d="M218.4 86.1858C217.861 84.5165 216.935 82.9501 216.104 81.6368C215.115 80.0862 214.007 78.583 212.93 77.1352L212.266 76.2413C211.909 75.7587 211.514 75.2998 211.126 74.8568C210.873 74.5641 210.619 74.2634 210.374 73.9628C210.073 73.5831 209.772 73.2033 209.48 72.8157C209.06 72.2698 208.625 71.7081 208.174 71.1701C207.691 70.5926 207.145 70.0467 206.567 69.5404C206.211 69.2319 205.855 68.9154 205.491 68.5989C204.406 67.6417 203.29 66.6528 202.079 65.8221C200.552 64.7778 198.937 63.8126 197.378 62.8791C196.587 62.4044 195.795 61.9376 195.019 61.455C194.687 61.2493 194.362 61.0278 194.046 60.7984C193.666 60.5373 193.278 60.2604 192.867 60.0152C191.941 59.4614 190.959 58.9313 189.954 58.425C188.973 57.9345 187.904 57.4124 186.796 56.9693C186.289 56.7636 185.791 56.55 185.292 56.3285C183.765 55.664 182.182 54.9757 180.448 54.7146C180.092 54.6592 179.839 54.5722 179.696 54.4614C177.86 53.0295 175.739 52.6418 173.365 52.3096C173.143 52.2779 172.914 52.2305 172.692 52.183C172.328 52.1039 171.956 52.0248 171.568 52.001C171.323 51.9931 171.085 51.9852 170.84 51.9852C170.515 51.9852 170.191 51.9852 169.874 52.001C169.558 52.001 169.241 52.0168 168.932 52.0168H168.465C167.872 52.0168 167.31 52.0168 166.756 51.9377C166.328 51.8744 165.909 51.8112 165.482 51.7479C163.859 51.4947 162.181 51.2415 160.487 51.2415C160.369 51.2415 160.02 51.2415 160.02 51.2415C159.68 51.2415 159.379 51.2099 159.126 51.1387C158.493 50.9726 157.844 50.8855 157.147 50.8855C156.293 50.8855 155.382 51.0121 154.29 51.2732C153.879 51.376 153.467 51.4393 153.024 51.5026C152.644 51.558 152.24 51.6213 151.852 51.7083C151.48 51.7874 151.108 51.8665 150.736 51.9456C149.549 52.1909 148.322 52.4441 147.143 52.8475C145.908 53.2747 144.713 53.8206 143.558 54.3586C143.083 54.5801 142.608 54.7937 142.133 55.0073L141.761 55.1735C141.31 55.3633 140.843 55.569 140.4 55.8143C138.627 56.819 136.64 58.1165 135.334 60.1259C135.184 60.3554 135.026 60.5927 134.867 60.8221C134.044 62.0405 133.189 63.3063 132.912 64.8885C132.857 65.1971 132.699 65.5373 132.556 65.8379C132.081 66.8347 132.026 67.8632 131.971 68.8521C131.963 69.042 131.947 69.2398 131.939 69.4296C131.923 69.7144 131.844 70.0388 131.686 70.4423C131.583 70.7192 131.44 71.0673 131.235 71.3125C130.894 71.7318 130.522 72.0878 130.142 72.3805C129.786 72.6495 129.398 72.9106 129.018 73.1638C128.274 73.6543 127.515 74.1685 126.889 74.8331C125.987 75.7903 125.346 77.0403 124.847 78.1321C123.787 80.4422 122.813 82.8314 121.871 85.1415L121.848 85.2048C121.642 85.7032 121.492 86.2174 121.341 86.7158C121.215 87.1351 121.096 87.5228 120.953 87.9104C120.732 88.5038 120.463 89.1051 120.201 89.6826C120.099 89.9199 119.988 90.1493 119.885 90.3867C119.679 90.8535 119.481 91.3202 119.275 91.7791C118.793 92.9025 118.286 94.0654 117.764 95.1888C117.36 96.0591 116.917 96.9372 116.481 97.7838C116.22 98.298 115.959 98.8043 115.706 99.3265C115.619 99.5005 115.563 99.6667 115.516 99.8328C115.476 99.9515 115.437 100.062 115.389 100.173C115.247 100.482 115.096 100.782 114.946 101.083C114.867 101.249 114.78 101.415 114.701 101.581C114.701 101.581 113.126 104.809 112.904 105.276C112.382 106.344 111.843 107.443 111.329 108.535C110.712 109.856 110.134 111.17 109.619 112.443C109.327 113.155 109.057 113.891 108.796 114.595C108.614 115.094 108.432 115.592 108.234 116.091C108.187 116.201 108.116 116.328 108.036 116.454C107.949 116.597 107.854 116.763 107.775 116.945C107.467 117.689 107.166 118.432 106.865 119.184C106.454 120.189 106.05 121.201 105.622 122.206C104.918 123.883 104.166 125.576 103.501 127.079C103.256 127.641 103.003 128.195 102.742 128.749C102.338 129.627 101.918 130.544 101.538 131.454C101.206 132.253 100.889 133.076 100.589 133.867C100.304 134.627 100.003 135.402 99.6864 136.162C99.4965 136.628 99.259 137.071 99.0137 137.546C98.8475 137.87 98.6813 138.187 98.523 138.511L97.684 140.275C96.7501 142.229 95.7924 144.247 94.8901 146.256C94.3994 147.356 93.9483 148.495 93.5209 149.595C93.2597 150.267 92.9985 150.94 92.7215 151.604C92.5553 152.008 92.3732 152.396 92.1912 152.791C92.0091 153.179 91.835 153.558 91.6688 153.954C91.2414 154.975 90.8219 155.995 90.4025 157.016C89.8484 158.376 89.2865 159.729 88.7166 161.082C88.4396 161.739 88.1309 162.403 87.8302 163.052C87.5452 163.669 87.2603 164.278 86.9991 164.903C86.6825 165.647 86.3739 166.399 86.0731 167.15C85.7802 167.886 85.4795 168.614 85.1708 169.342C84.8621 170.069 84.5297 170.789 84.2052 171.509C83.9124 172.158 83.6116 172.815 83.3267 173.471C82.9626 174.318 82.6064 175.164 82.2582 176.011C81.9812 176.667 81.7121 177.324 81.4351 177.981C81.1501 178.645 80.8652 179.302 80.5724 179.966C80.05 181.153 79.5118 182.371 79.029 183.598C78.0159 186.161 76.9395 188.89 75.9976 191.636C75.6256 192.712 75.3249 193.819 75.032 194.887C74.7709 195.836 74.5018 196.825 74.1852 197.775C73.8686 198.74 73.6945 199.697 73.6707 200.702C73.6707 200.757 73.6153 200.892 73.3462 201.216L73.1167 201.493C72.626 202.094 72.1194 202.719 71.5733 203.257C69.6579 205.156 69.5946 207.498 69.8162 209.752C69.935 210.963 70.117 212.553 70.4732 214.135C70.7106 215.188 71.1776 216.208 71.605 217.07C72.1036 218.083 72.7051 219.254 73.4728 220.298C75.5702 223.178 78.0713 226.469 81.2134 229.191C81.7042 229.618 82.1474 230.1 82.6144 230.615C83.0338 231.073 83.4691 231.556 83.944 231.983C85.7248 233.597 87.5294 235.148 89.6822 236.967L89.8088 237.078C90.8932 237.996 92.0171 238.953 93.2122 239.768C93.7504 240.14 94.2807 240.52 94.811 240.907C96.3622 242.031 97.9689 243.194 99.8052 244.001C100.549 244.325 101.246 244.752 101.982 245.195C102.567 245.551 103.177 245.923 103.81 246.239C104.902 246.785 106.074 247.181 107.205 247.569L107.443 247.648C109.437 248.336 111.495 249.04 113.561 249.649C114.701 249.981 115.872 250.266 117.004 250.535C117.724 250.709 118.444 250.883 119.157 251.065C119.6 251.184 120.035 251.318 120.471 251.453C121.191 251.682 121.935 251.912 122.702 252.046L123.225 252.141C125.164 252.489 127.174 252.853 129.216 252.853C129.398 252.853 129.588 252.853 129.77 252.845C129.849 252.845 129.921 252.845 130 252.845C130.38 252.845 130.76 252.877 131.163 252.901C131.567 252.932 131.979 252.964 132.398 252.964H132.414C132.841 252.964 133.261 252.924 133.664 252.877C133.957 252.845 134.25 252.814 134.543 252.806C134.622 252.806 134.709 252.806 134.788 252.806C134.962 252.806 135.137 252.806 135.303 252.822C135.485 252.822 135.675 252.837 135.857 252.837C135.975 252.837 136.094 252.837 136.205 252.83C137.828 252.743 139.505 252.41 141.334 251.825C142.75 251.374 144.049 250.788 145.299 250.037C145.6 249.855 145.948 249.728 146.312 249.586C146.47 249.531 146.629 249.467 146.779 249.404C148.932 248.518 150.713 247.157 152.066 245.345C153.222 243.795 154.227 242.395 155.145 241.065C155.976 239.855 156.103 238.439 156.15 237.213C156.15 237.046 156.158 236.872 156.158 236.706C157.939 235.662 159.458 234.317 160.677 232.719C161.097 232.173 161.39 231.548 161.667 230.939C161.778 230.694 161.896 230.448 162.015 230.211C162.577 229.111 163.147 228.004 163.701 226.896C163.843 226.619 163.946 226.295 164.025 225.939C164.136 225.409 164.326 224.974 164.635 224.515C164.999 223.969 165.236 223.368 165.466 222.774C165.553 222.553 165.64 222.331 165.727 222.118C165.774 222.015 165.798 221.904 165.83 221.786C165.846 221.73 165.854 221.667 165.877 221.619C166.376 220.504 168.655 215.464 168.655 215.464L168.711 215.354C168.806 215.164 168.932 214.903 168.901 214.602C168.853 214.135 169.067 213.732 169.32 213.265C169.463 213.004 169.605 212.735 169.708 212.442C170.064 211.438 170.5 210.441 170.927 209.476C171.054 209.191 171.18 208.898 171.307 208.605C171.663 207.783 172.027 206.952 172.383 206.129C173.016 204.689 173.665 203.21 174.283 201.738C174.512 201.185 174.702 200.615 174.884 200.069C175.043 199.602 175.201 199.112 175.383 198.653C175.644 198.004 175.945 197.348 176.246 196.715C176.388 196.406 176.531 196.098 176.673 195.781C176.752 195.607 176.823 195.433 176.903 195.251C176.974 195.077 177.053 194.903 177.124 194.737C177.227 194.507 177.338 194.27 177.441 194.041C177.639 193.613 177.852 193.162 178.034 192.712C178.446 191.699 178.85 190.686 179.261 189.674C179.649 188.7 180.037 187.727 180.433 186.754L180.907 185.591C181.643 183.772 182.411 181.889 183.203 180.061C183.638 179.065 184.105 178.06 184.564 177.087C184.928 176.311 185.3 175.528 185.648 174.745C185.815 174.381 185.941 174.001 186.06 173.637C186.179 173.273 186.297 172.933 186.44 172.609C186.756 171.905 187.113 171.201 187.461 170.512C187.643 170.148 187.825 169.792 187.999 169.429C189.147 167.079 190.294 164.737 191.442 162.387L191.695 161.873C192.202 160.837 192.724 159.769 193.207 158.693L193.286 158.527C194.054 156.834 194.845 155.085 195.573 153.337C196.436 151.233 197.291 149.089 198.106 147.008L198.834 145.172C199.024 144.69 199.206 144.207 199.388 143.725C199.681 142.949 199.99 142.15 200.314 141.375C200.591 140.726 200.9 140.078 201.201 139.453C201.422 139.002 201.636 138.543 201.842 138.084C202.166 137.356 202.491 136.628 202.807 135.9C203.021 135.41 203.235 134.919 203.456 134.421C203.599 134.097 203.749 133.772 203.9 133.448C204.09 133.044 204.272 132.633 204.454 132.222C204.683 131.692 204.905 131.162 205.127 130.624C205.53 129.651 205.958 128.638 206.417 127.673C206.804 126.866 207.232 126.059 207.651 125.276C208.071 124.492 208.506 123.677 208.902 122.855C210.002 120.552 211.11 118.14 212.281 115.473C212.574 114.817 212.788 114.073 212.986 113.06C213.223 111.858 213.382 110.75 213.469 109.667C213.516 109.073 213.477 108.488 213.437 107.918C213.421 107.744 213.413 107.57 213.405 107.388C213.366 106.692 213.524 106.375 214.07 106.027C216.935 104.208 218.669 102.08 219.373 99.5163C219.848 97.7917 219.911 95.9246 219.911 94.1683C219.911 91.1778 219.12 88.3139 218.423 86.1621L218.4 86.1858ZM191.782 152.324C191.434 153.147 191.086 153.97 190.738 154.793C190.571 155.196 190.405 155.608 190.247 156.011C189.962 156.731 189.669 157.482 189.337 158.195C188.98 158.97 188.585 159.753 188.205 160.513C187.872 161.169 187.548 161.834 187.231 162.498C186.788 163.44 186.361 164.397 185.933 165.346C185.68 165.916 185.427 166.486 185.166 167.047C184.382 168.764 183.598 170.481 182.807 172.198C182.664 172.498 182.514 172.799 182.364 173.099C182.213 173.4 182.063 173.709 181.921 174.009C181.651 174.587 181.39 175.164 181.129 175.742C180.963 176.106 180.797 176.478 180.63 176.841C180.464 177.213 180.29 177.585 180.116 177.957C179.768 178.701 179.412 179.468 179.087 180.235C178.747 181.042 178.414 181.857 178.082 182.664C177.686 183.637 177.282 184.642 176.855 185.623C176.095 187.363 175.288 189.12 174.496 190.821L174.243 191.375C174.014 191.873 173.768 192.356 173.523 192.846C173.349 193.194 173.175 193.542 173.009 193.89C172.937 194.033 172.898 194.175 172.866 194.302C172.842 194.373 172.826 194.444 172.795 194.515C172.692 194.776 172.581 195.037 172.478 195.299C172.193 196.003 171.9 196.73 171.584 197.419C171.378 197.854 171.149 198.297 170.919 198.716C170.642 199.238 170.349 199.784 170.104 200.346C169.209 202.403 168.283 204.61 167.191 207.316C166.788 208.305 166.416 209.325 166.059 210.306L165.687 211.319C165.592 211.58 165.497 211.841 165.41 212.102C165.284 212.474 165.149 212.846 165.007 213.21C164.92 213.431 164.809 213.637 164.706 213.851C164.587 214.088 164.469 214.317 164.374 214.563C163.986 215.528 163.59 216.556 163.123 217.798C162.893 218.4 162.68 219.009 162.458 219.618C162.189 220.369 161.912 221.113 161.627 221.857C161.271 222.798 160.883 223.732 160.479 224.697C160.416 224.847 160.337 224.998 160.258 225.14C160.171 225.298 160.084 225.456 160.013 225.623C159.878 225.923 159.759 226.224 159.633 226.532C159.403 227.11 159.181 227.664 158.889 228.17C158.327 229.175 157.654 230.203 156.894 231.232C156.332 231.991 155.786 232.577 155.232 233.012C154.908 233.265 154.567 233.502 154.211 233.747C153.15 234.475 152.05 235.235 151.433 236.572C151.417 236.588 151.385 236.603 151.346 236.627C149.953 237.529 149.312 238.914 148.687 240.258L148.647 240.353C148.512 240.638 148.394 240.733 148.022 240.828C147.792 240.883 147.555 240.939 147.325 240.986C146.296 241.216 145.236 241.453 144.405 242.078C143.518 242.743 142.624 242.893 141.46 243.035C141.025 243.091 140.582 243.138 140.147 243.186C139.086 243.296 137.994 243.415 136.917 243.613C136.577 243.676 136.245 243.747 135.904 243.819C135.097 243.993 134.337 244.159 133.546 244.159C133.411 244.159 133.277 244.159 133.134 244.143C132.976 244.127 132.817 244.127 132.667 244.127C132.161 244.127 131.654 244.182 131.163 244.238C130.681 244.293 130.221 244.341 129.762 244.341C129.303 244.341 128.9 244.285 128.528 244.175C128.013 244.016 127.491 243.945 126.976 243.882C126.612 243.834 126.264 243.787 125.932 243.716C125.037 243.518 124.143 243.296 123.249 243.075C122.425 242.877 121.594 242.671 120.763 242.482C120.201 242.355 119.632 242.244 119.062 242.141C118.579 242.054 118.096 241.959 117.621 241.857C117.123 241.746 116.671 241.611 116.26 241.437C114.139 240.559 112.413 239.831 110.846 239.151C109.406 238.526 107.942 237.861 106.533 237.221L105.654 236.825C105.037 236.54 104.419 236.255 103.802 235.963L102.995 235.591C102.71 235.456 102.425 235.338 102.14 235.211C101.507 234.934 100.905 234.673 100.351 234.341C99.3224 233.716 98.246 232.98 96.9638 232.015C96.3781 231.572 95.7845 231.137 95.1909 230.71C93.1093 229.191 90.9486 227.616 89.1757 225.686C89.0886 225.591 88.9857 225.504 88.8828 225.425L88.7958 225.354L87.8935 224.586C87.0387 223.858 86.1918 223.123 85.337 222.403C85.155 222.252 84.965 222.102 84.783 221.96C84.4506 221.706 84.1419 221.469 83.8965 221.192L83.7778 221.058C82.369 219.468 80.9127 217.822 79.583 216.129C78.6253 214.903 77.9842 213.858 77.5648 212.838L77.5331 212.759C77.1848 211.904 76.8208 211.018 76.2588 210.211C75.3724 208.922 75.1982 207.862 75.689 206.77C76.6071 204.721 76.8762 202.537 77.1294 200.425C77.169 200.117 77.2007 199.808 77.2403 199.507C77.4065 198.218 77.7468 196.944 78.3483 195.362C78.8074 194.151 79.2506 192.917 79.678 191.723L80.0579 190.67C80.2162 190.227 80.3587 189.784 80.509 189.341C80.8019 188.447 81.1106 187.514 81.5142 186.675C82.092 185.473 82.6144 184.223 83.1288 183.02C83.5087 182.118 83.9045 181.177 84.316 180.275C85.0521 178.653 85.709 176.976 86.3501 175.354C86.5955 174.737 86.8329 174.12 87.0862 173.503C87.2682 173.052 87.4423 172.593 87.6086 172.142C87.8618 171.478 88.123 170.781 88.4079 170.125C88.6929 169.46 89.0095 168.788 89.3181 168.139C89.6426 167.443 89.983 166.723 90.2916 166.003C90.5766 165.338 90.8378 164.65 91.091 163.986C91.3601 163.289 91.6372 162.562 91.9379 161.865C92.4286 160.726 92.9431 159.595 93.4575 158.463C93.9324 157.411 94.4152 156.367 94.8743 155.307C95.2779 154.381 95.6657 153.432 96.0457 152.514C96.3702 151.723 96.6947 150.932 97.0271 150.141C97.3437 149.405 97.6761 148.669 98.0164 147.941C98.2697 147.388 98.5309 146.826 98.7762 146.272C99.0533 145.639 99.3303 144.998 99.5994 144.366C99.8764 143.717 100.153 143.076 100.438 142.435C100.652 141.96 100.882 141.494 101.103 141.027L101.388 140.449C101.626 139.951 101.871 139.461 102.116 138.962C102.654 137.886 103.201 136.771 103.699 135.647C104.182 134.556 104.641 133.432 105.084 132.348C105.464 131.423 105.844 130.497 106.24 129.579C106.541 128.883 106.881 128.179 107.205 127.499C107.506 126.882 107.799 126.264 108.076 125.639C108.274 125.189 108.448 124.73 108.606 124.279C108.757 123.875 108.907 123.456 109.073 123.068C109.342 122.443 109.627 121.826 109.912 121.209C110.332 120.307 110.759 119.374 111.139 118.432C111.337 117.95 111.511 117.459 111.685 116.969C112.089 115.845 112.477 114.777 113.07 113.78C113.458 113.132 113.719 112.428 113.973 111.739C114.091 111.423 114.21 111.106 114.337 110.79L114.819 109.643C115.35 108.377 115.896 107.072 116.458 105.806C116.679 105.307 116.941 104.809 117.194 104.326C117.36 104.01 117.526 103.694 117.685 103.377C117.78 103.187 117.843 103.005 117.906 102.823C117.946 102.72 117.977 102.618 118.017 102.515L118.088 102.341C118.246 101.945 118.405 101.55 118.587 101.162C118.642 101.035 118.713 100.917 118.785 100.798C118.88 100.632 118.983 100.466 119.054 100.292C119.394 99.5163 119.727 98.741 120.067 97.9657C120.352 97.3012 120.645 96.6287 120.937 95.9642C121.096 95.6082 121.254 95.2601 121.412 94.912C121.65 94.3977 121.887 93.8756 122.109 93.3534C122.307 92.8867 122.481 92.412 122.655 91.9373C122.805 91.5259 122.964 91.1066 123.13 90.7031C123.367 90.1256 123.613 89.5481 123.866 88.9706C124.095 88.4405 124.317 87.9184 124.539 87.3883C124.8 86.7554 125.029 86.1146 125.267 85.4579C125.393 85.1098 125.512 84.7538 125.623 84.3978C125.853 83.7016 126.066 83.0371 126.359 82.4042C127.079 80.814 127.807 79.2713 128.678 77.8631C129.272 76.89 130.126 76.0198 130.95 75.2128C131.29 74.8805 131.725 74.6115 132.184 74.3267C132.224 74.303 132.263 74.2793 132.303 74.2555C132.319 74.303 132.327 74.3584 132.343 74.4058C132.667 76.1384 132.992 77.9264 133.767 79.6748C134.622 81.613 135.596 83.2428 136.743 84.6668C137.448 85.5371 138.144 86.4231 138.841 87.3013C139.687 88.3693 140.534 89.4452 141.405 90.5054L141.722 90.893C142.592 91.961 143.487 93.0686 144.5 94.0417C145.924 95.4104 147.499 96.6841 148.892 97.7996C149.905 98.6144 150.99 99.3977 152.114 100.11C152.541 100.387 153 100.6 153.443 100.814C153.894 101.027 154.314 101.225 154.702 101.478C154.979 101.66 155.248 101.842 155.517 102.032C156.443 102.681 157.401 103.345 158.588 103.654L158.62 103.678C158.675 103.717 158.746 103.773 158.833 103.82C159.276 104.034 159.712 104.247 160.147 104.461C161.279 105.015 162.45 105.584 163.622 106.114C164.627 106.573 165.664 106.993 166.669 107.396L168.339 108.068C169.756 108.646 171.228 109.247 172.692 109.793C173.475 110.086 174.283 110.331 175.066 110.568C175.494 110.695 175.929 110.829 176.356 110.964C176.649 111.059 176.942 111.17 177.227 111.273C177.797 111.486 178.391 111.708 179.016 111.834C180.591 112.151 182.213 112.356 183.638 112.538C184.77 112.681 185.989 112.823 187.215 112.863C187.461 112.871 187.706 112.871 187.959 112.871C188.498 112.871 189.036 112.855 189.582 112.839C190.104 112.823 190.627 112.807 191.149 112.807C194.141 112.807 197.22 112.293 200.829 111.201C202.261 110.766 203.567 110.386 204.913 110.133L205.221 110.078C206.899 109.769 208.625 109.445 210.287 108.551C210.271 109.026 210.263 109.485 210.271 109.936C210.311 112.499 209.393 114.817 208.577 116.541C207.628 118.559 206.607 120.592 205.617 122.554C205.237 123.314 204.857 124.065 204.477 124.825C204.169 125.442 203.852 126.067 203.536 126.684C202.982 127.768 202.412 128.883 201.881 130.007C200.971 131.913 200.077 133.867 199.206 135.758L198.668 136.937C197.869 138.677 197.077 140.426 196.286 142.166L195.004 144.975C194.513 146.043 194.03 147.111 193.555 148.179C193.152 149.096 192.756 150.022 192.368 150.948L191.751 152.396L191.782 152.324ZM139.949 248.099C139.751 248.13 139.553 248.162 139.363 248.201C139.126 248.249 138.888 248.32 138.651 248.383C138.215 248.502 137.812 248.613 137.424 248.621C136.664 248.637 135.912 248.716 135.184 248.795C134.416 248.882 133.633 248.969 132.857 248.969C132.667 248.969 132.469 248.969 132.279 248.953C131.519 248.906 130.76 248.898 130.016 248.89C128.67 248.874 127.285 248.866 125.955 248.613C125.124 248.455 124.27 248.32 123.454 248.194C121.761 247.932 120.004 247.663 118.341 247.133C117.803 246.967 117.249 246.849 116.711 246.738C116.252 246.643 115.825 246.556 115.397 246.437C114.289 246.121 113.134 245.749 111.954 245.322C110.538 244.807 109.129 244.262 107.752 243.692C106.92 243.344 106.082 242.956 105.274 242.576L104.53 242.228L103.992 241.983C103.359 241.698 102.71 241.398 102.1 241.065C101.594 240.789 101.079 240.488 100.581 240.195C100.09 239.902 99.5915 239.61 99.0928 239.341C96.9558 238.186 95.3175 237.102 93.9324 235.939C92.7452 234.942 91.5184 233.961 90.3233 233.02L89.7614 232.569C89.3102 232.213 88.8512 231.857 88.3921 231.509C87.5927 230.899 86.7696 230.274 86.0098 229.61C85.4953 229.167 85.0363 228.668 84.5535 228.138C84.2448 227.806 83.9361 227.466 83.6116 227.149C83.0655 226.604 82.4877 226.073 81.9258 225.559C80.2479 224.009 78.657 222.537 77.5489 220.599C77.4381 220.409 77.2957 220.267 77.169 220.148C77.1057 220.085 77.0345 220.029 76.987 219.958C76.7495 219.634 76.5042 219.309 76.2588 218.985C75.6098 218.123 74.9371 217.237 74.383 216.319C74.0585 215.789 73.8527 215.164 73.6391 214.507C73.5599 214.254 73.4728 214.009 73.3858 213.764C73.2433 213.376 73.085 212.933 73.0217 212.498C72.9584 212.078 72.9109 211.651 72.8713 211.224C72.8159 210.678 72.7605 210.116 72.6576 209.563C72.4914 208.669 72.5389 207.909 72.8159 207.253C72.7051 208.684 73.0534 210.148 73.8607 211.667C74.0506 212.015 74.2485 212.363 74.4464 212.711C74.66 213.083 74.8737 213.463 75.0716 213.851C75.1983 214.096 75.3091 214.357 75.4199 214.61C75.6019 215.037 75.7998 215.48 76.061 215.884C76.7812 216.983 77.5331 218.083 78.2613 219.143C78.8944 220.069 79.5276 221.002 80.1529 221.936C81.2372 223.566 82.6539 225.164 84.6168 226.96C85.9148 228.154 87.3157 229.27 88.6691 230.346C89.2232 230.789 89.7772 231.232 90.3312 231.683C90.7111 231.991 91.091 232.308 91.4709 232.616C92.5473 233.502 93.6633 234.42 94.7951 235.29C95.9823 236.2 97.0587 236.999 98.2539 237.632C98.5071 237.766 98.7604 237.893 99.0137 238.027C100.185 238.637 101.293 239.214 102.33 239.966C102.52 240.1 102.726 240.187 102.9 240.258C102.979 240.29 103.05 240.322 103.129 240.353C103.58 240.575 104.024 240.796 104.467 241.018C105.44 241.508 106.454 242.023 107.482 242.466C108.915 243.083 110.609 243.787 112.358 244.325C114.78 245.069 117.265 245.709 119.671 246.319C121.127 246.69 122.607 247.015 124.048 247.331L124.95 247.529C125.694 247.695 126.272 247.79 126.818 247.838C127.523 247.901 128.219 247.948 128.923 247.996C129.39 248.027 129.865 248.059 130.332 248.099C130.459 248.107 130.586 248.138 130.704 248.162C130.902 248.201 131.124 248.241 131.361 248.241C131.361 248.241 131.899 248.225 132.129 248.217C133.031 248.186 133.965 248.154 134.875 248.004C135.129 247.964 135.382 247.917 135.635 247.877C137.099 247.632 138.619 247.387 140.004 246.809C140.685 246.524 141.397 246.413 142.149 246.287C142.917 246.16 143.708 246.034 144.484 245.717C145.434 245.322 146.431 244.966 147.389 244.626C147.776 244.483 148.164 244.349 148.552 244.206C148.481 244.293 148.402 244.38 148.322 244.467C148.172 244.626 148.045 244.8 147.911 244.982C147.586 245.417 147.365 245.694 146.985 245.788C146.85 245.82 146.708 245.844 146.565 245.868C146.32 245.907 146.067 245.947 145.806 246.042C145.062 246.311 144.326 246.595 143.589 246.88C142.671 247.228 141.761 247.576 140.843 247.909C140.582 248.004 140.281 248.051 139.957 248.099H139.949ZM136.458 73.7413C137.076 75.3868 137.645 77.0878 138.2 78.7333L138.524 79.6985C138.92 80.8615 139.458 81.977 140.21 83.1637C139.608 82.3567 138.983 81.5418 138.31 80.7665C137.519 79.8488 137.115 78.7808 136.696 77.6495L136.537 77.2223C135.983 75.7587 135.667 74.1527 135.358 72.5942L135.263 72.1353C134.859 70.0942 135.089 68.0689 135.944 66.1069C135.888 66.455 135.888 66.7873 135.88 67.1116C135.88 67.3806 135.881 67.6338 135.841 67.879C135.556 69.9755 135.746 71.898 136.435 73.7492L136.458 73.7413ZM177.813 57.713C177.955 57.8396 178.098 57.9741 178.24 58.0927C179.467 59.1528 180.44 60.4978 181.303 61.7873C181.62 62.2541 181.921 62.7604 182.213 63.243C182.617 63.9155 183.036 64.6116 183.511 65.2604L183.709 65.5214C184.722 66.9059 185.68 68.2113 186.345 69.7382C186.535 70.1733 186.78 70.5926 187.018 70.9803C187.231 71.3363 187.461 71.6764 187.69 72.0245C188.118 72.6812 188.529 73.2983 188.87 73.9628C189.234 74.6827 189.574 75.4343 189.899 76.1622C190.334 77.1432 190.785 78.1558 191.323 79.1131C192.004 80.3235 191.853 81.4548 191.371 82.958C191.363 82.9738 191.339 82.9975 191.339 82.9975C190.896 83.1399 190.46 83.2823 190.025 83.4247C188.862 83.8124 187.659 84.208 186.456 84.4611C185.403 84.6826 184.287 84.7697 183.211 84.8646C182.712 84.9041 182.221 84.9437 181.731 84.9991L181.256 85.0466V85.0703C181.184 85.0703 181.105 85.0703 181.034 85.0782C180.773 85.0861 180.512 85.1019 180.251 85.1019C179.95 85.1019 179.696 85.0861 179.467 85.0545C178.834 84.9674 178.216 84.8092 177.567 84.6352C177.298 84.564 177.029 84.4928 176.752 84.4295C176.246 84.3029 175.897 84.1051 175.581 83.7649C174.14 82.2222 172.921 80.7032 171.845 79.1289C171.022 77.9264 170.072 76.803 169.154 75.7112C168.703 75.1732 168.252 74.6432 167.816 74.0973L167.326 73.496C166.59 72.5862 165.83 71.6527 165.157 70.6875C164.777 70.1496 164.437 69.485 164.081 68.591C163.281 66.5974 162.577 64.7303 161.928 62.8949C161.778 62.4756 161.73 61.9772 161.793 61.5737C162.157 59.3665 163.637 58.0453 164.809 57.3253C166.685 56.1703 168.845 55.5848 171.228 55.5848C172.011 55.5848 172.834 55.6481 173.673 55.7747C174.623 55.9171 175.557 56.2098 176.38 56.6054C176.895 56.8586 177.354 57.27 177.844 57.713H177.813ZM199.365 108.266C199.167 108.33 198.937 108.345 198.684 108.361C198.336 108.385 197.948 108.417 197.584 108.575C196.397 109.089 195.146 109.113 193.832 109.136H193.405C191.592 109.184 189.906 109.216 188.252 109.216H187.667C187.437 109.224 187.2 109.224 186.97 109.224C186.511 109.224 185.91 109.216 185.332 109.129C184.105 108.947 182.854 108.686 181.643 108.44C181.279 108.361 180.907 108.29 180.543 108.211C180.258 108.155 179.966 108.1 179.673 108.045C178.826 107.887 177.955 107.72 177.14 107.459C175.517 106.945 173.903 106.304 172.344 105.695C171.695 105.442 171.038 105.141 170.405 104.856C169.977 104.659 169.55 104.469 169.114 104.287C168.885 104.192 168.663 104.089 168.434 103.978C167.777 103.678 167.104 103.369 166.376 103.211C165.173 102.95 164.136 102.356 163.036 101.731L162.126 101.217C161.611 100.932 161.081 100.632 160.543 100.371C160.044 100.133 159.546 99.904 159.039 99.6746C158.35 99.3581 157.638 99.0417 156.957 98.6856C156.19 98.2901 155.438 97.7996 154.718 97.317L154.583 97.23C154.235 97.0005 153.887 96.779 153.546 96.5575C152.422 95.8297 151.267 95.086 150.206 94.2632C149.715 93.8914 149.288 93.4405 148.829 92.9658C148.378 92.499 147.911 92.0085 147.373 91.5892C146.296 90.7506 145.457 89.7063 144.579 88.5987C144.452 88.4405 144.326 88.2823 144.199 88.1241C145.046 88.9785 145.948 89.8012 146.929 90.6003C147.365 90.9563 147.816 91.2807 148.259 91.5892C148.861 92.0164 149.431 92.4199 149.945 92.8946C151.132 93.9863 152.494 94.7854 153.807 95.5607C154.251 95.8218 154.686 96.0749 155.121 96.3439C155.929 96.8423 156.76 97.3091 157.567 97.76C158.335 98.1872 159.134 98.6303 159.894 99.097C162.427 100.663 164.761 101.803 167.033 102.586C168.086 102.95 169.146 103.353 170.175 103.741C170.737 103.955 171.299 104.168 171.861 104.374C172.082 104.453 172.296 104.508 172.51 104.556C172.51 104.556 173.341 104.746 173.697 104.833C174.338 104.983 174.979 105.125 175.612 105.284C176.871 105.6 178.121 105.932 179.38 106.265C179.696 106.352 180.005 106.439 180.314 106.534C180.686 106.644 181.05 106.747 181.422 106.842L181.968 106.985C182.87 107.222 183.796 107.459 184.73 107.649C185.498 107.799 186.282 107.886 187.041 107.966L187.413 108.005C187.944 108.061 188.474 108.132 189.004 108.203C190.255 108.369 191.545 108.543 192.827 108.543H193.033C195.035 108.511 197.164 108.306 199.737 107.886C200.227 107.807 200.71 107.72 201.201 107.618C200.599 107.839 199.982 108.053 199.365 108.243V108.266ZM204.018 103.749C203.733 103.852 203.472 103.947 203.219 103.978C201.984 104.152 200.718 104.311 199.491 104.461L198.13 104.627C197.9 104.659 197.671 104.698 197.441 104.738C197.069 104.809 196.729 104.872 196.404 104.872C196.325 104.872 196.238 104.872 196.159 104.856C195.755 104.809 195.328 104.785 194.814 104.785C194.457 104.785 194.093 104.793 193.737 104.809C193.389 104.817 193.041 104.833 192.692 104.833C192.004 104.833 191.474 104.785 190.975 104.69C190.136 104.516 189.273 104.461 188.442 104.406C187.809 104.366 187.16 104.318 186.535 104.231L185.609 104.097C183.401 103.773 181.121 103.44 178.968 102.744C178.288 102.523 177.544 102.317 176.626 102.095C176.238 102 175.842 101.921 175.446 101.842C174.789 101.708 174.172 101.589 173.57 101.391C172.605 101.075 171.631 100.687 170.689 100.307C170.302 100.149 169.914 99.9989 169.526 99.8407L168.742 99.5401C167.634 99.1129 166.495 98.6777 165.418 98.1398C165.165 98.0132 164.896 97.9103 164.643 97.8154C164.35 97.7046 164.065 97.5939 163.812 97.4515C162.474 96.6999 161.144 95.9325 159.815 95.1651C158.936 94.6588 158.058 94.1525 157.171 93.6461C156.894 93.4879 156.601 93.3455 156.308 93.2031C155.826 92.9658 155.367 92.7363 154.971 92.4436C153.34 91.2095 151.765 89.8883 150.444 88.7649C148.876 87.4279 147.286 86.0355 145.726 84.6114C144.08 83.1162 142.695 81.1937 141.5 78.7254C141.207 78.1242 140.93 77.515 140.645 76.9137C140.329 76.2254 140.012 75.5372 139.68 74.8647C139.126 73.7492 138.801 72.8473 138.912 71.8188C138.943 71.4945 138.912 71.1939 138.888 70.9011C138.872 70.7192 138.849 70.5372 138.849 70.3473C138.849 70.1258 138.849 69.9043 138.841 69.6749C138.825 69.0736 138.817 68.504 138.936 67.9898C139.466 65.8142 140.495 64.137 142.07 62.8712C144.088 61.2573 146.344 60.0706 148.956 59.2636C149.486 59.0975 150.016 58.9076 150.523 58.7177C150.816 58.607 151.108 58.5041 151.409 58.4013L151.631 58.3222C151.876 58.2351 152.114 58.1481 152.327 58.1165C153.728 57.9187 155.216 57.7288 157.163 57.4994C157.622 57.444 158.042 57.4203 158.445 57.4203C159.015 57.4203 159.561 57.4756 160.092 57.5785C160.005 57.8 159.925 57.9978 159.83 58.1718C158.778 60.1497 158.469 62.0405 158.873 63.955C159.142 65.205 159.458 66.2968 159.846 67.2778C159.997 67.6496 160.123 68.0372 160.258 68.417C160.638 69.5246 161.041 70.6796 161.817 71.6923C162.11 72.072 162.363 72.4913 162.632 72.9343C162.901 73.3853 163.186 73.8521 163.519 74.2872C164.928 76.1068 166.392 77.9264 167.809 79.6906L168.837 80.9722C169.114 81.3203 169.407 81.6605 169.708 82.0007C169.558 82.0719 169.407 82.1668 169.281 82.2934C168.323 83.2349 167.326 84.2633 166.233 85.4421C166.012 85.6795 165.901 85.9643 165.798 86.2174L165.735 86.3757C165.189 87.6494 165.276 88.9231 165.442 89.999L165.513 90.4658C165.711 91.8265 165.909 93.2268 166.811 94.4531C168.173 96.3043 169.93 97.6967 171.473 98.8201C173.183 100.062 175.074 100.845 177.385 101.629C177.821 101.779 178.264 101.913 178.707 102.056C179.198 102.206 179.689 102.364 180.171 102.531C182.506 103.345 185.126 103.796 188.173 103.923C188.672 103.947 189.17 103.97 189.669 103.994C190.777 104.05 191.917 104.113 193.049 104.113C193.199 104.113 193.737 104.113 193.737 104.113C194.988 104.097 196.278 104.081 197.425 103.622C199.681 102.72 201.976 101.573 203.52 99.2632C204.153 98.3059 204.778 97.2695 204.842 96.0037C204.929 94.192 204.62 92.7126 203.884 91.4784C203.227 90.3867 202.451 89.1209 201.509 88.037C200.568 86.9532 199.444 85.8852 198.162 84.8567C197.307 84.1684 196.381 83.5671 195.486 82.9817C195.201 82.7997 194.916 82.6099 194.639 82.42C194.663 82.3409 194.687 82.2618 194.711 82.1906C194.845 81.7317 194.988 81.257 194.916 80.7744C194.734 79.5403 194.45 78.2903 194.054 77.064C193.349 74.8726 192.257 72.879 191.11 70.8695C190.492 69.7856 189.954 68.9075 189.424 68.1243C188.735 67.1037 188.023 66.1069 187.318 65.1021C187.057 64.7303 186.796 64.3585 186.535 63.9867C186.843 64.1607 187.144 64.3348 187.453 64.5088C189.123 65.4582 190.84 66.4312 192.566 67.3569C194.703 68.504 196.721 69.928 198.676 71.2967L199 71.5261C199.151 71.629 199.301 71.7239 199.452 71.8268C199.697 71.985 199.927 72.1353 200.132 72.3014C200.821 72.8869 201.549 73.5198 202.206 74.1843C203.718 75.727 205.198 77.2381 206.607 78.7966C207.556 79.8488 208.474 80.9722 209.321 82.1352C209.472 82.3409 209.622 82.5387 209.772 82.7444C210.524 83.7491 211.292 84.7934 211.775 85.901C212.733 88.1082 213.461 90.4104 214.094 92.5781C214.458 93.8044 214.284 95.0306 213.603 96.1066L212.725 97.491C212.305 98.1556 211.878 98.8201 211.458 99.4926C210.635 100.798 209.361 101.66 208.229 102.364C207.43 102.863 206.551 103.076 205.617 103.306C205.237 103.401 204.865 103.496 204.493 103.606C204.335 103.654 204.169 103.709 204.011 103.773L204.018 103.749ZM161.841 54.8254C161.635 54.9836 161.508 55.0152 161.382 55.0152C161.311 55.0152 161.231 55.0073 161.136 54.9836L160.939 54.9361C160.115 54.7383 159.261 54.5326 158.382 54.5247H158.129C156.942 54.5247 155.746 54.6197 154.575 54.8095C152.501 55.1418 150.665 55.5136 148.964 55.9409C147.784 56.2415 146.565 56.6845 145.362 57.2541C143.969 57.9187 142.537 58.7098 141.128 59.5959C140.439 60.031 139.862 60.6006 139.3 61.1544L138.817 61.6291C138.651 61.7873 138.492 61.9455 138.326 62.1117C138.326 62.0721 138.334 62.0246 138.342 61.9851C138.627 61.7161 138.904 61.4392 139.181 61.1702C139.83 60.5294 140.439 59.9202 141.128 59.406C142.925 58.069 144.515 57.1275 146.122 56.4472C149.415 55.0469 152.525 54.3665 155.62 54.3665H155.936C156.269 54.3665 156.593 54.3902 156.918 54.4061C157.337 54.4219 157.757 54.4456 158.176 54.4456H158.343C159.561 54.4298 160.772 54.4061 161.991 54.3744C162.165 54.3744 162.347 54.3665 162.521 54.3665C162.284 54.5168 162.055 54.6671 161.833 54.8333L161.841 54.8254ZM212.638 102.752C213.405 101.913 214.015 100.94 214.608 100.007C214.806 99.6904 215.012 99.366 215.218 99.0575C216.579 97.0005 217.07 94.6667 216.69 92.1193C216.476 90.719 216.128 89.2949 215.637 87.8788C214.996 86.0196 214.292 84.382 213.516 82.9184C214.141 83.8361 214.727 84.7143 215.107 85.6715C215.859 87.5623 216.31 89.6351 216.745 91.6367L216.793 91.8661C216.959 92.6335 216.983 93.4325 216.999 94.279C217.007 94.5955 217.014 94.904 217.03 95.2205C217.157 97.6493 216.215 99.7932 214.228 101.597C214.054 101.755 213.88 101.921 213.706 102.088C213.065 102.697 212.456 103.274 211.712 103.662C212.036 103.377 212.345 103.076 212.63 102.76L212.638 102.752Z" fill="black"/>
<path d="M177.18 68.3062C177.117 68.3141 177.053 68.33 176.99 68.3458C176.919 68.3616 176.84 68.3774 176.784 68.3774C176.586 68.3616 176.381 68.3458 176.183 68.3458C175.241 68.3458 174.331 68.5436 173.46 68.7413C172.874 68.8679 172.32 68.9945 171.758 69.0578C171.624 69.0736 171.489 69.1132 171.355 69.1527C171.26 69.1844 171.165 69.2081 171.101 69.2081C170.152 69.2556 169.265 69.8806 168.775 70.822C168.284 71.7793 168.3 72.8473 168.822 73.6701L169.178 74.2318C170.057 75.6163 170.967 77.0482 171.996 78.3615C173.088 79.7539 174.315 81.0593 175.51 82.3251L175.937 82.776C176.816 83.7095 177.963 84.1447 179.562 84.1447C179.744 84.1447 179.926 84.1447 180.116 84.1288H180.156L181.755 83.7728C183.084 83.4801 184.438 83.1795 185.791 82.8947C186.591 82.7206 187.327 82.5861 188.031 82.4833C188.83 82.3646 189.487 81.9849 189.875 81.4074C190.263 80.8298 190.366 80.1099 190.176 79.3188C189.994 78.5593 189.733 77.8789 189.408 77.2776L189.139 76.7792C188.245 75.1337 187.319 73.4328 186.282 71.8268C185.791 71.0752 185.205 70.4027 184.628 69.7461C184.303 69.3743 183.971 68.9945 183.662 68.6148C183.061 67.8632 182.261 67.7762 181.707 67.7762C181.525 67.7762 181.343 67.7841 181.169 67.7999H180.939C180.037 67.8474 179.143 68.0056 178.272 68.148C177.908 68.2113 177.552 68.2746 177.188 68.3221L177.18 68.3062ZM187.295 79.6194C186.915 79.651 186.559 79.6748 186.195 79.7618C184.43 80.1653 182.53 80.6162 180.227 81.1858C179.768 81.2966 179.38 81.352 179.048 81.352C178.217 81.352 177.647 81.0118 176.95 80.0941C176.626 79.6669 176.294 79.2476 175.961 78.8283C175.32 78.0134 174.655 77.1827 174.077 76.3204C173.444 75.371 172.874 74.3742 172.273 73.3141C172.107 73.0135 171.932 72.7128 171.75 72.4043C174.679 71.6211 177.528 71.0989 180.536 70.5451C181.027 70.4581 181.517 70.3632 182.016 70.2682C182.419 70.9407 182.823 71.6132 183.227 72.2777C184.359 74.1606 185.538 76.1068 186.646 78.045L186.757 78.2349C187.026 78.6938 187.279 79.1368 187.35 79.6115C187.335 79.6115 187.319 79.6115 187.303 79.6115L187.295 79.6194Z" fill="black"/>
<path d="M164.453 60.5452C163.899 61.5658 163.78 62.6655 164.081 64.0183C164.39 65.4344 165.236 66.4945 166.099 67.4281C166.416 67.7683 166.883 67.8711 167.302 67.966C167.453 67.9977 167.595 68.0293 167.73 68.0768L168.252 68.2508L168.363 67.8553C168.616 67.792 168.877 67.7287 169.131 67.6654C169.898 67.4755 170.698 67.2778 171.481 67.1354C173.357 66.7952 175.28 66.4866 177.14 66.1939L177.781 66.0911C178.05 66.0515 178.327 66.0199 178.597 65.9882C179.016 65.9487 179.459 65.9012 179.895 65.7983C180.369 65.6955 180.821 65.023 180.734 64.5642C180.631 64.0341 180.472 63.3617 180.1 62.8079C179.056 61.2335 177.576 60.1813 176.151 59.232C175.842 59.0263 175.526 58.8364 175.209 58.6465C174.869 58.4408 174.536 58.2351 174.204 58.0136C173.317 57.4124 172.17 57.0959 170.888 57.0959C168.608 57.0959 165.727 58.156 164.445 60.5294L164.453 60.5452ZM167.587 61.4392C168.482 60.5452 169.59 60.0706 170.801 60.0706C171.877 60.0706 172.977 60.4503 173.982 61.1623C174.6 61.5974 175.193 62.1196 175.771 62.6259C175.771 62.6259 176.293 63.0768 176.301 63.0848L167.176 64.3743C167.136 64.3031 167.096 64.224 167.065 64.1449C166.424 62.7762 166.463 62.5705 167.587 61.4392V61.4392Z" fill="black"/>
</g>
<defs>
<clipPath id="clip0_1_839">
<rect width="300" height="294" fill="white"/>
</clipPath>
</defs>
</svg>
