<svg width="279" height="373" viewBox="0 0 279 373" fill="none" xmlns="http://www.w3.org/2000/svg">
<g clip-path="url(#clip0_1_750)">
<path d="M279 298.014C277.24 300.728 274.893 302.575 271.63 303.223C265.359 304.458 260.139 300.863 259.541 294.541C259.039 289.209 260.616 284.44 264.454 280.6C267.632 277.408 271.764 277.127 274.245 279.793C276.592 282.312 276.152 286.237 273.145 289.27C271.727 290.689 270.15 291.85 268.085 292.168C266.911 292.352 265.212 291.997 265.432 294.003C265.652 295.959 267.021 296.925 268.904 297.133C272.314 297.5 275.639 296.656 279 296.314V298.014ZM271.923 284.415C271.923 283.278 271.544 282.129 270.346 282.349C267.645 282.838 266.606 285.149 265.787 287.424C265.383 288.549 266.349 288.952 267.29 288.744C269.662 288.206 271.373 286.898 271.923 284.427V284.415Z" fill="black"/>
<path d="M229.434 346.244C236.254 344.519 242.733 343.076 249.089 341.23C254.406 339.689 254.492 339.163 252.12 334.149C251.656 333.183 251.106 332.254 250.617 331.337C249.297 331.789 249.089 332.853 248.649 333.709C247.72 335.531 246.717 337.28 244.297 337.133C241.669 336.974 240.398 335.103 239.383 332.988C239.151 332.486 239.114 331.887 238.98 331.349C237.489 325.589 237.538 325.76 231.683 327.216C228.492 328.011 227.319 329.331 228.676 332.486C229.067 333.379 229.324 334.394 229.372 335.36C229.446 336.779 228.541 337.757 227.319 338.319C226.28 338.809 225.424 338.246 224.679 337.525C221.684 334.614 216.807 334.052 213.176 336.045C210.182 337.696 206.82 337.855 204.522 335.372C202.2 332.865 201.405 334.052 199.914 335.935C197.812 338.613 195.086 340.215 191.455 339.836C189.732 339.652 188.375 339.102 187.898 337.366C187.238 334.993 189.573 335.641 190.551 334.956C191.345 334.394 192.36 334.149 193.228 333.697C195.355 332.584 195.831 331.447 193.167 330.42C189.414 328.977 186.957 326.531 186.908 322.263C186.896 321.138 186.749 320.307 185.466 320.123C184.341 319.964 183.18 319.671 182.361 320.796C181.689 321.725 181.909 322.703 182.422 323.596C183.058 324.697 183.803 325.736 184.476 326.812C188.253 332.951 183.742 341.108 176.42 341.364C175.223 341.401 173.976 341.132 173.426 340.117C172.643 338.674 174.232 338.258 175.015 337.61C177.166 335.8 180.552 335.067 181.554 332.413C182.667 329.466 179.183 327.595 178.376 324.941C177.496 322.055 176.042 319.059 179.464 316.98C182.214 315.305 185.16 314.877 187.14 318.289C188.033 319.817 188.901 318.888 189.5 318.35C190.71 317.237 192.054 316.589 193.668 316.479C195.281 316.369 197.164 316.43 197.567 318.203C198.007 320.135 196.296 320.245 194.78 320.38C193.35 320.502 192.531 321.615 192.311 322.936C192.079 324.318 193.191 324.88 194.242 325.369C196.552 326.433 198.863 327.497 201.283 328.61C201.857 327.081 202.322 325.614 202.958 324.232C205.39 318.949 210.316 317.469 215.267 320.453C216.709 321.321 216.721 322.764 217.002 324.134C217.956 328.757 218.261 329.197 222.662 332.486C221.794 328.646 222.491 325.063 222.76 321.48C222.845 320.282 223.016 318.594 224.532 318.411C226.427 318.179 226.207 319.952 226.317 321.126C226.475 322.948 227.747 323.437 228.957 322.826C232.575 320.979 236.939 323.156 240.398 320.49C241.413 319.707 242.231 320.796 242.586 321.774C242.867 322.557 242.855 323.449 243.075 324.256C243.564 326.017 241.963 328.952 244.419 329.331C246.241 329.613 246.155 326.506 247.011 324.953C247.414 324.22 247.646 323.388 247.891 322.581C248.368 321.04 248.881 319.499 250.849 319.487C252.78 319.475 253.587 320.893 253.905 322.495C254.822 327.167 257.254 331.19 259.149 335.458C261.434 340.606 260.249 344.152 255.237 346.733C250.14 349.362 244.603 350.438 238.919 350.744C235.142 350.952 232.135 349.362 229.446 346.292L229.434 346.244ZM212.333 328.072C211.037 326.788 213.225 323.156 209.497 323.205C206.784 323.241 206.221 325.553 206.233 327.778C206.233 329.833 206.735 331.924 209.302 332.022C211.636 332.107 212.345 330.444 212.333 328.059V328.072Z" fill="black"/>
<path d="M127.148 195.231C120.34 205.528 114.913 205.308 106.821 194.498C104.388 198.729 101.528 202.446 97.4086 205.027C95.6973 206.103 93.986 207.032 91.9324 207.081C90.7223 207.118 89.17 207.607 88.571 206.103C88.0087 204.696 88.5221 203.266 89.7078 202.275C90.9057 201.285 92.1769 200.38 93.4726 199.499C95.7095 197.971 97.8364 196.32 99.4621 194.143C102.151 190.535 101.809 189.496 97.6286 187.723C90.5023 184.69 88.4243 179.86 91.3579 173.183C92.7025 170.126 95.245 169.27 98.3009 169.502C99.3276 169.575 100.281 170.138 100.562 171.177C100.953 172.596 99.6821 172.669 98.8142 173.024C96.3696 174.002 95.4406 176.106 95.4284 178.429C95.4039 180.765 97.4208 181.596 99.291 182.403C105.244 184.971 105.28 184.996 106.381 178.686C106.808 176.252 107.652 174.027 109.167 172.119C111.673 168.989 114.876 168.695 118.323 170.334C121.733 171.948 122.552 174.932 121.476 178.197C120.23 181.975 118.531 185.791 114.338 187.136C110.451 188.383 112.492 190.682 113.238 192.455C114.179 194.705 115.12 197.481 118.69 196.112C125.412 193.544 127.588 189.9 126.635 182.648C126.39 180.826 126.048 179.016 125.901 177.182C125.779 175.788 125.51 174.1 126.916 173.281C128.786 172.192 128.737 174.284 129.434 175.14C129.947 175.788 130.559 175.885 131.243 175.323C131.793 174.883 132.368 174.443 132.979 174.1C139.518 170.431 141.682 170.982 145.789 177.304C146.302 178.087 146.437 179.505 147.684 179.285C148.784 179.089 148.747 177.793 149.04 176.852C149.456 175.506 149.933 174.161 150.568 172.902C151.277 171.495 152.243 169.918 154.113 170.652C155.824 171.324 156.594 172.816 156.13 174.822C155.458 177.708 154.785 180.618 154.345 183.553C153.881 186.622 153.624 189.741 153.416 192.847C153.27 195.109 153.71 197.763 150.739 198.362C147.354 199.047 146.95 196.014 146.217 193.849C144.75 189.569 143.601 185.179 142.159 180.899C140.912 177.194 138.064 176.631 135.252 179.456C133.211 181.511 132.551 184.079 132.881 186.891C133.064 188.432 133.504 189.936 133.834 191.465C134.299 193.666 135.216 196.063 132.661 197.567C130.131 199.047 128.884 196.687 127.173 195.231H127.148ZM111.563 181.119C111.661 181.975 111.319 183.577 112.663 183.259C115.78 182.513 116.868 179.786 117.492 176.962C117.809 175.519 117.272 174.259 115.56 174.528C111.747 175.115 112.297 178.49 111.551 181.132L111.563 181.119Z" fill="black"/>
<path d="M97.0178 77.1142C97.0422 89.5386 87.6913 102.012 76.3968 105.032C72.9987 105.937 69.4784 106.463 65.9947 106.952C63.66 107.282 61.6798 106.267 60.9097 104.005C60.2008 101.902 61.0809 100.092 63.1588 99.1137C64.9557 98.2699 64.8335 96.6924 64.9312 95.1393C65.5302 85.2585 65.6035 75.3288 68.2193 65.6804C68.6472 64.1151 68.8061 62.9411 66.667 62.6966C65.7013 62.5865 64.6379 62.0729 64.6501 60.8623C64.6501 59.7739 65.4691 59.1869 66.4469 58.7222C68.2193 57.8785 70.0284 57.0347 71.6297 55.8974C73.8177 54.3566 75.6756 53.7085 78.5848 54.6379C82.2519 55.8118 86.5789 55.1148 89.3903 58.5388C93.9864 64.1273 97.25 70.2906 97.0178 77.1142V77.1142ZM78.5237 80.0736C78.5237 83.7544 78.5115 87.4352 78.5237 91.1283C78.5237 91.9354 78.2426 92.9749 79.1715 93.4151C80.1127 93.8675 80.7239 93.0115 81.2984 92.4368C84.3421 89.3796 86.9945 85.9311 88.0458 81.7734C89.647 75.4389 88.6447 69.3979 84.1954 64.2374C83.1931 63.0757 82.0318 62.4642 80.4794 62.6721C78.5848 62.9289 79.1104 64.5553 78.8293 65.6682C77.6314 70.4129 78.3159 75.2677 78.5115 80.0736H78.5237Z" fill="black"/>
<path d="M179.501 140.178C177.728 146.047 174.55 150.034 169.355 152.15C168.329 152.565 167.216 152.92 166.116 153.018C164.564 153.165 163.231 152.357 162.779 150.902C162.339 149.484 163.464 148.481 164.625 147.894C167.546 146.414 170.492 144.984 172.362 142.134C174.526 138.857 174.074 137.597 170.297 136.656C167.094 135.849 164.222 134.748 164.075 130.835C163.965 127.655 167.974 122.458 170.944 121.847C172.155 121.602 173.609 121.272 174.465 122.544C175.736 124.415 174.281 125.943 173.841 127.607C172.472 127.57 172.802 125.039 171.226 126.078C169.771 127.044 168.744 128.524 168.683 130.297C168.634 131.777 169.942 131.911 171.128 132.046C173.964 132.351 176.506 133.427 179.11 135.47C179.868 130.945 180.784 126.848 183.278 123.363C185.319 120.514 187.678 118.068 191.59 118.435C193.863 118.655 195.11 120.245 195.575 122.299C196.418 126.078 195.171 129.282 192.409 131.899C191.015 133.22 189.267 134.027 187.409 133.941C184.158 133.794 184.317 135.592 184.953 137.744C185.943 141.083 189.023 142.954 192.641 142.049C195.783 141.266 198.826 140.373 197.983 135.653C197.482 132.828 198.325 129.759 198.643 126.812C198.765 125.662 199.401 124.024 200.611 124.659C204.143 126.53 207.505 123.522 211.013 124.745C213.042 125.454 213.629 123.009 214.79 121.908C217.222 119.597 219.63 117.298 223.297 119.438C224.984 120.428 226.39 121.932 225.583 123.938C224.544 126.518 223.261 124.158 221.965 123.877C219.337 123.302 217.846 125.161 216.856 127.289C215.817 129.514 216.917 130.627 219.031 131.385C220.975 132.082 222.943 131.874 224.911 132.046C229.947 132.474 232.306 135.604 231.072 140.483C229.715 145.827 226.586 149.924 221.672 152.492C219.96 153.385 217.968 153.739 216.611 152.052C215.34 150.486 216.196 148.787 217.345 147.417C218.983 145.46 220.682 143.553 222.393 141.67C224.178 139.713 224.544 138.49 221.207 137.952C216.538 137.182 212.113 136.179 210.854 130.223C210.341 127.778 207.395 129.441 205.696 129.71C203.911 129.991 202.738 131.263 203.52 133.476C204.852 137.231 205.573 141.119 206.087 145.069C206.331 147.001 206.466 148.958 204.192 149.618C202.163 150.205 201.1 148.811 200.415 147.05C199.938 145.815 199.608 144.837 197.714 145.668C189.329 149.313 185.527 148.187 179.513 140.19L179.501 140.178ZM192.934 124.745C192.824 123.522 192.372 122.434 190.673 122.556C188.778 122.691 185.246 127.509 185.417 129.649C185.527 130.994 186.407 131.202 187.458 131.165C189.683 131.08 192.996 127.276 192.922 124.745H192.934Z" fill="black"/>
<path d="M88.2412 249.111C88.5224 245.479 88.7913 241.859 89.0969 238.227C89.2435 236.479 87.9845 236.613 86.8844 236.43C85.0753 236.112 83.2663 235.806 81.5061 235.305C80.4182 234.987 79.2814 234.253 79.5137 232.908C79.7215 231.734 80.7482 230.682 81.9339 230.927C90.7348 232.725 91.3337 226.659 92.006 220.594C92.1649 219.212 92.1649 217.206 93.8884 217.292C95.8809 217.402 94.9397 219.505 95.123 220.765C95.2575 221.743 95.1474 222.746 95.1474 223.736C95.0986 227.65 96.9728 229.423 100.77 229.056C102.75 228.86 104.694 229.093 105.232 231.294C105.831 233.74 104.132 234.706 102.029 235.427C99.7679 236.197 96.3576 235.011 95.3308 237.188C94.1451 239.719 94.4141 242.972 94.2674 245.932C94.0351 250.456 93.9985 254.993 93.8762 259.53C93.8273 261.462 93.644 263.443 91.1626 263.565C88.9991 263.675 88.0456 261.853 88.1068 260.178C88.2412 256.619 87.2267 254.589 83.6085 253.073C80.7727 251.887 80.4304 247.925 78.8903 245.247C78.5602 244.66 78.1569 243.804 77.6557 243.694C76.6412 243.474 76.2867 244.537 75.9933 245.283C74.7343 248.451 73.3042 251.545 71.1651 254.21C69.5638 256.216 67.6936 258.209 64.76 257.585C61.9486 256.999 61.3252 254.492 60.7262 252.119C60.5918 251.581 60.4451 251.043 60.2984 250.481C58.4649 250.383 58.4771 252.07 57.7315 252.926C54.6023 256.509 50.8742 259.249 45.9726 258.344C40.7776 257.39 38.1618 253.354 37.2206 248.451C36.0105 242.177 37.4895 236.283 41.1076 231.086C43.8457 227.136 48.4539 226.573 51.3753 229.582C52.4754 230.719 53.4411 232.199 52.5243 233.788C51.522 235.525 50.4219 234.045 49.334 233.581C47.0971 232.639 45.7648 234.168 44.8969 235.769C42.6722 239.829 42.6967 244.305 43.6868 248.597C44.3102 251.275 46.3026 252.951 49.5174 251.593C52.5121 250.334 55.5313 249.135 58.6238 248.133C60.604 247.485 61.1174 246.091 61.4352 244.33C62.0586 240.795 63.3543 237.494 65.3467 234.534C68.5248 229.802 71.544 230.193 75.6022 234.033C80.4182 238.582 84.8798 243.192 87.0555 249.747L88.2901 249.087L88.2412 249.111ZM65.799 252.303C69.8083 248.683 70.6761 244.256 72.6441 240.478C73.3531 239.12 73.952 237.812 72.2774 236.821C70.4072 235.708 69.4049 236.968 68.6104 238.435C66.4224 242.483 65.1145 246.739 65.799 252.303V252.303Z" fill="black"/>
<path d="M1.89447 40.6727C3.39795 28.9943 3.36128 17.2058 4.47362 5.50292C4.68141 3.32621 5.28036 1.01498 8.05508 1.07613C10.7198 1.12504 11.5021 3.38735 11.7221 5.55183C12.1988 10.3455 12.6267 15.1514 12.7122 19.9695C12.7611 22.8432 13.8368 23.0389 16.0492 22.1217C19.3862 20.7521 22.4665 19.517 21.9287 14.7356C21.5375 11.2626 22.1243 7.6674 22.3321 4.12107C22.4421 2.2134 22.7354 0.0366859 25.0579 -1.70795e-07C27.2581 -0.0366863 27.3681 2.14002 27.5515 3.82759C27.8815 6.78693 28.1871 9.74628 28.3827 12.7179C28.5416 15.0291 28.8838 17.108 30.9129 18.6977C32.612 20.0306 32.7953 22.2929 31.4752 23.6503C29.2994 25.8882 29.825 28.2605 30.0695 30.7674C30.6562 36.8451 30.864 42.935 30.644 49.0371C30.5951 50.4312 30.3384 51.8497 29.9106 53.1826C29.0427 55.8974 27.0259 56.9491 24.2878 56.3866C21.6231 55.8485 20.9753 53.7452 21.3909 51.4829C22.5643 45.1484 21.9531 38.7528 22.2098 32.3938C22.3321 29.4223 21.4398 29.0921 18.5306 29.4467C13.9223 30.0092 11.9177 31.8802 12.2355 36.6005C12.4433 39.5476 12.0155 42.5437 11.881 45.5152C11.7343 48.7314 9.27743 51.2261 6.19712 50.9326C2.95791 50.6146 1.62556 48.4257 1.63778 45.3318C1.63778 43.7788 1.79668 42.2135 1.88225 40.6605L1.89447 40.6727Z" fill="black"/>
<path d="M137.44 269.129C143.821 275.097 153.025 274.962 159.675 269.435C167.314 263.088 166.777 250.04 160.812 240.465C159.577 242.177 158.465 243.889 157.157 245.442C156.546 246.176 155.433 247.203 154.785 247.057C149.566 245.87 147.659 250.26 144.542 252.743C140.301 256.118 136.316 255.091 133.822 250.065C130.021 242.397 129.287 234.045 128.786 225.681C128.554 221.719 128.713 217.732 128.762 213.77C128.786 212.266 128.505 210.052 130.387 209.906C132.258 209.759 132.355 212.058 132.624 213.489C133.59 218.49 134.543 223.492 135.203 228.542C135.9 233.911 137.196 239.108 138.883 244.232C139.616 246.445 140.508 246.947 142.892 245.687C146.315 243.877 148.087 241.872 147.023 237.787C146.302 235.024 146.962 232.138 147.292 229.325C147.415 228.237 147.622 226.806 149.065 226.855C150.165 226.904 150.409 228.188 150.581 229.154C151.143 232.211 151.656 235.28 152.182 238.35C152.316 239.157 152.218 240.221 153.343 240.306C154.345 240.38 154.7 239.511 155.018 238.68C156.167 235.733 156.594 232.663 156.704 229.533C156.753 227.943 156.656 226.182 158.575 225.693C160.567 225.179 161.276 226.806 161.875 228.273C164.906 235.574 169.038 242.434 170.651 250.309C173.707 265.228 166.043 276.882 151.167 279.756C143.185 281.297 136.744 276.503 137.453 269.117L137.44 269.129Z" fill="black"/>
<path d="M234.544 286.604C232.918 289.405 232.075 292.511 231.182 295.592C230.644 297.463 230.706 299.701 228.09 300.08C225.498 300.447 223.237 299.811 221.954 297.353C220.829 295.177 219.973 294.174 217.211 295.763C213.617 297.83 208.96 293.77 209.449 289.27C209.645 287.46 210.354 285.711 210.806 283.926C210.977 283.241 211.16 282.422 210.476 281.994C209.779 281.554 209.156 282.092 208.606 282.569C205.146 285.626 202.164 288.964 201.919 293.941C201.846 295.348 201.773 296.803 201.394 298.136C201.039 299.408 200.049 300.459 198.595 300.227C197.458 300.044 196.468 299.212 196.407 297.928C196.297 295.947 196.028 293.892 196.456 292.009C197.421 287.741 198.778 283.559 198.423 279.084C198.35 278.203 198.705 277.286 199.548 276.98C200.77 276.54 201.32 277.396 201.626 278.46C202.335 280.918 203.594 279.646 204.78 278.925C211.478 274.791 218.959 277.335 222.064 284.684C223.139 287.24 223.689 290.102 226.012 292.205C228.029 290.126 228.664 287.424 229.483 284.953C230.559 281.7 232.099 279.035 235.729 279.108C239.409 279.181 239.543 282.74 240.545 285.271C240.888 286.139 240.961 287.106 241.426 289.331C244.176 283.559 248.967 285.014 252.891 283.975C254.822 283.461 255.47 284.941 255.556 286.409C255.813 290.579 257.548 294.345 258.465 298.332C259.406 302.404 259.308 306.243 255.507 309.056C251.168 312.26 246.388 313.544 241.132 312.015C239.653 311.587 238.125 310.255 238.345 308.628C238.626 306.586 240.668 307.625 241.853 307.601C245.679 307.515 249.041 306.292 252.17 304.177C253.735 303.113 254.04 301.56 253.405 300.068C252.744 298.503 251.461 299.75 250.483 299.97C248.588 300.398 246.779 300.044 245.08 299.334C243.357 298.613 242.22 298.393 240.228 299.591C237.245 301.389 236.402 298.38 236.218 296.118C235.974 292.988 236.157 289.808 236.157 286.653C235.619 286.641 235.082 286.616 234.544 286.604V286.604ZM251.168 290.774C250.679 289.588 251.913 287.497 249.53 287.179C247.77 286.947 244.726 290.725 244.75 292.853C244.763 295.115 246.339 295.788 248.087 295.763C251.437 295.715 250.923 293 251.168 290.762V290.774ZM217.003 286.947C217.003 286.384 217.052 285.822 217.003 285.271C216.881 284.244 217.455 282.703 215.903 282.52C214.705 282.385 214.094 283.694 213.544 284.648C213.202 285.247 212.933 285.944 212.859 286.616C212.652 288.524 212.04 290.554 213.825 292.107C214.351 292.572 215.121 293.012 215.707 292.474C217.211 291.104 217.015 289.184 217.04 287.375C217.04 287.24 217.04 287.093 217.04 286.959L217.003 286.947Z" fill="black"/>
<path d="M212.431 226.732C211.734 227.234 211.098 228.102 210.414 228.127C203.642 228.347 204.73 233.593 204.253 237.738C203.618 243.364 203.19 249.013 202.64 254.663C202.383 257.243 201.589 259.787 198.435 259.322C195.575 258.906 194.829 256.509 195.147 253.782C195.954 246.898 196.638 239.988 197.579 233.128C197.983 230.169 196.822 229.349 194.132 229.423C192.604 229.472 191.015 229.203 189.549 228.787C188.351 228.444 187.104 227.772 187.153 226.182C187.202 224.544 188.241 223.186 189.72 223.284C198.863 223.883 199.486 217.708 199.694 211.08C199.731 209.808 199.865 208.524 200.097 207.277C200.354 205.907 200.537 203.926 202.078 203.889C203.777 203.853 203.789 205.846 203.936 207.215C204.302 210.737 204.755 214.247 204.852 217.781C204.913 219.909 205.39 220.985 207.713 220.691C209.375 220.471 210.854 221.022 211.649 222.599C213.274 225.779 213.934 223.822 214.717 222.098C215.682 219.958 217.345 218.429 219.288 217.194C221.904 215.543 224.495 215.959 226.781 217.757C228.077 218.784 229.727 220.374 228.908 221.988C227.967 223.834 226.537 221.792 225.29 221.523C221.378 220.667 220.498 223.553 219.52 226.256C218.408 229.313 220.144 230.315 222.76 230.621C223.603 230.719 224.459 230.768 225.302 230.768C229.311 230.805 231.646 233.079 232.599 236.687C233.797 241.199 231.451 244.758 228.566 247.729C225.522 250.86 221.684 252.816 217.076 251.728C215.572 251.373 214.008 250.346 213.739 248.744C213.445 246.995 215.389 246.665 216.526 246.054C219.52 244.464 222.699 243.205 224.703 240.221C225.901 238.423 225.681 237.323 223.31 237.2C223.029 237.188 222.735 237.2 222.466 237.164C214.631 236.087 213.213 234.62 212.443 226.732H212.431Z" fill="black"/>
<path d="M85.576 269.264C87.1161 273.654 86.5049 277.738 86.3094 281.749C86.1871 284.146 85.8204 285.809 89.1819 284.317C92.5922 282.813 94.7191 285.137 95.8436 287.827C97.8116 292.547 97.4694 297.512 96.1981 302.404C95.7947 303.932 94.8658 305.033 93.1667 304.654C91.5288 304.287 91.052 302.893 91.0887 301.364C91.1743 298.539 92.3355 295.825 91.9444 292.951C91.8099 292.009 92.091 290.872 90.9665 290.346C89.8053 289.82 89.1085 290.713 88.4362 291.398C86.1016 293.721 84.1214 296.228 83.7424 299.713C83.5224 301.707 83.009 303.981 80.2954 303.565C77.8385 303.199 77.5818 301.071 77.5329 298.955C77.4963 297.341 78.1685 295.922 78.5108 294.418C78.8164 293.061 81.7133 291.814 79.0975 290.334C76.3228 288.756 72.1302 290.224 71.3968 292.621C70.1133 296.803 68.891 301.022 67.4364 305.143C66.7519 307.075 65.8718 309.704 63.097 308.64C60.4568 307.625 61.3124 305.253 62.0458 303.162C63.366 299.432 64.6005 295.678 65.884 291.924C66.2507 290.86 66.8741 289.674 65.6517 288.842C64.0016 287.729 62.0092 287.02 60.1145 287.301C58.9411 287.472 59.4911 289.27 59.4545 290.334C59.2833 294.969 57.1076 298.76 54.3206 302.208C52.3771 304.605 49.9568 306.317 46.5832 305.094C42.525 303.627 39.6769 300.912 39.4447 296.497C39.188 291.373 41.2171 286.714 44.3218 282.789C46.9866 279.414 53.465 279.267 56.5575 282.581C59.9556 286.225 64.0627 282.703 67.583 284.195C67.6564 284.232 68.7198 282.398 69.0254 281.358C69.9788 278.105 70.7856 274.804 71.6657 271.538C71.8979 270.695 72.3135 269.753 73.2547 269.802C74.6115 269.863 74.5871 271.135 74.5137 272.064C74.2693 275.17 73.927 278.264 73.5481 281.358C73.3281 283.107 72.9125 285.198 75.565 284.88C77.7774 284.611 81.1877 287.167 81.9945 282.557C82.679 278.656 83.608 274.804 84.4881 270.939C84.5981 270.462 85.0503 270.059 85.6004 269.264H85.576ZM49.6635 286.824C45.9231 285.785 45.3119 288.769 44.6763 291.349C43.9062 294.467 42.9161 297.818 46.4976 300.08C47.8422 300.936 49.1623 300.887 50.2869 299.652C52.536 297.207 54.2228 294.455 54.1495 291.007C54.0884 288.304 53.1961 286.225 49.6635 286.837V286.824Z" fill="black"/>
<path d="M164.099 49.3184C163.072 50.8714 162.437 51.8008 161.826 52.7424C160.176 55.2493 158.134 57.157 154.858 56.5211C151.729 55.9097 150.47 53.4028 150.055 50.6636C148.575 41.1007 151.252 32.1371 154.492 23.3202C154.858 22.3174 155.836 21.3391 157.169 21.706C158.586 22.1095 159.161 23.259 158.978 24.6898C158.538 28.0527 158.049 31.4156 157.584 34.7785C157.242 37.2731 156.912 39.78 156.46 43.0818C159.772 40.5993 159.137 37.2976 160.359 34.8396C161.655 32.2471 161.19 27.9304 165.627 28.285C169.905 28.6274 168.94 32.4917 169.38 35.2676C169.881 38.337 170.284 41.4309 170.737 44.5003C171.213 47.7287 172.595 47.4474 174.599 45.5886C177.508 42.8983 177.276 39.6088 176.763 36.1358C176.176 32.1126 173.866 28.7864 172.558 25.0566C171.861 23.0756 171.164 20.9723 173.413 19.8105C175.443 18.7589 177.178 19.8839 178.45 21.7304C182.569 27.7225 185.185 34.1915 184.574 41.6143C184.072 47.6186 178.437 53.8919 172.631 55.2004C167.999 56.2521 166.043 53.1338 164.099 49.3184Z" fill="black"/>
<path d="M215.536 189.349C213.862 190.976 214.375 192.798 214.179 194.436C213.959 196.295 213.299 197.787 211.331 198.166C209.412 198.533 207.982 197.677 207.334 195.818C204.914 188.885 202.518 181.926 200.184 174.968C199.866 174.027 199.902 172.902 200.99 172.351C202.054 171.813 202.885 172.523 203.618 173.195C206.026 175.445 206.711 178.857 209.009 181.498C210.879 178.295 211.295 174.907 211.979 171.63C212.468 169.294 212.59 166.102 215.83 166.677C218.934 167.228 218.531 170.126 217.883 172.608C217.749 173.122 217.859 173.697 217.859 174.565C220.022 173.538 220.499 171.434 221.831 170.101C224.41 167.533 227.307 165.577 230.84 167.582C234.348 169.575 233.933 173.256 232.808 176.35C231.231 180.704 229.471 185.326 223.579 185.412C221.856 185.436 221.819 186.39 222.064 187.662C222.675 190.817 225.938 192.957 229.055 192.137C230.681 191.709 232.233 191.098 233.7 190.144C234.788 189.435 235.754 187.173 237.514 189.007C239.054 190.609 239.03 192.541 238.04 194.522C234.666 201.321 222.821 201.554 218.299 194.815C217.223 193.201 216.514 191.343 215.524 189.361L215.536 189.349ZM223.75 180.508C225.095 180.3 225.816 179.261 226.415 178.123C227.259 176.521 228.518 175.005 227.931 173.012C227.772 172.461 227.063 172.143 226.55 172.596C224.435 174.394 223.041 176.631 222.724 179.432C222.65 180.068 222.956 180.496 223.75 180.508V180.508Z" fill="black"/>
<path d="M251.057 57.1692C246.889 56.9491 244.505 54.2954 242.977 50.7247C241.119 46.3835 240.374 41.7488 240.154 37.053C240.056 34.9252 239.604 33.849 237.196 34.4116C236.132 34.6561 234.922 34.5339 233.834 34.3015C232.27 33.9713 230.754 33.2498 230.595 31.4278C230.448 29.7402 231.267 28.016 232.893 27.7469C240.753 26.4629 241.083 20.9233 240.569 14.7845C240.508 14.0875 240.569 13.3415 240.753 12.6689C241.339 10.6634 240.166 7.22715 243.21 7.14155C246.082 7.05595 245.324 10.639 246.29 12.5344C246.534 13.0113 246.498 13.635 246.571 14.1975C247.414 20.0673 247.402 20.0428 253.245 18.9667C255.983 18.4653 258.587 18.8444 259.503 21.8649C260.445 24.9465 258.782 26.8665 255.922 28.0893C247.194 31.8313 247.219 31.8802 248.771 41.4064C248.857 41.9689 248.942 42.5314 249.065 43.0817C250.311 48.8537 251.02 49.0982 255.36 45.2951C255.787 44.916 256.227 44.5614 256.68 44.219C258.281 43.0206 260.029 41.5042 261.96 43.1551C263.843 44.7571 262.975 46.8848 261.96 48.6091C259.467 52.7913 256.79 56.8635 251.081 57.1692H251.057Z" fill="black"/>
<path d="M143.393 326.25C141.071 328.732 139.323 330.774 136.181 330.346C134.25 330.077 134.042 331.227 134.812 332.719C136.255 335.507 138.553 336.84 141.694 336.779C142.599 336.754 143.955 336.179 144.09 337.647C144.163 338.503 143.65 339.616 143.051 340.313C141.511 342.086 139.469 342.538 137.257 341.756C131.854 339.86 129.043 335.751 128.542 330.273C128.077 325.21 129.691 320.661 134.14 317.751C138.883 314.645 142.256 316.528 144.86 323.731C147.781 319.964 150.666 316.222 156.753 317.983C153.881 320.441 150.581 321.896 149.59 325.614C148.197 330.86 152.157 335.458 157.511 334.577C160.176 334.137 158.709 332.633 158.367 331.459C156.594 325.296 158.501 317.946 162.975 314.473C165.151 312.786 167.62 311.526 170.407 313.104C172.399 314.241 173.72 316.173 173.231 318.387C172.424 322.055 170.627 325.235 166.972 326.971C165.799 327.534 163.586 327.032 163.721 328.952C163.843 330.725 165.493 331.801 167.29 332.119C168.635 332.352 169.906 333.183 171.409 332.56C172.253 332.205 173.499 331.679 173.988 332.902C174.428 334.003 173.781 335.226 172.974 335.984C170.419 338.381 167.363 338.65 164.32 337.194C161.961 336.069 160.433 335.91 158.159 337.989C154.284 341.523 146.718 338.552 144.762 333.061C144.065 331.129 143.907 329.001 143.369 326.25H143.393ZM140.362 322.875C140.313 321.37 139.592 320.245 138.357 320.453C136.035 320.845 134.849 322.716 134.421 324.892C134.128 326.335 135.399 326.421 136.377 326.372C138.699 326.262 139.799 324.758 140.362 322.875V322.875ZM169.392 318.79C169.331 317.531 168.891 316.503 167.632 316.919C165.053 317.775 164.161 320.074 163.562 322.459C163.354 323.278 163.916 323.938 164.76 323.669C167.217 322.899 168.867 321.273 169.392 318.79V318.79Z" fill="black"/>
<path d="M176.885 195.476C173.487 199.034 171.043 198.692 169.38 194.779C168.573 192.871 167.828 193.091 166.263 194.216C162.743 196.748 159.247 195.305 158.501 191.086C157.597 185.974 159.1 181.205 161.484 176.815C162.511 174.919 164.527 173.183 167.143 174.063C169.551 174.87 169.661 176.839 169.71 179.212C169.82 184.971 173.169 189.582 175.773 194.51C176.201 187.087 175.15 179.884 174.184 172.694C173.878 170.431 171.837 171.19 170.395 171.043C167.84 170.774 163.843 171.911 163.489 168.695C163.073 164.99 167.388 166.017 169.71 165.43C172.485 164.721 174.538 163.926 173.915 160.502C173.793 159.829 173.915 159.083 174.025 158.386C174.331 156.576 174.477 153.959 176.458 153.898C178.902 153.825 178.316 156.527 178.487 158.215C178.829 161.651 179.403 164.39 184.097 162.837C185.845 162.263 187.789 163.314 188.131 165.601C188.473 167.912 187.434 169.771 185.136 169.93C180.895 170.211 180.626 172.413 181.212 175.898C182.276 182.318 183.486 188.726 183.669 195.268C183.731 197.677 184.122 200.661 180.87 201.003C177.949 201.321 176.922 198.827 176.885 195.476V195.476ZM163.965 180.263C162.107 183.687 161.667 186.671 162.914 190.523C165.249 185.974 165.395 184.458 163.965 180.263V180.263Z" fill="black"/>
<path d="M62.2171 142.709C62.2171 140.862 62.3027 139.016 62.1927 137.182C62.0827 135.433 63.305 132.877 59.9436 132.779C57.4989 132.706 55.3109 132.033 54.7608 136.106C53.8929 142.44 46.3266 148.689 39.8727 149.582C38.2347 149.814 36.6579 149.557 35.57 148.31C33.981 146.512 33.5531 144.751 36.6457 144.066C41.0339 143.088 44.9087 141.242 47.7935 137.646C48.6735 136.558 49.8837 135.47 49.248 133.917C48.6369 132.437 47.1089 132.889 45.8866 132.755C44.7743 132.633 43.6253 132.596 42.5618 132.29C36.9879 130.725 35.0444 127.973 36.3768 123.657C38.1125 118.032 44.0531 114.338 48.698 115.965C50.0915 116.454 51.6072 117.065 51.4727 118.704C51.3138 120.759 49.6147 120.318 48.1846 120.159C46.5589 119.976 45.1899 120.783 43.7842 121.468C42.244 122.214 41.1806 123.498 41.2539 125.1C41.3517 127.093 43.3686 127.558 44.762 127.411C49.3703 126.922 53.404 130.554 58.3178 128.768C61.007 127.802 62.5227 126.946 62.3638 123.95C62.266 122.116 62.486 120.269 62.6205 118.435C62.7183 117.139 62.9627 115.635 64.4662 115.5C65.8353 115.378 66.2753 116.858 66.3486 117.921C66.6542 122.666 67.351 126.604 73.7805 124.048C75.064 123.534 76.653 124.476 76.653 126.323C76.653 127.863 75.8707 128.793 74.2328 129.331C68.3166 131.239 68.4388 131.312 68.8055 137.707C69.0256 141.67 68.9767 145.644 68.8911 149.606C68.8422 152.052 68.0477 154.253 65.0407 154.143C62.0093 154.033 62.0949 151.648 62.0704 149.472C62.046 147.209 62.0704 144.935 62.0704 142.672C62.1193 142.672 62.1804 142.672 62.2293 142.672L62.2171 142.709Z" fill="black"/>
<path d="M125.193 82.1525C125.022 88.8049 122.773 94.4668 116.636 97.6218C112.199 99.9086 107.493 99.3338 103.337 96.5946C99.3281 93.9532 98.5702 89.7954 99.0592 85.3442C99.4137 82.1769 100.233 79.1809 99.5481 75.818C98.888 72.6263 101.223 70.2539 104.022 68.8232C113.63 63.9317 125.572 71.4768 125.205 82.1525H125.193ZM116.441 82.874C116.795 79.2787 115.634 77.9825 113.458 77.2488C111.075 76.4417 109.987 77.958 109.144 79.6211C108.447 80.9908 107.946 82.5193 107.713 84.0357C107.359 86.2858 106.173 89.1473 109.767 89.881C112.945 90.5291 114.815 88.6337 115.756 85.7844C116.196 84.4515 116.404 83.0452 116.441 82.8862V82.874Z" fill="black"/>
<path d="M209.131 45.3196C209.326 48.0099 209.204 50.688 208.703 53.3539C208.25 55.7262 207.664 58.1108 204.632 57.6461C201.784 57.2059 201.528 54.8335 201.699 52.3878C201.992 48.0099 202.224 43.632 202.42 39.2542C202.457 38.337 202.75 36.9918 201.454 36.8084C200.843 36.7228 200 37.5177 199.413 38.0802C197.408 40.0001 196.149 42.1646 196.296 45.1729C196.43 47.9732 196.064 50.8225 195.758 53.6351C195.501 55.9708 194.303 57.7562 191.737 57.744C189.047 57.7195 187.666 55.873 187.336 53.415C187.006 50.8959 186.652 48.1811 187.764 45.8577C190.612 39.8656 190.001 33.3966 190.49 27.1355C190.93 21.4981 191.211 15.8484 192.054 10.2477C192.225 9.14709 192.397 7.76524 193.888 7.86307C195.147 7.94867 195.122 9.31829 195.208 10.211C195.795 16.1174 196.381 22.0361 196.785 27.9671C196.956 30.425 197.433 31.0732 200.073 30.1071C204.351 28.5296 207.199 30.3639 208.312 34.8029C208.69 36.307 209.008 37.8479 209.118 39.4009C209.253 41.3697 209.155 43.363 209.155 45.3441L209.131 45.3196Z" fill="black"/>
<path d="M210.072 362.948C210.598 358.264 211.087 354.547 211.404 350.829C211.637 348.115 212.297 345.534 213.213 343.003C213.605 341.927 214.191 340.741 215.524 340.887C217.162 341.071 217.272 342.502 217.284 343.81C217.308 348.005 217.284 352.199 217.284 357.103C219.362 355.427 220.376 353.605 222.234 352.896C223.261 352.505 224.435 351.661 225.327 352.847C226.146 353.936 226.182 355.354 224.972 356.259C222.894 357.8 223.432 358.668 225.327 359.94C228.102 361.799 230.705 364.036 228.517 367.937C226.561 371.435 221.758 372.291 217.687 370.982C212.822 369.417 208.006 368.157 204.413 364.146C203.557 363.193 202.677 364.587 201.931 365.064C200.11 366.213 198.264 366.617 196.382 365.443C194.304 364.146 193.35 362.227 193.509 359.707C193.9 353.74 199.108 348.983 204.498 349.814C207.591 350.291 209.571 351.526 208.251 355.22C207.358 357.714 207.921 360.038 210.06 362.985L210.072 362.948ZM217.43 361.102C217.785 363.413 215.304 365.932 217.724 367.558C218.372 367.999 221.929 366.079 221.99 365.113C222.149 362.618 218.763 362.899 217.443 361.102H217.43Z" fill="black"/>
<path d="M135.913 89.4285C134.495 93.0849 133.199 96.4722 131.879 99.8474C131.378 101.131 130.534 102.232 129.08 101.951C127.344 101.621 127.173 100.08 127.283 98.5878C127.796 91.5074 129.532 84.6471 130.852 77.7134C131.243 75.6834 132.307 74.3383 134.36 73.9959C136.597 73.6413 138.26 74.7296 139.286 76.5761C140.448 78.6428 141.352 80.8562 142.55 83.3875C144.2 80.526 143.296 77.8357 143.43 75.2799C143.577 72.4184 144.347 69.9482 147.623 70.0827C150.483 70.205 151.595 72.3572 151.461 75.1576C151.143 82.4826 152.292 89.9054 150.251 97.1326C149.554 99.615 148.821 102.122 145.508 102.269C142.416 102.403 141.584 100.067 140.46 97.9152C139.005 95.1271 138.663 91.7153 135.888 89.4041L135.913 89.4285Z" fill="black"/>
<path d="M46.7176 205.075C46.5709 207.717 46.6442 209.869 46.2897 211.936C46.0208 213.513 45.0307 214.846 43.2094 215.017C41.2781 215.189 39.8847 214.32 39.2979 212.462C35.4598 200.172 33.8585 187.857 39.1268 175.543C40.398 172.572 42.2071 170.101 45.9475 170.114C49.6145 170.126 51.5947 172.486 53.0738 175.323C56.1296 181.168 54.6384 190.633 48.3555 193.593C46.2775 194.571 45.5808 196.051 46.0697 198.411C46.5587 200.746 46.5464 203.18 46.7053 205.075H46.7176ZM49.5167 180.96C49.4067 180.312 49.4312 179.126 49.0033 178.136C48.4166 176.778 47.8055 174.981 45.7886 175.47C43.9795 175.91 44.2484 177.598 44.2851 178.967C44.3218 180.508 44.2607 182.11 44.6274 183.59C45.0063 185.094 44.0284 187.772 46.0942 187.882C48.2455 188.004 48.7956 185.412 49.3334 183.528C49.529 182.868 49.4434 182.134 49.5167 180.948V180.96Z" fill="black"/>
<path d="M21.6602 331.422C22.4792 328.561 23.0659 326.152 23.8482 323.804C25.3273 319.353 31.769 317.971 34.7638 321.676C38.1619 325.883 38.9442 331.19 39.6165 336.375C39.7876 337.647 38.8586 339.249 37.2573 339.53C35.5583 339.823 34.5926 338.552 34.2504 337.133C33.5292 334.125 33.0403 331.068 32.4658 328.023C32.3069 327.179 32.2335 326.237 31.1701 326.103C30.1066 325.968 29.7277 326.898 29.4343 327.668C28.7865 329.38 28.0409 331.092 27.6742 332.865C26.1951 340.08 23.506 341.364 17.9932 336.351C15.2307 333.831 13.605 333.416 10.5002 335.226C7.11434 337.207 4.08293 335.397 2.05384 332.645C-0.488636 329.197 -0.610871 325.173 1.33266 321.383C3.03171 318.069 5.79421 316.332 9.73016 317.274C10.1335 317.372 10.5858 317.384 10.9892 317.298C17.0887 315.965 18.5922 317.225 18.5555 323.938C18.5433 326.702 19.02 329.123 21.648 331.435L21.6602 331.422ZM5.01191 325.602C4.99969 328.304 5.21971 330.872 8.25112 330.799C10.708 330.738 12.3582 328.793 12.3949 326.274C12.4193 324.061 12.1871 321.639 8.89897 321.652C5.95312 321.652 4.93857 323.266 5.02414 325.602H5.01191Z" fill="black"/>
<path d="M38.7969 35.4755C38.9436 36.8818 38.9192 38.337 39.2737 39.6822C40.4593 44.1823 43.3685 45.2707 47.2189 42.7271C47.4511 42.5681 47.6467 42.348 47.8912 42.2013C49.6147 41.2352 51.2893 38.7528 53.3795 40.7827C55.5308 42.8616 53.6484 45.0506 52.3405 46.8237C49.9447 50.0888 46.3999 51.1894 42.574 50.7736C38.2958 50.2967 35.3377 47.7409 33.6875 43.7421C30.375 35.7201 33.3086 21.7182 39.6037 15.4816C43.0996 12.0086 47.0355 10.9202 50.3236 12.9135C54.1496 15.2247 54.6874 18.7466 53.6362 22.9044C52.6705 26.7075 51.6438 30.2294 47.7934 32.2593C45.6176 33.4088 43.8819 33.5678 42.0728 31.6968C41.4739 31.0732 41.1316 29.6424 39.8482 30.2416C38.7847 30.7307 39.0414 31.9536 38.9681 32.9075C38.907 33.7512 38.9558 34.6072 38.9558 35.4633C38.907 35.4633 38.8581 35.4633 38.8214 35.4633L38.7969 35.4755ZM40.3615 27.2823C42.4762 27.2823 44.9209 27.9915 46.3877 27.0988C48.1723 26.0105 48.6368 23.3568 49.1135 21.1434C49.3824 19.9083 48.9302 18.9056 47.9034 18.2452C46.8522 17.5604 45.9477 18.3186 45.2509 18.8811C42.6596 20.9478 40.9116 23.5892 40.3615 27.2945V27.2823Z" fill="black"/>
<path d="M232.539 95.2372C232.795 89.8199 234.482 84.427 237.648 79.6211C241.339 74.0326 247.084 72.2961 250.935 75.3166C254.59 78.1781 254.577 84.8672 250.739 89.5753C249.016 91.6786 246.852 93.3662 243.98 93.6108C242.048 93.7697 239.653 93.1705 240.349 96.5334C240.961 99.4928 242.415 101.547 245.764 101.278C246.999 101.18 248.295 100.826 249.407 100.275C252.842 98.5634 252.573 100.924 252.377 102.966C251.986 107.099 248.099 109.777 243.344 109.3C237.159 108.677 232.551 102.856 232.526 95.2372H232.539ZM246.901 82.7639C246.84 82.0179 246.95 80.8807 246.094 81.1008C243.637 81.7245 242.929 84.0235 242.11 86.0656C241.804 86.8116 242.464 87.5453 243.246 87.3497C245.569 86.7382 246.473 84.8795 246.901 82.7761V82.7639Z" fill="black"/>
<path d="M76.2495 38.2636C76.714 31.2932 77.8141 24.971 84.3537 21.229C86.1016 20.2263 87.9351 19.5904 89.9642 19.5048C96.2471 19.248 99.2296 23.5769 96.4427 29.1777C94.3036 33.4944 91.1377 36.9551 86.3216 38.2024C84.3048 38.7283 82.3001 38.447 83.2047 41.5653C84.0236 44.3657 84.5737 47.2639 88.4485 46.9704C90.8076 46.7992 92.5678 45.234 94.5847 44.2434C96.6382 43.2284 99.2174 40.8683 101.002 43.0206C103.153 45.613 100.611 48.0588 98.5695 49.7953C94.2913 53.4027 89.4386 55.8729 83.8036 53.415C77.0807 50.4923 76.9218 44.0478 76.2373 38.2514L76.2495 38.2636ZM91.8955 26.5485C91.7733 25.4479 91.0399 25.2767 90.0987 25.3012C87.5562 25.3745 83.3758 29.5812 83.3636 32.1003C83.3636 33.0908 83.6569 33.6778 84.7693 33.7267C86.7372 33.8001 92.0911 28.4562 91.9078 26.5607L91.8955 26.5485Z" fill="black"/>
<path d="M93.2649 188.114C94.4872 191.844 92.6537 194.045 89.9645 195.708C81.8971 200.685 71.7761 196.381 69.6981 187.148C69.1969 184.91 69.0991 182.648 69.3314 180.373C69.4903 178.894 69.258 177.842 67.4245 177.867C65.8232 177.879 64.5031 178.246 64.5887 180.166C64.7476 183.7 64.9798 187.234 65.2487 190.768C65.3465 192.04 65.591 193.287 65.151 194.546C64.6254 196.026 63.6719 197.029 62.034 196.907C60.6405 196.809 59.6993 195.965 59.4426 194.51C58.5136 189.019 58.1469 183.455 58.9292 177.989C59.4671 174.222 62.6329 172.767 66.2144 172.865C69.2703 172.938 71.9594 172.816 74.1352 170.089C75.3331 168.585 77.3744 167.802 79.5257 168.781C81.7259 169.783 82.8016 171.532 82.5571 173.88C82.0804 178.49 81.9337 183.382 76.5677 185.424C74.4774 186.219 75.5409 187.491 76.0298 188.469C77.57 191.477 81.8604 192.602 86.2364 191.098C88.6077 190.279 90.8691 189.141 93.2649 188.114V188.114ZM74.7219 179.872C74.783 180.679 74.3919 181.719 75.3331 182.134C76.4821 182.636 77.3133 181.731 77.6678 180.85C78.5845 178.527 79.7335 176.179 79.0001 173.562C78.8168 172.889 78.0711 172.804 77.6189 173.134C75.4064 174.809 75.0642 177.353 74.7341 179.872H74.7219Z" fill="black"/>
<path d="M176.164 93.1461C176.164 95.8364 176.25 98.5145 176.14 101.193C176.005 104.861 173.817 106.255 170.443 105.583C167.253 104.947 164.98 103.369 165.627 99.4683C166.275 95.5673 166.691 91.6297 167.302 87.7165C167.693 85.2096 167.119 84.2191 164.393 85.1363C162.449 85.7844 159.98 88.2424 158.428 85.442C156.692 82.2992 159.944 80.7828 161.899 79.0953C167.498 74.2772 173.878 71.2811 181.261 70.2295C184.598 69.7525 186.652 70.7553 187.153 73.9348C187.666 77.1754 186.285 79.3399 182.716 79.829C175.455 80.8318 175.467 80.8807 175.944 88.0345C176.054 89.7343 176.164 91.4218 176.262 93.1216C176.225 93.1216 176.188 93.1216 176.152 93.1216L176.164 93.1461Z" fill="black"/>
<path d="M152.084 362.471C151.314 365.907 150.862 369.588 145.838 368.011C145.129 367.791 143.992 369.136 142.978 369.6C139.347 371.288 134.678 370.346 131.671 367.253C129.055 364.562 128.31 361.334 129.85 357.885C131.524 354.131 134.397 351.783 138.687 351.698C142.745 351.624 143.846 353.789 141.975 357.457C140.386 360.576 137.428 361.334 134.458 362.288C138.21 366.837 144.396 366.079 146.315 360.955C147.366 358.154 148.515 355.452 150.251 352.994C151.094 351.795 151.913 350.658 153.6 350.854C155.348 351.062 155.788 352.382 156.191 353.801C156.448 354.681 156.216 356.027 157.462 356.222C158.709 356.418 158.795 354.963 159.467 354.302C160.066 353.715 160.494 352.945 161.044 352.309C162.205 350.976 162.633 348.445 164.821 348.738C167.266 349.068 167.779 351.649 168.415 353.593C169.417 356.675 170.04 359.891 170.798 363.046C171.263 365.015 170.517 366.568 168.561 366.886C166.63 367.204 165.897 365.589 165.591 363.963C165.188 361.884 164.919 359.781 164.576 357.677C164.466 357.005 164.491 356.173 163.611 356.002C162.792 355.855 162.327 356.491 162.01 357.115C161.252 358.631 160.555 360.184 159.858 361.737C157.34 367.314 155.947 367.497 152.096 362.483L152.084 362.471ZM134.531 359.194C136.707 358.851 138.687 358.13 139.677 355.843C139.958 355.195 139.249 354.828 138.687 354.865C136.34 355.012 134.788 356.21 134.213 358.546C134.189 358.644 134.323 358.778 134.531 359.194V359.194Z" fill="black"/>
<path d="M124.581 139.297C124.495 146.781 118.738 153.886 111.673 155.219C104.693 156.527 101.711 153.299 102.786 146.39C104.192 137.341 102.786 128.316 101.699 119.316C101.356 116.503 101.271 113.666 101.173 110.841C101.136 109.85 101.417 108.652 102.566 108.493C103.997 108.297 103.923 109.704 104.094 110.584C105.195 116.136 106.295 121.7 107.236 127.276C107.639 129.685 107.761 131.128 111.074 129.796C118.225 126.91 124.654 131.654 124.569 139.297H124.581ZM108.727 142.905C108.813 144.03 108.837 145.155 108.984 146.268C109.485 150.315 110.622 150.89 114.044 148.579C117.345 146.353 119.276 143.125 119.924 139.199C120.278 137.072 119.508 135.274 117.565 134.21C115.658 133.158 113.751 133.415 112.027 134.699C109.277 136.754 108.385 139.578 108.727 142.892V142.905Z" fill="black"/>
<path d="M212.382 47.7164C212.675 40.6727 215.328 34.913 220.449 30.3272C224.043 27.1111 228.712 28.1749 229.458 32.9686C230.509 39.7433 232.477 46.1878 234.372 52.7057C235.007 54.8702 234.739 57.1203 232.062 57.8663C229.556 58.5633 227.82 57.157 227.148 54.9436C226.158 51.6418 225.204 50.9693 222.772 53.9775C221.183 55.9463 218.762 56.6923 216.244 55.4817C212.907 53.8797 212.614 50.7125 212.382 47.7164ZM218.726 48.1444C221.696 44.7082 222.527 41.3208 223.456 37.9946C223.676 37.212 223.945 36.1848 222.882 35.8668C221.806 35.5366 221.525 36.6861 221.158 37.3343C219.435 40.4037 218.151 43.6198 218.714 48.1444H218.726Z" fill="black"/>
<path d="M244.334 200.967C243.002 200.881 241.718 200.783 241.07 199.805C240.312 198.668 241.327 197.591 241.975 196.797C243.662 194.718 245.556 192.798 247.365 190.817C250.568 187.307 250.213 185.803 245.862 184.225C244.529 183.749 243.197 183.259 241.926 182.672C236.511 180.141 234.592 175.751 236.658 170.126C238.051 166.335 240.264 163.07 243.918 161.052C245.312 160.294 246.766 159.695 248.233 160.979C249.676 162.238 249.627 163.816 248.783 165.21C248.087 166.359 248.881 168.989 245.85 168.194C243.601 167.607 243.637 169.955 243.295 171.226C242.806 173 242.684 175.029 244.982 175.873C246.962 176.607 249.003 177.145 251.008 177.83C257.731 180.141 260.188 187.319 256.288 193.287C253.416 197.689 249.321 200.184 244.334 200.979V200.967Z" fill="black"/>
<path d="M116.037 358.387C119.178 356.797 121.048 353.263 124.361 354.804C127.539 356.283 126.977 359.793 127.16 362.728C127.295 364.843 127.441 366.959 127.649 369.075C127.869 371.153 127.502 372.963 125.033 373C122.613 373.037 122.124 371.129 122.1 369.148C122.075 367.167 122.21 365.186 122.21 363.205C122.21 362.41 122.527 361.395 121.55 360.955C120.511 360.478 120.034 361.468 119.533 362.068C117.711 364.232 115.878 366.384 114.216 368.659C113.433 369.735 112.834 370.811 111.27 370.567C109.803 370.334 108.849 369.405 108.886 368.011C108.947 365.357 107.48 365.956 105.879 366.25C101.295 367.094 96.9316 365.21 94.988 361.652C92.9956 358.008 93.5212 353.018 96.3204 349.692C98.5817 347.002 101.393 346.231 104.693 347.491C105.989 347.992 106.918 348.958 106.661 350.401C106.344 352.15 105.011 352.016 103.679 351.636C101.503 351.025 99.8652 351.575 98.7406 353.691C97.6161 355.831 97.775 357.849 99.2173 359.634C101.454 362.398 104.73 362.887 108.006 363.021C109.766 363.095 109.681 361.309 109.962 360.184C110.891 356.479 111.649 352.737 112.504 349.02C112.834 347.577 112.614 345.204 114.533 345.388C116.844 345.62 115.878 348.102 115.976 349.631C116.147 352.395 116.025 355.171 116.025 358.387H116.037Z" fill="black"/>
<path d="M6.28322 75.928C8.33676 74.1549 8.75236 72.0148 9.73023 70.2417C10.4392 68.9699 11.1604 67.6981 12.835 67.7348C14.7052 67.7715 15.5119 69.1533 16.0253 70.6819C16.5998 72.3817 17.0521 74.1182 18.7267 75.9892C19.4112 73.0298 18.6045 71.0977 17.3088 69.2634C16.3187 67.8571 15.8908 66.3529 17.3821 65.0812C18.9589 63.736 20.548 64.3107 21.9903 65.4725C26.0974 68.7742 26.9653 80.3915 23.2983 84.0112C21.1836 86.0901 18.8489 85.7477 16.9665 83.681C15.463 82.0301 14.3018 80.0736 12.7983 77.9947C11.0015 80.3304 9.42465 82.556 7.64003 84.6104C6.39324 86.0534 4.80419 87.0439 2.75065 86.1512C0.807124 85.3074 0.183728 83.6443 0.0859407 81.6877C-0.146305 76.9919 0.134834 72.3328 1.17383 67.747C1.44274 66.5486 2.17615 65.4236 2.87288 64.3841C3.38627 63.6015 4.03411 62.5743 5.23201 63.0023C6.39324 63.4181 6.28322 64.5798 6.29545 65.5458C6.33212 68.7865 6.30767 72.0393 6.30767 75.928H6.28322Z" fill="black"/>
<path d="M116.343 56.0808C113.238 56.1053 110.635 55.7262 108.875 53.2071C108.092 52.0943 107.75 50.9203 108.361 49.6118C108.96 48.3156 110.134 48.3645 111.283 48.4379C114.607 48.658 117.761 47.8631 120.817 46.7014C121.379 46.4813 121.966 45.7965 122.125 45.2095C122.382 44.2312 121.33 44.2801 120.756 43.9866C114.485 40.6971 113.226 38.8017 114.29 34.1792C115.61 28.395 121.55 22.4152 126.207 22.1706C127.821 22.085 129.337 22.244 130.351 23.7237C131.354 25.1911 130.388 26.4384 129.862 27.7102C129.667 28.1749 129.447 28.6518 128.689 28.5785C124.68 28.2116 121.526 30.7185 120.841 34.6806C120.536 36.4538 121.281 37.1753 122.956 37.6522C126.648 38.7038 130.755 39.6821 130.84 44.6103C130.926 49.4529 127.821 52.2777 123.799 54.3443C121.33 55.6161 118.751 56.142 116.343 56.0686V56.0808Z" fill="black"/>
<path d="M115.841 230.841C118.64 230.34 119.789 232.492 120.547 234.608C122.576 240.196 124.948 245.626 127.625 250.921C128.664 252.963 128.835 254.871 126.586 255.996C124.288 257.145 122.65 255.996 121.268 253.978C120.193 252.401 120.608 249.404 118.359 249.343C117.296 249.307 116.257 251.96 115.022 253.22C112.235 256.045 109.069 256.155 106.417 253.672C103.422 250.884 102.701 245.516 104.632 240.563C107.016 234.461 111.184 230.805 115.853 230.866L115.841 230.841ZM113.299 241.04C113.348 240.355 113.421 239.793 113.409 239.23C113.396 238.313 114.093 237.078 112.883 236.613C111.429 236.051 111.086 237.543 110.487 238.386C108.91 240.661 108.25 243.192 108.58 245.944C108.727 247.167 108.739 248.744 110.255 248.928C111.526 249.087 111.917 247.692 112.37 246.653C113.164 244.806 113.384 242.887 113.299 241.04V241.04Z" fill="black"/>
<path d="M57.6704 47.3618C59.7484 37.1019 61.802 26.842 63.9411 16.6066C64.1977 15.3592 65.249 13.6472 66.3491 15.4326C68.2193 18.4531 69.0382 15.9218 69.8939 15.0168C72.6441 12.1553 75.8345 11.2749 79.5504 12.4977C81.4328 13.1214 82.8385 14.4176 82.5696 16.5821C82.264 18.9545 80.3571 18.8933 78.6336 18.5754C75.1988 17.9517 73.7931 20.3608 72.4119 22.6598C67.7303 30.4617 65.5301 38.9973 64.9067 48.0588C64.7356 50.5412 65.6279 54.6868 61.1786 54.2465C57.2548 53.8552 58.1105 50.1866 57.6582 47.3618H57.6704Z" fill="black"/>
<path d="M212.737 88.5358C212.883 92.8281 212.296 97.1571 210.011 101.058C208.348 103.895 206.026 105.986 202.469 105.546C199.058 105.13 197.518 102.562 196.577 99.5906C194.56 93.2317 194.646 86.7627 195.587 80.2448C195.77 78.973 196.1 77.3099 197.494 77.2854C199.45 77.2487 199.132 79.2665 199.266 80.526C199.792 85.5887 200.256 90.6514 201.577 95.5918C201.858 96.6435 201.907 98.1354 203.398 97.9764C204.669 97.8297 204.865 96.4233 205.097 95.335C206.209 90.1133 205.476 84.9039 204.791 79.7189C204.449 77.1387 204.217 74.5706 207.505 74.1304C210.634 73.7024 211.429 76.0748 211.869 78.6795C212.419 81.8956 212.81 85.124 212.737 88.5481V88.5358Z" fill="black"/>
<path d="M28.1631 75.3533C28.4076 71.0855 29.2265 66.194 32.8202 62.3786C35.0082 60.0552 37.7218 58.0619 41.0466 59.9573C44.3591 61.8528 43.6257 64.9344 42.5134 67.8448C41.0588 71.6113 40.1421 75.8057 35.4238 77.1264C34.5193 77.3832 34.067 78.1781 34.4215 79.1319C34.9349 80.5138 35.7538 81.6266 37.3551 81.8589C40.5577 82.3236 43.4668 81.3576 46.3882 80.1836C48.3684 79.3887 51.2043 77.6278 52.4266 80.0002C53.9056 82.8617 50.8987 84.3781 48.674 85.6498C46.5594 86.8483 44.2369 87.4352 41.8411 87.7776C33.1625 89.0372 28.2364 84.8305 28.1631 75.341V75.3533ZM35.7783 72.4795C37.8807 71.3423 38.1863 69.0188 38.9442 67.0011C39.2009 66.3163 38.9564 65.2646 38.1374 65.5703C35.7416 66.4508 35.4727 68.9087 34.7393 70.9632C34.4704 71.7091 34.7148 72.3206 35.7783 72.4918V72.4795Z" fill="black"/>
<path d="M75.0759 142.183C75.0148 135.775 78.9996 128.952 83.6323 126.958C88.6317 124.818 91.6387 126.445 92.7388 131.74C93.5822 135.775 95.1346 139.566 97.2492 143.113C97.9215 144.238 99.4494 145.436 97.8237 146.769C96.4669 147.882 94.6334 147.698 93.5577 146.463C91.4186 144.03 90.1963 144.14 88.4117 146.965C86.5904 149.838 83.6445 151.746 80.0631 150.315C76.3105 148.823 75.4426 145.277 75.0759 142.171V142.183ZM80.3809 140.716C80.6009 142.257 80.0264 144.507 82.1655 144.874C83.8401 145.155 84.5613 143.296 85.1725 141.829C86.3092 139.053 86.6393 136.106 87.1404 133.195C87.2871 132.315 87.3116 131.422 86.3826 131.018C85.4536 130.627 84.7935 131.361 84.2068 131.936C81.7499 134.308 80.8209 137.365 80.4053 140.728L80.3809 140.716Z" fill="black"/>
<path d="M180.345 298.258C180.479 294.81 181.775 291.007 176.543 290.383C175.737 290.285 175.089 289.429 175.187 288.463C175.333 287.081 176.617 286.409 177.595 286.47C181.372 286.714 181.726 284.403 182.191 281.493C182.826 277.469 183.743 273.434 185.845 269.839C186.64 268.469 187.08 266.084 189.28 266.953C191.089 267.662 190.185 269.594 189.952 271.11C189.427 274.608 189.085 278.13 188.486 281.603C188.033 284.195 189.011 284.917 191.456 284.586C193.057 284.366 195.135 283.816 195.587 286.225C195.942 288.121 194.316 289.307 192.886 289.502C187.361 290.261 187.887 294.467 187.471 298.258C187.141 301.254 188.571 305.852 183.67 305.73C178.462 305.608 181.188 300.789 180.369 298.246L180.345 298.258Z" fill="black"/>
<path d="M217.626 103.858C215.61 104.054 213.703 103.381 213.128 101.144C212.456 98.5022 214.815 98.4778 216.477 97.8052C217.895 97.2305 219.24 96.3867 220.475 95.4818C225.022 92.1433 224.948 90.9204 220.108 88.3157C216.979 86.6404 215.707 83.9745 216.184 80.575C216.697 76.8574 218.507 73.8981 222.198 72.5285C223.457 72.0638 224.741 72.4062 225.633 73.5435C226.977 75.2432 225.584 76.7718 225.229 78.3371C224.973 79.4621 224.692 80.7462 223.054 79.3888C222.088 78.5939 221.954 79.5722 221.844 80.2203C221.562 81.8223 222.21 82.7761 223.702 83.5588C229.96 86.8361 231.256 89.025 230.033 93.7208C228.615 99.1381 223.005 103.797 217.626 103.858V103.858Z" fill="black"/>
<path d="M46.7665 321.456C50.1524 322.679 50.458 321.358 49.7124 318.741C49.3335 317.408 49.3701 315.929 49.4312 314.522C49.5046 313.104 48.7834 311.025 51.0814 310.817C53.0616 310.646 53.6728 312.578 53.8684 314.009C54.9318 321.725 57.0342 329.172 59.21 336.62C59.6256 338.026 59.2956 339.542 57.731 340.215C56.2397 340.851 54.9318 340.264 54.0517 338.968C53.3916 338.014 52.9638 337.048 51.4481 337.573C47.3777 339.004 45.0553 336.326 43.0751 333.538C40.8626 330.42 40.8993 326.91 42.3294 323.425C43.2462 321.211 45.2631 321.652 46.7421 321.456H46.7665ZM50.2013 328.989C50.5558 326.69 49.9324 325.381 48.0011 325.271C46.1676 325.161 45.1041 326.225 45.2386 328.108C45.3853 330.163 46.3143 332.547 48.1967 332.682C50.6169 332.853 49.7491 330.041 50.1891 329.001L50.2013 328.989Z" fill="black"/>
<path d="M182.863 228.322C181.616 227.747 181.69 226.818 181.482 226.023C181.127 224.69 181.103 223.015 179.171 222.966C177.595 222.929 176.666 224.079 175.847 225.277C174.906 226.659 175.199 228.016 176.14 229.203C178.108 231.697 181.042 232.431 183.914 233.177C190.466 234.889 191.835 238.374 187.936 243.926C185.662 247.154 182.594 249.356 178.511 249.759C176.58 249.955 174.808 249.588 173.671 247.827C173.145 247.008 172.583 246.017 173.096 245.039C173.573 244.146 174.588 244.427 175.394 244.525C178.56 244.904 180.809 243.18 182.863 241.199C184.586 239.536 184.77 238.191 181.91 237.359C179.624 236.699 177.35 235.769 175.321 234.547C171.642 232.345 170.187 228.359 171.373 224.727C172.766 220.447 177.265 217.757 180.883 219.041C184.024 220.166 184.574 222.575 182.839 228.31L182.863 228.322Z" fill="black"/>
<path d="M75.0638 330.163C77.9363 326.36 78.2908 322.569 79.8676 319.328C80.5765 317.885 80.7966 315.635 83.0823 316.063C84.9525 316.418 84.8914 318.313 85.087 319.878C85.6859 324.648 86.346 329.405 86.9816 334.174C87.2383 336.155 87.7639 338.564 85.4659 339.383C83.2779 340.166 82.3489 338.087 81.6522 336.314C80.8821 334.369 80.2587 334.516 78.7186 335.935C76.0661 338.381 73.0102 337.696 71.3723 334.553C69.0743 330.138 69.2576 325.54 70.8222 320.93C71.0912 320.123 71.519 319.267 72.5702 319.402C73.5725 319.524 73.8903 320.404 74.0003 321.26C74.3548 323.902 74.6482 326.555 75.076 330.151L75.0638 330.163Z" fill="black"/>
<path d="M137.244 109.031C138.711 109.251 138.992 110.474 139.494 111.44C142.928 117.983 143.98 125.087 144.468 132.339C144.823 137.634 143.356 143.1 145.972 148.224C146.608 149.471 145.801 150.755 144.53 151.379C143.136 152.064 141.792 151.868 140.618 150.755C138.736 148.97 138.088 146.634 138.027 144.201C137.794 133.611 138.589 122.96 135.985 112.504C135.692 111.306 135.362 109.618 137.232 109.031H137.244Z" fill="black"/>
<path d="M105.439 297.378C109.143 299.811 112.529 297.745 115.792 298.063C114.631 301.646 111.343 303.908 107.688 303.651C103.838 303.382 100.391 300.251 99.7917 296.485C98.9483 291.19 102.493 283.437 107.089 280.673C109.265 279.365 111.563 278.68 113.8 280.49C116.159 282.398 116.758 284.843 115.694 287.729C113.934 292.511 110.389 295.494 105.451 297.39L105.439 297.378ZM106.625 292.107C108.483 292.132 112.223 288.377 112.321 286.421C112.37 285.284 111.991 284.489 110.756 284.379C109.094 284.22 105.353 288.769 105.402 290.848C105.414 291.667 105.72 292.168 106.625 292.107Z" fill="black"/>
<path d="M127.478 337.121C127.772 340.129 127.93 342.086 125.584 342.281C123.53 342.465 122.626 340.838 122.344 339.029C121.623 334.418 121.024 329.808 120.291 325.198C120.12 324.146 120.205 322.703 118.763 322.447C117.198 322.177 116.575 323.559 115.952 324.611C114.191 327.595 113.825 331.019 113.091 334.321C112.761 335.813 112.272 337.194 110.475 337.023C108.972 336.876 108.239 335.433 108.324 334.235C108.703 329.026 109.278 323.682 113.152 319.781C117.577 315.317 122.516 316.65 124.618 322.557C124.948 323.474 125.095 324.476 125.278 325.443C126.097 329.747 126.904 334.052 127.478 337.121V337.121Z" fill="black"/>
<path d="M106.491 334.211C106.491 335.201 106.601 336.204 106.466 337.17C106.283 338.478 105.831 339.726 104.168 339.701C102.763 339.677 102.298 338.662 102.054 337.463C101.357 334.003 100.685 330.542 99.9145 327.106C99.7556 326.396 99.89 325.21 98.6799 325.235C97.6409 325.259 97.3964 326.262 97.1642 327.032C96.3574 329.735 95.6485 332.462 94.8784 335.164C94.4017 336.84 93.8516 338.686 91.5903 338.197C89.5368 337.757 89.1089 335.984 89.4756 334.174C90.3191 330.028 90.9425 325.773 92.3726 321.811C93.3505 319.096 96.8097 319.45 99.1199 319.01C101.186 318.607 102.897 320.649 103.789 322.703C105.366 326.36 106.368 330.175 106.478 334.198L106.491 334.211Z" fill="black"/>
<path d="M159.907 297.439C162.449 297.378 165.004 297.39 167.339 296.069C169.307 294.956 169.845 293.978 167.547 292.511C164.698 290.676 162.046 288.573 164.368 284.599C166.043 281.737 170.883 280.331 174.159 281.749C175.345 282.263 176.69 282.887 176.237 284.464C175.822 285.932 174.538 285.663 173.414 285.271C172.277 284.868 171.214 285.051 170.126 285.552C168.17 286.445 167.693 287.497 169.71 288.83C171.959 290.309 174.819 291.581 174.11 294.871C173.328 298.515 170.395 300.337 167.033 301.535C164.136 302.563 161.215 302.783 158.281 301.988C156.435 301.486 154.492 300.472 154.981 298.27C155.396 296.387 157.389 297.708 158.636 297.463C159.039 297.378 159.479 297.451 159.907 297.451V297.439Z" fill="black"/>
<path d="M16.551 289.062C18.9468 289.062 21.3303 289.038 23.7261 289.062C26.0608 289.099 27.4665 290.346 27.6132 292.657C27.7721 294.969 26.4886 296.571 24.2639 296.803C17.0521 297.524 9.93808 296.424 2.84848 295.262C1.7117 295.079 0.794945 294.198 1.06386 292.816C1.36945 291.263 2.27398 290.505 3.96082 290.334C8.15346 289.894 12.3216 289.307 16.551 289.074V289.062Z" fill="black"/>
<path d="M274.759 99.7129C274.453 103.712 272.192 106.622 268.989 108.579C265.274 110.853 260.849 108.297 260.849 103.932C260.849 100.092 262.352 96.7168 265.714 94.5646C267.462 93.4395 269.491 91.911 271.569 93.1705C273.818 94.5401 275.016 96.8636 274.759 99.7129Z" fill="black"/>
<path d="M102.017 18.4776C102.286 15.506 102.152 12.5711 101.296 9.67292C100.844 8.11987 101.027 6.37117 102.604 5.55184C104.327 4.65915 105.855 5.56407 107.09 6.88477C110.623 10.6634 111.894 20.85 109.4 25.3746C108.447 27.0866 107.175 28.4073 105.036 28.0037C102.897 27.6002 102.078 26.0105 102.029 23.9805C101.981 22.1462 102.029 20.3119 102.029 18.4776H102.017Z" fill="black"/>
<path d="M120.096 298.063C120.255 293.244 121.563 288.597 122.43 283.889C122.589 283.009 122.895 281.749 124.349 282.679C127.369 284.611 130.608 283.682 133.713 283.217C135.412 282.972 136.952 282.691 137.575 284.538C138.284 286.653 136.72 287.644 134.996 288.169C133.664 288.573 132.197 289.05 130.865 288.879C126.941 288.39 125.975 290.664 125.731 293.819C125.572 295.788 125.437 297.769 125.364 299.738C125.278 301.768 125.327 304.103 122.516 303.945C120.035 303.81 120.132 301.597 120.096 299.726C120.096 299.163 120.096 298.601 120.096 298.026V298.063Z" fill="black"/>
<path d="M197.47 189.728C197.47 192.04 197.494 194.436 197.47 196.846C197.433 199.01 196.235 200.49 194.182 200.575C192.055 200.661 190.209 199.548 190.099 197.151C189.794 190.34 190.527 183.614 192.165 176.998C192.434 175.91 193.179 174.724 194.463 174.846C195.722 174.968 196.211 176.155 196.333 177.365C196.724 181.45 197.091 185.534 197.482 189.728H197.47Z" fill="black"/>
<path d="M10.6593 137.707C9.08244 137.487 6.60109 137.695 6.39329 135.103C6.22216 132.999 7.99456 132.29 9.9992 131.801C14.4852 130.7 18.8245 129.05 23.4817 128.634C26.1341 128.389 28.1388 129.331 28.2855 132.082C28.4321 134.773 26.5497 136.216 23.9461 136.118C19.5335 135.959 15.3775 137.683 10.6715 137.72L10.6593 137.707Z" fill="black"/>
<path d="M134.336 148.836C134.336 150.279 134.311 150.988 134.336 151.685C134.421 153.727 133.358 155.06 131.451 155.182C129.52 155.305 128.151 153.947 128.041 152.076C127.662 145.742 127.417 139.407 127.283 133.061C127.258 131.923 127.539 130.272 129.19 130.211C130.852 130.15 131.109 131.813 131.378 132.938C132.649 138.429 134.128 143.895 134.323 148.836H134.336Z" fill="black"/>
<path d="M156.656 138.49C156.656 141.327 156.741 144.164 156.631 147.001C156.558 149.056 155.617 150.658 153.294 150.56C151.094 150.462 150.532 148.799 150.63 146.94C150.96 140.288 151.326 133.635 151.754 126.995C151.852 125.589 152.182 123.877 153.954 123.852C155.947 123.828 155.776 125.76 155.91 127.056C156.326 130.859 156.57 134.675 156.888 138.49C156.815 138.49 156.729 138.49 156.656 138.502V138.49Z" fill="black"/>
<path d="M11.8685 243.107C10.1939 243.107 7.38248 243.156 4.55887 243.07C3.75212 243.046 2.79869 242.74 2.68868 241.7C2.57867 240.685 3.39764 240.233 4.21661 239.976C11.074 237.763 18.2125 236.956 25.2654 235.806C27.1478 235.5 28.3946 237.066 28.3701 239.047C28.3335 241.272 26.8911 242.226 24.7764 242.336C20.8527 242.556 16.929 242.801 11.8685 243.107V243.107Z" fill="black"/>
<path d="M261.228 79.8167C261.338 74.7051 264.027 70.7186 267.229 70.9265C269.857 71.0977 272.265 74.7296 272.18 78.3738C272.082 82.3359 269.234 85.8944 266.166 85.87C263.098 85.8455 261.154 83.4731 261.24 79.8167H261.228Z" fill="black"/>
<path d="M192.36 348.102C188.717 351.062 186.859 354.889 185.759 359.182C185.124 361.627 185.258 363.388 188.607 362.936C189.512 362.813 191.15 362.153 191.382 363.792C191.541 364.868 190.636 365.883 189.61 366.507C187.214 367.937 184.732 368.903 182.043 367.314C179.256 365.651 179.635 362.924 180.308 360.49C181.395 356.552 182.703 352.602 185.894 349.729C187.654 348.139 189.744 347.515 192.372 348.102H192.36Z" fill="black"/>
<path d="M8.51991 189.802C6.56416 189.447 4.2906 189.997 3.96056 187.857C3.6672 185.962 5.45182 185.008 7.18755 184.531C10.8301 183.516 14.4605 182.428 18.152 181.596C20.2422 181.119 22.2713 181.841 22.9069 184.054C23.5914 186.451 21.9657 187.393 19.8144 188.151C16.0007 189.496 11.9425 188.493 8.53213 189.802H8.51991Z" fill="black"/>
<path d="M161.57 70.792C161.423 72.076 161.374 73.9225 160.983 75.6835C160.567 77.5056 159.235 78.6306 157.304 78.4961C155.507 78.3738 153.954 77.4689 153.698 75.5367C153.123 71.2322 154.077 67.0745 156.057 63.3325C157.255 61.0702 159.272 61.2291 160.543 63.6382C161.631 65.6926 161.423 68.0038 161.57 70.7798V70.792Z" fill="black"/>
<path d="M178.144 359.035C178.01 361.004 177.985 362.997 177.692 364.941C177.435 366.604 176.482 367.937 174.587 367.754C172.766 367.583 171.849 366.274 171.959 364.513C172.191 360.404 173.194 356.43 174.33 352.505C174.599 351.575 175.21 350.621 176.457 350.878C177.619 351.111 177.997 352.064 178.022 353.116C178.071 355.097 178.034 357.066 178.034 359.047C178.083 359.047 178.12 359.047 178.169 359.047L178.144 359.035Z" fill="black"/>
<path d="M192.96 164.317C192.813 163.4 192.605 162.568 192.568 161.725C192.507 160.098 193.387 158.912 194.891 158.631C196.345 158.362 197.226 159.523 197.617 160.795C198.436 163.424 198.436 166.066 197.409 168.671C196.969 169.796 196.394 170.896 195.099 170.774C193.644 170.639 193.008 169.465 192.96 168.047C192.923 166.775 192.96 165.503 192.96 164.305V164.317Z" fill="black"/>
<path d="M155.849 114.094C155.458 116.625 154.932 119.181 151.546 119.291C149.921 119.352 148.32 118.386 148.918 116.845C149.799 114.546 149.994 111.257 153.282 110.829C155.238 110.572 155.764 112.284 155.849 114.094V114.094Z" fill="black"/>
<path d="M174.025 349.02C172.302 348.812 170.322 348.555 170.505 346.293C170.701 343.835 172.889 343.908 174.734 343.835C176.47 343.773 178.084 344.397 178.059 346.268C178.035 348.714 175.908 348.848 174.025 349.02Z" fill="black"/>
<path d="M129.678 123.877C129.703 125.846 129.177 127.704 127.283 127.998C125.254 128.316 125.388 126.323 125.364 124.977C125.327 123.094 125.486 120.783 127.625 120.502C129.788 120.22 129.202 122.666 129.691 123.889L129.678 123.877Z" fill="black"/>
</g>
<defs>
<clipPath id="clip0_1_750">
<rect width="279" height="373" fill="white"/>
</clipPath>
</defs>
</svg>
