<svg width="323" height="304" viewBox="0 0 323 304" fill="none" xmlns="http://www.w3.org/2000/svg">
<g clip-path="url(#clip0_1_821)">
<path d="M321.487 181.405C320.925 183.473 320.22 185.541 319.935 187.649C318.581 197.627 315.928 207.168 310.906 215.972C310.692 216.345 310.439 216.749 310.399 217.153C309.916 222.027 306.439 225.371 304.024 229.159C300.167 235.198 295.383 240.563 290.227 245.611C285.111 250.619 279.812 255.366 273.429 258.639C267.56 261.65 261.462 264.218 255.538 267.126C253.154 268.299 250.509 267.673 248.22 268.434C244.157 269.781 240.03 270.296 235.841 270.653C232.38 270.946 229.006 272.198 225.466 271.556C224.864 271.445 224.349 271.865 223.937 272.246C220.191 275.733 216.35 279.061 212.01 281.866C206.181 285.646 200.296 289.252 194.031 292.295C186.594 295.909 178.484 297.375 170.802 300.141C168.553 300.949 166.256 301.44 163.912 301.829C158.479 302.724 153.014 303.453 147.525 303.802C144.27 304.008 140.983 303.374 137.712 303.976C137.198 304.071 136.778 303.715 136.311 303.556C134.647 303.001 133.055 302.209 131.163 302.431C129.539 302.621 127.805 302.661 126.221 302.312C122.942 301.591 119.75 300.624 116.392 300.061C113.058 299.507 109.589 298.334 106.397 296.749C103.316 295.219 99.9104 294.522 96.885 292.683C94.9367 291.495 92.7904 290.393 90.7232 289.331C87.9909 287.929 84.9813 286.566 83.0725 283.95C82.138 282.675 81.0213 281.85 79.667 281.137C74.8991 278.609 70.8045 275.17 67.6049 270.859C66.3377 269.147 64.8883 267.61 63.6369 265.914C62.1955 263.964 59.7324 263.243 58.4019 261.294C56.4773 258.488 54.9487 255.382 52.058 253.345C51.7808 253.147 51.5115 252.822 51.4006 252.505C49.7691 247.845 45.8645 244.517 44.0984 239.913C42.6728 236.188 39.5523 233.462 37.8891 229.817C37.4615 228.89 37.8971 227.939 37.3347 227.178C34.9508 223.952 34.3093 219.887 32.1472 216.543C31.5848 215.679 31.268 214.609 31.0146 213.595C29.9137 209.212 28.5753 205.004 25.9775 201.153C24.346 198.744 22.1284 196.739 21.0038 193.949C20.4018 192.468 20.489 190.811 19.3327 189.44C16.7191 186.334 14.747 182.887 14.0104 178.734C13.6144 176.499 13.2501 174.058 11.5711 172.26C10.787 171.419 10.8108 170.461 10.5652 169.446C9.94749 166.91 9.45645 164.168 8.56942 161.91C7.23094 158.494 7.08838 155.15 6.68446 151.711C6.50231 150.173 7.48438 148.477 6.35183 147.122C5.70239 146.346 5.77367 145.609 5.69447 144.761C5.30639 140.545 6.36767 136.337 5.61527 132.113C5.39351 130.869 5.38559 129.434 5.79743 128.269C7.56358 123.261 8.11006 118.07 8.17342 112.832C8.2051 109.947 9.17133 106.746 6.42311 104.345C6.08255 104.051 6.05087 103.251 6.09839 102.704C6.18551 101.698 5.83703 100.834 5.35391 100.065C3.81744 97.6087 3.2868 94.732 1.91664 92.1565C0.324731 89.1689 -0.546466 85.5869 0.396011 81.9891C1.06129 79.4215 1.95624 76.8222 4.58567 75.7761C7.04878 74.7934 7.83286 73.0025 7.73782 70.736C7.65862 68.8024 7.97542 67.0272 8.64862 65.2679C9.44853 63.1917 10.1376 61.0837 10.6603 58.9123C12.5056 51.265 17.2022 45.1708 21.7324 39.0133C23.855 36.1367 26.2864 33.4819 28.5673 30.7241C30.0404 28.949 31.5532 27.2372 33.2322 25.6206C35.1171 23.7979 37.9129 23.473 39.489 21.2699C40.1384 20.3665 41.0334 19.6216 42.0946 19.0668C46.4665 16.7687 50.8066 14.423 55.3606 12.4814C62.0213 9.64435 68.8404 7.21939 75.8416 5.43632C80.847 4.16045 86.0109 3.58987 91.238 3.42345C96.0059 3.27288 100.584 0.784517 105.518 1.90983C107.751 2.42493 109.866 1.53736 112.052 1.45812C113.889 1.39472 115.925 1.82265 117.461 1.41849C120.748 0.5547 123.726 1.8702 126.838 1.9019C128.755 1.91775 130.656 1.31547 132.541 1.71171C135.526 2.33776 138.544 1.75926 141.213 0.887538C145.015 -0.356642 148.824 0.213937 152.562 0.031669C159.5 -0.309094 166.208 2.03662 172.988 3.33628C175.221 3.76421 177.288 5.4284 179.775 5.75331C180.845 5.89596 181.803 6.79938 182.856 7.23523C187.489 9.15302 192.519 10.2546 196.225 14.0029C196.455 14.2407 196.867 14.3041 197.207 14.415C202.498 16.1743 207.202 19.2412 212.477 21.1273C216.326 22.5062 219.858 24.7806 223.723 26.2704C226.305 27.261 228.737 28.7508 230.978 30.2248C233.053 31.58 235.651 31.786 237.274 33.2521C239.254 35.0431 241.725 35.8355 243.761 37.5393C249.043 41.9693 255.498 44.8301 260.757 49.3868C261.612 50.1317 262.468 50.8212 263.26 51.6612C264.693 53.1907 266.055 54.942 268.344 55.4254C268.946 55.5522 269.604 55.9009 270.023 56.3447C273.065 59.6176 276.684 62.2803 279.63 65.68C282.149 68.5805 285.269 70.9737 287.138 74.4289C287.614 75.3006 288.2 75.9267 289.071 76.3546C290.211 76.9173 290.988 77.892 291.645 78.8984C293.197 81.2679 294.599 83.7484 296.04 86.1812C296.872 87.576 297.411 89.0975 298.686 90.2308C299.304 90.7855 299.953 91.578 300.088 92.3546C300.484 94.6924 302.131 96.0554 303.667 97.5453C304.135 97.9891 304.483 98.5121 304.832 99.0748C306.17 101.254 306.21 104.123 308.451 105.827C309.053 106.286 309.267 107.174 309.694 107.729C311.049 109.488 310.368 111.762 311.532 113.569C313.211 116.184 314.906 118.847 315.001 122.144C315.017 122.587 315.444 123.023 315.682 123.459C316.878 125.646 318.399 127.707 318.09 130.441C318.026 130.972 318.208 131.645 318.517 132.081C320.379 134.712 319.729 137.874 320.323 140.751C321.226 145.125 321.677 149.587 321.503 154.104C321.384 157.226 323.079 160.143 323.032 163.297C322.976 167.354 322.018 171.348 322.256 175.429C322.2 177.442 322.058 179.439 321.519 181.405H321.487ZM295.676 129.934C295.589 130.116 295.597 130.362 295.621 130.576C296.809 140.053 294.425 148.977 291.479 157.821C291.209 158.629 290.956 159.524 291.027 160.349C291.328 163.843 289.95 166.871 288.873 170.072C288.081 172.426 287.788 174.97 286.742 177.3C284.359 182.601 281.832 187.808 277.832 192.151C275.662 194.504 273.674 197.016 271.544 199.402C269.12 202.12 266.404 204.592 263.236 206.328C260.139 208.024 258.476 210.607 256.813 213.539C254.841 217.018 253.542 220.783 251.863 224.372C250.802 226.631 249.416 229.08 249.923 231.885C249.986 232.242 249.732 232.765 249.471 233.066C247.729 235.047 247.364 237.726 245.986 239.897C245.123 241.26 245.559 243.027 244.679 244.549C242.953 247.536 241.005 250.358 238.93 253.1C238.557 253.591 237.955 254.138 238.32 254.803C238.676 255.453 239.46 255.39 240.086 255.247C243.84 254.415 247.832 254.637 251.308 252.545C252.394 251.887 253.795 251.721 255.007 251.546C258.674 251.015 261.969 249.629 265.113 247.822C266.38 247.093 267.41 245.959 268.645 245.167C272.867 242.441 277.009 239.477 280.676 236.172C283.305 233.803 285.927 231.037 288.041 227.891C290.172 224.729 292.659 221.789 294.187 218.262C294.884 216.662 296.001 215.378 296.832 213.888C299.161 209.72 300.539 205.218 301.98 200.709C302.875 197.92 303.557 195.059 304.642 192.357C305.259 190.811 305.473 189.187 305.346 187.768C305.069 184.551 305.655 181.42 306.202 178.385C306.756 175.303 305.933 172.402 306.059 169.415C306.123 167.83 306.629 166.364 306.661 164.763C306.788 157.884 304.816 151.441 303.303 144.848C302.487 141.313 300.618 138.025 300.658 134.316C300.682 132.24 299.082 130.9 298.607 129.133C298.068 127.128 297.426 125.147 296.864 123.15C296.468 121.763 296.436 121.771 294.282 121.383C296.04 124.252 297.086 126.93 295.684 129.942L295.676 129.934ZM195.869 267.419C193.746 266.976 191.932 265.613 189.778 265.042C188.091 264.59 186.563 263.742 184.717 263.592C182.714 263.425 180.971 262.292 179.142 261.333C176.425 259.915 173.511 258.663 169.86 259.851C163.326 261.975 156.649 264.02 149.727 264.361C145.64 264.559 141.522 265.922 137.38 264.551C136.912 264.392 136.271 264.749 135.709 264.868C133.784 265.256 131.883 265.51 130.038 264.519C127.741 263.291 125.238 264.408 122.839 263.893C117.857 262.815 112.709 262.57 107.767 261.254C105.082 260.541 102.508 259.439 99.8391 258.686C92.1964 256.523 85.3931 252.466 78.2731 249.137C75.9129 248.036 74.5823 245.579 72.1826 244.525C71.5728 244.256 70.9946 243.376 70.2976 244.097C69.7195 244.699 70.1788 245.523 70.5352 246.086C71.0342 246.863 71.6916 247.56 72.3727 248.186C75.7466 251.261 77.5127 255.54 80.4431 258.94C80.6728 259.209 80.847 259.59 81.1401 259.74C86.5732 262.467 90.3748 267.015 94.2476 271.477C94.8416 272.158 95.4911 272.753 96.3306 272.935C100.172 273.783 103.031 276.327 106.064 278.53C107.601 279.655 109.43 280.226 111.07 280.836C113.691 281.811 115.956 283.681 118.594 284.204C121.271 284.735 123.71 285.884 126.347 286.486C129.753 287.263 133.198 287.881 136.564 288.761C138.861 289.363 140.928 288.491 143.138 288.832C147.169 289.466 151.24 288.563 155.271 288.61C160.53 288.674 165.369 286.621 170.541 286.375C173.067 286.257 175.752 286.035 177.875 283.927C178.746 283.063 180.401 282.754 181.692 282.302C185.311 281.042 188.749 279.41 192.162 277.73C195.702 275.986 199.29 274.322 202.45 271.881C203.527 271.049 204.327 269.995 205.785 268.965C202.07 269.028 198.989 268.093 195.869 267.435V267.419ZM134.22 246.958C130.6 245.317 126.68 244.58 123.084 242.702C120.914 241.569 118.316 240.785 115.877 239.929C113.065 238.938 110.325 237.694 107.64 236.394C105.209 235.221 103.078 233.549 100.607 232.337C97.4869 230.815 94.3347 228.969 91.8241 226.417C91.3331 225.918 90.8737 225.625 90.3035 225.434C87.5236 224.515 85.3456 222.645 83.2389 220.767C82.3994 220.022 81.5836 219.515 80.554 219.19C77.5207 218.239 75.4535 215.798 73.0538 213.959C68.8483 210.726 64.8566 207.16 61.1976 203.324C59.4473 201.494 57.6336 199.592 56.2001 197.373C55.1705 195.788 52.8262 195.289 51.757 193.466C51.6224 193.236 51.1313 193.117 51.1234 192.927C51.0046 189.876 48.4069 189.076 46.514 187.523C44.8508 186.152 43.1718 184.575 43.1322 182.07C43.1322 181.801 42.7599 181.539 42.3085 180.929C41.9442 184.559 42.451 187.507 43.6232 190.566C44.732 193.45 45.6428 196.319 47.7178 198.688C48.0109 199.021 48.1059 199.616 48.1217 200.099C48.193 201.961 48.9533 203.213 50.8462 203.721C52.1768 204.085 53.3093 205.052 53.4994 206.32C53.7845 208.238 54.9012 208.808 56.5011 209.292C57.499 209.593 58.3147 210.385 59.0671 211.202C63.1538 215.592 67.5573 219.649 72.3489 223.271C72.4598 223.358 72.642 223.414 72.6895 223.524C74.0992 226.496 76.9346 227.558 79.659 228.802C81.3143 229.555 82.5102 230.76 83.524 232.368C84.4189 233.795 86.3118 234.73 87.8325 234.952C91.143 235.443 93.5269 237.599 96.3939 238.843C100.306 240.539 103.942 242.908 108.274 243.598C109.296 243.756 110.23 244.47 111.196 244.937C113.739 246.165 116.511 246.665 119.227 247.283C123.06 248.162 126.735 249.779 130.703 250.009C135.043 250.262 139.391 250.706 143.747 250.342C144.151 250.31 144.531 250.056 145.165 249.811C141.363 248.678 137.586 248.487 134.204 246.95L134.22 246.958ZM142.116 66.211C134.069 64.4517 125.959 65.7355 118.079 67.9227C116.051 68.4854 114.214 69.7533 112.289 70.6964C111.521 71.0767 111.355 71.7503 111.466 72.5111C111.83 74.8965 111.98 77.3452 112.662 79.6434C113.176 81.3947 113.438 83.2016 113.454 84.9133C113.477 87.9247 114.618 90.5795 115.378 93.3531C115.742 94.6924 114.871 96.1109 116.067 97.4264C117.485 98.9876 118.031 99.0827 118.942 97.157C120.795 93.2184 123.575 89.9772 126.228 86.5696C129.167 82.7974 132.739 80.0475 136.58 77.4244C139.835 75.1976 143.454 74.0168 147.216 73.1768C150.852 72.3685 154.526 71.7424 158.281 71.37C153.164 68.6835 147.589 67.4076 142.124 66.211H142.116ZM179.815 129.276C183.007 131.273 185.098 134.863 186.531 138.484C187.038 139.76 187.751 140.743 188.669 141.607C190.341 143.168 191.251 145.102 192.146 147.17C193.358 149.959 194.752 152.709 196.669 155.126C197.777 156.521 198.498 158.225 198.601 159.826C198.807 162.885 200.874 163.994 203.108 164.858C204.446 165.381 205.769 165.84 206.957 166.665C208.39 167.655 210.006 167.83 211.74 167.6C211.416 164.921 209.943 162.647 208.826 160.301C207.97 158.51 208.652 156.466 207.424 154.809C205.713 152.495 205.777 149.175 203.044 147.36C201.413 146.282 202.157 143.794 200.7 142.471C200.565 142.344 200.621 141.987 200.486 141.884C197.968 139.958 196.479 137.137 194.38 134.855C192.59 132.913 190.499 131.249 188.693 129.323C185.082 125.464 180.219 123.633 175.736 121.232C174.002 120.305 172.79 118.562 170.659 118.237C174.247 121.462 175.388 126.502 179.815 129.276V129.276ZM118.364 160.182C117.77 158.827 117.334 157.195 117.414 155.57C117.516 153.446 116.622 151.631 115.742 149.761C114.966 148.113 114.246 146.076 114.38 144.499C114.586 142.13 113.699 140.077 113.604 137.866C113.58 137.288 113.137 137.018 112.844 136.614C111.798 135.196 110.143 134.15 110.325 131.97C110.412 130.988 109.224 130.441 108.709 129.609C106.587 126.209 106.492 122.017 104.179 118.712C103.625 117.92 103.506 116.573 103.49 115.693C103.443 113.458 102.001 111.921 101.217 110.138C100.663 108.878 100.512 107.768 100.481 106.516C100.465 106.009 100.528 105.494 100.425 105.01C100.196 103.933 100.093 102.213 99.0709 102.189C97.8512 102.157 98.857 103.687 98.5561 104.511C97.3919 107.689 99.0471 110.811 98.8966 113.973C98.7382 117.444 100.069 120.82 99.4827 124.299C99.2689 125.575 99.9342 126.542 100.473 127.524C101.787 129.918 102.524 132.398 102.065 135.156C101.93 135.956 101.938 136.82 102.508 137.422C103.815 138.801 104.346 140.624 105.296 142.146C107.727 146.021 108.266 150.577 110.325 154.54C110.523 154.92 110.666 155.364 110.959 155.649C112.194 156.814 113.034 158.098 113.279 159.873C113.477 161.323 114.499 162.457 115.766 163.249C117.524 164.343 118.602 165.856 118.807 167.941C118.918 169.098 119.291 170.017 120.566 170.334C121.809 170.635 122.213 172.077 123.805 172.735C122.007 168.194 120.122 164.216 118.364 160.182ZM211.764 206.161C218.647 204.901 222.908 200.582 225.949 194.322C227.905 190.296 229.56 186.088 231.913 182.253C232.752 180.882 233.251 179.408 233.441 177.648C230.178 181.484 226.701 184.733 221.894 186.342C219.581 187.11 218.615 189.575 217.427 191.429C213.839 197.048 208.77 201.193 204.09 205.733C203.836 205.979 203.607 206.241 203.377 206.51C203.345 206.55 203.377 206.653 203.377 206.811C206.252 207.873 209.032 206.661 211.764 206.161V206.161ZM51.3452 162.892C53.5311 165.207 55.6695 167.703 56.3664 170.992C56.5248 171.729 56.8337 172.109 57.5544 172.299C60.1838 173.012 61.6332 174.891 62.2589 177.419C62.7024 179.202 63.5974 180.39 65.4585 180.739C66.599 180.953 67.692 181.706 67.8979 182.665C68.5236 185.51 71.0976 186.381 72.8795 188.006C75.7941 190.653 78.6928 193.403 81.7578 195.772C84.6011 197.959 87.1276 200.654 90.3589 202.358C90.8024 202.587 91.3964 202.817 91.5786 203.213C93.2101 206.692 96.8533 207.596 99.6094 209.617C100.528 210.29 101.344 211.138 102.065 212.018C102.698 212.794 103.34 213.056 104.361 212.755C103.696 210.663 101.621 210.076 100.394 208.666C97.6136 205.48 93.7328 203.443 91.2539 199.838C89.9154 197.888 87.5949 196.826 85.5673 195.55C84.3081 194.758 83.3181 193.672 82.4231 192.428C80.9817 190.423 79.0413 188.87 77.0851 187.38C74.9704 185.763 73.2676 183.798 71.5886 181.73C69.9016 179.661 68.0563 177.569 65.7357 176.158C64.4131 175.35 64.6745 173.884 63.6686 172.838C61.1976 170.27 58.5207 168.036 55.6695 165.959C55.2655 165.666 55.2576 165.238 55.1071 164.85C53.9588 161.894 51.5273 159.826 49.8245 157.242C49.6028 156.901 48.8979 156.561 47.9871 156.767C48.6207 159.16 49.6503 161.094 51.3372 162.877L51.3452 162.892ZM57.3327 81.7117C55.4794 85.5552 52.9925 88.4319 52.1055 92.1327C51.5669 94.3596 50.1968 96.1585 49.0959 98.0604C47.5832 100.668 47.4644 103.647 46.3714 106.358C45.7141 107.974 46.7357 110.13 47.4485 111.326C49.4523 114.694 51.1551 118.157 52.7549 122.334C55.3606 108.727 56.604 95.5879 57.3327 81.7196V81.7117ZM54.2914 49.0143C58.1484 46.3992 61.5302 43.2372 66.0525 41.4462C68.9037 40.3209 71.4302 38.0624 74.3447 36.8261C78.0592 35.2491 82.0113 34.2268 85.6465 32.5072C89.4085 30.732 93.4715 29.7335 97.1147 27.681C99.0946 26.5636 101.708 26.7538 103.474 24.6458C101.708 24.2179 100.172 23.5126 98.4294 24.7647C97.6136 25.3511 96.4098 25.5096 95.3485 25.6285C91.9271 26.001 88.7908 27.1342 85.5753 28.3546C79.9838 30.4784 74.3764 32.5706 68.7928 34.7181C68.286 34.9163 67.8821 35.3997 67.4623 35.788C66.306 36.8657 65.1338 37.9831 63.6766 38.6013C57.3406 41.3194 53.634 46.9222 48.8108 51.9227C51.5432 52.0257 52.7312 50.0604 54.2835 49.0064L54.2914 49.0143ZM221.331 242.472C216.999 244.382 212.659 246.253 208.002 247.196C205.484 247.711 203.543 249.462 200.977 250.159C201.524 251.158 202.553 251.412 203.179 251.412C205.666 251.412 207.899 252.228 210.228 252.901C211.439 253.258 212.722 253.258 213.784 254.122C214.853 254.986 216.215 254.217 217.268 254.494C221.038 255.485 221.941 252.957 223.288 250.413C225.212 246.776 226.234 242.639 229.133 239.509C229.426 239.192 229.441 238.629 229.719 237.741C226.709 239.564 224.143 241.228 221.339 242.465L221.331 242.472ZM25.0588 77.0758C25.5577 74.2466 26.5161 71.5126 27.015 68.7231C27.6407 65.1887 28.599 61.8207 29.8979 58.5081C31.1492 55.3066 32.068 51.7167 34.5152 49.4106C37.7149 46.3913 39.0296 42.2942 41.6986 39.0292C42.9104 37.5473 44.5181 36.628 45.9279 35.4314C46.3318 35.0906 46.9971 35.0193 47.0921 34.1C45.1359 34.8687 43.2747 35.2967 41.9204 37.0005C41.0096 38.1495 39.7028 39.045 38.4435 39.8534C33.7787 42.841 30.8483 47.0886 29.0109 52.2397C28.2664 54.3239 27.213 56.2892 26.4448 58.3655C24.6865 63.1045 22.7937 67.7642 22.96 73.0262C23.0471 75.784 22.0254 78.5577 22.667 81.577C23.9183 80.2139 24.7657 78.7716 25.0588 77.0758V77.0758ZM164.712 233.898C167.254 235.396 169.939 236.79 173.059 237.361C177.597 238.185 182.017 237.67 186.436 237.179C188.978 236.893 190.76 234.841 192.875 233.145C181.945 231.639 171.135 232.273 160.474 230.165C162.32 230.997 163.231 233.034 164.704 233.906L164.712 233.898ZM167.737 195.035C169.86 195.297 170.747 197.167 172.133 198.268C174.382 200.059 177.043 200.44 179.506 201.47C179.902 201.636 180.346 201.716 180.71 201.93C183.45 203.554 184.313 203.435 186.824 201.216C187.323 200.773 187.988 200.519 188.757 200.075C179.799 197.745 170.826 196.01 162.779 191.429C164.244 192.919 165.496 194.758 167.745 195.035H167.737Z" fill="#F2F2F2"/>
<path d="M229.457 164.58C228.855 163.297 228.934 161.894 228.53 160.571C228.213 159.532 227.944 158.494 227.509 157.504C227.168 156.743 226.867 155.966 226.614 155.174C226.115 153.605 225.592 152.036 225.188 150.435C224.903 149.317 224.174 148.43 223.857 147.336C223.644 146.591 223.319 145.87 223.073 145.133C222.424 143.208 221.442 141.424 220.349 139.729C219.66 138.667 218.915 137.613 218.044 136.701C216.666 135.259 215.169 133.975 213.538 132.794C211.368 131.209 209.126 129.799 206.758 128.563C206.251 128.301 205.84 127.873 205.293 127.715C204.192 127.398 203.25 126.772 202.236 126.296C200.399 125.432 198.727 124.236 196.747 123.649C196.185 123.483 195.678 123.095 195.156 122.801C194.649 122.516 194.134 122.056 194.055 121.557C193.833 120.305 193.461 119.108 193.152 117.888C192.922 116.993 192.669 116.105 192.471 115.202C192.209 114.021 191.196 113.212 190.578 112.206C190.451 112 190.174 112.016 189.968 111.929C188.265 111.208 186.539 110.526 184.804 109.9C182.713 109.155 180.963 107.927 179.165 106.722C178.619 106.35 178.326 105.763 177.803 105.367C176.813 104.614 176.108 103.576 175.308 102.633C174.286 101.428 173.439 100.105 172.314 98.9717C171.578 98.2347 170.817 97.4898 170.216 96.6102C170.16 96.5309 170.105 96.4517 170.049 96.3724C169.851 96.4121 169.614 96.3249 169.55 96.0713C169.495 95.8653 169.455 95.6592 169.408 95.4532C168.077 93.5275 166.731 91.6176 165.511 89.6127C164.664 88.2179 163.967 86.7598 163.452 85.2144C163.222 84.525 163.254 84.4616 163.975 84.3586C164.426 84.2952 164.877 84.2952 165.329 84.2556C166.105 84.1922 166.889 83.9861 167.253 83.265C167.705 82.3853 168.441 81.791 169.075 81.0381C169.273 80.4279 169.376 79.7939 169.36 79.1362C169.336 78.1931 169.035 77.2897 168.6 76.4656C168.568 76.4022 168.56 76.3467 168.552 76.2912C168.449 76.1882 168.338 76.0931 168.236 75.998C168.14 75.9267 168.061 75.8633 167.974 75.784C167.531 75.6414 167.238 75.2689 166.857 75.0233C165.875 74.3893 164.862 73.8108 163.713 73.5176C163.167 73.3749 162.43 73.7553 162.105 73.256C161.836 72.836 162.018 72.1466 161.86 71.6156C161.702 71.0688 161.987 70.9817 162.359 70.8469C162.913 70.6647 163.523 69.9277 163.452 69.4205C163.254 68.0812 163.191 66.734 162.913 65.3947C162.565 63.6751 161.717 62.098 161.551 60.3308C161.543 60.1882 161.456 60.0297 161.369 59.9188C160.957 59.4433 160.854 58.8489 160.648 58.2783C160.419 57.6364 160.403 56.9232 160.078 56.3368C159.333 55.0054 158.819 53.5711 158.09 52.2318C157.441 51.0431 156.815 49.8385 155.429 49.3155C155.255 49.2521 155.104 49.1174 154.962 49.0064C154.732 48.8241 154.597 48.6102 154.803 48.3249C155.659 47.1283 155.69 45.686 155.667 44.3546C155.651 43.0233 155.738 41.6364 155.294 40.2972C155.136 39.8137 154.922 39.3145 154.859 38.7994C154.669 37.1748 153.774 35.8514 153.037 34.4646C152.673 33.783 152.063 33.363 151.406 32.9509C149.925 32.0317 148.372 31.5641 146.614 31.5562C145.711 31.5562 144.824 31.4611 143.937 31.7068C142.361 32.1426 140.761 32.4834 139.217 32.9985C138.623 33.1966 137.973 33.0064 137.459 33.3313C136.817 33.7276 136.104 33.783 135.399 33.9178C134.489 34.1 133.57 34.2744 132.659 34.4804C130.806 34.8925 129.087 35.6453 127.369 36.4299C125.856 37.1193 124.787 38.3081 123.9 39.687C123.583 40.1783 123.646 40.8043 123.337 41.2719C122.838 42.0406 122.902 42.8568 122.973 43.6889C123.115 45.5116 123.686 47.2709 124.319 48.9192C125.032 50.7736 125.856 52.6993 127.369 54.1892C127.028 54.625 126.822 55.0847 126.687 55.6077C126.561 56.0832 126.347 56.5666 125.943 56.8519C125.587 57.1055 125.484 57.4225 125.428 57.7949C125.254 58.9361 125.032 60.0772 124.779 61.1867C124.549 62.2169 124.81 63.2075 124.581 64.1981C124.509 64.5072 124.597 64.9034 124.747 65.1887C125.349 66.3219 125.317 67.6057 125.452 68.8024C125.658 70.5616 125.927 72.3289 125.927 74.104C125.927 74.6112 126.046 75.055 126.188 75.5304C126.442 76.3625 126.656 77.2026 126.648 78.0901C126.64 79.049 127.186 79.8811 127.369 80.8004C127.408 80.9826 127.63 81.1808 127.812 81.2917C128.762 81.8702 129.57 82.6944 130.687 82.9797C130.687 83.368 130.441 83.5503 130.243 83.7801C130.022 84.0257 129.879 84.3031 129.966 84.7073C130.085 85.2303 130.544 84.9133 130.766 85.1114C130.814 85.3888 130.584 85.5314 130.505 85.7375C130.228 86.4745 130.6 86.9896 131.368 86.9183C131.629 86.8945 131.891 86.8311 132.152 86.8073C133.087 86.7201 133.079 86.7281 133.261 87.6077C133.499 88.7726 133.673 89.9455 134.021 91.0867C134.156 91.5146 134.021 91.8395 133.649 92.1723C133.023 92.7033 132.279 93.0678 131.669 93.6305C131.424 93.8524 131.051 94.1852 130.647 94.2011C129.966 94.2328 129.277 94.2803 128.612 94.1694C126.759 93.8445 124.969 94.2169 123.187 94.6052C122.727 94.7082 122.157 94.5418 121.809 94.9777C121.571 95.2709 121.254 95.2788 120.945 95.3977C119.837 95.8336 118.649 95.9128 117.532 96.4279C115.829 97.2045 114.206 97.9812 112.756 99.1857C110.824 100.779 109.454 102.752 108.487 105.01C107.775 106.675 107.529 108.45 107.347 110.264C107.196 111.754 107.402 113.26 107.046 114.734C106.975 115.019 106.975 115.344 107.038 115.63C107.26 116.676 107.553 117.714 107.608 118.799C107.632 119.283 107.727 119.838 108.083 120.273C108.25 120.472 108.408 120.741 108.273 121.082C108.147 121.383 108.345 121.66 108.519 121.922C109.343 123.11 110.079 124.363 110.879 125.559C111.449 126.407 112.186 127.184 112.788 128.048C113.081 128.46 113.58 128.602 113.976 128.872C114.483 129.212 114.895 129.617 115.259 130.116C116.027 131.178 116.914 132.145 118.039 132.842C118.783 133.302 119.488 133.833 120.241 134.292C120.732 134.593 121.143 135.188 121.12 135.782C121.104 136.368 120.93 136.923 121.302 137.486C121.46 137.732 121.207 138.049 121.001 138.152C120.225 138.548 119.829 139.316 119.219 139.871C117.714 141.25 116.312 142.716 114.942 144.23C112.962 146.425 111.188 148.739 109.612 151.227C108.503 152.979 107.402 154.73 106.658 156.68C106.404 157.345 106.246 158.051 105.993 158.708C105.692 159.477 105.446 160.261 105.185 161.046C104.694 162.52 104.662 164.073 104.337 165.571C104.195 166.229 104.013 166.871 104.02 167.576C104.06 169.676 103.878 171.776 104.028 173.884C104.076 174.621 103.949 175.366 104.084 176.119C104.424 177.981 104.306 179.883 104.709 181.753C105.018 183.172 105.486 184.551 105.509 186.064C105.541 188.006 106.016 189.947 106.175 191.897C106.301 193.482 106.887 194.948 107.149 196.485C107.268 197.214 107.87 197.753 107.814 198.49C107.767 199.196 108.004 199.83 108.147 200.495C108.21 200.788 108.337 201.082 108.353 201.375C108.408 202.54 108.701 203.515 109.359 204.592C109.454 204.743 109.461 204.949 109.493 205.131C109.699 206.423 109.889 207.707 110.341 208.951C110.8 210.195 111.164 211.479 111.465 212.787C111.719 213.896 111.727 215.085 112.344 216.107C112.574 216.495 112.788 216.907 112.899 217.343C113.342 219.103 114.023 220.751 114.887 222.344C115.259 223.033 115.291 224.04 115.892 224.452C116.748 225.038 116.273 225.965 116.78 226.568C116.803 226.599 116.795 226.647 116.819 226.671C117.77 227.645 118.3 228.913 119.068 230.023C120.011 231.394 121.238 232.527 122.125 233.938C122.577 234.659 123.242 235.309 123.995 235.713C124.795 236.149 125.396 236.798 126.093 237.337C126.941 237.995 127.757 238.716 128.905 238.938C129.729 239.104 130.41 239.715 131.138 240.135C131.645 240.436 132.105 240.911 132.604 241.292C133.641 242.092 134.766 242.797 135.669 243.764C136.136 244.263 136.445 244.866 136.849 245.413C137.712 246.577 138.734 247.631 139.13 249.129C139.296 249.779 139.961 250.294 140.199 251.023C140.254 251.206 140.745 251.879 141.236 251.554C141.609 251.301 141.704 251.427 141.957 251.641C142.258 251.903 142.535 252.228 143.026 252.204C143.636 252.18 144.191 252.41 144.729 252.664C145.141 252.846 145.521 253.131 146.004 253.115C147.81 253.044 149.489 253.797 151.311 253.908C153.275 254.035 155.223 254.011 157.187 254.098C157.67 254.114 158.074 253.702 158.502 253.852C159.769 254.304 161.036 253.86 162.288 253.852C164.315 253.837 166.351 253.575 168.338 253.115C169.154 252.925 169.978 252.814 170.802 252.822C171.768 252.822 172.734 253.036 173.661 252.545C173.851 252.442 174.073 252.458 174.302 252.553C174.461 252.624 174.762 252.648 174.841 252.553C175.348 251.974 176.068 252.283 176.662 252.053C176.995 251.927 177.454 252.101 177.763 251.95C178.904 251.412 180.266 251.467 181.272 250.587C181.422 250.453 181.628 250.532 181.818 250.54C182.571 250.579 183.355 250.532 184.028 250.262C185.596 249.652 187.14 249.074 188.851 249.129C189.073 249.137 189.334 249.129 189.516 249.018C190.269 248.598 191.093 248.567 191.908 248.456C192.494 248.368 193.128 248.384 193.54 247.822C193.595 247.75 193.738 247.711 193.841 247.711C195.401 247.727 196.89 247.338 198.379 246.934C200.01 246.498 201.642 246.062 203.234 245.46C204.073 245.143 204.802 244.596 205.602 244.224C206.719 243.701 207.946 243.392 209.008 242.718C209.237 242.568 209.506 242.552 209.736 242.457C210.56 242.108 211.518 242.092 212.231 241.529C212.92 240.991 213.688 240.674 214.504 240.444C215.534 240.158 216.452 239.699 217.157 238.891C217.252 238.788 217.3 238.566 217.442 238.661C217.925 238.994 218.123 238.558 218.385 238.344C218.836 237.955 219.28 237.551 219.707 237.139C221.228 235.681 221.497 233.288 220.381 231.497C220.064 230.982 219.866 230.411 219.755 229.809C219.549 228.66 219.802 227.693 220.705 226.853C221.442 226.163 222.171 225.458 222.852 224.697C223.557 223.905 223.984 222.922 224.697 222.13C225.932 220.767 227.081 219.324 228.245 217.898C228.53 217.557 228.72 217.137 228.95 216.757C229.892 215.108 230.486 213.325 231.199 211.59C232.261 208.967 233.148 206.288 233.781 203.53C233.947 202.801 234.312 202.08 234.248 201.327C234.13 199.75 234.526 198.205 234.407 196.604C234.264 194.686 234.478 192.737 234.161 190.811C233.75 188.252 233.377 185.684 232.958 183.124C232.736 181.753 232.403 180.398 232.197 179.027C231.865 176.792 231.516 174.542 230.898 172.37C230.384 170.548 229.972 168.749 229.845 166.855C229.79 166.086 229.75 165.214 229.441 164.541M162.723 78.8826C162.795 78.6052 163 78.3437 163.222 78.1614C163.523 77.9079 163.872 77.7652 164.244 77.6384C164.418 77.575 164.632 77.6384 164.782 77.7256C164.822 77.7494 164.854 77.7731 164.885 77.8048C164.988 77.8207 165.091 77.8445 165.194 77.8682C165.432 77.9237 165.622 78.1456 165.669 78.3754C165.812 79.0569 165.772 79.8732 165.369 80.4834C165.234 80.6815 164.973 80.8321 164.727 80.8004C164.283 80.7528 163.88 80.6577 163.491 80.4517C163.222 80.309 162.985 80.0872 162.834 79.8256C162.668 79.5324 162.644 79.1917 162.731 78.8667M154.89 57.3591C154.978 57.573 155.215 57.7949 154.97 58.1753C153.964 56.4794 152.277 55.4334 151.247 53.8009C151.057 53.4918 150.677 53.3095 150.424 53.0401C150.289 52.8895 150.004 52.7707 150.186 52.4854C150.305 52.2952 150.495 52.3427 150.693 52.3586C152.11 52.4616 153.164 52.9846 153.639 54.4745C153.956 55.473 154.494 56.3923 154.906 57.367M128.43 42.9123C128.659 42.2863 129.111 41.6602 129.729 41.3194C130.655 40.8123 131.511 40.1149 132.691 40.1941C133.483 40.2496 134.148 39.7187 134.877 39.473C135.851 39.1481 136.865 39.1084 137.823 38.7835C139.336 38.2684 140.92 38.1575 142.432 37.4997C144.088 36.7865 145.965 36.6122 147.794 37.0639C148.095 37.1352 148.602 37.151 148.554 37.7216C148.554 37.8088 148.657 37.9197 148.744 37.999C149.616 38.7677 149.885 39.782 149.996 40.8915C150.091 41.8266 150.313 42.7538 150.408 43.681C150.511 44.6478 150.17 45.6305 149.798 46.5498C149.655 46.9143 149.315 46.8033 149.156 46.6211C148.855 46.2803 148.547 46.2882 148.143 46.3279C147.366 46.4071 146.994 46.2248 146.796 45.4958C146.527 44.5052 145.949 43.6493 145.664 42.6746C145.561 42.3259 145.347 41.993 145.07 41.7236C144.769 41.4304 144.254 41.2323 144.056 41.4859C143.597 42.0723 143.074 41.7315 142.599 41.7236C142.013 41.7157 141.624 41.8742 141.474 42.3734C141.347 42.7934 141.371 43.2372 141.521 43.6097C142.028 44.8063 141.925 46.1218 142.393 47.4294C142.02 47.4611 141.767 47.4215 141.577 47.5086C140.135 48.206 138.52 48.2536 137.015 48.7053C135.835 49.0619 134.623 49.3313 133.419 49.6245C132.992 49.7276 132.714 50.0604 132.342 50.2427C131.677 50.5676 131.376 50.5042 131.028 49.9098C130.22 48.5309 129.23 47.2313 129.151 45.5275C129.127 45.1392 128.715 44.9252 128.62 44.4973C128.501 43.9742 128.24 43.364 128.406 42.9282M130.608 76.1089C130.164 74.8648 129.95 73.6364 129.792 72.416C129.515 70.3477 129.063 68.2872 129.087 66.1872C129.087 66.108 129 66.0208 129.024 65.9732C129.539 65.0064 129.301 63.897 129.578 62.9064C129.942 61.5592 130.228 60.1723 131.051 58.9519C131.368 58.5002 131.408 57.8108 131.78 57.3036C131.962 57.05 132.152 56.7647 132.421 56.6855C133.11 56.4953 133.562 56.2892 133.681 55.4017C133.744 54.9103 134.655 54.6805 135.265 54.5775C136.476 54.3715 137.617 53.8643 138.845 53.7058C139.391 53.6344 139.937 53.4601 140.5 53.4284C141.26 53.3809 141.989 53.2303 142.678 52.8816C142.915 52.7627 143.169 52.6676 143.422 52.6122C144.309 52.3903 144.373 52.3744 144.84 53.1827C145.854 54.9262 147.176 56.4319 148.333 58.0644C148.483 58.2704 148.539 58.6349 148.824 58.6508C149.41 58.6825 149.568 59.1184 149.774 59.5146C150.503 60.9093 151.722 61.9554 152.538 63.2868C152.942 63.9366 153.346 64.5468 154.019 64.9351C154.051 64.9589 154.09 64.9826 154.098 65.0143C154.621 67.0431 156.126 68.731 156.11 70.942C156.11 70.9658 156.063 70.9975 155.936 71.1085C155.572 70.1099 154.621 69.5948 154.249 68.5884C154.043 68.0337 153.528 67.5027 153.021 67.1619C151.596 66.1951 150.384 64.9272 148.744 64.2615C148.261 64.0634 147.897 63.5641 147.335 63.366C146.947 63.2313 146.685 63.2947 146.408 63.5086C146.25 63.6275 146.107 63.8177 146.21 63.9921C146.289 64.1188 146.511 64.1585 146.725 64.2615C146.4 64.6498 146.052 64.206 145.735 64.4755C145.291 64.8558 145.014 65.4027 145.323 65.8781C145.632 66.3615 145.885 66.9559 146.503 67.1699C146.915 67.3125 147.184 67.6374 147.446 67.9465C147.85 68.4299 148.15 68.9292 148.879 69.1193C149.291 69.2303 149.592 69.8563 149.766 70.3715C149.925 70.8786 150.265 71.259 150.55 71.6949C151.231 72.6934 151.667 73.8425 151.77 75.0787C151.794 75.3719 151.58 75.4512 151.342 75.5146C149.315 76.0693 147.303 76.6399 145.307 77.3056C143.826 77.8048 142.345 78.312 140.848 78.7479C139.621 79.1124 138.449 79.6037 137.245 80.0079C136.999 80.0871 136.73 80.1743 136.524 80.3328C136.017 80.737 135.589 80.737 135.13 80.2536C134.512 79.6196 133.578 79.5483 132.778 79.0411C133.681 78.4864 134.568 78.1297 135.494 77.8603C136.176 77.6622 136.92 77.6305 137.427 77.0124C137.506 76.9173 137.696 76.8856 137.839 76.8776C139.771 76.7112 141.537 75.8633 143.422 75.4987C144.238 75.3402 144.808 74.6746 145.497 74.2625C145.877 74.0327 146.313 73.8979 146.012 73.2798C145.83 72.9153 146.266 72.9153 146.471 72.7885C146.622 72.7013 146.86 72.6221 146.749 72.3843C146.701 72.2734 146.527 72.1862 146.392 72.1545C143.779 71.6553 143.747 71.5522 140.967 72.4002C139.114 72.9628 137.15 73.2164 135.431 74.2546C134.647 74.73 133.665 74.9282 132.754 75.1263C131.97 75.3006 131.289 75.6335 130.592 76.1089M108.432 168.987C109.034 169.494 109.01 170.088 108.59 170.904C108.242 170.183 108.606 169.549 108.432 168.987ZM228.103 178.163C228.308 179.011 228.411 179.859 228.427 180.731C228.435 181.373 228.53 182.015 228.839 182.601C228.99 182.879 229.061 183.164 228.982 183.481C228.8 184.21 228.918 184.979 229.211 185.589C229.829 186.865 229.742 188.228 229.853 189.535C229.948 190.692 230.447 191.77 230.344 192.951C230.209 194.528 230.344 196.105 230.55 197.666C230.589 197.936 230.494 198.189 230.431 198.443C230.288 198.982 230.011 199.505 230.296 200.091C230.352 200.202 230.296 200.4 230.233 200.527C229.845 201.43 229.821 202.421 229.584 203.364C229.283 204.529 228.815 205.646 228.586 206.827C228.57 206.938 228.396 207.025 228.301 207.12C228.079 206.978 228.118 206.772 228.118 206.589C228.095 204.275 226.883 202.516 225.402 200.923C224.618 200.075 223.762 199.291 222.669 198.776C221.941 198.435 221.157 198.245 220.42 198.062C219.311 197.793 218.155 197.452 216.959 197.73C216.524 197.833 216.048 197.84 215.605 197.785C214.385 197.642 213.332 198.205 212.215 198.49C211.716 198.617 211.597 199.354 210.972 199.172C210.932 199.513 211.281 199.56 211.328 199.75C211.526 200.638 212.065 200.567 212.857 200.606C215.241 200.733 217.664 200.535 220.008 201.327C222.416 202.144 223.857 203.744 224.634 206.074C224.649 206.114 224.665 206.146 224.665 206.177C224.364 207.58 224.642 209.014 224.341 210.433C224.079 211.645 223.794 212.842 223.501 214.054C223.145 215.505 222.519 216.836 221.941 218.191C221.854 218.397 221.711 218.587 221.656 218.801C221.402 219.832 220.816 220.584 220.008 221.266C219.462 221.734 219.153 222.471 218.702 223.065C218.44 223.406 218.25 223.865 217.696 223.873C217.442 223.873 217.331 224.103 217.221 224.301C217.102 224.507 216.896 224.642 216.674 224.674C215.066 224.888 213.744 225.807 212.302 226.433C211.376 226.837 210.52 227.447 209.609 227.836C208.485 228.327 207.36 228.834 206.228 229.31C203.828 230.308 201.373 231.148 198.949 232.075C196.819 232.892 194.585 233.224 192.391 233.771C192.352 233.779 192.304 233.771 192.281 233.787C191.306 234.413 190.19 234.556 189.081 234.77C187.98 234.984 186.903 235.332 185.81 235.602C184.448 235.943 183.006 235.95 181.707 236.616C181.264 236.838 180.654 236.703 180.147 236.83C177.644 237.448 175.07 237.662 172.544 238.146C170.81 238.478 169.035 238.629 167.277 238.764C165.471 238.898 163.721 239.326 161.931 239.54C160.735 239.675 159.539 239.754 158.351 239.754C157.694 239.754 157.084 239.81 156.459 239.976C156.023 240.087 155.564 240.277 155.136 240.238C154.178 240.151 153.536 240.792 152.736 241.078C152.506 241.157 152.514 241.331 152.499 241.529C152.467 242.037 151.92 241.49 151.81 241.87C151.881 242.116 152.126 242.132 152.324 242.219C152.451 242.274 152.673 242.29 152.506 242.488C152.237 242.805 152.237 243.011 152.665 243.138C153.061 243.257 152.491 243.828 153.061 243.915C153.409 243.97 153.726 243.812 154.067 243.899C154.993 244.137 155.904 244.121 156.839 243.843C157.496 243.645 158.209 243.812 158.842 243.931C159.634 244.089 160.419 244.05 161.203 244.105C161.662 244.137 162.066 244.176 162.446 243.78C162.692 243.519 163.103 243.503 163.507 243.622C164.276 243.851 165.02 243.828 165.796 243.487C166.176 243.32 166.731 243.487 167.198 243.574C168.489 243.836 169.74 243.447 170.992 243.257C171.356 243.202 171.712 243.178 172.069 243.186C173.352 243.202 174.627 243.249 175.815 242.639C176.116 242.488 176.401 242.679 176.694 242.591C178.729 242.029 180.86 241.942 182.88 241.403C184.654 240.935 186.515 240.864 188.233 240.182C188.574 240.048 188.978 240.079 189.35 240.032C189.572 240.008 189.873 240.055 190.008 239.937C190.974 239.104 192.201 239.421 193.286 239.144C193.579 239.065 193.928 239.089 194.158 238.938C195.108 238.312 196.225 238.328 197.262 238.066C197.373 238.035 197.547 238.106 197.587 238.051C198.173 237.314 199.02 237.512 199.781 237.448C200.303 237.409 200.549 237.004 200.937 236.822C201.634 236.497 202.363 236.236 203.083 235.982C204.501 235.491 205.863 234.841 207.344 234.595C207.875 234.508 208.16 234.096 208.588 233.882C209.451 233.462 210.401 233.367 211.249 232.955C212.524 232.329 213.886 231.869 215.106 231.124C215.28 231.013 215.518 230.998 215.724 230.934C216.27 232.788 216.001 233.541 214.48 234.516C213.514 235.134 212.421 235.443 211.384 235.903C209.855 236.592 208.247 237.084 206.83 238.058C205.974 238.645 204.881 238.843 203.915 239.271C203.194 239.58 202.481 239.937 201.777 240.285C200.707 240.824 199.48 240.935 198.45 241.609C198.141 241.807 197.579 241.569 197.238 241.743C196.217 242.282 195.076 242.274 193.999 242.552C193.168 242.774 192.281 242.679 191.457 243.011C189.421 243.851 187.228 243.994 185.097 244.398C184.25 244.557 183.418 244.858 182.618 245.151C181.399 245.595 180.115 245.745 178.888 246.134C178.31 246.316 177.724 246.427 177.201 246.768C177.05 246.871 176.86 246.95 176.678 246.958C174.762 247.037 172.908 247.608 171 247.687C169.796 247.734 168.576 247.838 167.412 248.051C166.271 248.265 165.091 248.178 163.99 248.59C163.341 248.836 162.62 248.725 161.971 248.693C160.197 248.598 158.446 248.939 156.672 248.955C155.065 248.963 153.441 248.923 151.833 248.955C149.742 248.987 147.707 248.725 145.727 248.139C144.618 247.814 143.818 247.132 143.375 245.936C142.646 243.954 141.411 242.266 139.985 240.689C138.631 239.2 137.094 237.955 135.486 236.775C134.964 236.394 134.409 236.093 133.831 235.792C131.907 234.793 130.053 233.684 128.279 232.408C126.022 230.776 124.509 228.541 122.743 226.472C121.421 224.927 120.779 223.057 119.71 221.401C118.807 220.006 118.403 218.286 117.627 216.804C116.32 214.324 116.13 211.511 114.982 208.999C114.475 207.881 114.514 206.597 114.134 205.424C113.707 204.109 113.501 202.746 112.986 201.446C112.677 200.67 112.534 199.79 112.368 198.95C112.123 197.706 111.758 196.47 111.727 195.17C111.711 194.441 111.426 193.712 111.251 192.991C110.879 191.421 110.95 189.868 111.03 188.299C111.077 187.396 111.164 186.5 111.188 185.597C111.283 181.944 111.505 178.314 112.558 174.772C113.081 173.012 113.303 171.182 113.952 169.454C114.602 167.727 115.259 165.999 115.877 164.263C116.019 163.859 116.296 163.55 116.471 163.17C117.762 160.309 119.338 157.623 121.175 155.071C122.474 153.256 123.947 151.631 125.507 150.078C126.173 149.413 126.996 148.921 127.685 148.271C128.905 147.122 130.14 145.973 131.431 144.895C131.764 144.626 131.994 144.032 132.643 144.238C132.841 144.301 132.968 144.071 132.968 143.865C132.968 143.572 132.722 143.659 132.556 143.635C132.485 143.62 132.398 143.62 132.326 143.635C131.827 143.762 132.477 143.279 132.152 143.303C131.954 143.318 131.661 143.406 131.74 143.017C131.74 143.017 131.74 143.017 131.732 143.017C131.994 142.867 132.398 142.906 132.493 142.415C131.012 141.702 129.721 142.367 128.525 143.081C128.026 143.374 127.273 143.532 127.107 144.285C127.091 144.357 126.925 144.404 126.822 144.436C125.333 144.888 124.129 145.775 123.298 147.067C122.902 147.677 122.355 148.01 121.753 148.295C121.349 148.493 120.993 148.723 120.684 149.08C120.058 149.777 119.33 150.356 118.649 150.99C117.817 151.766 117.199 152.788 116.526 153.732C115.932 154.579 115.275 155.427 114.823 156.323C114.237 157.48 113.089 158.272 112.843 159.659C112.74 160.254 112.138 160.769 111.901 161.411C111.758 161.799 111.457 162.116 111.568 162.568C111.608 162.734 111.505 162.845 111.394 162.956C110.388 163.986 110.127 165.365 109.715 166.665C109.485 167.386 109.145 168.044 108.796 168.709C108.701 168.892 108.559 168.963 108.369 168.939C108.424 167.925 108.424 166.902 108.772 165.944C108.986 165.357 108.86 164.755 108.97 164.16C109.295 162.385 109.81 160.674 110.428 158.978C111.156 156.949 111.822 154.889 112.986 153.082C113.968 151.56 115.14 150.165 116.225 148.723C117.587 146.908 119.171 145.308 120.811 143.746C122.03 142.581 123.139 141.314 124.454 140.244C125.008 139.792 125.602 139.388 126.133 138.936C127.844 137.486 130.006 136.598 131.36 134.728C132.033 133.801 132.667 132.834 133.221 131.828C133.617 131.114 133.34 129.632 132.825 128.872C132.786 128.816 132.738 128.721 132.691 128.721C132.168 128.681 131.653 128.713 131.123 128.602C130.719 128.523 130.457 129.078 129.998 129.03C129.958 129.03 129.895 129.22 129.847 129.315C128.731 131.328 127.234 133.032 125.674 134.696C125.61 134.768 125.476 134.776 125.309 134.839C124.937 133.682 124.494 132.549 123.607 131.717C122.894 131.051 122.07 130.496 121.318 129.87C119.29 128.182 117.278 126.478 115.544 124.497C114.308 123.087 113.318 121.454 112.226 119.917C111.869 119.41 111.79 118.784 111.655 118.213C111.125 115.82 110.84 113.403 111.362 110.954C111.465 110.486 111.338 109.971 111.394 109.488C111.632 107.507 112.384 105.676 113.437 104.036C114.229 102.807 115.465 101.912 116.772 101.191C118.348 100.319 120.035 99.7008 121.737 99.0906C123.139 98.5834 124.581 98.4249 126.022 98.1555C126.996 97.9732 128.002 98.0525 128.96 98.1555C130.077 98.2664 131.043 97.8861 132.033 97.5691C132.754 97.3393 133.522 97.157 134.077 96.4596C134.536 95.889 135.114 95.9762 135.684 96.4755C136.104 96.84 136.516 96.5389 136.857 96.4121C137.815 96.0475 137.815 95.9841 138.504 96.6815C140.025 98.2189 140.943 100.034 141.007 102.237C141.023 102.76 141.023 103.307 141.149 103.814C141.347 104.598 141.038 105.288 140.84 105.993C140.603 106.841 140.326 107.681 140.017 108.505C139.795 109.1 140.223 109.757 139.755 110.336C139.637 110.486 140.452 111.089 140.737 110.994C141.363 110.787 142.092 110.669 142.432 110.019C142.733 109.44 143.359 109.218 143.692 108.632C144.412 107.388 145.085 106.128 145.204 104.693C145.347 102.974 145.323 101.278 144.65 99.5978C144.206 98.4804 143.81 97.363 143.193 96.317C142.535 95.2075 141.68 94.2328 140.761 93.3769C140.254 92.9014 139.47 92.6478 138.805 92.3071C138.417 92.101 138.235 91.895 138.219 91.4512C138.195 90.4844 138.33 89.5017 137.672 88.6221C137.443 88.3209 137.791 87.8375 137.704 87.4017C137.554 86.6647 137.466 85.9118 137.34 85.1114C138.536 84.5805 139.613 83.788 141.03 83.7246C141.624 83.6929 142.226 83.3838 142.82 83.1778C144.531 82.5755 146.147 81.7038 148.016 81.5453C148.784 81.4819 149.521 81.1094 150.328 81.1015C150.558 81.1015 150.717 80.8955 150.891 80.7449C152.039 79.7939 153.029 80.0634 153.219 81.4977C153.362 82.5676 154.257 83.0748 154.637 83.9227C154.851 84.414 155.579 83.8672 155.762 84.5725C155.888 85.0718 156.498 85.1827 157.013 85.1352C157.369 85.1035 157.773 85.5314 158.035 85.1748C158.391 84.6835 158.961 84.1922 158.747 83.4869C158.597 82.9797 158.668 82.5438 158.835 82.0208C159.278 82.3536 159.619 82.6389 159.706 83.1857C159.904 84.4061 160.529 85.5552 160.323 86.8549C160.308 86.9658 160.323 87.0926 160.355 87.1956C160.894 88.4636 161.234 89.8266 161.892 91.0233C162.406 91.9663 163.143 92.7905 163.468 93.8524C163.523 94.0109 163.682 94.0505 163.785 94.1456C164.236 94.5498 164.703 94.9143 164.901 95.5562C165.313 96.8955 166.216 97.9574 167.04 99.0431C168.655 101.159 170.334 103.227 171.95 105.343C172.639 106.239 173.653 106.809 174.302 107.729C174.88 108.537 175.419 109.369 176.393 110.154C175.459 110.352 174.777 110.502 174.08 110.645C172.211 111.033 170.326 111.39 168.441 111.715C167.602 111.865 166.731 111.984 165.947 112.428C165.376 112.753 164.695 112.697 164.07 112.792C161.781 113.117 159.555 113.704 157.346 114.33C156.767 114.496 156.173 114.639 155.579 114.742C154.304 114.964 153.148 115.503 151.928 115.891C150.74 116.271 149.56 116.644 148.436 117.175C147.446 117.642 146.464 118.142 145.489 118.641C145.371 118.704 145.26 118.831 145.26 119.053C145.426 119.394 146.297 118.894 146.107 119.544C145.988 119.948 146.289 120.25 146.107 120.654C146.495 120.638 146.867 120.693 147.145 120.408C147.382 120.162 147.557 120.384 147.747 120.448C148.151 120.59 148.602 120.678 148.966 120.448C149.576 120.067 150.218 119.988 150.899 119.956C152 119.901 152.918 119.219 153.98 119.037C155.5 118.768 157.013 118.467 158.565 118.332C160.379 118.173 162.169 117.753 163.927 117.27C164.299 117.167 164.664 117.072 165.036 117.119C166.533 117.294 167.911 116.699 169.352 116.517C171.348 116.263 173.288 115.717 175.3 115.534C176.932 115.384 178.555 115.146 180.195 114.988C181.034 114.9 181.858 114.631 182.658 114.33C182.895 114.243 183.046 114.259 183.26 114.29C184.59 114.512 185.897 114.805 187.196 115.17C187.719 115.32 187.956 115.685 188.13 116.192C188.661 117.69 188.875 119.251 189.263 120.781C189.358 121.161 189.089 121.304 188.875 121.375C186.919 122.056 185.176 123.198 183.268 123.99C182.095 124.473 180.884 124.822 179.719 125.314C178.832 125.678 177.842 125.781 176.924 126.074C175.894 126.399 174.817 126.542 173.835 127.041C173.019 127.469 172.108 127.794 171.198 127.818C169.812 127.849 168.552 128.388 167.214 128.586C165.574 128.832 163.967 129.292 162.327 129.514C161.535 129.625 160.743 129.831 160.046 130.084C158.597 130.623 157.108 130.599 155.643 130.837C154.288 131.051 152.91 131.194 151.556 131.511C149.75 131.939 147.865 132.184 145.98 132.216C145.79 132.216 145.561 132.168 145.426 132.256C143.969 133.167 142.187 132.882 140.674 133.555C140.262 133.737 139.819 133.872 139.391 133.991C139.05 134.094 138.456 133.959 138.409 134.3C138.361 134.633 138.354 134.871 138.092 135.124C137.981 135.235 138.037 135.608 138.417 135.433C138.726 135.299 138.892 135.457 139.05 135.735C138.726 136.059 138.156 135.616 137.934 136.194C138.694 136.368 139.423 136.979 140.349 136.582C141.648 137.288 142.947 136.329 144.286 136.582C145.085 136.741 145.98 136.384 146.836 136.25C146.978 136.226 147.137 136.115 147.263 136.147C148.634 136.495 150.012 135.933 151.39 136.162C151.501 136.178 151.627 136.202 151.722 136.178C154.019 135.481 156.443 135.917 158.747 135.418C160.11 135.124 161.543 135.322 162.85 134.863C164.307 134.348 165.772 134.165 167.293 133.991C168.917 133.801 170.548 133.476 172.164 133.191C173.241 133 174.278 132.517 175.371 132.327C176.544 132.113 177.637 131.614 178.832 131.431C179.886 131.273 180.884 130.766 181.89 130.369C183.038 129.918 184.115 129.292 185.39 129.22C185.652 129.205 185.913 129.117 186.158 129.014C187.521 128.436 188.883 127.873 190.095 126.97C190.641 126.55 191.346 126.296 191.98 125.963C192.368 125.765 192.328 125.179 192.898 125.139C193.104 125.123 193.239 124.941 193.413 125.218C193.706 125.67 194.197 125.852 194.688 126.035C195.71 126.415 196.605 127.033 197.484 127.675C198.609 128.499 199.884 129.094 201.151 129.664C202.363 130.211 203.4 131.067 204.604 131.614C206.053 132.263 207.289 133.286 208.786 133.896C209.419 134.157 209.998 134.815 210.615 135.283C211.36 135.845 211.985 136.567 212.904 136.884C212.999 136.923 213.094 137.018 213.15 137.105C213.831 138.255 215.011 138.952 215.771 140.061C216.286 140.806 216.856 141.543 217.379 142.304C217.648 142.692 217.704 143.128 217.838 143.548C217.482 143.794 217.268 143.493 217.141 143.374C216.27 142.597 215.169 142.098 214.441 141.163C214.179 140.822 213.791 140.806 213.474 140.616C212.168 139.808 210.908 138.92 209.514 138.255C208.445 137.739 207.511 136.979 206.315 136.67C205.642 136.495 205.071 135.972 204.414 135.703C203.273 135.235 202.054 134.942 200.882 134.538C200.113 134.276 199.226 134.142 198.379 133.991C197.524 133.84 196.668 134.284 195.813 133.904C195.647 133.833 195.251 134.102 195.053 134.3C194.752 134.601 195.211 134.704 195.266 134.894C195.385 135.275 195.068 135.608 194.791 135.83C194.617 135.972 194.403 136.036 194.364 136.289C195.441 136.638 196.502 136.995 197.468 137.605C198.276 138.12 199.076 138.579 200.145 138.579C200.66 138.579 201.191 139.174 201.682 139.546C202.022 139.808 202.323 140.085 202.782 139.887C202.901 139.84 203.028 139.832 203.083 139.935C203.464 140.584 204.256 140.577 204.739 140.965C205.38 141.488 206.109 141.718 206.798 142.074C206.996 142.177 207.178 142.304 207.368 142.439C207.97 142.867 208.516 143.342 209.261 143.596C209.863 143.802 210.203 144.515 210.964 144.666C211.273 144.729 211.645 145.197 211.962 145.498C212.453 145.957 213.015 146.362 213.609 146.583C214.211 146.805 214.504 147.225 214.765 147.693C214.971 148.065 215.177 148.398 215.518 148.66C216.832 149.682 217.688 151.085 218.646 152.408C219.034 152.947 219.256 153.613 219.985 153.89C220.238 153.993 220.452 154.397 220.539 154.706C220.8 155.633 221.307 156.434 221.901 157.139C222.812 158.201 223.065 159.548 223.612 160.761C223.834 161.26 224 161.791 224.087 162.362C224.151 162.805 224.261 163.328 224.689 163.669C224.919 163.843 224.958 164.145 224.958 164.398C224.958 165.619 225.188 166.76 225.845 167.814C225.932 167.956 225.909 168.178 225.925 168.368C225.933 168.551 225.853 168.781 225.925 168.923C226.495 169.938 226.329 171.134 226.693 172.164C227.382 174.106 227.54 176.151 228.031 178.124M131.004 143.033C131.178 142.772 131.384 143.009 131.566 143.025C131.384 143.104 131.21 143.263 131.004 143.033Z" fill="black"/>
<path d="M134.377 111.659C134.377 111.659 134.385 111.731 134.401 111.77C134.94 112.927 134.86 114.148 134.852 115.384C134.852 116.897 134.322 118.205 133.767 119.568C133.134 121.113 131.645 121.708 130.639 122.825C130.425 122.572 130.196 122.492 129.958 122.801C129.657 123.198 129.221 122.881 128.944 122.976C128.524 123.126 128.216 123.007 127.875 122.912C126.719 122.603 125.507 122.532 124.366 122.104C123.083 121.629 121.911 120.963 120.771 120.218C120.208 119.845 120.034 119.164 119.575 118.72C118.585 117.777 118.062 116.557 117.912 115.273C117.674 113.212 117.492 111.112 118.917 109.29C119.369 108.719 119.963 108.339 120.43 107.792C121.848 106.136 123.788 105.367 125.871 104.955C126.497 104.828 127.154 105.002 127.772 105.177C128.548 105.399 129.419 105.533 130.053 105.985C131.09 106.73 132.271 107.34 132.904 108.584C133.189 109.123 133.649 109.591 133.918 110.169C134.148 110.653 134.401 111.112 134.377 111.667M122.188 114.108C122.173 114.227 122.157 114.377 122.133 114.52C122.093 114.71 122.307 114.758 122.347 114.885C122.775 116.129 123.551 117.04 124.644 117.825C125.253 118.261 125.832 118.419 126.497 118.57C127.233 118.736 127.534 118.451 128.002 117.856C129.031 116.541 129.491 115.328 129.039 113.593C128.746 112.475 128.303 111.596 127.637 110.716C127.083 109.971 126.251 110.011 125.539 109.963C124.913 109.916 124.311 110.288 123.82 110.859C123.471 111.263 123.313 111.913 122.695 112.055C122.165 112.174 122.149 112.602 122.054 112.983C121.959 113.363 122.006 113.728 122.188 114.116" fill="black"/>
<path d="M157.147 138.421C159.927 137.526 162.762 136.963 165.645 136.551C167.427 136.289 169.233 136.242 170.991 135.98C172.488 135.758 173.969 135.83 175.45 135.671C176.654 135.544 177.842 135.624 179.022 135.964C179.814 136.194 180.654 136.218 181.446 136.479C181.873 136.614 182.135 136.892 182.42 137.185C182.554 137.319 182.634 137.438 182.42 137.486C181.945 137.581 182.174 137.724 182.348 137.906C182.38 137.938 182.348 138.112 182.348 138.112C181.644 138.128 181.58 139.19 180.693 139.039C180.178 138.952 179.608 139.285 179.054 139.38C177.248 139.673 175.395 139.515 173.613 139.943C172.187 140.291 170.738 140.466 169.288 140.481C167.99 140.489 166.809 141.004 165.55 141.052C163.911 141.107 162.358 141.567 160.759 141.797C158.85 142.074 157.044 142.74 155.143 142.986C154.605 143.057 154.043 143.295 153.575 143.596C152.918 144.016 152.189 144.174 151.453 144.325C150.558 144.507 149.734 144.761 148.99 145.339C148.332 145.839 147.485 146.068 146.685 146.259C145.117 146.615 143.683 147.297 142.234 147.923C141.537 148.224 140.816 148.462 140.088 148.636C139.296 148.834 139.066 148.628 138.907 147.812C138.907 147.772 138.915 147.725 138.907 147.701C138.092 146.821 138.9 146.322 139.375 145.767C140.214 144.8 141.371 144.349 142.543 143.929C142.828 143.826 143.105 143.723 143.358 143.548C144.578 142.708 145.956 142.217 147.342 141.702C148.324 141.337 149.243 140.791 150.241 140.442C151.413 140.03 152.554 139.515 153.742 139.166C154.85 138.833 156.007 138.659 157.147 138.413" fill="black"/>
</g>
<defs>
<clipPath id="clip0_1_821">
<rect width="323" height="304" fill="white"/>
</clipPath>
</defs>
</svg>
