<svg width="24" height="24" viewBox="0 0 24 24" fill="none" xmlns="http://www.w3.org/2000/svg">
<g clip-path="url(#clip0_918_14882)">
<path d="M6.28063 20.6141H0.564941V14.2596C0.564941 13.248 0.967403 12.2806 1.68002 11.5643C2.39263 10.848 3.36371 10.4492 4.3754 10.4492H8.42217C8.27079 10.8553 8.19325 11.2873 8.18956 11.7193C8.18956 12.9969 8.83571 14.1932 9.90279 14.8947H9.45971C8.61786 14.8947 7.80925 15.2307 7.21479 15.8252C6.62033 16.4196 6.28433 17.2283 6.28433 18.0701V20.6104L6.28063 20.6141ZM23.4351 14.2596V20.6141H17.7157V18.0738C17.7157 17.232 17.3797 16.4233 16.7852 15.8289C16.1908 15.2344 15.3822 14.8984 14.5403 14.8984H14.0972C15.1643 14.1932 15.8105 13.0006 15.8105 11.723C15.8068 11.2873 15.7256 10.859 15.5779 10.4529H19.6246C20.6363 10.4529 21.6037 10.8553 22.32 11.568C23.0363 12.2843 23.4351 13.2516 23.4351 14.2633V14.2596ZM12 8.63257C12.816 8.63257 13.6025 8.9575 14.1822 9.53719C14.7619 10.1169 15.0868 10.8996 15.0868 11.7193C15.0868 12.539 14.7619 13.3218 14.1822 13.9015C13.6025 14.4812 12.8197 14.8061 12 14.8061C11.1803 14.8061 10.3976 14.4812 9.81786 13.9015C9.23817 13.3218 8.91325 12.539 8.91325 11.7193C8.91325 10.8996 9.23817 10.1169 9.81786 9.53719C10.3976 8.9575 11.1803 8.63257 12 8.63257ZM6.28063 3.37842C7.09663 3.37842 7.8831 3.70334 8.46279 4.28303C9.04248 4.86273 9.3674 5.6455 9.3674 6.46519C9.3674 7.28488 9.04248 8.06765 8.46279 8.64734C7.8831 9.22703 7.10033 9.55196 6.28063 9.55196C5.46094 9.55196 4.67817 9.22703 4.09848 8.64734C3.51879 8.06765 3.19386 7.28488 3.19386 6.46519C3.19386 5.6455 3.51879 4.86273 4.09848 4.28303C4.67817 3.70334 5.46094 3.37842 6.28063 3.37842ZM17.7157 3.37842C18.5317 3.37842 19.3182 3.70334 19.8979 4.28303C20.4776 4.86273 20.8025 5.6455 20.8025 6.46519C20.8025 7.28488 20.4776 8.06765 19.8979 8.64734C19.3182 9.22703 18.5354 9.55196 17.7157 9.55196C16.896 9.55196 16.1132 9.22703 15.5336 8.64734C14.9539 8.06765 14.6289 7.28488 14.6289 6.46519C14.6289 5.6455 14.9539 4.86273 15.5336 4.28303C16.1132 3.70334 16.896 3.37842 17.7157 3.37842ZM14.2782 15.6036H9.71817C8.17848 15.6036 6.93417 16.8516 6.93417 18.3876V20.6104H17.0622V18.3876C17.0622 16.848 15.8142 15.6036 14.2782 15.6036Z" fill="#C72128"/>
</g>
<defs>
<clipPath id="clip0_918_14882">
<rect width="24" height="24" fill="white"/>
</clipPath>
</defs>
</svg>
