<svg width="44" height="71" viewBox="0 0 44 71" fill="none" xmlns="http://www.w3.org/2000/svg">
<g clip-path="url(#clip0_738_14957)">
<path d="M42.7075 46.6707C42.7486 46.4685 42.7898 46.2663 42.8261 46.0641L42.8406 45.9862C42.8939 45.6963 42.9544 45.3698 43.1118 45.1823C43.8066 44.3564 43.6928 43.4648 43.5161 42.7827C43.4604 42.5683 43.3635 42.371 43.2715 42.181C43.1699 41.9739 43.0754 41.779 43.0391 41.5768C42.8067 40.3052 42.7147 39.0579 42.7631 37.874C42.7874 37.2747 42.7849 36.6681 42.7849 36.081C42.7849 35.7278 42.7849 35.377 42.7849 35.0238C42.7849 34.8508 42.7874 34.6754 42.7898 34.5024C42.7946 33.852 42.7995 33.1772 42.8503 32.5219C42.8745 32.2052 43.0101 31.908 43.3175 31.5012C44.2205 30.3026 44.2302 28.9652 43.3417 27.9201C43.2836 27.8519 43.2546 27.7155 43.228 27.5961L43.2231 27.5766C43.2038 27.4889 43.1916 27.3988 43.182 27.3013C43.1674 27.1747 43.1505 27.0431 43.1142 26.914C42.86 26.0005 42.768 25.0601 42.843 24.1247C42.935 22.9602 43.0004 21.6082 42.5913 20.2854C42.5501 20.1563 42.5913 19.9248 42.6929 19.7251C42.7777 19.557 42.8987 19.4035 43.0246 19.2403C43.1021 19.1428 43.1795 19.043 43.2497 18.9407C43.8574 18.0515 43.8114 16.9918 43.1311 16.2366C42.8309 15.9028 42.7825 15.5155 42.7753 15.1793C42.7389 13.5569 42.7389 12.0952 42.7704 10.7115C42.7849 10.0538 42.843 9.38141 42.8987 8.73341C42.9253 8.43377 42.9496 8.13413 42.9713 7.82475C42.9859 6.86736 42.6227 6.0732 42.0296 5.09876C41.5188 4.26074 40.9475 3.72236 40.2333 3.40811C39.7685 3.20348 39.2916 3.0159 38.8292 2.83319C38.6089 2.74793 38.3886 2.66023 38.1707 2.57253C38.0036 2.50432 37.8366 2.43367 37.672 2.36302C37.3113 2.20955 36.936 2.0512 36.5535 1.92696C36.2461 1.82952 35.9289 1.75644 35.6215 1.68822C35.3503 1.62732 35.0671 1.56398 34.8008 1.48116C32.9536 0.920855 31.1355 0.39953 29.2012 0.172973C28.228 0.060913 27.2306 0.00731891 26.1509 0.00731891C25.5456 0.00731891 24.9235 0.0243716 24.2505 0.060913C22.9746 0.129124 21.6214 0.160793 20.1059 0.160793C19.8759 0.160793 19.6459 0.160793 19.4159 0.160793C18.6751 0.155921 17.9222 0.116943 17.1911 0.0779657C16.644 0.0487325 16.0799 0.0194994 15.5231 0.00488281C15.494 0.00488281 15.465 0.00488281 15.4335 0.00488281C15.1745 0.00488281 14.9154 0.034116 14.6661 0.060913C14.4894 0.0804018 14.3054 0.102327 14.1287 0.109635C13.843 0.124251 13.5501 0.129124 13.2644 0.133996C12.6931 0.14374 12.1024 0.151049 11.5262 0.24362C10.8338 0.355681 10.1559 0.577365 9.49987 0.791742C9.34009 0.8429 9.18273 0.894058 9.02538 0.945216C8.83654 1.00612 8.6574 1.09138 8.48551 1.17664C8.2991 1.26678 8.1248 1.35204 7.94323 1.4032C7.83429 1.43243 7.72535 1.46167 7.61883 1.48846C7.08865 1.62245 6.54395 1.76131 6.07671 2.14865C5.97987 2.22904 5.88062 2.28263 5.79831 2.29481C5.04056 2.4288 4.41113 2.81614 3.84463 3.21566C3.34593 3.56889 2.81575 3.95379 2.32914 4.37524C1.18163 5.36916 1.00249 6.72851 0.973436 7.80039C0.951648 8.64571 0.898388 9.50565 0.847549 10.3364C0.816077 10.8553 0.784605 11.3717 0.760396 11.8906L0.745871 12.1464C0.721662 12.5995 0.695032 13.0672 0.753133 13.5228C0.801552 13.9004 0.881442 14.2731 0.961332 14.6361C1.04122 14.999 1.12353 15.3742 1.16711 15.7421C1.21795 16.1611 1.17195 16.5776 1.04606 16.887C0.680506 17.764 0.419048 18.7165 0.968594 19.7421C1.00975 19.8176 1.00249 19.9614 0.997645 20.0905V20.1684C0.985541 20.4291 0.973436 20.6873 0.961332 20.948C0.944385 21.3158 0.925018 21.6983 0.920176 22.0759C0.915334 22.3999 0.922597 22.7288 0.92986 23.0479C0.939543 23.4864 0.949227 23.9395 0.92986 24.3829C0.910492 24.8433 0.862074 25.3135 0.816077 25.7666C0.777342 26.1491 0.738608 26.5437 0.714399 26.9359C0.707136 27.0675 0.702294 27.2015 0.697453 27.333C0.673243 27.9615 0.651455 28.5535 0.278635 29.104C-0.186179 29.7861 -0.0554498 30.8483 0.581249 31.5718C0.646614 31.6449 0.653876 31.6814 0.656297 31.6887C0.69019 31.8909 0.728924 32.0931 0.767659 32.2953C0.864495 32.8118 0.966173 33.3477 1.00733 33.8739C1.01943 34.0347 1.03396 34.193 1.04606 34.3538C1.12595 35.3136 1.21069 36.3051 1.12595 37.2552C1.00975 38.5853 1.07754 39.8959 1.15258 41.0214C1.18648 41.5306 1.07269 42.0714 0.966173 42.5951C0.927439 42.7827 0.888704 42.9727 0.854812 43.1579C0.830602 43.2943 0.782184 43.4356 0.733766 43.5818C0.651455 43.8229 0.566724 44.0738 0.581249 44.3369L0.593354 44.5464C0.632088 45.2943 0.673243 46.069 1.22521 46.7268C1.247 46.7584 1.24458 46.89 1.24458 46.9606C1.24458 47.0191 1.24458 47.0751 1.24458 47.1263C1.247 47.1677 1.24458 47.2115 1.23974 47.253C1.23489 47.3139 1.23005 47.3845 1.23732 47.4576C1.25426 47.6379 1.27605 47.8157 1.29784 47.9935C1.33173 48.281 1.36804 48.5757 1.38499 48.8656C1.44793 49.8718 1.5133 50.9436 1.54235 51.9985C1.56172 52.6465 1.55445 53.3115 1.54961 53.9522C1.54961 54.1788 1.54477 54.4053 1.54477 54.6319C1.54477 54.6587 1.53751 54.683 1.53993 54.683C0.922597 55.3189 1.03154 56.0692 1.21795 56.7196C1.27363 56.9121 1.34868 57.1021 1.4213 57.2848C1.54719 57.599 1.66582 57.8987 1.68276 58.1959C1.7215 58.8975 1.70939 59.6186 1.69729 60.3153C1.69002 60.7928 1.68034 61.2873 1.6876 61.7745C1.6876 61.9256 1.68034 62.079 1.67066 62.2422C1.63192 62.8781 1.59077 63.5967 2.31704 64.1254C2.43809 64.2131 2.53976 64.3397 2.6487 64.4762C2.76733 64.6248 2.8908 64.7782 3.053 64.8952C3.9221 65.5285 4.71374 66.0645 5.4739 66.5371C6.20744 66.9926 6.82719 67.3215 7.42031 67.5724C8.21679 67.9086 9.04232 68.2107 9.8388 68.5054C10.1608 68.6248 10.4828 68.7417 10.8047 68.8636C10.8943 68.8977 10.9863 68.922 11.0759 68.9464L11.3591 69.0219C12.1023 69.2217 12.848 69.4214 13.5912 69.6187C13.78 69.6699 13.9689 69.7235 14.1553 69.7771C14.608 69.9086 15.0776 70.0451 15.5546 70.1157C16.0751 70.1937 16.6077 70.2278 17.1233 70.2619C17.4647 70.2838 17.8157 70.3082 18.1595 70.3423C18.5807 70.3861 19.0092 70.4665 19.4208 70.5445L19.6023 70.5786C19.8372 70.6224 20.0696 70.6736 20.302 70.7247C20.7232 70.8173 21.1565 70.9099 21.5947 70.9635C21.8368 70.9927 22.0983 71.0073 22.4178 71.0073C22.6212 71.0073 22.827 71.0024 23.0303 70.9951L23.2288 70.9903C23.5581 70.983 23.8897 70.9781 24.219 70.9732C25.1777 70.9586 26.1678 70.944 27.1386 70.8514C28.3273 70.7369 29.4893 70.5323 30.5908 70.2399C32.1039 69.8404 33.6242 69.363 35.1082 68.8173C36.7617 68.2107 38.2215 67.2168 39.6353 66.2545C39.8944 66.0791 40.151 65.9037 40.41 65.7307C40.473 65.6893 40.5335 65.6479 40.594 65.6041C40.8409 65.436 41.0976 65.2606 41.3614 65.1461C41.8795 64.9244 42.2257 64.5176 42.4194 63.9037C42.4581 63.7819 42.4751 63.6601 42.4896 63.5407C42.5041 63.4384 42.5162 63.3434 42.5428 63.2557C42.8358 62.2496 42.8309 61.2142 42.8261 60.213V60.0083C42.8261 59.6137 42.8067 59.2117 42.7922 58.8268C42.7777 58.4541 42.7631 58.0692 42.7607 57.6941C42.7607 57.5771 42.8213 57.4188 42.9084 57.3092C43.2861 56.8341 43.4773 56.0229 43.0851 55.4504C42.6131 54.761 42.3976 54.0984 42.4097 53.3651C42.4194 52.6879 42.4097 52.0033 42.3976 51.3383C42.3831 50.4686 42.3685 49.5721 42.4024 48.6927C42.4291 48.0228 42.5671 47.3382 42.7002 46.6756L42.7075 46.6707ZM31.6463 68.4129C31.3098 68.4762 30.9757 68.5371 30.6417 68.6078C30.4698 68.6419 30.2979 68.6808 30.126 68.7198C29.7774 68.7978 29.4143 68.8806 29.0584 68.9293C28.7461 68.9732 28.4193 68.9829 28.1021 68.9927C27.9496 68.9975 27.7971 69.0024 27.6446 69.0097C27.4727 69.0195 27.3008 69.0292 27.1289 69.0414C26.7561 69.0658 26.3688 69.0901 25.9911 69.095H25.962C25.7902 69.095 25.6183 69.0731 25.4367 69.0487C25.3302 69.0341 25.2212 69.0195 25.1147 69.0122C24.8387 68.9878 24.5603 68.961 24.2844 68.9342C23.5896 68.8684 22.8705 68.8002 22.1588 68.7637C21.9675 68.7539 21.7642 68.7491 21.5366 68.7491C21.2703 68.7491 21.0016 68.7564 20.7353 68.7612C20.486 68.7661 20.239 68.7734 19.9897 68.7734H19.7282C19.4764 68.7734 19.2077 68.7734 18.9414 68.7491L18.8857 68.7442C18.3313 68.6979 17.76 68.6516 17.208 68.559C16.1114 68.3763 15.0534 68.1644 14.1625 67.9841C14.0003 67.95 13.8406 67.8964 13.6735 67.8355C13.5331 67.7868 13.3854 67.7356 13.2329 67.6967C12.8843 67.609 12.5333 67.5286 12.1847 67.4457C11.6666 67.3239 11.1316 67.1973 10.6086 67.0584C10.4682 67.0219 10.3327 66.9463 10.1874 66.8684C10.0446 66.7904 9.8969 66.7125 9.7347 66.6613C9.43693 66.5688 9.1319 66.4908 8.83655 66.4153C8.34994 66.291 7.84639 66.1644 7.38642 65.967C7.23633 65.9037 7.08381 65.8404 6.93129 65.7795C6.18323 65.4749 5.41096 65.1583 4.81542 64.5614C4.64837 64.3933 4.43533 64.2886 4.23198 64.1887C4.04073 64.0937 3.86158 64.006 3.74053 63.8769C3.66064 63.7916 3.57349 63.7137 3.48876 63.6381C3.1813 63.3604 2.91743 63.1217 2.95132 62.6466C3.00458 61.9036 2.99489 61.1509 2.98521 60.42C2.98037 60.0863 2.97553 59.7526 2.97795 59.4188C3.01426 59.4602 3.04815 59.5016 3.07963 59.5406C3.59044 60.1789 4.29008 60.5199 4.96551 60.8512C5.12287 60.9292 5.28023 61.0047 5.43517 61.0851C6.11544 61.4408 6.8514 61.7014 7.56315 61.9548L7.78345 62.0327C8.77602 62.386 9.80249 62.7514 10.8386 63.0364C12.2452 63.4238 13.4798 63.7137 14.6153 63.9256C15.7846 64.1424 17.3218 64.4104 18.8639 64.5395C19.704 64.6101 20.6046 64.6418 21.6988 64.6418C22.154 64.6418 22.6115 64.6369 23.0666 64.6272C25.0978 64.5931 26.7803 64.52 28.366 64.4031C29.223 64.3397 30.0631 64.157 31.0605 63.9037C32.2249 63.6089 33.1013 63.3336 33.9026 63.0121C34.6483 62.7124 35.3649 62.3129 36.0548 61.928L36.3405 61.7696C36.8489 61.4895 37.5098 61.107 38.1319 60.6539C38.6016 60.3129 39.0543 59.9401 39.4925 59.5796C39.7249 59.3871 39.9597 59.1971 40.197 59.0071C40.611 58.6782 41.0274 58.3542 41.4583 58.0181L41.7706 57.7744C41.7803 57.8987 41.7875 58.0181 41.7754 58.1326L41.7052 58.934C41.589 60.2739 41.468 61.6625 41.3106 63.0194C41.2404 63.626 40.8991 64.1229 40.2987 64.4981C39.8653 64.7685 39.4344 65.0462 39.0059 65.3239C38.1465 65.8769 37.2604 66.4494 36.3574 66.9561C35.6771 67.3361 34.8686 67.6553 33.8808 67.9305C33.1521 68.1327 32.3896 68.2765 31.6512 68.4129H31.6463ZM40.9886 5.39353C41.0249 5.46174 41.0588 5.52751 41.0951 5.59329C41.0806 5.57867 41.0637 5.56162 41.0491 5.54944C40.0711 4.74309 39.0616 4.12676 37.9601 3.66146C36.7351 3.14257 35.4326 2.72844 34.0915 2.43123C32.8592 2.15595 31.5882 1.97081 30.3608 1.7881C29.9929 1.73451 29.6225 1.67848 29.2545 1.62245C28.0416 1.43487 27.1096 1.35204 26.2332 1.35204C25.5699 1.35204 24.9549 1.40077 24.3546 1.50065C24.0713 1.54693 23.759 1.56886 23.3765 1.56886C23.1175 1.56886 22.8512 1.55911 22.5946 1.54937C22.3549 1.53962 22.1152 1.53231 21.878 1.52988C21.4446 1.52744 21.0089 1.5177 20.5755 1.50795C20.0502 1.49821 19.5079 1.48603 18.9753 1.48603C18.7066 1.48603 18.4379 1.48846 18.1691 1.49577C17.4792 1.51283 16.782 1.58104 16.109 1.64925C15.8669 1.67361 15.6248 1.69553 15.3851 1.71746L15.3778 1.6663L15.1914 1.69066C15.022 1.71259 14.8525 1.73451 14.6806 1.754C14.3102 1.80029 13.9277 1.84657 13.5525 1.90991L13.1143 1.98543C12.2718 2.12916 11.3979 2.27776 10.5505 2.47508C10.1777 2.56278 9.81701 2.69433 9.46598 2.82101C9.18031 2.92576 8.88496 3.03295 8.59203 3.11334C7.42516 3.43247 6.06461 3.85635 4.80815 4.59449C4.00683 5.06465 3.40645 5.64201 2.97553 6.35578C2.70681 6.79915 2.73586 7.27419 3.053 7.59332C3.42097 7.96604 3.87853 8.43134 4.4087 8.71636C5.17855 9.1305 6.00892 9.44962 6.81025 9.75901L7.06444 9.85645C7.82461 10.1488 8.60898 10.4533 9.41272 10.6457C9.93322 10.77 10.4731 10.826 10.9936 10.8796C11.2938 10.9113 11.6036 10.943 11.9038 10.9868C12.2282 11.0355 12.5599 11.0989 12.8795 11.1598C13.1797 11.2182 13.4895 11.2767 13.7994 11.3254L14.2352 11.3936C15.3318 11.5642 16.4672 11.7371 17.5881 11.8711C18.4137 11.9685 19.2489 12.0197 20.0696 12.0197H20.0913C20.8515 12.0197 21.6214 11.988 22.367 11.9564C22.7108 11.9418 23.0521 11.9271 23.3959 11.9174C23.6356 11.9101 23.8728 11.9028 24.1125 11.8979C24.5579 11.8857 25.0203 11.8735 25.4754 11.8516C26.9812 11.7737 28.4701 11.6884 29.9904 11.5983C30.2471 11.5836 30.5037 11.5739 30.7603 11.5642C31.4018 11.5398 32.0652 11.5154 32.7091 11.4034C33.9631 11.1817 35.2148 10.8431 36.2872 10.541C36.8755 10.3753 37.5001 10.1317 38.1949 9.79311C38.4878 9.64938 38.7686 9.47642 39.0374 9.30833C39.3666 9.1037 39.6765 8.91125 40.0106 8.76752C41.0443 8.32415 41.3082 7.40818 41.4728 6.58721C41.4849 6.52875 41.4849 6.46784 41.4801 6.40451C41.6834 6.90147 41.8311 7.42767 41.865 8.05618C41.8311 8.44352 41.7948 8.84791 41.756 9.26205C41.6592 10.2998 41.56 11.3717 41.5067 12.4655C41.4704 13.211 41.4849 13.9686 41.497 14.6994C41.5043 15.1355 41.514 15.5862 41.5115 16.0295C41.5115 16.1732 41.4534 16.3292 41.4147 16.356C40.6473 16.8505 39.8242 17.3499 38.8292 17.9321C38.3208 18.2293 37.8511 18.4754 37.3936 18.6849C36.5003 19.0917 35.774 19.4011 35.1034 19.6569C34.4667 19.9005 33.7065 20.1782 32.9149 20.3853C32.3629 20.529 31.7867 20.6362 31.2324 20.7385C30.9927 20.7823 30.7554 20.8262 30.5158 20.8725C30.4964 20.8773 30.4746 20.8749 30.4528 20.8773C30.4238 20.8773 30.3947 20.8773 30.3681 20.8822C29.8888 20.9334 29.4118 20.9918 28.9325 21.0479C27.8721 21.1721 26.7755 21.3012 25.6933 21.3816C24.0883 21.5034 22.781 21.5595 21.585 21.5595C21.4446 21.5595 21.3018 21.5595 21.1614 21.5595C19.4934 21.54 17.7334 21.4571 15.6223 21.2988C14.6128 21.2233 13.5501 21.0674 12.3783 20.8238C11.502 20.641 10.628 20.3463 9.77102 20.0588C9.43693 19.9468 9.10284 19.8079 8.77844 19.6739C8.31363 19.4815 7.83187 19.2841 7.338 19.1526C6.46648 18.9212 5.71115 18.4997 4.91225 18.0564C4.69921 17.937 4.48375 17.8176 4.26829 17.7031C3.72359 17.4132 3.12078 17.1233 2.3703 16.7871C2.17663 16.7019 2.13305 16.6361 2.13547 16.4461C2.14273 15.4814 2.13305 14.5898 2.09916 13.7177C2.07979 13.211 2.04832 12.6945 2.01927 12.1951C1.96843 11.3522 1.91759 10.4825 1.92001 9.62746C1.92485 8.55558 2.01443 7.46908 2.18873 6.3972C2.31946 5.60059 2.94648 5.03298 3.45002 4.69924C4.32155 4.12188 5.27539 3.65903 6.09608 3.28143C6.40111 3.14014 6.7352 3.06462 7.08865 2.98179C7.29685 2.93307 7.51231 2.88435 7.72293 2.82101C7.99407 2.73818 8.26521 2.64561 8.52667 2.55547C8.89465 2.4288 9.27715 2.29725 9.65481 2.19493C10.3593 2.00735 11.071 1.87337 11.7997 1.73938C12.4824 1.61514 13.2111 1.48603 13.9398 1.40807C14.2618 1.37397 14.5838 1.33012 14.8961 1.28627C15.54 1.19613 16.2034 1.106 16.8643 1.106C17.0507 1.106 17.2347 1.11331 17.409 1.12792C18.5492 1.22537 19.7403 1.27165 21.0524 1.27165C21.8562 1.27165 22.6987 1.2546 23.6331 1.21806C23.9454 1.20588 24.2723 1.20101 24.6088 1.20101C25.6788 1.20101 26.7416 1.25947 28.0101 1.34717C29.3441 1.43974 30.6731 1.59078 31.9635 1.80029C32.9778 1.96594 33.9753 2.25583 34.7306 2.49214C36.2267 2.95987 37.3573 3.35451 38.3983 3.77352C39.4513 4.1974 40.2212 4.66513 40.824 5.24492C40.8506 5.26928 40.8797 5.29365 40.9087 5.31801C40.9426 5.34724 40.9838 5.37891 40.9935 5.3984L40.9886 5.39353ZM31.8933 7.08905C31.3679 6.96968 30.8232 6.843 30.3003 6.68953C30.1599 6.64811 29.9735 6.43617 29.8984 6.23641C29.712 5.73458 30.1381 4.60667 30.5884 4.40447C30.8305 4.29728 31.0968 4.24125 31.3776 4.18279C31.4962 4.15843 31.6149 4.13406 31.7311 4.10483C32.8786 4.23638 33.9995 4.39716 35.0695 4.86977C36.0621 5.30826 37.1031 5.82715 37.9819 6.64568C38.4418 7.07443 38.5604 7.48613 38.3547 7.94168C38.3232 8.01233 38.2385 8.09272 38.1562 8.1317C37.8269 8.28761 37.5001 8.41916 37.1854 8.52147C37.1176 8.5434 37.0425 8.55558 36.9699 8.55558C36.9191 8.55558 36.8707 8.54827 36.8343 8.53609C36.5632 8.44839 36.2896 8.34851 36.0258 8.2535C35.7086 8.13901 35.3818 8.01964 35.0526 7.91976C34.2972 7.68833 33.5371 7.491 32.8302 7.31317C32.5179 7.23521 32.2056 7.16213 31.8908 7.09148L31.8933 7.08905ZM34.5393 3.90264L34.2827 3.80276C33.6024 3.53966 32.9004 3.26681 32.1063 3.26681H32.0579C31.9732 3.26681 31.8884 3.26681 31.8037 3.26681C31.7165 3.26681 31.6294 3.26681 31.5422 3.26681C30.9152 3.26681 30.2035 3.32041 29.6709 3.97328C29.0124 4.77963 28.7219 5.67855 28.8066 6.64568C28.855 7.20354 29.2472 7.63473 29.8258 7.76628C30.097 7.82962 30.3705 7.88322 30.6417 7.93681C31.1113 8.02938 31.5955 8.12682 32.0555 8.26325C32.2758 8.32902 32.4961 8.40454 32.714 8.48493C32.4113 8.43865 32.1112 8.39723 31.8158 8.35582L31.5326 8.31684C31.2372 8.27543 30.9419 8.23158 30.6465 8.19016C29.7338 8.05861 28.7921 7.92219 27.8576 7.83449C27.6034 7.81013 27.3299 7.80039 26.9982 7.80039C26.7658 7.80039 26.5334 7.80526 26.301 7.81013C26.071 7.815 25.841 7.81988 25.611 7.81988H25.536C25.4367 7.81988 25.3834 7.81257 25.3568 7.8077C24.7274 6.67735 23.5387 6.45566 22.6696 6.29488C21.8683 6.14628 21.159 6.07563 20.5005 6.07563H20.4787C19.5684 6.07563 18.7841 6.53849 18.2103 7.40818C18.0844 7.59819 17.9924 7.65909 17.8133 7.66884L17.2807 7.69807C16.2736 7.75167 15.2302 7.80526 14.2061 7.87834C13.015 7.96117 11.7513 8.0781 10.553 8.52147C10.2915 8.61892 10.0325 8.73098 9.7807 8.8406C9.44419 8.98677 9.098 9.1378 8.74939 9.24743C8.73487 9.2523 8.7155 9.25474 8.69371 9.25474C8.56782 9.25474 8.3911 9.17678 8.23616 9.10857L8.15385 9.07203C7.54862 8.8138 6.93371 8.53365 6.33091 8.23888C6.19049 8.17067 6.04766 8.10246 5.90725 8.03425C5.34317 7.76385 4.75974 7.48613 4.22229 7.15969C3.96326 7.00135 3.90273 6.91609 3.89547 6.8698C3.88337 6.76992 4.10125 6.54336 4.17388 6.47028C5.00667 5.60547 6.05976 5.16697 7.07412 4.82348C7.46631 4.68949 7.85608 4.55307 8.24826 4.41422C8.9818 4.15599 9.74196 3.88802 10.4973 3.65415C11.1074 3.46657 11.7755 3.31554 12.5986 3.18399C13.3419 3.06462 14.0996 2.96474 14.8356 2.86973C15.327 2.80396 15.8184 2.74062 16.3099 2.66997C17.317 2.52624 18.4185 2.45559 19.6725 2.45559C20.5973 2.45559 21.51 2.49214 22.2774 2.52868C22.3573 2.53355 22.4372 2.53355 22.5171 2.53355C22.8149 2.53355 23.1151 2.50919 23.4056 2.48726C23.6888 2.46534 23.9817 2.44098 24.265 2.44098H24.3376C25.4827 2.45803 26.6932 2.50188 27.9351 2.57496C28.9252 2.63343 29.9783 2.70164 30.9927 2.84293C32.6438 3.07193 34.3335 3.51773 36.1589 4.20227C36.6988 4.40447 37.2241 4.69193 37.7349 4.96964C38.0182 5.12312 38.3111 5.2839 38.604 5.43007C39.1923 5.71996 39.6474 6.08781 39.9961 6.55311C40.2188 6.85031 40.2285 6.92096 39.8823 7.2547C39.8387 7.29612 39.7903 7.33266 39.7346 7.3692C39.7346 6.49464 39.2819 5.76138 38.5217 5.44225C37.5824 5.0476 36.614 4.68462 35.6771 4.33382C35.2971 4.19009 34.917 4.0488 34.5369 3.90264H34.5393ZM24.6378 9.43988L24.7879 9.28641C24.9695 9.10126 25.1462 8.92099 25.3278 8.74803C25.3471 8.72854 25.3786 8.71392 25.3931 8.71149L26.1121 8.76752C26.9595 8.83329 27.8358 8.89907 28.6928 8.99407C29.7847 9.11344 30.9467 9.24986 32.0966 9.45937C32.4985 9.53245 32.8834 9.67618 33.2901 9.82965C33.4523 9.89056 33.6121 9.94902 33.7792 10.0075C33.5782 10.0562 33.3821 10.0952 33.1885 10.1049C32.5905 10.1366 31.9804 10.1512 31.3897 10.1658C30.8789 10.178 30.3487 10.1926 29.8282 10.2146C29.1528 10.2438 28.4701 10.2901 27.8068 10.3339C27.4267 10.3583 27.049 10.3851 26.669 10.407C26.4002 10.4241 26.1291 10.4362 25.8604 10.4484C25.611 10.4606 25.3641 10.4728 25.1147 10.485C24.9574 10.4947 24.8 10.5093 24.6427 10.5264C24.6427 10.5264 24.6427 10.5264 24.6402 10.5264V9.43744L24.6378 9.43988ZM10.536 9.56656C11.0928 9.40577 11.6666 9.24256 12.2355 9.10614C12.9351 8.94048 13.6178 8.78701 14.3078 8.73341C14.5015 8.7188 14.7072 8.71149 14.9372 8.71149C15.2471 8.71149 15.5642 8.72367 15.8717 8.73828C16.092 8.74803 16.3123 8.75534 16.5326 8.76021C17.0192 8.76995 17.593 8.78457 18.1619 8.80406C18.1812 8.80406 18.2321 8.83329 18.2636 8.85035L18.4137 8.9283C18.5565 9.00138 18.6921 9.07203 18.8131 9.15729C18.922 9.23281 18.9705 9.30589 18.9777 9.33513C19.0528 9.69323 19.1109 10.0489 19.1738 10.4265C19.1835 10.4874 19.1932 10.5507 19.2053 10.6116C17.3945 10.5824 15.5739 10.3193 13.8115 10.066C12.6713 9.90274 11.4971 9.73221 10.3254 9.62502C10.3956 9.60553 10.4658 9.58361 10.5384 9.56412L10.536 9.56656ZM19.1472 7.86373C19.6314 7.40818 20.1591 7.18649 20.7571 7.18649C20.883 7.18649 21.0113 7.19624 21.142 7.21573C21.3551 7.24739 21.5681 7.2547 21.7763 7.26445C21.8683 7.26932 21.9603 7.27176 22.0523 7.27663C22.8076 7.32291 23.4903 7.59576 24.0858 8.08785C24.1004 8.10003 24.1149 8.12439 24.1318 8.15362C23.1804 8.5166 22.2242 8.56776 21.326 8.56776H21.1638C20.8152 8.56532 20.4424 8.44595 20.0841 8.33389C19.9679 8.29735 19.8541 8.26081 19.7403 8.22914C19.5854 8.18529 19.4353 8.1049 19.2779 8.02207C19.2247 7.99528 19.1738 7.96848 19.1206 7.94168C19.106 7.93437 19.0964 7.92706 19.0867 7.92219C19.0964 7.90758 19.1133 7.89052 19.1399 7.86373H19.1472ZM23.4177 10.636H20.2027L20.2971 9.7249C20.9217 9.84184 21.4253 9.89299 21.907 9.89299C22.3888 9.89299 22.8609 9.83696 23.3063 9.72003L23.4177 10.6336V10.636ZM1.82802 18.4291C1.84738 18.2415 1.86433 18.0539 1.8837 17.8274L1.89096 17.7421C1.89096 17.7421 2.25168 17.9492 2.3824 18.0247C2.4865 18.0856 2.5906 18.1465 2.6947 18.2074C2.93195 18.3462 3.17646 18.4924 3.43066 18.6142C3.84705 18.8164 4.26587 19.0113 4.68469 19.2062C5.27539 19.4815 5.88546 19.7641 6.47374 20.0613C7.90207 20.7848 9.34251 21.3158 10.7563 21.6398C12.1726 21.9663 13.642 22.244 15.1261 22.4632C16.3753 22.6484 17.6559 22.7458 18.8954 22.8384L18.9874 22.8457C19.1351 22.8579 19.2924 22.8628 19.4692 22.8628C19.6774 22.8628 19.8856 22.8555 20.0962 22.8481C20.302 22.8408 20.5053 22.8335 20.7111 22.8335H20.7644C21.1323 22.836 21.5003 22.8433 21.8683 22.853C22.3041 22.8628 22.7543 22.8725 23.1974 22.8725C23.345 22.8725 23.4927 22.8725 23.6404 22.8701C24.5676 22.853 25.5069 22.7994 26.4172 22.7483L26.6883 22.7337C26.8602 22.7239 27.0321 22.7166 27.204 22.7093C27.7826 22.6825 28.383 22.6557 28.964 22.5534C30.0776 22.3561 31.196 22.1003 32.2806 21.8542L32.8181 21.7324C33.3289 21.6155 33.8324 21.4571 34.2561 21.3183C35.912 20.7702 37.396 20.2488 38.7832 19.4059C39.4489 19.0016 40.0832 18.529 40.6981 18.071C40.9886 17.8542 41.2791 17.6373 41.5745 17.4278C41.7004 17.3377 41.8311 17.2549 41.9594 17.172C41.9836 17.1574 42.0078 17.1404 42.0345 17.1258C42.3443 17.3742 42.4509 17.6788 42.3516 18.0393C42.2523 18.3998 41.9086 18.5801 41.5503 18.7214C41.2816 18.8286 41.0225 18.9723 40.7974 19.0966C40.5238 19.2476 40.2551 19.4059 39.9864 19.5643C39.4441 19.8834 38.8824 20.2123 38.3063 20.4754C37.5727 20.8091 36.798 21.0917 36.05 21.3646C35.7643 21.4693 35.4786 21.5741 35.193 21.6813C34.963 21.769 34.733 21.8567 34.503 21.9468C33.8687 22.1928 33.2127 22.4462 32.5566 22.646C32.0966 22.7848 31.6124 22.892 31.1476 22.9943C30.6901 23.0966 30.218 23.2014 29.758 23.3378C28.8623 23.6033 27.9641 23.6448 27.0127 23.6862C26.8045 23.6959 26.5987 23.7057 26.3905 23.7178C26.0831 23.7349 25.7781 23.7982 25.4851 23.8591C25.289 23.9005 25.0881 23.942 24.892 23.9688C24.846 23.9761 24.8 23.9761 24.754 23.9761C24.6838 23.9761 24.616 23.9712 24.5458 23.9663C24.4683 23.9614 24.3909 23.9566 24.3134 23.9566C24.265 23.9566 24.2166 23.9566 24.1682 23.9639C23.8752 23.9931 23.5799 24.0297 23.2869 24.0662C22.8584 24.1198 22.4154 24.1758 21.9797 24.2051L21.8998 24.2099C21.3163 24.2465 20.7135 24.2854 20.1252 24.2854C19.8614 24.2854 19.6217 24.2781 19.3893 24.2635C19.0044 24.2392 18.6122 24.2221 18.2345 24.2075C17.1935 24.1636 16.1186 24.1198 15.0873 23.8859L14.9518 23.8543C14.0173 23.6423 13.0489 23.4231 12.1145 23.16C10.6353 22.7434 9.44661 22.378 8.37173 22.0101C7.18791 21.6033 5.93146 21.1356 4.29976 20.49C3.76958 20.2805 3.24909 20.015 2.74312 19.7592L2.42114 19.596C1.97327 19.3718 1.76749 18.9723 1.82317 18.4413L1.82802 18.4291ZM2.06042 26.3513C2.09674 25.4207 2.13063 24.4584 2.15726 23.5108C2.17421 22.8555 2.16936 22.2123 2.16694 21.5327C2.16694 21.3207 2.16452 21.1088 2.16452 20.892L2.67776 21.1063C3.23214 21.3402 3.76232 21.5619 4.29492 21.7787L4.58059 21.8956C5.16161 22.1344 5.76441 22.3829 6.36722 22.6021L6.93613 22.8116C7.9166 23.1722 8.92854 23.5473 9.94532 23.8616C10.737 24.1076 11.5528 24.3122 12.342 24.512C12.7052 24.6046 13.0707 24.6947 13.4338 24.7922C14.9033 25.1795 16.4987 25.3987 18.6049 25.5011C18.9971 25.5205 19.4232 25.5303 19.9074 25.5303C20.3673 25.5303 20.8273 25.523 21.2873 25.5132C21.5584 25.5084 21.8296 25.5035 22.1007 25.5011H22.3234C22.9819 25.4913 23.6622 25.484 24.3304 25.428C25.7321 25.3086 27.1023 25.1868 28.4483 24.9992C29.1915 24.8945 29.9396 24.7483 30.6635 24.607C31.1162 24.5193 31.5858 24.4267 32.0482 24.3463C32.3363 24.2952 32.6365 24.2586 32.9246 24.2221C33.324 24.1709 33.7356 24.1198 34.1399 24.0345C34.6555 23.9225 35.1978 23.7519 35.8466 23.4913C36.5293 23.2184 37.1709 22.9212 37.7567 22.607C38.345 22.2927 38.9187 21.9297 39.4707 21.5814L39.6668 21.4571C40.1147 21.1746 40.5456 20.892 41.0031 20.5899C41.1169 20.5144 41.2307 20.4389 41.3469 20.3633C41.3614 20.5217 41.376 20.68 41.3905 20.8384C41.4462 21.4571 41.4994 22.0418 41.5357 22.6362C41.5527 22.9066 41.5479 23.1868 41.5454 23.4572C41.5406 23.7544 41.5382 24.0613 41.56 24.3683L41.5745 24.5802C41.6108 25.143 41.6495 25.7252 41.8142 26.2709C42.0175 26.9457 41.8771 27.4572 41.3614 27.925C40.1704 29.0066 39.1148 29.774 38.04 30.3391C37.8414 30.4439 37.6478 30.5535 37.4517 30.6631C37.0716 30.8775 36.6794 31.0968 36.2775 31.2697C35.3721 31.6571 34.411 32.0249 33.341 32.3928C32.8132 32.5755 32.2153 32.7314 31.4599 32.8873C30.6925 33.0456 29.8621 33.1894 28.8478 33.3404C28.55 33.3843 28.2377 33.3916 27.9327 33.3964C27.8504 33.3964 27.7656 33.3989 27.6833 33.4013C26.8142 33.4257 25.6667 33.4573 24.5168 33.4817C24.0229 33.4914 23.529 33.5036 23.0352 33.5158C21.9845 33.5426 20.8999 33.5694 19.8323 33.5694C19.5757 33.5694 19.3167 33.5694 19.06 33.5645C17.6559 33.545 16.4212 33.4525 15.2858 33.2819C13.9447 33.0797 12.5357 32.7923 10.7152 32.3489C9.7928 32.1248 8.83412 31.8081 7.86576 31.4086C7.16854 31.1211 6.47616 30.7752 5.80557 30.4415C5.47148 30.2758 5.1374 30.1077 4.80089 29.9469C4.61932 29.8617 4.43776 29.7788 4.25377 29.6985C4.02862 29.5986 3.79621 29.4963 3.57349 29.3842C3.03121 29.1114 2.51071 28.8336 2.03864 28.5632C2.02169 28.5437 1.99506 28.4633 1.99748 28.4073C2.01927 27.7203 2.0459 27.0309 2.07011 26.3439L2.06042 26.3513ZM1.53024 29.7204C1.53267 29.6546 1.53509 29.5864 1.53751 29.5206C1.88612 29.7058 2.22747 29.8909 2.56639 30.076C3.52265 30.5949 4.42323 31.0846 5.36738 31.528L5.40128 31.5426C7.0015 32.2929 8.65498 33.0676 10.4489 33.4232C10.7176 33.4768 10.9912 33.5597 11.2575 33.6425C11.5625 33.7351 11.8796 33.8325 12.204 33.8885C12.9472 34.0152 13.705 34.1078 14.4385 34.1955C14.6734 34.2247 14.9106 34.2515 15.1454 34.2807C15.2979 34.3002 15.448 34.3197 15.6006 34.3416C16.046 34.4025 16.506 34.4659 16.966 34.4805H17.0749C19.3433 34.5511 21.6916 34.6242 24.0011 34.6364H24.1488C26.2429 34.6364 28.3442 34.366 30.4916 34.0664C30.753 34.0298 31.0242 34.0103 31.2856 33.9933C31.3849 33.986 31.4866 33.9787 31.5858 33.9714C33.186 33.8447 34.6773 33.2917 35.9483 32.7825C36.3284 32.6315 36.6988 32.4464 37.0571 32.2661C37.2701 32.1589 37.4856 32.0517 37.701 31.9518C37.8632 31.8763 38.0375 31.8081 38.2046 31.7448C38.3256 31.6985 38.4467 31.6498 38.5653 31.5986C39.7201 31.1089 40.8071 30.327 41.8844 29.2112C42.032 29.0578 42.141 28.8799 42.2548 28.6923C42.2741 28.6582 42.2959 28.6241 42.3177 28.59C42.5283 28.763 42.5913 29.0383 42.6591 29.3257C42.6687 29.3696 42.6808 29.4159 42.6905 29.4573C42.8406 30.0687 42.4387 30.517 41.9788 30.9092C41.6689 31.1747 41.313 31.3769 40.9329 31.5937C40.7804 31.6814 40.6279 31.7691 40.4778 31.8593C40.1389 32.0663 39.8024 32.2758 39.4659 32.4853C38.6307 33.0042 37.7664 33.5426 36.8924 34.025C36.0548 34.4878 35.2293 34.8508 34.4401 35.1017C33.2901 35.4671 31.7698 35.9251 30.218 36.2321C28.6517 36.5414 27.095 36.7509 25.5916 36.8557C24.9501 36.902 24.2698 36.9239 23.5653 36.9239C22.8609 36.9239 22.0692 36.8995 21.2389 36.8508C20.1228 36.7851 18.9898 36.6608 17.8932 36.539C17.3073 36.4732 16.7021 36.4075 16.1041 36.3514C14.7702 36.2247 13.383 35.9227 11.8603 35.433C11.4463 35.299 11.0129 35.2089 10.5965 35.1212C10.1729 35.0311 9.73228 34.9385 9.32315 34.8021C7.6963 34.2637 5.79831 33.5743 4.03346 32.5609C3.63886 32.3343 3.22972 32.1224 2.83511 31.9177C2.47682 31.7326 2.10642 31.5401 1.75055 31.3404C1.63434 31.2746 1.51814 31.1114 1.51572 31.0359C1.49877 30.5998 1.51572 30.1516 1.53509 29.7179L1.53024 29.7204ZM41.3566 48.4686C41.3663 48.5587 41.3784 48.6513 41.3832 48.7414C41.3905 48.8364 41.4002 48.929 41.4099 49.024C41.4195 49.1166 41.4292 49.2116 41.4365 49.3066C41.4922 50.0301 41.3832 50.7293 41.267 51.4674C41.2307 51.7061 41.192 51.9449 41.1605 52.1836C41.0709 52.8657 41.1 53.5673 41.1266 54.1861C41.1387 54.4711 41.0951 54.5856 40.9354 54.6977C40.6473 54.8999 40.364 55.1069 40.0784 55.3116C39.7564 55.5454 39.4223 55.7866 39.0931 56.0156C38.9865 56.0887 38.88 56.1642 38.7735 56.2397C38.3184 56.5588 37.8487 56.8877 37.3597 57.1532C36.6746 57.526 35.9265 57.8792 34.9993 58.2665C34.4304 58.5053 33.7961 58.7197 33.1158 58.9072C32.8132 58.9901 32.4912 59.0461 32.1814 59.0997C31.9247 59.1435 31.6584 59.1898 31.3994 59.2507C30.7724 59.3993 30.1066 59.5772 29.3029 59.8135C28.8913 59.9328 28.4822 60.0619 28.0707 60.1886C27.3202 60.4225 26.5455 60.6637 25.7732 60.8537C25.4319 60.9365 25.0687 60.9438 24.6983 60.9438H24.4611C24.3134 60.9438 24.1633 60.9438 24.0181 60.9511L23.6888 60.9657C23.2748 60.9852 22.8488 61.0047 22.4299 61.012H22.3839C22.1927 61.012 22.0014 60.995 21.8005 60.9755L21.6819 60.9633C21.1735 60.917 20.6651 60.8658 20.1567 60.8171C19.106 60.7148 18.019 60.6076 16.9466 60.5321C15.2132 60.4103 13.5501 59.9158 12.1241 59.4602C11.8845 59.3823 11.64 59.3092 11.4003 59.2337C10.7031 59.0193 9.98163 58.7976 9.30136 58.5175C8.58477 58.2227 7.88029 57.85 7.19759 57.4919C6.99666 57.3871 6.79572 57.2799 6.59236 57.1752C6.24617 56.9973 5.91209 56.7927 5.59737 56.571L5.42549 56.4492C4.56848 55.8451 3.68001 55.2214 2.84722 54.5661C2.79154 54.515 2.7867 54.2226 2.78428 54.0984C2.78428 54.0545 2.78428 54.0107 2.78185 53.9717C2.71891 52.169 2.66323 50.3346 2.60755 48.5611L2.58576 47.8815C2.73344 47.9497 2.88353 48.0179 3.03121 48.0861C3.50086 48.3005 3.98747 48.5246 4.46196 48.7511C4.85899 48.9412 5.25118 49.1385 5.64337 49.3358C6.40353 49.7158 7.18791 50.1105 7.98439 50.4418C9.03264 50.8779 10.1293 51.2384 11.1897 51.5868L11.6424 51.7354C12.5865 52.0472 13.4387 52.32 14.3296 52.5149C15.068 52.6757 15.8281 52.7707 16.5641 52.8633C16.7456 52.8852 17.2201 52.9485 17.2201 52.9485C17.7649 53.0192 18.3289 53.0947 18.8906 53.0996C19.0358 53.0996 19.1835 53.0996 19.3288 53.0996C20.4279 53.0996 21.4979 53.0679 22.3985 53.0387C22.9674 53.0192 23.6404 52.9851 24.3061 52.8803C25.3181 52.722 26.3324 52.5174 27.3686 52.3054C27.7487 52.2275 28.1288 52.1373 28.4992 52.0521C28.9131 51.9546 29.3441 51.8547 29.7653 51.7695C30.0679 51.711 30.385 51.6696 30.6901 51.6282C30.9975 51.5868 31.3171 51.5453 31.6294 51.4844C31.9151 51.4284 32.2007 51.3529 32.4743 51.2774C32.7575 51.2019 33.048 51.1215 33.3361 51.0679C34.5587 50.8389 35.5174 50.549 36.3526 50.1543C37.3718 49.672 38.2603 49.1287 39.0664 48.4905C39.6983 47.9887 40.364 47.5087 41.008 47.0459C41.1653 46.9314 41.3227 46.8193 41.4776 46.7048C41.4147 47.041 41.3518 47.3894 41.3179 47.745C41.2937 47.9887 41.3227 48.2323 41.3469 48.4661L41.3566 48.4686ZM41.8045 44.8802L41.359 45.2164C40.4584 45.8936 39.5288 46.5976 38.604 47.2749L38.4079 47.4186C38.0109 47.7134 37.5994 48.0154 37.166 48.2274L36.9723 48.3224C36.1274 48.7365 35.2511 49.1628 34.3118 49.3724C33.7404 49.499 33.1715 49.6598 32.6195 49.8157C32.1644 49.9448 31.6923 50.0764 31.2275 50.1884C30.816 50.2883 30.3826 50.3517 29.9638 50.415C29.7459 50.4467 29.528 50.4808 29.3126 50.5173C28.9373 50.5807 28.5645 50.6489 28.1917 50.7171L27.1338 50.9071C26.7004 50.985 26.2671 51.0606 25.8362 51.141C25.6352 51.1775 25.4367 51.2189 25.2358 51.2628C24.8339 51.348 24.4199 51.4357 24.0132 51.4723L23.805 51.4893C22.8681 51.5721 21.9022 51.6574 20.9556 51.6574C20.8346 51.6574 20.7111 51.6574 20.5901 51.6525C19.1617 51.6184 17.6123 51.5088 15.8523 51.3237C15.4093 51.2774 14.9784 51.1434 14.5233 51.0021C14.3054 50.9339 14.0827 50.8657 13.8599 50.8072C13.7776 50.7853 13.6977 50.7755 13.6178 50.7634C13.5452 50.7536 13.4774 50.7439 13.4169 50.7268C13.2692 50.6878 13.124 50.6416 12.9787 50.5953C12.8964 50.5685 12.8165 50.5417 12.7342 50.5173C12.5986 50.4759 12.4631 50.4345 12.3251 50.3955C12.0636 50.3176 11.7925 50.2372 11.5286 50.1495C10.9258 49.9473 10.4222 49.7719 9.91627 49.577L9.37883 49.3699C8.52909 49.0435 7.65272 48.7073 6.80782 48.3394C6.40111 48.1616 5.99924 47.9497 5.6119 47.7426C5.3117 47.5818 4.99941 47.4162 4.68469 47.2676C4.17146 47.024 3.61707 46.773 3.02879 46.5903C2.57124 46.449 2.23473 46.1323 1.97085 45.594C1.77718 45.1969 1.67792 44.7608 1.66824 44.2371C1.7215 44.2736 1.77476 44.3077 1.82802 44.3418C2.12337 44.5343 2.40177 44.7145 2.65839 44.9143C3.44034 45.516 4.33608 45.9569 5.47633 46.3029C5.9484 46.4442 6.41806 46.6342 6.87319 46.8169C7.25811 46.9704 7.65514 47.1311 8.05701 47.2627C8.83412 47.5209 9.63302 47.7597 10.4029 47.9887C10.8144 48.1105 11.2236 48.2347 11.6327 48.3589C11.9668 48.4613 12.3009 48.5684 12.6325 48.6756C13.2305 48.8681 13.8478 49.0678 14.4652 49.2359C15.6635 49.5648 17.0918 49.901 18.6073 49.901C18.6073 49.901 18.9366 49.901 19.0673 49.901C19.4086 49.901 19.7476 49.9034 20.0889 49.9059C20.4303 49.9083 20.7716 49.9107 21.113 49.9107C21.9554 49.9107 22.597 49.8937 23.1949 49.8571C25.1438 49.7402 27.1822 49.4503 29.6128 48.9509C29.9275 48.8851 30.2422 48.8218 30.5569 48.7585C31.7674 48.5124 33.019 48.2566 34.2416 47.9643C34.5853 47.8815 34.9121 47.7402 35.2269 47.6037C35.5295 47.4722 35.8176 47.348 36.1178 47.27C36.9312 47.0629 37.5969 46.6074 38.2409 46.1665C38.4975 45.9911 38.7614 45.8108 39.0277 45.6524C39.57 45.3284 40.0154 44.8461 40.4488 44.3832C40.5238 44.3028 40.5964 44.2249 40.6715 44.1469C41.0685 43.7255 41.4486 43.2724 41.8142 42.8339C41.9134 42.7145 42.0127 42.5951 42.1143 42.4758C42.4339 43.2699 42.2354 44.0178 41.9642 44.7121C41.9521 44.7413 41.9183 44.7925 41.8093 44.8729L41.8045 44.8802ZM2.12821 42.7681V42.7413C2.21052 41.9057 2.25168 41.0531 2.29283 40.2297L2.31704 39.7254C2.33883 39.282 2.34609 38.8314 2.35335 38.3953V38.237C2.36062 37.8983 2.36788 37.5622 2.37272 37.2235C2.39209 36.2442 2.41146 35.2333 2.39935 34.2369C2.39451 33.891 2.32914 33.5475 2.2662 33.2186C2.23715 33.0676 2.2081 32.9165 2.18389 32.7655C2.27831 32.8166 2.37514 32.8678 2.46956 32.919C2.88111 33.1382 3.27088 33.3477 3.65338 33.5743C4.79363 34.2491 5.91935 34.8849 7.17822 35.2552C7.58978 35.377 8.00617 35.5207 8.40804 35.662C8.88738 35.8277 9.38367 36.0006 9.88238 36.137C10.3932 36.2783 10.9185 36.3831 11.4269 36.4854C11.7925 36.5585 12.1701 36.634 12.5381 36.7241C13.0489 36.846 13.5694 36.9824 14.0705 37.1139C14.9154 37.3356 15.7894 37.5646 16.6609 37.74C17.6898 37.9471 18.7526 38.0348 19.75 38.1005C20.7813 38.1663 21.8296 38.1809 22.8439 38.1955L23.2894 38.2029C23.4104 38.2029 23.5315 38.2053 23.6525 38.2053C25.1438 38.2053 26.7246 38.0737 28.4798 37.8009C30.0122 37.5646 31.5931 37.2089 33.4548 36.6803C35.1446 36.2004 36.7448 35.5085 38.2094 34.6242C39.1972 34.0274 40.1946 33.4111 41.1605 32.8142C41.1605 32.8142 41.6302 32.5243 41.6374 32.5194C41.5067 33.5134 41.5721 34.5097 41.6326 35.4744C41.6616 35.947 41.6931 36.4343 41.7004 36.9117C41.7149 37.796 41.7512 38.6949 41.7851 39.5646C41.8045 40.0592 41.8238 40.5513 41.8408 41.0458C41.8408 41.1042 41.8263 41.1578 41.8166 41.17C41.6108 41.3917 41.405 41.6134 41.2017 41.8351C40.6182 42.4685 40.013 43.1238 39.386 43.7304C38.4491 44.6341 37.3742 45.2968 36.1928 45.6963C35.7304 45.8522 35.2511 45.9935 34.7863 46.1275C34.5684 46.1908 34.3529 46.2542 34.135 46.3199C33.8954 46.393 33.6533 46.4661 33.4136 46.5416C32.881 46.7073 32.3315 46.8778 31.7868 47.0215C31.1258 47.1994 30.4431 47.348 29.7822 47.4917L29.2085 47.6184C28.6154 47.7499 28.0029 47.8839 27.3976 47.9838C26.5745 48.1202 25.6159 48.2712 24.6572 48.3638L24.5628 48.3736C23.4322 48.4807 22.2629 48.5928 21.1178 48.5952H21.096C20.1761 48.5952 19.2343 48.5148 18.3265 48.4393C18.0796 48.4174 17.8326 48.3979 17.5833 48.3784C16.9611 48.3297 16.397 48.2566 15.8572 48.1592C15.5328 48.0983 15.2035 48.0081 14.884 47.9204C14.7097 47.8717 14.5354 47.823 14.3611 47.7791C14.0173 47.6939 13.6711 47.6086 13.3249 47.5258C12.6325 47.3577 11.9135 47.1847 11.2187 46.9899C10.628 46.8266 10.0373 46.6244 9.46356 46.432C9.25778 46.3613 9.05443 46.2931 8.84865 46.2249C8.57267 46.1323 8.29668 46.0373 8.0207 45.9423C7.55104 45.7815 7.06686 45.6135 6.58268 45.4673C5.15677 45.0337 3.84221 44.2907 2.57124 43.572L2.38725 43.4673C2.07495 43.2894 2.08705 43.1506 2.12337 42.7754L2.12821 42.7681ZM2.2202 55.6575C2.37272 55.7647 2.52524 55.8743 2.67776 55.9815C3.14015 56.3079 3.59528 56.6319 4.05525 56.9486C5.2996 57.8037 6.79814 58.7684 8.49036 59.4432C8.83412 59.5796 9.18273 59.7306 9.51924 59.8768C9.97437 60.0741 10.4464 60.2763 10.9185 60.4542C11.5262 60.6807 12.1556 60.8707 12.7657 61.0534L13.1264 61.1631C14.7557 61.6551 16.4334 61.8841 17.8786 62.0571C18.1958 62.0961 18.5153 62.1399 18.8325 62.1838C19.5805 62.2885 20.3528 62.3957 21.1202 62.4225C21.2824 62.4298 21.4446 62.4347 21.6068 62.442C22.0378 62.4615 22.4832 62.481 22.9238 62.481C23.6816 62.481 24.2989 62.4225 24.8678 62.2983C25.8822 62.0766 26.8263 61.8866 27.7584 61.716C28.0803 61.6576 28.412 61.6113 28.7316 61.5674C29.2133 61.5017 29.712 61.431 30.1962 61.3165C31.0193 61.1216 31.903 60.8537 32.8955 60.5004C33.8203 60.1716 34.7136 59.7842 35.4641 59.448C36.4882 58.9901 37.6696 58.4005 38.6767 57.504C39.1245 57.1045 39.6329 56.7488 40.1244 56.4054C40.3834 56.2227 40.6521 56.0351 40.9112 55.8426C41.1121 55.6916 41.3033 55.5284 41.4898 55.3676C41.514 55.3457 41.5406 55.3237 41.5672 55.3018C41.5842 55.3383 41.6035 55.3725 41.6205 55.4066C41.7246 55.6161 41.8166 55.7963 41.8965 55.979C41.9812 56.1739 41.9473 56.286 41.7633 56.4029L41.7415 56.4175C41.4849 56.5808 41.1944 56.7659 41.0177 57.0314C40.3059 58.1033 39.2407 58.7245 38.1198 59.3165C37.6308 59.5747 37.1515 59.8646 36.6867 60.1423C36.2727 60.3908 35.8442 60.649 35.4133 60.8829C34.7596 61.2386 34.0697 61.5382 33.4209 61.8135C32.2976 62.291 31.0992 62.6125 29.7556 62.7977C29.3537 62.8537 28.9519 62.9122 28.5524 62.9731C27.6204 63.1119 26.6544 63.2532 25.703 63.3385C24.3667 63.4579 22.9868 63.5188 21.5923 63.5188C19.9098 63.5188 18.2587 63.4384 16.8667 63.3604C15.7289 63.2971 14.5281 62.9877 13.0901 62.386C12.8407 62.2812 12.5672 62.1838 12.2282 62.0717C11.9716 61.9889 11.7126 61.9085 11.4535 61.8305C10.9912 61.6893 10.5142 61.5431 10.0543 61.375C9.66692 61.2313 9.27715 61.0632 8.89949 60.9C8.59687 60.7684 8.28458 60.6344 7.96986 60.5102C7.78103 60.4371 7.58494 60.3835 7.39368 60.3323C7.21212 60.2836 7.03781 60.2373 6.87319 60.174C6.63594 60.0839 6.40111 59.9767 6.17113 59.8719C5.92661 59.7623 5.67242 59.6478 5.4158 59.5504C4.66532 59.2678 4.00925 58.7976 3.40645 58.1131C3.23941 57.923 3.03847 57.7623 2.86174 57.621C2.29525 57.1679 1.9418 56.2787 2.22262 55.6575H2.2202Z" fill="white"/>
<path d="M6.13702 17.7276C6.63814 17.8689 7.14896 18.0004 7.64524 18.1271L8.36425 18.3122C8.80001 18.4243 9.2503 18.5412 9.69575 18.646C9.92574 18.6996 10.1533 18.7556 10.3833 18.8116C11.0781 18.9797 11.7947 19.1527 12.5137 19.2696C12.9325 19.3378 13.3586 19.3476 13.7726 19.3573C14.0316 19.3622 14.3027 19.3695 14.5618 19.389C14.6344 19.3939 14.7046 19.3987 14.7724 19.3987C15.3825 19.3987 15.7989 19.1576 16.0821 18.6435C16.5881 17.7251 16.8858 16.6947 16.9875 15.4912V15.4742V15.4571C16.9803 15.3767 16.9754 15.2988 16.9706 15.2184C16.9585 15.0235 16.9488 14.8213 16.8834 14.6288C16.7575 14.2513 16.6002 14.0125 16.4041 13.898C15.6149 13.4352 14.7046 13.1404 13.4554 12.9479C12.4265 12.7896 11.3807 12.6459 10.3663 12.507C9.90879 12.4437 9.44882 12.3828 8.99127 12.317C8.78307 12.2878 8.57729 12.2561 8.36909 12.2244C7.8607 12.1465 7.33536 12.0661 6.81003 12.0271C6.79308 12.0271 6.77614 12.0271 6.75677 12.0271C6.49289 12.0271 6.11281 12.1733 5.96029 12.4071C5.69157 12.8213 5.40106 13.3182 5.30422 13.8444C5.16139 14.6021 5.13718 15.3889 5.11055 16.149V16.2245C5.08634 16.8993 5.53663 17.5595 6.13944 17.73L6.13702 17.7276ZM7.15138 13.2281C7.19253 13.2281 7.23369 13.2281 7.27726 13.2281H7.43704L7.44188 13.194C7.66945 13.233 7.89702 13.2744 8.12458 13.3134C8.79759 13.4327 9.49481 13.5545 10.1848 13.6593C10.9909 13.7811 11.6567 13.859 12.2837 13.9005C13.4457 13.9808 14.5424 14.3804 15.6052 14.7701C15.7916 14.8384 15.8666 14.9675 15.8884 15.2671C15.9635 16.2805 15.581 17.1721 15.1718 18.1149L15.1089 18.2611C15.0944 18.2806 15.0435 18.3122 15.0145 18.3195C14.5884 18.2245 14.1575 18.1198 13.7411 18.0175C13.3174 17.9127 12.8792 17.8055 12.4459 17.7081C11.7196 17.5449 10.9813 17.3914 10.2647 17.2428C9.87974 17.1624 9.49482 17.082 9.10989 16.9992C8.92106 16.9602 8.73223 16.909 8.57245 16.8652C8.40056 16.8189 8.2311 16.7702 8.05922 16.7215C7.7566 16.6362 7.44431 16.5485 7.13201 16.4705C6.31858 16.2683 6.15638 16.0637 6.18059 15.2574C6.1927 14.8359 6.23385 14.4072 6.27501 13.9906L6.30648 13.6642C6.34279 13.2695 6.54615 13.2159 6.7374 13.2159C6.77129 13.2159 6.80519 13.2159 6.8415 13.2208C6.8996 13.2281 6.95528 13.2281 7.01338 13.2281C7.05938 13.2281 7.10296 13.2281 7.14896 13.2257L7.15138 13.2281Z" fill="white"/>
<path d="M31.1232 28.7118C31.404 28.797 31.68 28.9529 31.939 29.1064C32.0964 29.2014 32.1956 29.3354 32.215 29.4791C32.2319 29.6009 32.1884 29.7203 32.0891 29.8251C31.9196 30.0053 31.6485 30.1247 31.404 30.2197C31.3895 30.1953 31.3725 30.171 31.358 30.1491C31.295 30.0541 31.2273 29.9444 31.1546 29.8689C31.0772 29.7861 30.9755 29.7471 30.8883 29.7106C30.8593 29.6984 30.8302 29.6886 30.8036 29.674L30.6123 29.579L30.5421 29.7812C30.53 29.8129 30.5155 29.847 30.4986 29.8811C30.4501 29.9834 30.392 30.1101 30.4162 30.2465C30.5058 30.7264 30.9053 31.0358 31.433 31.0358C31.5153 31.0358 31.5976 31.0285 31.6824 31.0139C32.3723 30.8896 33.1591 30.6217 33.1228 29.635C33.1059 29.1576 32.8904 28.7727 32.4861 28.4876C32.4861 28.4876 31.5178 27.808 31.2999 27.6521C31.1474 27.5449 31.0602 27.4109 31.0457 27.2647C31.0312 27.1186 31.0917 26.9675 31.2224 26.8311C31.312 26.7385 31.4161 26.6849 31.5178 26.6849C31.6679 26.6849 31.7937 26.7946 31.8543 26.9773C31.8761 27.0455 31.9027 27.1112 31.9269 27.177L32.0044 27.3792L32.5006 27.389V27.1965C32.5006 27.1527 32.5031 27.1064 32.5079 27.0625C32.5176 26.9432 32.5273 26.8092 32.4861 26.6776C32.3627 26.2732 32.0431 26.0369 31.542 25.976C31.4233 25.9614 31.3265 25.9541 31.2345 25.9541C30.8423 25.9541 30.5688 26.0905 30.3945 26.3707C30.1136 26.8214 30.0507 27.3987 30.2298 27.8762C30.3824 28.2854 30.6995 28.5826 31.1232 28.7118V28.7118Z" fill="white"/>
<path d="M5.05961 28.6631C5.10319 28.668 5.14677 28.6704 5.18792 28.6704C5.53169 28.6704 5.81252 28.4731 5.96019 28.1296C6.16113 27.6619 6.36933 27.1795 6.50732 26.6728C6.57026 26.4389 6.33059 26.0613 6.11271 25.9615C5.86336 25.847 5.57285 25.8445 5.31623 25.8397H5.25087C5.12498 25.8397 5.02088 25.8981 4.93131 25.9517C4.90226 25.9688 4.8732 25.9858 4.84173 26.0004L4.71827 26.0565C4.78847 25.596 4.92646 25.1064 5.32107 24.7751C5.41791 24.6947 5.58979 24.6338 5.71568 24.6338C5.74715 24.6338 5.76894 24.6387 5.77378 24.6387C5.8222 24.6752 5.88756 24.8774 5.91904 24.9748C5.93114 25.0114 5.94325 25.0479 5.95535 25.0796C5.9844 25.1624 5.99166 25.2599 6.00135 25.3646C6.00619 25.4182 6.01103 25.4718 6.01829 25.5254L6.04492 25.7178L6.60657 25.6253L6.58479 25.445C6.5751 25.3622 6.56784 25.2818 6.56058 25.199C6.54363 25.0065 6.52668 24.8092 6.47585 24.6143C6.3548 24.1563 5.9844 23.8494 5.55106 23.8494C5.37191 23.8494 5.19034 23.9054 5.02572 24.0077C4.76184 24.1758 4.50765 24.4292 4.30671 24.7215C3.90726 25.3037 3.85884 25.9639 3.8419 26.702C3.83221 27.1454 3.94358 27.6034 4.05494 27.9907C4.21472 28.551 4.78847 28.6265 5.06446 28.6631H5.05961ZM4.77153 26.2928C4.79574 26.322 4.81752 26.3561 4.83931 26.3902C4.9071 26.4925 4.98215 26.607 5.11045 26.6655C5.26297 26.7361 5.42517 26.7702 5.58253 26.7995C5.568 26.8482 5.55348 26.8945 5.54137 26.9408C5.46633 27.1917 5.39612 27.428 5.34286 27.674C5.30413 27.8494 5.21697 27.9006 4.94583 27.9006C4.84657 27.9006 4.71342 27.8738 4.70858 27.6472C4.70616 27.5084 4.6989 27.3695 4.69164 27.2282C4.67469 26.8701 4.65774 26.5291 4.6989 26.1978L4.77395 26.2903L4.77153 26.2928Z" fill="white"/>
<path d="M12.2813 30.7509C12.3999 30.768 12.5209 30.7729 12.6347 30.7802C12.763 30.7875 12.8817 30.7948 12.9979 30.8118C13.0608 30.8216 13.1189 30.8265 13.1746 30.8265C13.499 30.8265 13.7266 30.6608 13.8718 30.3197L13.9517 30.1322L12.5548 29.6571L12.7364 28.7314L13.8137 28.6291L13.8476 28.1516L12.9107 27.8617C12.918 27.4062 12.9422 27.4062 13.223 27.4062C13.2908 27.4062 13.3683 27.4062 13.4554 27.411C13.5014 27.411 13.5523 27.4208 13.6079 27.4305C13.6781 27.4427 13.7532 27.4549 13.8307 27.4549C13.8694 27.4549 13.9081 27.4525 13.9469 27.4452C14.0897 27.4184 14.2132 27.355 14.3318 27.2941C14.3778 27.2722 14.4214 27.2478 14.4674 27.2283L14.7458 27.1041L14.5109 26.9092L14.4068 26.8215C14.3148 26.7436 14.2204 26.6607 14.1163 26.5877C14.0389 26.5316 13.9469 26.5194 13.8791 26.5121L13.6007 26.4732C13.315 26.4317 13.0197 26.3903 12.7243 26.366H12.7025C12.55 26.366 12.3321 26.5121 12.2934 26.6827C12.1844 27.1674 12.0876 27.662 11.9956 28.1394L11.9351 28.4488C11.906 28.595 11.8818 28.7387 11.8552 28.8849C11.8044 29.1797 11.7511 29.4866 11.6712 29.7741C11.5962 30.0518 11.6155 30.2808 11.7293 30.4537C11.8382 30.6194 12.0222 30.7193 12.2764 30.7534L12.2813 30.7509Z" fill="white"/>
<path d="M36.4275 25.4303C36.5194 25.4693 36.6139 25.4888 36.7083 25.4888C36.9504 25.4888 37.1416 25.3621 37.3256 25.2403C37.4273 25.1721 37.5265 25.1063 37.6306 25.0649C37.6306 25.138 37.6306 25.2111 37.6306 25.2817C37.6282 25.6228 37.6234 25.9444 37.6379 26.2732C37.6621 26.8067 37.7057 27.2866 37.7711 27.7398C37.7928 27.8932 37.9187 27.9834 38.0301 28.0638C38.064 28.0881 38.0979 28.1125 38.1245 28.1368L38.3012 28.3001L38.4174 28.0881C38.4271 28.0686 38.4417 28.0491 38.4562 28.0297C38.507 27.959 38.57 27.8689 38.5675 27.7519C38.553 26.8774 38.5288 26.0053 38.5046 25.1088L38.4901 24.568C38.5288 24.5412 38.57 24.5168 38.6087 24.49C38.812 24.3585 39.0202 24.222 39.226 24.0637C39.3277 23.9833 39.3664 23.8615 39.3979 23.7616C39.4076 23.7299 39.4173 23.6983 39.4294 23.6715L39.5359 23.4206L39.2648 23.4059C39.2357 23.4059 39.2067 23.3986 39.1752 23.3938C39.1268 23.3865 39.0711 23.3767 39.0154 23.3767C38.9476 23.3767 38.8919 23.3889 38.8411 23.4157C38.369 23.6593 37.8631 23.9248 37.3692 24.2269C37.115 24.3828 36.8729 24.5607 36.6381 24.7336C36.534 24.8091 36.4299 24.8871 36.3234 24.9602L36.1926 25.0527L36.3621 25.4011L36.4275 25.4279V25.4303Z" fill="white"/>
<path d="M21.413 30.858C21.413 31.0626 21.4154 31.2745 21.4542 31.4841C21.4808 31.6278 21.5994 31.7204 21.6939 31.7959C21.7229 31.8202 21.7544 31.8422 21.7786 31.8665L21.9771 32.0638L22.0836 31.8032C22.0957 31.7715 22.1127 31.7423 22.1296 31.7106C22.178 31.618 22.2313 31.5133 22.2337 31.389C22.2361 31.2356 22.2216 31.087 22.2047 30.9408C22.195 30.8434 22.1829 30.7459 22.1805 30.6485C22.1684 30.344 22.1562 30.0394 22.1466 29.7374C22.1272 29.2185 22.1102 28.6801 22.0812 28.1515C22.0739 28.0004 22.0158 27.864 21.965 27.7398C21.9456 27.6911 21.9238 27.6423 21.9069 27.5912L21.8488 27.4158L21.384 27.5595L21.3719 27.6862C21.3695 27.7178 21.3646 27.752 21.3598 27.7836C21.3501 27.864 21.338 27.9468 21.3404 28.037C21.3598 28.9067 21.3864 29.7788 21.4106 30.6485C21.4106 30.7167 21.413 30.7849 21.413 30.8531V30.858Z" fill="white"/>
</g>
<defs>
<clipPath id="clip0_738_14957">
<rect width="44" height="71" fill="white"/>
</clipPath>
</defs>
</svg>
