<svg width="24" height="24" viewBox="0 0 24 24" fill="none" xmlns="http://www.w3.org/2000/svg">
<g clip-path="url(#clip0_918_14876)">
<path d="M20.6659 18C20.6659 13.2221 16.7779 9.33411 12.0001 9.33411C7.22223 9.33411 3.33423 13.2221 3.33423 18H5.33546C5.33546 14.3187 8.31884 11.3316 12.0038 11.3316C15.6887 11.3316 18.6721 14.315 18.6721 18H20.6733H20.6659Z" fill="#C72128"/>
<path d="M12 6C5.37231 6 0 11.3723 0 18H2.00123C2.00123 12.4874 6.48738 8.00123 12 8.00123C17.5126 8.00123 21.9988 12.4874 21.9988 18H24C24 11.3723 18.6277 6 12 6Z" fill="#C72128"/>
<path d="M11.9999 12.6683C9.05344 12.6683 6.66821 15.0573 6.66821 18H8.66944C8.66944 16.1576 10.1611 14.6659 12.0036 14.6659C13.8461 14.6659 15.3378 16.1576 15.3378 18H17.339C17.339 15.0536 14.9501 12.6683 12.0073 12.6683H11.9999Z" fill="#C72128"/>
</g>
<defs>
<clipPath id="clip0_918_14876">
<rect width="24" height="24" fill="white"/>
</clipPath>
</defs>
</svg>
