<svg width="24" height="24" viewBox="0 0 24 24" fill="none" xmlns="http://www.w3.org/2000/svg">
<g clip-path="url(#clip0_918_14863)">
<path d="M16.3127 14.4554H16.0579C15.5779 13.2332 14.7471 12.1846 13.669 11.4387C12.5908 10.6929 11.3133 10.2867 9.99883 10.272C8.53667 10.2867 7.12252 10.7889 5.9779 11.6972C4.83329 12.6055 4.02467 13.8683 3.6739 15.2861C3.43759 15.2677 3.20129 15.264 2.96498 15.2787C2.23759 15.3415 1.56929 15.6923 1.10406 16.2535C0.638825 16.8147 0.420979 17.5421 0.494826 18.2658C0.513287 19.0117 0.823441 19.7206 1.36252 20.2375C1.8979 20.7544 2.61421 21.0424 3.36006 21.0387H15.8585C16.7188 21.0387 17.5422 20.7027 18.1588 20.1046C18.7754 19.5027 19.1299 18.6867 19.1521 17.8301C19.2222 17.0067 18.9637 16.1871 18.4321 15.5557C17.9004 14.9243 17.1361 14.5255 16.3127 14.4554Z" fill="#C72128"/>
<path d="M20.3299 11.0363C20.3336 11.0622 20.3336 11.0917 20.3299 11.1176C20.3114 12.4616 19.7317 13.7391 18.7311 14.64C18.1514 14.0899 17.413 13.7354 16.6228 13.6283C15.5336 11.3465 13.3662 9.76986 10.8591 9.43755C11.1065 8.74709 11.5016 8.1194 12.0185 7.60248C12.9305 6.69048 14.1674 6.17725 15.4561 6.17725C16.7447 6.17725 17.9816 6.68678 18.8973 7.59878C19.8093 8.51078 20.3225 9.74771 20.3262 11.0363H20.3299Z" fill="#C72128"/>
<path d="M13.9311 5.69352C13.7428 5.69721 13.5582 5.63814 13.4105 5.52737C13.2591 5.4129 13.1557 5.25044 13.1077 5.06952L12.8455 3.95075C12.7865 3.67014 12.8788 3.37844 13.0892 3.18275C13.2997 2.98706 13.5951 2.91321 13.872 2.99075C14.1489 3.06829 14.3668 3.28244 14.4443 3.55567L14.7249 4.67444C14.7766 4.8849 14.7434 5.11014 14.6289 5.29844C14.5145 5.48675 14.3335 5.61967 14.1231 5.67137L13.9348 5.69721L13.9311 5.69352Z" fill="#C72128"/>
<path d="M18.7237 6.42095C18.5281 6.42095 18.3398 6.3508 18.1921 6.22526C18.0444 6.09972 17.9447 5.92618 17.9114 5.73418C17.8782 5.54218 17.9151 5.34649 18.0148 5.17665L18.6093 4.17972C18.7718 3.95818 19.0302 3.83265 19.3071 3.84003C19.5804 3.85111 19.8314 3.99511 19.9754 4.22772C20.1194 4.46034 20.1379 4.75203 20.0271 4.99941L19.4327 6.01111C19.285 6.26218 19.0154 6.41357 18.7237 6.41357V6.42095Z" fill="#C72128"/>
<path d="M21.6075 10.3385C21.3121 10.3754 21.0241 10.2499 20.8469 10.0136C20.6696 9.77725 20.6327 9.46341 20.7472 9.19018C20.8653 8.91695 21.1164 8.72864 21.4118 8.69172L22.5305 8.4111C22.8112 8.35202 23.1029 8.44433 23.2985 8.65479C23.4942 8.86525 23.5681 9.16064 23.4905 9.43756C23.413 9.71448 23.1989 9.93233 22.9256 10.0099L21.8069 10.3385H21.6112H21.6075Z" fill="#C72128"/>
<path d="M21.9028 15.7292C21.7514 15.7292 21.6037 15.6923 21.4745 15.6148L20.4849 15.0203C20.2634 14.928 20.0935 14.7471 20.0197 14.5218C19.9458 14.2966 19.968 14.0492 20.0898 13.8425C20.2117 13.6357 20.4148 13.4917 20.6474 13.4474C20.88 13.4031 21.1237 13.4621 21.3083 13.6098L22.2978 14.2043C22.4972 14.3298 22.6375 14.5329 22.6782 14.7655C22.7188 14.9981 22.656 15.2381 22.5083 15.4228C22.3606 15.6074 22.1391 15.7181 21.9028 15.7292Z" fill="#C72128"/>
<path d="M10.0321 8.58463C9.88069 8.58463 9.73299 8.5477 9.60376 8.47017L8.6253 7.86832C8.40376 7.77601 8.23392 7.59509 8.16007 7.36986C8.08623 7.14463 8.10838 6.89724 8.23023 6.69047C8.35207 6.4837 8.55515 6.3397 8.78776 6.2954C9.02038 6.25109 9.26407 6.31017 9.45238 6.45786L10.4419 7.05232C10.6524 7.17786 10.7964 7.38832 10.8333 7.62463C10.8739 7.86463 10.8038 8.10832 10.645 8.29293C10.4862 8.47755 10.2536 8.58463 10.0136 8.58094H10.0395L10.0321 8.58463Z" fill="#C72128"/>
</g>
<defs>
<clipPath id="clip0_918_14863">
<rect width="24" height="24" fill="white"/>
</clipPath>
</defs>
</svg>
