<svg width="24" height="24" viewBox="0 0 24 24" fill="none" xmlns="http://www.w3.org/2000/svg">
<g clip-path="url(#clip0_918_14873)">
<path d="M23.6529 8.85418C23.6529 8.14895 23.0769 7.57295 22.3717 7.57295H20.8394L19.728 4.68187C19.451 3.96557 18.6203 3.20495 17.8818 2.9908C17.8818 2.9908 15.9655 2.44434 12.0037 2.44434C8.04181 2.44434 6.12551 2.9908 6.12551 2.9908C5.38705 3.20126 4.55628 3.96187 4.27935 4.68187L3.16797 7.57295H1.62828C0.923046 7.57295 0.347046 8.14895 0.347046 8.85418C0.347046 9.55941 0.923046 10.1354 1.62828 10.1354H2.17474L1.77966 11.1619C1.50274 11.8782 1.27751 13.0966 1.27751 13.8646V19.9237C1.27751 20.821 2.01228 21.5557 2.90951 21.5557C3.80674 21.5557 4.54151 20.821 4.54151 19.9237V18.9933H19.4584V19.9237C19.4584 20.821 20.1932 21.5557 21.0904 21.5557C21.9877 21.5557 22.7224 20.821 22.7224 19.9237V13.8646C22.7224 13.0966 22.4972 11.8782 22.2203 11.1619L21.8252 10.1354H22.3717C23.0769 10.1354 23.6529 9.55941 23.6529 8.85418ZM4.47135 9.2308L5.78212 5.6788C5.87074 5.4388 6.15135 5.24311 6.40981 5.24311H17.5975C17.8523 5.24311 18.1366 5.4388 18.2252 5.6788L19.536 9.2308C19.6246 9.4708 19.488 9.66649 19.2295 9.66649H4.77412C4.51935 9.66649 4.37905 9.4708 4.46766 9.2308H4.47135ZM4.42705 15.0277C3.71812 15.0277 3.14582 14.4517 3.14582 13.7465C3.14582 13.0413 3.71812 12.4653 4.42705 12.4653C5.13597 12.4653 5.70828 13.0413 5.70828 13.7465C5.70828 14.4517 5.13597 15.0277 4.42705 15.0277ZM19.5766 15.0277C18.8677 15.0277 18.2954 14.4554 18.2954 13.7465C18.2954 13.0376 18.8677 12.4653 19.5766 12.4653C20.2855 12.4653 20.8578 13.0376 20.8578 13.7465C20.8578 14.4554 20.2855 15.0277 19.5766 15.0277Z" fill="#C72128"/>
</g>
<defs>
<clipPath id="clip0_918_14873">
<rect width="24" height="24" fill="white"/>
</clipPath>
</defs>
</svg>
