<svg width="24" height="24" viewBox="0 0 24 24" fill="none" xmlns="http://www.w3.org/2000/svg">
<g clip-path="url(#clip0_918_14860)">
<path d="M3.4671 11.4314C2.66956 11.4314 1.99756 11.1582 1.44741 10.608C0.897254 10.0579 0.624023 9.38586 0.624023 8.58832C0.624023 7.79078 0.897254 7.11878 1.44741 6.56863C1.99756 6.01847 2.66956 5.74524 3.4671 5.74524C4.26464 5.74524 4.93664 6.01847 5.48679 6.56863C6.03695 7.11878 6.31018 7.79078 6.31018 8.58832C6.31018 9.38586 6.03695 10.0579 5.48679 10.608C4.93664 11.1582 4.26464 11.4314 3.4671 11.4314ZM8.58833 6.87878C7.79079 6.87878 7.11879 6.60555 6.56864 6.0554C6.01849 5.50524 5.74525 4.83324 5.74525 4.0357C5.74525 3.23817 6.01849 2.56617 6.56864 2.01601C7.11879 1.46586 7.79079 1.19263 8.58833 1.19263C9.38587 1.19263 10.0579 1.46586 10.608 2.01601C11.1582 2.56617 11.4314 3.23817 11.4314 4.0357C11.4314 4.83324 11.1582 5.50524 10.608 6.0554C10.0579 6.60555 9.38587 6.87878 8.58833 6.87878ZM15.4154 6.87878C14.6179 6.87878 13.9459 6.60555 13.3957 6.0554C12.8456 5.50524 12.5723 4.83324 12.5723 4.0357C12.5723 3.23817 12.8456 2.56617 13.3957 2.01601C13.9459 1.46586 14.6179 1.19263 15.4154 1.19263C16.2129 1.19263 16.8849 1.46586 17.4351 2.01601C17.9853 2.56617 18.2585 3.23817 18.2585 4.0357C18.2585 4.83324 17.9853 5.50524 17.4351 6.0554C16.8849 6.60555 16.2129 6.87878 15.4154 6.87878ZM20.5366 11.4314C19.7391 11.4314 19.0671 11.1582 18.5169 10.608C17.9668 10.0579 17.6936 9.38586 17.6936 8.58832C17.6936 7.79078 17.9668 7.11878 18.5169 6.56863C19.0671 6.01847 19.7391 5.74524 20.5366 5.74524C21.3342 5.74524 22.0062 6.01847 22.5563 6.56863C23.1065 7.11878 23.3797 7.79078 23.3797 8.58832C23.3797 9.38586 23.1065 10.0579 22.5563 10.608C22.0062 11.1582 21.3342 11.4314 20.5366 11.4314ZM5.91141 22.8111C5.05849 22.8111 4.34218 22.4825 3.76249 21.8289C3.18279 21.1754 2.89479 20.4037 2.89479 19.5102C2.89479 18.5243 3.23079 17.6603 3.90648 16.9219C4.57848 16.1834 5.24679 15.4523 5.91141 14.7323C6.46156 14.1452 6.93418 13.5028 7.33295 12.8123C7.73172 12.1219 8.20433 11.472 8.75448 10.8628C9.17172 10.368 9.65541 9.96186 10.2056 9.64063C10.7557 9.3194 11.3539 9.15693 11.9963 9.15693C12.6388 9.15693 13.2369 9.30832 13.7871 9.61109C14.3373 9.91386 14.8209 10.3126 15.2382 10.8074C15.7699 11.4129 16.2388 12.0702 16.6449 12.7717C17.0548 13.4732 17.5311 14.1268 18.0813 14.736C18.7459 15.456 19.4142 16.1871 20.0862 16.9256C20.7582 17.664 21.0942 18.528 21.0942 19.5139C21.0942 20.4037 20.8062 21.1791 20.2265 21.8326C19.6468 22.4862 18.9305 22.8148 18.0776 22.8148C17.0548 22.8148 16.0394 22.7299 15.0351 22.56C14.0308 22.3902 13.0154 22.3052 11.9926 22.3052C10.9699 22.3052 9.95448 22.3902 8.95018 22.56C7.94587 22.7299 6.93048 22.8148 5.90772 22.8148L5.91141 22.8111Z" fill="#C72128"/>
</g>
<defs>
<clipPath id="clip0_918_14860">
<rect width="24" height="24" fill="white"/>
</clipPath>
</defs>
</svg>
