<svg width="24" height="24" viewBox="0 0 24 24" fill="none" xmlns="http://www.w3.org/2000/svg">
<g clip-path="url(#clip0_918_14885)">
<path d="M23.1617 15.4597H21.4448C21.286 15.4597 21.1568 15.5889 21.1568 15.7477V20.9354C21.1568 21.0942 21.286 21.2234 21.4448 21.2234H23.1617C23.3205 21.2234 23.4497 21.0942 23.4497 20.9354V15.7477C23.4497 15.5889 23.3205 15.4597 23.1617 15.4597ZM20.3445 5.91507C20.1414 5.77846 20.0122 5.55323 20.0122 5.30953V3.06461C20.0122 2.90584 19.883 2.77661 19.7242 2.77661H18.0073C17.8485 2.77661 17.7193 2.90584 17.7193 3.06461V5.30953C17.7193 6.10338 18.0848 6.87138 18.742 7.30707C20.2522 8.28923 21.1531 9.96553 21.1531 11.7748V12.8677C21.1531 13.0265 21.2824 13.1557 21.4411 13.1557H23.158C23.3168 13.1557 23.446 13.0265 23.446 12.8677V11.7748C23.446 9.41538 22.2867 7.22953 20.3445 5.91507ZM16.006 15.4597H2.26697C1.31805 15.4597 0.550049 16.2351 0.550049 17.1877V19.4917C0.550049 20.448 1.31805 21.2197 2.26697 21.2197H16.006C16.3199 21.2197 16.5784 20.9612 16.5784 20.6437V16.032C16.5784 15.7145 16.3199 15.456 16.006 15.456V15.4597ZM14.8614 19.4954H8.56605V17.1914H14.8614V19.4954ZM17.9999 7.87938C17.1433 7.28123 16.5784 6.35446 16.5784 5.30953V3.06461C16.5784 2.90584 16.4491 2.77661 16.2904 2.77661H14.5734C14.4147 2.77661 14.2854 2.90584 14.2854 3.06461V5.45723C14.2854 7.03015 15.1642 8.3963 16.4417 9.30092C17.243 9.86584 17.7193 10.7852 17.7193 11.7711V12.864C17.7193 13.0228 17.8485 13.152 18.0073 13.152H19.7242C19.883 13.152 20.0122 13.0228 20.0122 12.864V11.7711C20.0122 10.2129 19.2627 8.76553 17.9962 7.87569L17.9999 7.87938ZM19.7279 15.4597H18.011C17.8522 15.4597 17.723 15.5889 17.723 15.7477V20.9354C17.723 21.0942 17.8522 21.2234 18.011 21.2234H19.7279C19.8867 21.2234 20.0159 21.0942 20.0159 20.9354V15.7477C20.0159 15.5889 19.8867 15.4597 19.7279 15.4597Z" fill="#C72128"/>
</g>
<defs>
<clipPath id="clip0_918_14885">
<rect width="24" height="24" fill="white"/>
</clipPath>
</defs>
</svg>
