<svg width="77" height="55" viewBox="0 0 77 55" fill="none" xmlns="http://www.w3.org/2000/svg">
<path d="M76.9622 25.9124L76.9572 25.8397C76.927 25.4387 76.8392 25.0578 76.7513 24.6868C76.7186 24.5465 76.686 24.4061 76.6559 24.2633C76.5655 23.8322 76.3797 23.4412 76.1788 23.0427C76.0985 22.8848 76.0081 22.737 75.9177 22.5941C75.8599 22.5014 75.8047 22.4111 75.7519 22.3159C75.6013 22.0502 75.3552 21.9149 75.0238 21.9149H75.0037C74.8304 21.9174 74.6572 21.9199 74.4814 21.9199C74.3232 21.9199 74.1625 21.9199 74.0043 21.9199C74.0043 21.8673 74.0043 21.8147 74.0043 21.762C74.0043 21.6467 74.0043 21.5314 74.0018 21.4187C73.9993 21.3234 73.9893 21.2307 73.9817 21.1355C73.9767 21.0853 73.9717 21.0327 73.9692 20.9826L73.9591 20.8548C73.9466 20.6793 73.934 20.5039 73.924 20.3284C73.9139 20.1204 73.9391 19.9926 74.0119 19.8873C74.0671 19.8096 74.0998 19.7269 74.1274 19.6492C74.155 19.5741 74.1801 19.4964 74.2052 19.4187C74.2504 19.2808 74.2906 19.1505 74.3483 19.0377C74.5994 18.5415 74.6095 18.0377 74.6195 17.549V17.4011C74.627 17.2407 74.627 17.0803 74.627 16.9174C74.627 16.7846 74.627 16.6517 74.6296 16.5189C74.6346 16.2708 74.6396 16.0252 74.6471 15.7771C74.6547 15.4713 74.6622 15.163 74.6672 14.8573C74.6697 14.6517 74.6697 14.4462 74.6672 14.2382C74.6672 14.0954 74.6672 13.9525 74.6672 13.8071C74.6672 13.6091 74.6697 13.4136 74.6722 13.2157C74.6748 12.96 74.6773 12.7069 74.6798 12.4512C74.6798 12.0076 74.6798 11.5615 74.6748 11.1179C74.6748 10.9776 74.6748 10.8372 74.6748 10.6969C74.6748 10.3159 74.6748 9.91991 74.6446 9.52894C74.617 9.16052 74.6496 8.79711 74.6823 8.41365V8.3936C74.7024 8.19811 74.6547 8.0327 74.5392 7.89234C74.5166 7.86478 74.4915 7.83219 74.4789 7.80713C74.2856 7.42869 73.9391 7.17054 73.4796 7.06026C73.2561 7.00763 73.0201 6.98006 72.7564 6.98006C72.5631 6.98006 72.3521 6.9951 72.096 7.02518C71.978 7.04021 71.85 7.09034 71.7395 7.17054C71.6039 7.26578 71.4708 7.36603 71.3402 7.46628C71.2624 7.52392 71.1846 7.58407 71.1067 7.64172C70.8581 7.82468 70.7904 7.99761 70.8481 8.30337C70.8707 8.42869 70.8908 8.56904 70.9084 8.74447C70.9159 8.82217 70.9159 8.90237 70.9184 8.98758V9.08031C70.9234 9.24322 70.9285 9.40362 70.9335 9.56653C70.9435 9.94247 70.9561 10.3309 70.9561 10.7119C70.9561 11.0728 70.946 11.4412 70.9385 11.7996C70.9335 12.0452 70.9259 12.2883 70.9234 12.5339C70.9234 12.6643 70.9234 12.7946 70.931 12.9249C70.9335 13.0252 70.9385 13.1254 70.9385 13.2232C70.9385 13.2933 70.9335 13.3635 70.931 13.4337C70.9259 13.5239 70.9209 13.6116 70.9209 13.7019C70.9234 13.9475 70.9285 14.1906 70.9335 14.4362C70.9385 14.6593 70.9435 14.8798 70.946 15.1029C70.9485 15.3635 70.951 15.6267 70.9536 15.8873C70.9586 16.3786 70.9611 16.8873 70.9762 17.3886C70.9762 17.4387 70.9762 17.4863 70.9762 17.5365C70.9762 17.7695 70.9762 18.0327 71.0892 18.2959C71.3402 18.8898 71.5913 19.4939 71.8324 20.0903C71.8374 20.1029 71.85 20.143 71.85 20.2257C71.85 20.3535 71.8424 20.4813 71.8374 20.6091C71.8299 20.7871 71.8223 20.9725 71.8249 21.158C71.8249 21.3936 71.8399 21.6217 71.8525 21.8648H71.6792C71.6215 21.8648 71.5612 21.8648 71.5035 21.8623C71.4382 21.8623 71.3729 21.8573 71.3076 21.8573C71.1896 21.8573 71.0917 21.8648 71.0013 21.8773C70.9234 21.8898 70.8632 21.8949 70.8104 21.8949C70.7452 21.8949 70.6874 21.8873 70.6322 21.8673C70.5669 21.8447 70.4966 21.8347 70.4288 21.8347H70.4112C70.3083 21.8372 70.2103 21.8472 70.1149 21.8573C70.012 21.8673 69.914 21.8773 69.8236 21.8773C69.7182 21.8773 69.6353 21.8648 69.56 21.8397L69.4972 21.8197H69.4445C69.4244 21.8197 69.4043 21.8197 69.3918 21.8247L69.1407 21.8397C68.9197 21.8522 68.6962 21.8673 68.4728 21.8773C68.4552 21.8773 68.4376 21.8748 68.42 21.8723C68.3949 21.8698 68.3698 21.8673 68.3447 21.8648C68.2995 21.8623 68.2543 21.8573 68.2116 21.8548C68.1037 21.8447 67.9907 21.8372 67.8727 21.8372H67.8475C67.7622 21.8372 67.6793 21.8497 67.6065 21.8598C67.5437 21.8673 67.486 21.8773 67.4383 21.8773C67.4232 21.8773 67.4056 21.8773 67.3906 21.8748C67.2726 21.8522 67.1445 21.8397 66.9989 21.8397C66.8808 21.8397 66.7679 21.8472 66.6574 21.8548C66.5569 21.8623 66.4565 21.8673 66.3561 21.8673C66.3159 21.8673 66.2782 21.8673 66.238 21.8648C66.1401 21.8573 66.0397 21.8573 65.9418 21.8573C65.8564 21.8573 65.771 21.8573 65.6856 21.8598H65.6003C65.54 21.8623 65.4798 21.8673 65.4195 21.8748C65.3743 21.8798 65.3266 21.8848 65.2814 21.8848C65.2688 21.8848 65.2538 21.8848 65.2412 21.8848C65.1056 21.8698 64.9625 21.8623 64.8093 21.8623C64.5959 21.8623 64.3825 21.8773 64.2017 21.8898C64.1515 21.7971 64.1012 21.6944 64.0661 21.5916C63.9958 21.3961 63.9305 21.1981 63.8652 21.0001C63.7824 20.7545 63.6995 20.5089 63.6116 20.2633C63.476 19.8923 63.3354 19.5214 63.1948 19.1505C63.1471 19.0277 63.1019 18.9049 63.0542 18.7821C63.584 18.6893 64.0987 18.5314 64.5833 18.3735C65.2287 18.1655 65.8112 17.8573 66.2933 17.5841C66.7578 17.3209 67.1621 16.9901 67.5538 16.6718L67.6919 16.559C67.8174 16.4563 67.9229 16.341 68.0258 16.2307C68.0861 16.1655 68.1464 16.0979 68.2116 16.0377C68.5782 15.6893 68.9247 15.2758 69.2712 14.7746C69.6881 14.173 70.0371 13.5014 70.3133 12.7771C70.6648 11.8522 70.8607 10.8272 70.8983 9.72944C70.9285 8.85976 70.823 7.96753 70.5744 7.00763C70.4413 6.49134 70.2505 5.96503 69.9869 5.3961C69.8588 5.12042 69.7031 4.85976 69.55 4.60914C69.4947 4.51891 69.4395 4.42869 69.3867 4.33846C69.0628 3.78708 68.6385 3.25826 68.0459 2.66929C67.4985 2.12543 66.8532 1.63921 66.1276 1.22067C65.3617 0.779563 64.4904 0.451242 63.5363 0.245728C63.4785 0.233197 63.4208 0.220666 63.3605 0.205628C63.1446 0.155503 62.9186 0.105378 62.6851 0.0828212C62.3662 0.052746 62.0423 0.0427209 61.7309 0.0326959C61.6179 0.0301896 61.5024 0.0251771 61.3894 0.0201645C61.3116 0.0176583 61.2338 0.015152 61.1559 0.015152C60.6537 0.015152 60.1189 0.0778087 59.5213 0.208134C58.9212 0.33846 58.3337 0.531443 57.7712 0.782069C57.1184 1.0728 56.5082 1.4362 55.9558 1.85726C55.9232 1.88232 55.893 1.90738 55.8604 1.93495C55.8001 1.98257 55.7198 2.05024 55.6796 2.06026C55.4235 2.12042 55.2703 2.26327 55.1548 2.3936C55.1197 2.4337 55.082 2.4738 55.0469 2.51139C54.9941 2.56653 54.9439 2.62167 54.8937 2.67931C54.8209 2.76453 54.7481 2.84974 54.6727 2.93495C54.4769 3.16052 54.2735 3.3936 54.0877 3.64172C53.6759 4.18808 53.3043 4.79711 52.9854 5.45625C52.7142 6.01265 52.5008 6.61164 52.3376 7.28332C52.2045 7.82217 52.1492 8.36603 52.0965 8.92242C52.0312 9.62668 52.1191 10.3184 52.197 10.9299C52.2221 11.1355 52.2723 11.3309 52.3175 11.5214C52.3451 11.6317 52.3727 11.742 52.3953 11.8548C52.5686 12.7144 52.9477 13.4813 53.2616 14.0527C53.4625 14.4187 53.691 14.7771 53.9395 15.1229C54.2032 15.4838 54.4568 15.7871 54.7204 16.0477C55.1875 16.5114 55.7449 16.96 56.4254 17.4187C57.0355 17.8272 57.7009 18.1079 58.2709 18.3259C58.6048 18.4537 58.999 18.5916 59.4259 18.6668C59.3807 18.8096 59.3355 18.95 59.2978 19.0928C59.2024 19.4337 59.1095 19.7746 59.0166 20.1154C58.9388 20.4011 58.8609 20.6843 58.7806 20.97C58.7429 21.1054 58.7002 21.2407 58.6576 21.3761L58.6174 21.5039C58.5722 21.6467 58.527 21.7896 58.4818 21.9324H58.4667C58.404 21.9324 58.3412 21.9324 58.2809 21.9274C58.2156 21.9274 58.1504 21.9224 58.0851 21.9224C57.962 21.9224 57.8591 21.9299 57.7612 21.9475C57.7009 21.9575 57.6356 21.9625 57.5603 21.9625C57.4297 21.9625 57.2941 21.9475 57.1485 21.9299L57.0204 21.9149C56.9752 21.9099 56.9326 21.9074 56.8874 21.9074C56.7769 21.9074 56.6764 21.9199 56.5785 21.9324C56.4957 21.9425 56.4153 21.9525 56.3425 21.9525C56.2998 21.9525 56.2621 21.95 56.227 21.9425C56.1517 21.9274 56.0713 21.9224 55.9809 21.9224C55.9131 21.9224 55.8428 21.9274 55.775 21.9299C55.7248 21.9324 55.6721 21.935 55.6219 21.9375L54.9791 21.945C54.4015 21.9525 53.824 21.96 53.244 21.965C53.1913 21.965 53.131 21.9575 53.0657 21.95C52.9904 21.9425 52.9075 21.9324 52.8172 21.9324H52.7946C52.4179 21.94 52.0388 21.9525 51.6621 21.9625L51.2503 21.9751C51.2503 21.9525 51.2528 21.9299 51.2554 21.9074C51.2604 21.8422 51.2679 21.7695 51.2629 21.6893C51.2503 21.4061 51.2302 21.1229 51.2077 20.8297C51.2026 20.752 51.1951 20.6768 51.1876 20.6016C51.1775 20.5064 51.1675 20.4136 51.165 20.3184C51.1549 20.1304 51.1825 20.0001 51.2528 19.8974C51.298 19.8297 51.3382 19.752 51.3709 19.6643C51.3985 19.5866 51.4236 19.5089 51.4487 19.4287C51.4914 19.2908 51.5341 19.163 51.5918 19.0502C51.8429 18.554 51.8555 18.0452 51.8655 17.554V17.4136C51.873 17.2507 51.873 17.0853 51.873 16.9224C51.873 16.7921 51.873 16.6618 51.8756 16.5314C51.8806 16.2733 51.8856 16.0152 51.8931 15.757C51.9007 15.4537 51.9082 15.1505 51.9132 14.8472C51.9157 14.6392 51.9157 14.4287 51.9157 14.2207C51.9157 14.0803 51.9157 13.94 51.9157 13.7996C51.9157 13.6292 51.9182 13.4588 51.9208 13.2883C51.9233 13.0227 51.9283 12.757 51.9283 12.4913C51.9283 11.8723 51.9233 11.2532 51.9157 10.6367C51.9157 10.539 51.9157 10.4387 51.9157 10.341C51.9157 10.0728 51.9182 9.7946 51.8906 9.5139C51.858 9.21565 51.8856 8.91741 51.9132 8.59911L51.9308 8.40864C51.9408 8.28082 51.9383 8.09034 51.7927 7.90989C51.7601 7.86979 51.7349 7.83219 51.7149 7.7946C51.5039 7.41114 51.1549 7.16302 50.6829 7.06026C50.4745 7.01515 50.2535 6.9926 50.0074 6.9926C49.8241 6.9926 49.6308 7.00513 49.3822 7.03019C49.2516 7.04272 49.111 7.09535 48.998 7.17555C48.8549 7.2758 48.7143 7.38107 48.5787 7.48382C48.5059 7.53896 48.4356 7.5941 48.3628 7.64673C48.1016 7.83971 48.0364 8.01265 48.1041 8.33345C48.1267 8.44122 48.1443 8.56402 48.1569 8.71941C48.1644 8.79961 48.1644 8.88232 48.1669 8.97004V9.08031C48.1719 9.24573 48.177 9.41114 48.182 9.57656C48.192 9.94999 48.2046 10.336 48.2046 10.7119C48.2046 11.0803 48.1945 11.4563 48.187 11.8197C48.182 12.0653 48.1745 12.3134 48.1719 12.559C48.1719 12.6843 48.1745 12.8096 48.1795 12.935C48.182 13.0327 48.187 13.1279 48.187 13.2257C48.187 13.3009 48.182 13.3735 48.1795 13.4487C48.1745 13.5415 48.1694 13.6342 48.1694 13.7269C48.1719 13.9801 48.177 14.2307 48.182 14.4838C48.187 14.6994 48.1895 14.9124 48.1945 15.1279C48.1971 15.4061 48.2021 15.6843 48.2046 15.9625C48.2096 16.4462 48.2146 16.9299 48.2247 17.4136V17.5064C48.2297 17.7294 48.2322 17.9801 48.3201 18.2157C48.4833 18.6593 48.6691 19.1004 48.8474 19.5264C48.9277 19.7169 49.0056 19.9049 49.0834 20.0954C49.1035 20.148 49.106 20.1655 49.106 20.168V20.2307C49.111 20.3961 49.1135 20.5515 49.101 20.7019C49.0608 21.1455 49.0658 21.554 49.1161 21.9425L47.6647 21.955C47.5794 21.955 47.494 21.9525 47.4086 21.9475C47.3132 21.9425 47.2203 21.94 47.1249 21.94C46.9567 21.94 46.816 21.9525 46.683 21.9801C46.6604 21.9751 46.6403 21.9725 46.6177 21.9725C46.5323 21.97 46.4494 21.965 46.3641 21.9625C46.1456 21.9525 45.9196 21.9425 45.6786 21.9425C45.5706 21.9425 45.4702 21.955 45.3748 21.965C45.2919 21.9751 45.2141 21.9851 45.1438 21.9851C45.1111 21.9851 45.081 21.9851 45.0559 21.9776C44.9228 21.955 44.7998 21.9525 44.7194 21.9525C44.6667 21.9525 44.6115 21.9525 44.5587 21.955C44.511 21.955 44.4608 21.955 44.4131 21.955H44.3729C44.2323 21.9525 44.0942 21.95 43.9536 21.95C43.8858 21.95 43.818 21.95 43.7502 21.95C43.6598 21.95 43.5694 21.955 43.4815 21.9575C43.3811 21.9625 43.2832 21.965 43.1827 21.965H43.1677C42.9944 21.965 42.8212 21.96 42.6479 21.9575C42.447 21.955 42.2462 21.95 42.0453 21.95C41.8444 21.95 41.6812 21.9525 41.523 21.96C41.4929 21.96 41.4628 21.96 41.4351 21.96C41.3698 21.96 41.3071 21.9575 41.2468 21.95C41.2443 21.9425 41.2418 21.9375 41.2368 21.9299C41.179 21.8121 41.1263 21.7019 41.0886 21.5891C41.0334 21.4287 40.9832 21.2658 40.9329 21.1004C40.8702 20.8949 40.8049 20.6818 40.7296 20.4738C40.5789 20.0603 40.4157 19.6467 40.26 19.2457C40.1972 19.0853 40.1345 18.9249 40.0742 18.7645C40.3002 18.7144 40.5186 18.6668 40.7346 18.6116C40.8325 18.5866 40.9254 18.5565 41.0158 18.5264C41.1112 18.4938 41.2041 18.4638 41.2895 18.4437C41.6912 18.3585 42.0604 18.2006 42.3366 18.0753C43.1074 17.7219 43.71 17.3635 44.2298 16.9475C44.6466 16.6142 45.0559 16.2332 45.4777 15.7871C45.7338 15.5139 46.0628 15.1455 46.3214 14.7119L46.4218 14.544C46.6076 14.2357 46.7985 13.9174 46.9717 13.5891C47.2278 13.1104 47.4262 12.574 47.602 11.9024C47.6949 11.5465 47.7627 11.2332 47.8079 10.945C47.8505 10.6668 47.8731 10.3886 47.8932 10.1179L47.9033 9.99761C47.951 9.38859 47.9234 8.75951 47.8254 8.12543C47.7827 7.84974 47.7225 7.57906 47.6647 7.3159L47.6195 7.10788C47.4764 6.44122 47.2128 5.82718 46.9993 5.36854C46.8663 5.08031 46.7005 4.80964 46.5424 4.54899C46.4946 4.46879 46.4469 4.39109 46.3992 4.31089C46.0753 3.76453 45.6535 3.24072 45.0735 2.66427C44.5236 2.11791 43.8783 1.63169 43.1576 1.21565C42.3818 0.769538 41.5255 0.44623 40.6116 0.253247C40.5312 0.235703 40.4509 0.21816 40.3705 0.198109C40.1621 0.147984 39.9462 0.0978588 39.7202 0.0778087C39.3134 0.0402147 38.8765 0.00512695 38.4396 0.00512695C38.2839 0.00512695 38.1333 0.0101395 37.9901 0.0176583C37.3574 0.0552523 36.8778 0.122921 36.4309 0.235703C35.8835 0.373548 35.4114 0.52643 34.9871 0.704375C34.4196 0.94247 33.8722 1.24072 33.3123 1.61164C33.2169 1.6743 33.1315 1.74448 33.0461 1.81214C32.8804 1.94748 32.7348 2.06277 32.5615 2.09786C32.4134 2.12793 32.3205 2.2332 32.2652 2.29836C32.1623 2.41615 32.0568 2.53646 31.9514 2.65425C31.6852 2.955 31.409 3.26578 31.1529 3.58909C30.6256 4.25325 30.1787 5.02267 29.8221 5.87229C29.6413 6.30588 29.4831 6.79209 29.3576 7.31841C29.2295 7.84723 29.1743 8.37355 29.1266 8.90989C29.0613 9.62417 29.1517 10.341 29.2245 10.9174C29.2521 11.1279 29.2998 11.3309 29.3501 11.5264C29.3777 11.6392 29.4053 11.752 29.4279 11.8648C29.5886 12.6668 29.9401 13.3911 30.2615 13.9951C30.4498 14.3485 30.6808 14.7144 30.9646 15.1079C31.2282 15.4713 31.4843 15.7746 31.7455 16.0352C32.2251 16.5114 32.785 16.96 33.4504 17.4061C34.0932 17.8347 34.7862 18.1204 35.3185 18.3234C35.6575 18.4512 36.0517 18.5891 36.4635 18.6568C36.4585 18.6768 36.4509 18.6969 36.4459 18.7169C36.4007 18.8598 36.3555 19.0026 36.3154 19.148C36.2225 19.4763 36.1321 19.8046 36.0417 20.1329C35.9638 20.4136 35.886 20.6969 35.8082 20.9776C35.773 21.1054 35.7303 21.2332 35.6901 21.361L35.4968 21.97C35.3436 21.9801 35.1779 21.9851 34.9896 21.9851C34.8013 21.9851 34.6255 21.9801 34.4447 21.9776C34.2614 21.9725 34.0781 21.97 33.8948 21.97C33.5709 21.97 33.3048 21.9851 33.0587 22.0126C32.7524 21.9851 32.4184 21.9725 32.0167 21.9725C31.7756 21.9725 31.5371 21.9776 31.296 21.9826C31.06 21.9876 30.824 21.9901 30.5879 21.9901C30.5302 21.9901 30.4724 21.9901 30.4122 21.9901C30.0732 21.9876 29.7342 21.9851 29.3927 21.9851C29.1266 21.9851 28.2327 21.9851 28.0519 21.9876C28.0519 21.96 28.0494 21.935 28.0494 21.9099C28.0494 21.8873 28.0494 21.8673 28.0544 21.8447C28.0594 21.8021 28.0619 21.7495 28.0594 21.6918C28.0469 21.4638 28.0318 21.2382 28.0193 21.0101L28.0017 20.7445C28.0017 20.7144 27.9992 20.6868 27.9992 20.6568C27.9992 20.5791 27.9942 20.4913 27.9766 20.3961C27.9339 20.1806 27.9665 20.0076 28.082 19.8472C28.1297 19.7796 28.1498 19.7119 28.1624 19.6668C28.1624 19.6593 28.1674 19.6517 28.1699 19.6417C28.195 19.569 28.2201 19.4964 28.2452 19.4212C28.293 19.2733 28.3382 19.1329 28.4034 19.0101C28.5943 18.6417 28.6294 18.2583 28.647 17.8974C28.6545 17.7319 28.657 17.5665 28.657 17.4061C28.657 17.3134 28.657 17.2207 28.6595 17.1279C28.6646 16.935 28.6696 16.7445 28.6746 16.5515C28.6821 16.3084 28.6872 16.0653 28.6922 15.8222C28.6947 15.6843 28.6947 15.5465 28.6947 15.4061C28.6947 15.3059 28.6947 15.2056 28.6947 15.1054C28.6972 14.8848 28.6997 14.6668 28.7047 14.4487C28.7098 14.0352 28.7173 13.6192 28.7198 13.2056C28.7198 12.9475 28.7173 12.6893 28.7123 12.4312C28.7098 12.2532 28.7073 12.0728 28.7073 11.8949C28.7047 11.2633 28.7022 10.6292 28.7047 9.99761C28.7047 9.83219 28.6972 9.66929 28.6872 9.51139C28.6696 9.21064 28.6545 8.92493 28.7047 8.64924C28.76 8.32843 28.6997 8.04773 28.5114 7.76703C28.2628 7.3961 27.9289 7.15801 27.5171 7.06277C27.3011 7.01265 27.0701 6.98758 26.809 6.98758C26.6207 6.98758 26.4198 7.00011 26.1612 7.02768C26.0356 7.04021 25.9076 7.09034 25.7996 7.16803C25.6565 7.26828 25.5184 7.37355 25.3778 7.47881C25.3075 7.53144 25.2372 7.58658 25.1643 7.63921C24.8982 7.83721 24.8354 8.00262 24.8982 8.31841C24.9283 8.46628 24.9434 8.61666 24.9534 8.73194C24.961 8.81716 24.9635 8.90488 24.9635 8.99761V9.09034C24.9685 9.25074 24.9735 9.41114 24.9785 9.57405C24.9886 9.9525 25.0011 10.341 24.9986 10.7219C24.9986 11.0603 24.9886 11.4061 24.981 11.7395C24.9735 11.9926 24.9685 12.2432 24.9635 12.4964C24.9635 12.6217 24.9685 12.742 24.976 12.8598C24.981 12.96 24.9886 13.0603 24.9861 13.163C24.9861 13.356 24.981 13.549 24.976 13.7445C24.971 13.9901 24.9635 14.2432 24.966 14.4964C24.971 15.173 24.9785 16.0628 25.0036 16.95C25.0036 17.0402 25.0062 17.1279 25.0062 17.2182C25.0062 17.6066 25.0087 18.0101 25.1669 18.4136C25.2271 18.5715 25.2899 18.7294 25.3577 18.8848C25.438 19.0728 25.5184 19.2608 25.6012 19.4487C25.6916 19.6593 25.7845 19.8723 25.8724 20.0828C25.8925 20.1304 25.895 20.148 25.8975 20.158C25.9 20.351 25.9051 20.5339 25.89 20.7119C25.8523 21.2006 25.8574 21.6091 25.9101 21.9751C25.7871 21.9776 25.2698 21.9876 25.1317 21.9926C25.0765 21.9926 25.0212 22.0001 24.966 22.0051C24.9233 22.0101 24.8781 22.0152 24.8379 22.0152C24.8178 22.0152 24.8028 22.0152 24.7902 22.0101C24.627 21.97 24.4738 21.9675 24.3433 21.9675H24.283C24.283 21.9675 24.1675 21.9675 24.1374 21.9675C23.9465 21.9625 23.7557 21.9625 23.5649 21.96C23.3037 21.96 23.0351 21.96 22.7739 21.945C22.6936 21.94 22.6107 21.94 22.5304 21.94C22.3647 21.94 22.1989 21.9475 22.0408 21.9525C21.8951 21.9575 21.7495 21.965 21.6064 21.965H21.5838C21.4532 21.965 21.3201 21.96 21.1895 21.955C21.054 21.95 20.9159 21.945 20.7752 21.945C20.72 21.945 20.6673 21.945 20.612 21.9475C20.5618 21.9475 20.5141 21.9475 20.4639 21.9475C20.3886 21.9475 20.3283 21.945 20.2731 21.9375C20.1927 21.9274 20.1048 21.9224 20.0069 21.9224C19.9165 21.9224 19.8261 21.9274 19.7382 21.9299C19.6554 21.9324 19.575 21.9375 19.4922 21.9375C19.4495 21.9375 19.4068 21.9375 19.3641 21.935C19.1431 21.9199 18.9322 21.9199 18.7514 21.9199H18.2869C18.2342 21.9199 18.184 21.9199 18.1312 21.9199C18.0735 21.8197 18.0208 21.7194 17.9856 21.6192C17.9304 21.4563 17.8802 21.2883 17.8299 21.1229C17.7672 20.9124 17.7019 20.6944 17.624 20.4813C17.4709 20.0603 17.3051 19.6367 17.1445 19.2257C17.0842 19.0703 17.0239 18.9174 16.9662 18.7645C17.5512 18.6668 18.1036 18.4888 18.661 18.2984C18.9824 18.1881 19.2888 18.0427 19.5826 17.9024L19.7558 17.8197C20.3333 17.5465 20.9008 17.1605 21.4909 16.6417C22.1964 16.0202 22.7539 15.4011 23.1882 14.7545C23.6126 14.1229 23.9616 13.4512 24.2253 12.757C24.5818 11.8121 24.7726 10.8071 24.8103 9.68432C24.8379 8.80463 24.73 7.91991 24.4814 6.98508C24.3031 6.32092 24.0796 5.73445 23.7984 5.1956C23.6251 4.86478 23.4393 4.53896 23.2435 4.22818C22.8995 3.67681 22.4927 3.17555 22.0332 2.73445C21.6993 2.41365 21.295 2.04272 20.8305 1.72443C20.3986 1.42869 19.8914 1.09285 19.3164 0.852245C19.1607 0.787082 19.005 0.731944 18.8519 0.679312C18.6887 0.621668 18.5355 0.56653 18.3874 0.503874C17.9404 0.310891 17.4759 0.225678 17.0239 0.140465L16.9938 0.135453C16.5268 0.0502397 16.0296 0.00763322 15.4722 0.00763322C15.4144 0.00763322 15.3592 0.00763322 15.3014 0.00763322C14.4578 0.0201645 13.7622 0.107884 13.1119 0.285829C13.0215 0.310891 12.9311 0.340967 12.8432 0.371042C12.7428 0.403623 12.6474 0.436205 12.5545 0.458761C12.1176 0.564024 11.7234 0.7545 11.3417 0.937458L11.304 0.955002C10.827 1.18307 10.3424 1.48884 9.8226 1.88232L9.79749 1.90237C9.70709 1.97004 9.6167 2.04021 9.54137 2.06277C9.3631 2.1154 9.225 2.20312 9.10698 2.33846C9.03165 2.42367 8.95633 2.50889 8.881 2.59159C8.70021 2.7946 8.51189 3.00513 8.33362 3.22067C8.09006 3.51641 7.8691 3.80713 7.67073 4.09034C7.29912 4.62668 6.99278 5.18558 6.76178 5.7545C6.5358 6.3134 6.36505 6.81966 6.24453 7.30087C6.11647 7.80964 6.06123 8.32593 6.01101 8.89736C5.94824 9.59911 6.02608 10.2858 6.11145 10.9299C6.15413 11.2482 6.23197 11.554 6.31986 11.8923C6.40021 12.1956 6.49562 12.5089 6.6061 12.8222C6.69901 13.0853 6.79693 13.3109 6.9049 13.5164L6.91243 13.5314C7.14595 13.97 7.38449 14.4262 7.65567 14.8573C7.76866 15.0402 7.90676 15.1981 8.03733 15.351C8.10763 15.4337 8.18045 15.5164 8.24573 15.6041C8.57467 16.0277 8.97892 16.3735 9.33799 16.6793C9.53384 16.8447 9.74225 16.9876 9.94563 17.1254C10.0812 17.2182 10.2093 17.3034 10.3323 17.3961C10.8697 17.8021 11.4798 18.0402 12.0674 18.2733L12.1402 18.3009C12.5871 18.4788 12.9738 18.5916 13.3379 18.6543C13.2927 18.7996 13.2475 18.9425 13.2073 19.0878C13.1144 19.4212 13.024 19.752 12.9311 20.0853C12.8508 20.3786 12.7704 20.6718 12.6901 20.9625C12.6599 21.0753 12.6223 21.1856 12.5871 21.2959C12.567 21.356 12.5495 21.4136 12.5294 21.4738L12.3963 21.9049C12.3963 21.9049 12.3812 21.9049 12.3762 21.9049C12.223 21.9174 12.0774 21.9299 11.9393 21.9324C11.9042 21.9324 11.8715 21.9324 11.8364 21.9324C11.7209 21.9324 11.6028 21.9299 11.4873 21.9274C11.3668 21.9249 11.2463 21.9224 11.1233 21.9224H11.0479C10.8621 21.9249 10.6738 21.9324 10.488 21.9375C10.3273 21.9425 10.1666 21.95 10.0059 21.9525C9.56648 21.96 9.12707 21.9625 8.69017 21.9625H8.65502C8.61484 21.9625 8.57215 21.96 8.53198 21.9575C8.47674 21.9525 8.4215 21.95 8.36626 21.95H8.34617C8.18798 21.9525 8.02728 21.9575 7.8691 21.96C7.69082 21.965 7.51254 21.97 7.33427 21.9725C6.97019 21.9776 6.60359 21.9776 6.23951 21.9801H6.00599H5.31046C5.31046 21.965 5.31046 21.9475 5.30795 21.9324C5.30544 21.8748 5.30795 21.8147 5.30795 21.757C5.30795 21.6893 5.30795 21.6242 5.30795 21.5565C5.29791 21.3184 5.28535 21.0778 5.27029 20.8397C5.26527 20.762 5.25773 20.6868 5.2502 20.6091C5.24016 20.5039 5.2276 20.4061 5.2276 20.3084C5.22258 20.1204 5.23514 19.9901 5.31046 19.8923C5.37575 19.8071 5.4109 19.7119 5.4335 19.6442C5.46112 19.569 5.48623 19.4913 5.51134 19.4136C5.55654 19.2758 5.59671 19.1455 5.65446 19.0327C5.90555 18.5365 5.9156 18.0327 5.92564 17.544V17.3961C5.93317 17.2332 5.93317 17.0728 5.93317 16.9099C5.93317 16.7771 5.93317 16.6467 5.93568 16.5139C5.94071 16.2658 5.94573 16.0202 5.95326 15.772C5.96079 15.4663 5.96833 15.158 5.97335 14.8522C5.97586 14.6467 5.97586 14.4412 5.97335 14.2332C5.97335 14.0903 5.97335 13.9475 5.97335 13.8021C5.97335 13.6041 5.97586 13.4086 5.97837 13.2106C5.98088 12.955 5.98339 12.7019 5.9859 12.4462C5.9859 12.0026 5.9859 11.5565 5.98088 11.1129C5.98088 10.9725 5.98088 10.8297 5.98088 10.6893C5.98088 10.3084 5.98088 9.9149 5.95075 9.52643C5.92313 9.15801 5.95577 8.7946 5.98841 8.41114V8.3936C6.0085 8.19811 5.96079 8.0327 5.84529 7.88984C5.82269 7.86227 5.79758 7.82969 5.78503 7.80463C5.58918 7.42618 5.24518 7.16803 4.78568 7.05776C4.56221 7.00513 4.32618 6.97756 4.06253 6.97756C3.86919 6.97756 3.65828 6.9926 3.40216 7.02267C3.24146 7.04021 3.10838 7.12042 3.0431 7.16803C2.90751 7.26578 2.77443 7.36603 2.63884 7.46628C2.56351 7.52392 2.48567 7.58157 2.41035 7.63921C2.16177 7.82217 2.09397 7.9951 2.15172 8.29836C2.17432 8.42367 2.19441 8.56402 2.20947 8.73946C2.21701 8.81465 2.21701 8.89736 2.21952 8.98257V9.0753C2.22454 9.23821 2.22956 9.39861 2.23458 9.56152C2.24463 9.93746 2.25718 10.3259 2.25718 10.7069C2.25718 11.0678 2.24714 11.4362 2.2396 11.7946C2.23458 12.0402 2.22705 12.2833 2.22454 12.5289C2.22454 12.6593 2.22454 12.7896 2.23207 12.9199C2.23458 13.0202 2.2396 13.1204 2.2396 13.2182C2.2396 13.2883 2.23458 13.3585 2.23207 13.4287C2.22705 13.5189 2.22203 13.6066 2.22203 13.6969C2.22454 13.9425 2.22956 14.1881 2.23458 14.4312C2.2396 14.6542 2.24463 14.8748 2.24714 15.0979C2.24965 15.3585 2.25216 15.6217 2.25467 15.8823C2.25969 16.3735 2.2622 16.8823 2.27727 17.3836C2.27727 17.4337 2.27727 17.4813 2.27727 17.5314C2.27727 17.7645 2.27727 18.0277 2.39026 18.2908C2.64135 18.8873 2.88993 19.4863 3.136 20.0853C3.14856 20.1179 3.15358 20.143 3.15358 20.158V20.2182C3.1586 20.3836 3.16111 20.5415 3.14856 20.6944C3.10587 21.1881 3.11592 21.6292 3.17869 22.0402C3.13349 22.0402 3.0883 22.0427 3.0431 22.0452C2.92258 22.0502 2.80205 22.0527 2.68153 22.0603C2.63633 22.0628 2.58862 22.0678 2.54343 22.0703C2.46057 22.0778 2.38273 22.0853 2.30991 22.0853C2.21701 22.0853 2.14419 22.0728 2.0789 22.0502C2.01864 22.0277 1.95838 22.0177 1.89561 22.0177C1.77006 22.0177 1.58676 22.0653 1.42104 22.2858C1.40096 22.3134 1.38338 22.3435 1.3658 22.371C1.35827 22.3861 1.35074 22.3986 1.34823 22.4036C1.05194 22.6492 0.878683 22.9625 0.76067 23.2106C0.494512 23.767 0.29866 24.3811 0.160559 25.0903C0.0676545 25.5615 0.0425452 26.0352 0.0274797 26.4362C0.00237043 27.1254 0.017436 27.8598 0.29866 28.5665C0.386542 28.7846 0.504555 28.9826 0.620058 29.1705L0.635123 29.1981C0.775735 29.4287 0.954011 29.4939 1.07705 29.5064C1.14986 29.6066 1.25783 29.6868 1.44113 29.6868C1.4813 29.6868 1.52901 29.6818 1.59179 29.6743C1.60434 29.6743 1.61438 29.6718 1.62945 29.6693C1.79015 29.7144 1.94332 29.7219 2.07639 29.7219C2.11657 29.7219 2.15674 29.7219 2.19692 29.7219C2.23458 29.7219 2.26974 29.7219 2.3074 29.7219C2.35511 29.7219 2.4003 29.7219 2.44801 29.7269C2.56351 29.737 2.67902 29.747 2.78699 29.7545L2.80205 29.7946C2.85729 29.9425 2.91002 30.0803 2.95522 30.2182C3.10085 30.6442 3.23895 31.0703 3.37956 31.4989C3.38459 31.5139 3.3871 31.5339 3.3871 31.549C3.37956 31.6843 3.36952 31.8197 3.35948 31.955C3.34692 32.1204 3.33688 32.2858 3.32683 32.4512C3.31177 32.7219 3.29921 33.0126 3.29921 33.2984C3.29921 33.5465 3.39965 33.6969 3.48251 33.7771C3.56286 33.8573 3.71352 33.95 3.95457 33.95H3.98721L4.7681 33.9249C5.02924 33.9174 5.2276 33.742 5.26276 33.4913C5.28535 33.3209 5.29289 33.1405 5.28787 32.95C5.28535 32.8272 5.26778 32.7119 5.25271 32.6016C5.24769 32.559 5.24016 32.5164 5.23514 32.4763L5.21505 32.3109C5.19747 32.153 5.17739 31.9926 5.15479 31.8347C5.14725 31.7746 5.13219 31.7144 5.11712 31.6543C5.10457 31.6016 5.09201 31.549 5.0895 31.5114L5.08197 31.4011C5.07193 31.2482 5.06188 31.1054 5.0895 30.9901C5.1121 30.8999 5.15981 30.7996 5.21254 30.6944C5.26025 30.5991 5.31046 30.5014 5.34813 30.3911C5.37073 30.3259 5.41592 30.2532 5.46363 30.1756C5.53645 30.0603 5.62433 29.9174 5.66702 29.7395H5.70719C5.93066 29.7319 6.1466 29.7244 6.36003 29.7244C6.46298 29.7244 6.56593 29.7244 6.66887 29.7244C6.84715 29.7244 7.56276 29.7269 7.74355 29.7269H7.93187C8.23067 29.7269 8.53198 29.7219 8.83078 29.7194C9.02914 29.7194 9.23002 29.7144 9.42838 29.7144C9.50873 29.7144 9.58908 29.7144 9.66943 29.7119C9.76735 29.7119 9.86528 29.7094 9.96321 29.7094C10.0611 29.7094 10.1641 29.7094 10.2645 29.7169C10.3348 29.7219 10.4051 29.7219 10.4754 29.7219C10.6587 29.7219 10.8395 29.7094 11.0128 29.6994C11.186 29.6893 11.3492 29.6768 11.5124 29.6768C11.6757 29.6768 11.8087 29.6868 11.9368 29.7069C12.0523 29.7269 12.1778 29.7345 12.3185 29.7345C12.4591 29.7345 12.6097 29.7244 12.7503 29.7144C12.8483 29.7069 12.9437 29.7019 13.0391 29.6969C13.2375 29.6918 13.4333 29.6818 13.6317 29.6718L13.8752 29.6593L14.4678 29.7044C14.4879 29.7044 14.5055 29.7044 14.5256 29.7044C14.6185 29.7044 14.7013 29.6893 14.7741 29.6743C14.8244 29.6643 14.8746 29.6543 14.9072 29.6543C14.9298 29.6543 14.9399 29.6593 14.9474 29.6618C15.0001 29.6893 15.0554 29.7019 15.1181 29.7019C15.1809 29.7019 15.2286 29.6893 15.2613 29.6793H15.2713C15.2939 29.6718 15.3165 29.6693 15.3416 29.6643C15.3692 29.6593 15.3994 29.6543 15.4169 29.6543C15.8739 29.6593 16.3309 29.6643 16.7879 29.6718C16.9134 29.6718 17.0415 29.6768 17.167 29.6793C17.3981 29.6843 17.6265 29.6893 17.8626 29.6893C18.1237 29.6893 18.3848 29.6843 18.6435 29.6818C18.8343 29.6793 19.0251 29.6768 19.221 29.6743C19.2637 29.6743 19.3064 29.6768 19.349 29.6818C19.4093 29.6868 19.4671 29.6918 19.5273 29.6918H19.5499C19.6478 29.6918 19.7433 29.6843 19.8412 29.6793C19.9542 29.6743 20.0647 29.6668 20.1827 29.6668C20.5016 29.6668 20.7853 29.6718 21.0514 29.6818C21.2448 29.6868 21.4381 29.6893 21.6315 29.6893C21.8926 29.6893 22.1537 29.6843 22.4149 29.6818C22.5982 29.6793 22.779 29.6768 22.9623 29.6743L23.5071 29.6693C23.934 29.6668 24.3608 29.6618 24.7852 29.6593C24.9057 29.6593 25.0288 29.6593 25.1493 29.6593H25.5083C25.5134 29.6768 25.5159 29.6918 25.5209 29.7094C25.551 29.8121 25.5887 29.9124 25.6238 30.0126C25.6464 30.0778 25.6715 30.143 25.6916 30.2081C25.8348 30.6342 25.9754 31.0628 26.1135 31.4913C26.121 31.5114 26.1235 31.539 26.121 31.564C26.1135 31.7044 26.1034 31.8447 26.0934 31.9851C26.0808 32.1455 26.0708 32.3034 26.0633 32.4638C26.0507 32.7219 26.0356 33.0026 26.0356 33.2883C26.0356 33.5365 26.1336 33.6868 26.2164 33.7695C26.2968 33.8522 26.4449 33.9475 26.6885 33.9475H26.819C27.045 33.9375 27.271 33.9299 27.497 33.9224C27.7632 33.9149 27.964 33.7445 27.9967 33.4938C28.0193 33.3234 28.0268 33.138 28.0218 32.9324C28.0193 32.8096 28.0042 32.6918 27.9891 32.5791C27.9841 32.539 27.9791 32.4989 27.9741 32.4563L27.959 32.3109C27.9439 32.168 27.9264 32.0227 27.9063 31.8798C27.8962 31.8147 27.8812 31.747 27.8661 31.6818C27.851 31.6167 27.836 31.554 27.8309 31.5014C27.8259 31.4537 27.8209 31.4036 27.8159 31.3535C27.8008 31.2382 27.7857 31.1079 27.8083 31.0427C27.8887 30.8172 28.0017 30.5991 28.1172 30.366C28.1749 30.2507 28.2327 30.1355 28.2879 30.0202C28.3382 29.9124 28.3783 29.7971 28.4085 29.6768C28.4085 29.6693 28.411 29.6643 28.4135 29.6568H28.6194C28.9508 29.6618 29.2797 29.6643 29.6087 29.6668C29.9627 29.6668 30.3168 29.6693 30.6633 29.6718H30.7813L30.8164 29.9525C30.8667 30.361 30.9169 30.7595 30.9646 31.158C30.9997 31.4537 31.1529 31.6743 31.3086 31.8748C31.3914 31.9826 31.5069 32.0427 31.63 32.0427C31.753 32.0427 31.8585 31.9876 31.9363 31.8898L32.9633 31.95C32.908 32.1931 32.8905 32.4362 32.9105 32.6793L32.8854 33.143C32.8679 33.4838 32.8478 33.8272 32.8352 34.168C32.8252 34.4362 32.8202 34.7069 32.8151 34.9751L32.8101 35.3109L32.7925 36.0753C32.7775 36.6893 32.7624 37.3234 32.7549 37.9475C32.7498 38.2959 32.7549 38.6467 32.7599 38.9876C32.7624 39.1956 32.7649 39.4061 32.7674 39.6141C32.7674 39.8397 32.7674 40.0678 32.7674 40.2933C32.7674 40.4713 32.7674 40.6467 32.7674 40.8247V41.2031C32.7674 41.6016 32.7674 42.0152 32.7724 42.4237C32.78 42.7921 32.7925 43.1605 32.8051 43.5314C32.8126 43.7169 32.8176 43.8999 32.8252 44.0728V44.0878C32.8202 44.1079 32.8176 44.1254 32.8151 44.1455C32.8126 44.1781 32.8076 44.2131 32.8051 44.2457C32.795 44.336 32.785 44.4262 32.785 44.5264C32.785 44.7319 32.785 44.94 32.7875 45.148C32.79 45.4738 32.7925 45.8096 32.7875 46.138C32.785 46.3435 32.7699 46.544 32.7524 46.7595C32.7423 46.8974 32.7323 47.0327 32.7247 47.1705C32.7172 47.3385 32.7097 47.5064 32.7021 47.6718C32.6946 47.8823 32.6871 48.0928 32.6745 48.3059C32.667 48.4187 32.6544 48.5339 32.6394 48.6467C32.6243 48.7821 32.6067 48.9224 32.5992 49.0678C32.5791 49.4688 32.564 49.8673 32.549 50.2683C32.5289 50.7695 32.5088 51.2708 32.4837 51.772C32.4686 52.0628 32.436 52.361 32.4058 52.6492C32.3958 52.752 32.3832 52.8547 32.3732 52.955C32.3632 53.0628 32.3481 53.173 32.3355 53.2808C32.3205 53.4086 32.3054 53.5365 32.2929 53.6643C32.2803 53.7846 32.2828 53.9024 32.2828 54.0126C32.2828 54.1304 32.2828 54.2432 32.2703 54.3485C32.2401 54.5665 32.4209 54.7946 32.6042 54.8522C32.7574 54.9024 32.9331 54.9299 33.1089 54.9324H33.1918C33.3349 54.9324 33.4755 54.9274 33.6186 54.9224C33.7216 54.9199 33.822 54.9149 33.925 54.9149C34.0982 54.9124 34.2715 54.9099 34.4472 54.9099C34.7259 54.9099 35.0021 54.9049 35.2783 54.8974C35.6223 54.8873 35.9689 54.8698 36.3028 54.8547L37.272 54.8096C37.6612 54.7921 38.0504 54.7745 38.4371 54.757C38.4471 54.757 38.4572 54.757 38.4672 54.7595C38.4999 54.7645 38.53 54.767 38.5626 54.767H38.653C38.7384 54.772 38.8238 54.7745 38.9066 54.7745C38.9468 54.7745 38.987 54.7745 39.0297 54.7745C39.0924 54.7745 39.1577 54.7645 39.2205 54.757C39.2707 54.7495 39.3159 54.7445 39.3561 54.7445H39.5946C40.1972 54.7344 40.8174 54.7244 41.4301 54.7244H41.5381C41.872 54.7244 42.2135 54.7395 42.545 54.7545L42.7132 54.762C42.894 54.7695 43.0748 54.7796 43.2556 54.7896C43.5619 54.8071 43.8808 54.8247 44.1946 54.8322H44.2147C44.3578 54.8347 44.4131 54.8397 44.4658 54.8798C44.5713 54.96 44.6792 55.0001 44.7872 55.0001C44.9554 55.0001 45.1563 54.8948 45.2266 54.6041C45.2718 54.4136 45.2894 54.2056 45.2794 54.0026C45.2618 53.6918 45.2392 53.3786 45.2166 53.0678C45.1865 52.6442 45.1538 52.2081 45.1362 51.7796C45.1187 51.3435 45.1136 50.8974 45.1086 50.4688C45.1061 50.163 45.1011 49.8598 45.0935 49.554C45.076 48.8999 45.0484 48.2432 45.0232 47.6818C44.9881 46.8974 44.9479 46.1104 44.9077 45.3259V45.2608C44.8952 45.0703 44.8826 44.8823 44.8726 44.6918C44.8651 44.549 44.855 44.4086 44.8475 44.2658C44.845 44.2056 44.8425 44.143 44.8399 44.0803C44.8374 43.9801 44.8349 43.8798 44.8249 43.7796C44.8098 43.6041 44.7922 43.4262 44.7747 43.2507C44.747 42.9625 44.7169 42.6618 44.6993 42.371C44.6818 42.0753 44.6717 41.772 44.6642 41.4788C44.6541 41.1881 44.6466 40.8873 44.629 40.5916C44.6064 40.1856 44.5688 39.7796 44.5311 39.3836L44.4985 39.0252C44.4884 38.8999 44.4734 38.7771 44.4608 38.6517C44.4432 38.4938 44.4256 38.3385 44.4156 38.1806C44.393 37.8848 44.3754 37.5891 44.3553 37.2959C44.3378 37.0252 44.3202 36.752 44.3001 36.4813C44.2901 36.3284 44.2725 36.1781 44.2549 36.0252C44.2474 35.9475 44.2373 35.8698 44.2298 35.7946C44.2197 35.6969 44.2097 35.5991 44.2022 35.5039C44.1846 35.3084 44.1645 35.1154 44.1419 34.9199C44.1268 34.7971 44.1042 34.6743 44.0842 34.5515C44.0666 34.4487 44.049 34.3435 44.0339 34.2382C43.9486 33.5866 43.8808 33.0578 43.8255 32.574C43.8105 32.4512 43.8029 32.3234 43.7929 32.1931C43.8657 32.1931 43.936 32.1931 44.0088 32.1981C44.1193 32.1981 44.2298 32.2031 44.3378 32.2031C44.4658 32.2031 44.5788 32.2006 44.6818 32.1931H44.7144C44.845 32.1831 44.9705 32.1756 45.0935 32.1756C45.1588 32.1756 45.2266 32.1756 45.2919 32.1831C45.317 32.1831 45.3421 32.1856 45.3672 32.1856C45.8493 32.1856 46.2712 31.7821 46.2862 31.3059C46.2963 31.0152 46.2812 30.7069 46.2436 30.366C46.2385 30.3109 46.231 30.2558 46.226 30.2006C46.2059 30.0126 46.1883 29.8197 46.1431 29.6242H46.7658C46.9742 29.6242 47.1826 29.6242 47.391 29.6242H47.4563C47.6095 29.6242 47.7627 29.6217 47.9183 29.6167C48.0665 29.6141 48.2171 29.6091 48.3653 29.6091C48.5009 29.6091 48.6214 29.6116 48.7344 29.6167C48.7419 29.6517 48.7495 29.6868 48.7595 29.7219C48.7947 29.8372 48.8348 29.9525 48.875 30.0678C48.9001 30.1405 48.9252 30.2157 48.9503 30.2883C48.9905 30.4136 49.0307 30.5365 49.0709 30.6618C49.1487 30.9024 49.229 31.153 49.3144 31.3986C49.3496 31.4989 49.3646 31.554 49.3596 31.6091C49.3295 31.8999 49.3144 32.1931 49.3019 32.4512C49.2893 32.7119 49.2768 32.9901 49.2742 33.2733C49.2742 33.4788 49.332 33.6442 49.4525 33.7645C49.5705 33.8848 49.7362 33.945 49.9396 33.945L50.2661 33.9375C50.4293 33.9324 50.5925 33.9299 50.7557 33.9224C51.0043 33.9124 51.2001 33.742 51.2328 33.5064C51.2604 33.3159 51.2704 33.1355 51.2679 32.965C51.2654 32.8347 51.2478 32.7119 51.2302 32.5916C51.2252 32.549 51.2177 32.5064 51.2127 32.4638C51.1851 32.2432 51.1599 32.0227 51.1298 31.8021C51.1198 31.7194 51.1072 31.6392 51.0972 31.5565C51.0746 31.3986 51.0545 31.2407 51.0369 31.0803C51.0369 31.0653 51.0369 31.0427 51.0419 31.0352C51.0972 30.9174 51.1474 30.7971 51.1976 30.6768C51.293 30.4437 51.3859 30.2232 51.519 30.0352C51.6044 29.9149 51.627 29.7771 51.6445 29.6768C51.6445 29.6768 51.6521 29.6267 51.6546 29.6192H52.207C52.5234 29.6142 52.8398 29.6116 53.1561 29.6091H53.1963C53.3093 29.6091 53.4248 29.6116 53.5378 29.6167C53.6583 29.6192 53.7788 29.6242 53.8994 29.6242C54.055 29.6242 54.1881 29.6192 54.3137 29.6041C54.3413 29.6016 54.3689 29.5991 54.394 29.5991C54.4066 29.5991 54.4216 29.5991 54.4342 29.5991C54.6677 29.6267 54.9163 29.6417 55.1925 29.6417C55.5114 29.6417 55.8328 29.6242 56.1416 29.6066L56.3174 29.5966C56.4103 29.6342 56.5132 29.6543 56.6287 29.6543C56.684 29.6543 56.7392 29.6492 56.7945 29.6442L56.9627 29.6317C57.0983 29.6217 57.2263 29.6116 57.3594 29.6116C57.5201 29.6116 57.6808 29.6167 57.839 29.6217C57.9671 29.6267 58.0951 29.6292 58.2257 29.6317H58.2809C58.3563 29.6317 58.4341 29.6317 58.5094 29.6292C58.5797 29.6292 58.65 29.6242 58.7203 29.6242H58.7655C58.9488 29.6267 59.1346 29.6317 59.3179 29.6342C59.5615 29.6392 59.8025 29.6442 60.0536 29.6467C60.134 29.6467 60.2068 29.6367 60.2721 29.6292C60.3248 29.6217 60.3725 29.6167 60.4202 29.6167C60.6688 29.6217 60.9199 29.6292 61.1685 29.6367C61.3694 29.6417 61.5677 29.6492 61.7837 29.6543C61.854 29.6543 61.9142 29.6417 61.9644 29.6342C61.9845 29.6317 62.0021 29.6267 62.0222 29.6242L62.085 29.6167C62.1327 29.6116 62.1779 29.6041 62.2281 29.6041H62.2306C62.3235 29.6091 62.4164 29.6142 62.5093 29.6217C62.6449 29.6317 62.7855 29.6417 62.9286 29.6442H62.9989C63.1396 29.6442 63.2827 29.6417 63.4233 29.6367C63.5589 29.6317 63.6945 29.6292 63.8301 29.6292H63.8627C63.9757 29.6292 64.0812 29.6192 64.1841 29.6116C64.2795 29.6041 64.3674 29.5966 64.4528 29.5966C64.5507 29.5966 64.6285 29.6066 64.6989 29.6292L64.7566 29.6442H64.8043C64.8395 29.6442 64.8671 29.6392 64.8897 29.6342H65.0102C65.191 29.6292 65.3718 29.6242 65.5501 29.6242C65.7133 29.6242 65.874 29.6242 66.0372 29.6242C66.2958 29.6242 66.5544 29.6242 66.813 29.6192C66.916 29.6192 67.0189 29.6116 67.1219 29.6041C67.1947 29.5991 67.2675 29.5941 67.3403 29.5916C67.3655 29.5916 67.3881 29.5916 67.4132 29.5916C67.4483 29.5916 67.5939 29.5941 67.6341 29.5941H67.6869C67.7295 29.5941 67.7697 29.5891 67.8124 29.5841C67.8375 29.5816 67.8601 29.5791 67.8877 29.5791C68.0057 29.5816 68.1212 29.5866 68.2367 29.5891C68.42 29.5966 68.6033 29.6016 68.7942 29.6041C68.8821 29.6041 68.9624 29.5941 69.0352 29.5841C69.093 29.5766 69.1457 29.569 69.1934 29.569C69.2537 29.569 69.3139 29.569 69.3742 29.569C69.4671 29.569 69.56 29.569 69.6529 29.569C69.7483 29.569 69.8412 29.569 69.9366 29.569H70.0547C70.1199 29.569 70.1802 29.5565 70.2279 29.549C70.253 29.544 70.2806 29.539 70.2932 29.539C70.4238 29.5465 70.5518 29.549 70.6824 29.549C70.8807 29.549 71.0766 29.544 71.275 29.5365L71.4683 29.5314C71.4733 29.569 71.4809 29.6116 71.4934 29.6543C71.5587 29.8773 71.6315 30.1004 71.7018 30.3159L71.7771 30.544C71.8726 30.8347 71.9705 31.1355 72.0759 31.4287C72.1061 31.5114 72.1136 31.5515 72.1111 31.5941C72.0835 31.8873 72.0659 32.1831 72.0533 32.4588C72.0408 32.7069 72.0282 32.9951 72.0257 33.2808C72.0257 33.4863 72.0835 33.6492 72.204 33.7695C72.322 33.8873 72.4827 33.9475 72.6861 33.9475C72.7012 33.9475 72.7137 33.9475 72.7288 33.9475C72.8167 33.945 72.902 33.94 72.9899 33.9349C73.1431 33.9274 73.2862 33.9174 73.4293 33.9174C73.5699 33.9174 73.9039 33.9149 73.9893 33.5039C74.0269 33.3209 74.0244 33.1355 74.0194 32.9625C74.0144 32.8422 73.9993 32.7269 73.9842 32.6167C73.9792 32.574 73.9717 32.5314 73.9667 32.4888L73.9466 32.3184C73.9265 32.148 73.9064 31.9751 73.8838 31.8046C73.8738 31.7194 73.8612 31.6342 73.8487 31.5515C73.8286 31.3961 73.806 31.2407 73.7909 31.0853C73.7909 31.0703 73.7934 31.0502 73.7984 31.0402C73.8537 30.9249 73.9014 30.8071 73.9516 30.6893C74.0495 30.4537 74.1399 30.2332 74.2755 30.0427C74.3483 29.9425 74.3935 29.8096 74.4086 29.6517C74.4136 29.6091 74.4161 29.5665 74.4161 29.5264H74.6547C74.7827 29.5264 74.9133 29.5264 75.0439 29.5264H75.2196C75.3401 29.5264 75.4833 29.5264 75.6264 29.5064C75.6289 29.5064 75.6314 29.5064 75.6364 29.5064C75.7218 29.5665 75.8222 29.6342 75.9528 29.6342C76.1185 29.6342 76.2215 29.5365 76.3119 29.4487C76.5253 29.2457 76.6031 28.9976 76.6709 28.7796C76.691 28.7119 76.7136 28.6442 76.7387 28.5791C76.8341 28.341 76.8718 28.0954 76.907 27.8573L76.9195 27.767C76.9672 27.4537 77.0174 27.1304 77.0275 26.7996C77.035 26.5014 77.0124 26.2081 76.9923 25.9224L76.9622 25.9124ZM72.8468 30.4462C72.8292 30.5039 72.8167 30.564 72.8091 30.6242C72.7815 30.564 72.7514 30.5014 72.7263 30.4412C72.6409 30.2357 72.5606 30.0302 72.4777 29.8247C72.435 29.7194 72.3923 29.6141 72.3521 29.5089C72.3597 29.5089 72.3647 29.5089 72.3722 29.5089C72.4451 29.5014 72.5254 29.4964 72.6183 29.4964C72.7263 29.4964 72.8317 29.5014 72.9397 29.5064C73.0075 29.5089 73.0753 29.5114 73.1431 29.5139C73.0401 29.8347 72.9422 30.1405 72.8468 30.4487V30.4462ZM72.6911 28.4638C72.5806 28.4688 72.4702 28.4738 72.3471 28.4763C72.2492 28.4763 72.1513 28.4688 72.0508 28.4638C71.9805 28.4588 71.9102 28.4537 71.8374 28.4512C71.8173 28.4512 71.7997 28.4512 71.7797 28.4512C71.7445 28.4512 71.7068 28.4512 71.6717 28.4512C71.6416 28.4512 71.6139 28.4512 71.5738 28.4512H71.4683C71.1092 28.4462 70.7477 28.4437 70.3886 28.4362C70.3233 28.4362 70.258 28.4312 70.1927 28.4262C70.1325 28.4212 70.0747 28.4187 70.0145 28.4162H69.9793C69.9442 28.4162 69.909 28.4162 69.8739 28.4187C69.8538 28.4187 69.8337 28.4212 69.8136 28.4212H69.6981C69.6655 28.4212 69.6353 28.4212 69.6052 28.4212C69.5901 28.4212 69.5776 28.4162 69.565 28.4136C69.5248 28.4061 69.4721 28.3961 69.4119 28.3961H69.3867C69.3014 28.4011 69.2135 28.4011 69.1281 28.4011C68.9976 28.4011 68.867 28.3986 68.7339 28.3936C68.5983 28.3911 68.4602 28.3861 68.3246 28.3861C68.2719 28.3861 68.2167 28.3861 68.1639 28.3861C68.0459 28.3886 67.9279 28.3936 67.8099 28.3986C67.6542 28.4036 67.4985 28.4111 67.3378 28.4111C67.2876 28.4111 67.2299 28.4061 67.1696 28.3986C67.1068 28.3911 67.0415 28.3861 66.9788 28.3836C66.567 28.371 66.1527 28.361 65.7409 28.356C65.6681 28.356 65.5927 28.351 65.5199 28.3485C65.422 28.3435 65.3216 28.3385 65.2236 28.3385C65.0755 28.3385 64.9499 28.3485 64.8344 28.371C64.7466 28.3861 64.6562 28.3936 64.5432 28.3936C64.4402 28.3936 64.3373 28.3886 64.2343 28.3811C64.1188 28.3735 64.0058 28.3685 63.8903 28.3685C63.8602 28.3685 63.8276 28.3685 63.7974 28.3685C63.702 28.371 63.6091 28.3735 63.5137 28.3735C63.3706 28.3735 63.23 28.371 63.0868 28.3685C62.9638 28.3685 62.8433 28.3635 62.7127 28.3635C62.6324 28.3635 62.557 28.371 62.4943 28.3786C62.4365 28.3861 62.3762 28.3886 62.316 28.3886C62.2231 28.3886 62.1226 28.3811 62.0046 28.366C61.8866 28.351 61.7586 28.3435 61.6029 28.3435C61.5075 28.3435 61.4146 28.346 61.3191 28.3485C61.2413 28.3485 61.1635 28.3535 61.0856 28.3535C60.9124 28.3535 60.7391 28.3585 60.5659 28.361C60.4152 28.361 60.2646 28.366 60.1139 28.366C59.8779 28.366 59.6393 28.3685 59.4033 28.371H58.8082C58.635 28.3761 58.4617 28.3761 58.2885 28.3811C58.173 28.3836 58.0575 28.3886 57.9394 28.3936C57.7662 28.4011 57.5929 28.4061 57.4147 28.4086C57.3167 28.4086 57.2163 28.4011 57.1108 28.3961C57.0129 28.3886 56.9125 28.3836 56.8145 28.3811H56.7995C56.7091 28.3811 56.6262 28.3936 56.5509 28.4036C56.5233 28.4086 56.4982 28.4111 56.4705 28.4136C56.4505 28.4162 56.4279 28.4212 56.3977 28.4262C56.124 28.3986 55.8328 28.3861 55.4838 28.3861C55.2553 28.3861 55.0268 28.3911 54.7983 28.3986C54.743 28.3986 54.6878 28.4036 54.6326 28.4061C54.5522 28.4111 54.4719 28.4136 54.3915 28.4136C54.3112 28.4136 54.2459 28.4086 54.1856 28.4011C54.1404 28.3961 54.0952 28.3936 54.05 28.3936C53.9898 28.3936 53.9295 28.3986 53.8692 28.4011C53.8215 28.4036 53.7738 28.4086 53.7286 28.4086C53.7136 28.4086 53.6985 28.4086 53.6809 28.4086C53.5478 28.3986 53.4173 28.3961 53.3193 28.3961H52.9553C52.9327 28.3961 52.9101 28.3961 52.8875 28.3961C52.8523 28.3961 52.8172 28.3936 52.782 28.3936C52.7318 28.3936 52.6841 28.3961 52.6414 28.4036C52.5158 28.4262 52.3777 28.4362 52.1995 28.4362C52.1041 28.4362 52.0086 28.4337 51.9132 28.4312C51.8128 28.4287 51.7098 28.4262 51.6094 28.4262C51.5039 28.4262 51.4085 28.4287 51.3206 28.4362C51.2378 28.4412 51.1499 28.4462 51.052 28.4462C50.9214 28.4462 50.7883 28.4412 50.6578 28.4362C50.5247 28.4312 50.3916 28.4262 50.2585 28.4262H50.2309C50.0928 28.4262 49.9522 28.4287 49.8141 28.4337C49.686 28.4362 49.558 28.4387 49.4299 28.4387H49.209C48.9051 28.4387 48.6013 28.4387 48.3 28.4362L47.3433 28.4312C46.9466 28.4312 46.5499 28.4262 46.1481 28.4262C46.0552 28.4262 45.9623 28.4287 45.8719 28.4337C45.7916 28.4362 45.7112 28.4387 45.6309 28.4387H45.5229C45.3723 28.4387 45.2216 28.4387 45.071 28.4387H44.8073C44.7922 28.4387 44.7395 28.4387 44.7395 28.4387H44.1695C43.7653 28.4362 43.361 28.4337 42.9568 28.4337H42.9015C42.4922 28.4337 42.083 28.4337 41.6737 28.4337L39.4666 28.4387H39.1527C39.0246 28.4412 38.8966 28.4412 38.7685 28.4412C38.6806 28.4412 38.5903 28.4412 38.5024 28.4412C38.412 28.4412 38.3241 28.4337 38.2337 28.4287C38.1257 28.4212 38.0127 28.4162 37.8972 28.4162H37.8696C37.6286 28.4187 37.3825 28.4287 37.1465 28.4387C37.046 28.4437 36.7723 28.4537 36.7723 28.4537C36.7347 28.4537 36.6995 28.4563 36.6619 28.4563H36.6468C36.456 28.4537 36.2626 28.4487 36.0718 28.4437C35.6926 28.4362 35.2984 28.4262 34.9117 28.4262H34.8866C34.6858 28.4262 34.4824 28.4337 34.289 28.4412C34.1183 28.4487 33.945 28.4537 33.7743 28.4563H33.6889C33.5056 28.4563 33.3223 28.4537 33.1416 28.4487C32.9984 28.4462 32.8578 28.4437 32.7147 28.4412C32.6017 28.4412 32.4912 28.4412 32.3782 28.4412H31.8158H31.1228C31.1228 28.4412 30.8415 28.4412 30.7235 28.4412C30.5955 28.4412 30.4674 28.4412 30.3419 28.4412C30.1887 28.4412 29.2521 28.4412 29.2521 28.4412C29.1442 28.4412 29.0337 28.4437 28.9257 28.4462C28.8428 28.4462 28.7625 28.4512 28.6796 28.4512C28.5566 28.4512 28.4336 28.4512 28.308 28.4537C28.1323 28.4537 27.959 28.4537 27.7832 28.4588C27.6602 28.4588 27.5372 28.4638 27.4166 28.4688C27.2434 28.4738 27.0726 28.4813 26.8893 28.4813C26.7588 28.4813 26.6282 28.4738 26.4901 28.4663C26.3821 28.4613 26.2742 28.4563 26.1687 28.4537C26.126 28.4537 26.0833 28.4537 26.0432 28.4537C25.9678 28.4537 25.8925 28.4537 25.8172 28.4563C25.7519 28.4563 25.6841 28.4563 25.6163 28.4588H25.192C25.074 28.4588 24.9559 28.4588 24.8354 28.4588C24.6822 28.4588 24.5291 28.4563 24.3759 28.4537C24.1474 28.4512 23.9214 28.4487 23.6929 28.4487H23.5046C23.3816 28.4487 23.2611 28.4613 23.1456 28.4688C23.0326 28.4788 22.9246 28.4863 22.8091 28.4863C22.6735 28.4863 22.5379 28.4788 22.4023 28.4738C22.2617 28.4663 22.1161 28.4613 21.9679 28.4613H21.9478C21.7369 28.4613 21.5235 28.4688 21.3201 28.4788C21.1569 28.4838 20.9937 28.4913 20.8305 28.4938C20.7451 28.4938 20.6572 28.4964 20.5719 28.4964C20.3961 28.4964 20.253 28.4913 20.1224 28.4813C19.9692 28.4688 19.806 28.4638 19.6278 28.4638C19.3666 28.4638 19.1055 28.4763 18.8745 28.4888C18.8017 28.4913 18.7314 28.4938 18.6585 28.4938C18.5481 28.4938 18.4401 28.4913 18.3296 28.4888C18.2417 28.4888 18.1538 28.4838 18.0559 28.4838C17.7998 28.4813 17.1821 28.4763 17.1821 28.4763C17.049 28.4763 16.9185 28.4763 16.7854 28.4763H16.6423C16.5519 28.4763 16.459 28.4788 16.3686 28.4813C16.2656 28.4838 16.1652 28.4863 16.0622 28.4863H16.0296C15.9442 28.4863 15.8589 28.4813 15.776 28.4763C15.6756 28.4713 15.5751 28.4663 15.4772 28.4663C15.3793 28.4663 15.2964 28.4713 15.2161 28.4813C15.1684 28.4863 15.1181 28.4888 15.0604 28.4888C14.9851 28.4888 14.9122 28.4838 14.8394 28.4813C14.7566 28.4763 14.6712 28.4713 14.5733 28.4713C14.4578 28.4713 14.3423 28.4788 14.2268 28.4838C14.1138 28.4888 14.0008 28.4964 13.8878 28.4964C13.8024 28.4964 13.7271 28.4939 13.6568 28.4863C13.5413 28.4738 13.4208 28.4688 13.2776 28.4688C13.1646 28.4688 13.0516 28.4713 12.9361 28.4763C12.8282 28.4788 12.7202 28.4838 12.6122 28.4838C12.5746 28.4838 12.5369 28.4838 12.4992 28.4838C12.4314 28.4838 12.3637 28.4813 12.2959 28.4813C12.0824 28.4813 11.9067 28.4939 11.7359 28.5214C11.7033 28.5264 11.6656 28.5289 11.6229 28.5289C11.5551 28.5289 11.4823 28.5239 11.4045 28.5164C11.3191 28.5089 11.2337 28.5014 11.1484 28.5014C11.073 28.5014 10.9952 28.5014 10.9199 28.5014H10.2972C10.1867 28.5014 10.0762 28.5014 9.96572 28.5014C9.81004 28.4989 9.65687 28.4913 9.5012 28.4838C9.33297 28.4763 9.16473 28.4688 8.9965 28.4663H8.95382C8.83078 28.4663 8.70774 28.4738 8.58973 28.4788C8.50687 28.4838 8.42652 28.4888 8.34366 28.4913C8.24322 28.4938 8.14279 28.4938 8.04235 28.4938C7.96702 28.4938 7.88918 28.4938 7.81386 28.4938C7.62051 28.4938 7.42968 28.4888 7.23634 28.4863C6.9049 28.4813 6.57346 28.4763 6.24453 28.4763H6.18929C5.96079 28.4763 5.73481 28.4788 5.50632 28.4813C5.28033 28.4838 5.05686 28.4863 4.83088 28.4863H4.70031C4.45173 28.4863 4.20566 28.4788 3.95708 28.4738C3.69092 28.4688 3.42225 28.4613 3.14605 28.4613C3.01297 28.4613 2.88491 28.4688 2.75937 28.4763C2.63884 28.4838 2.52334 28.4913 2.41035 28.4913C2.37771 28.4913 2.34506 28.4913 2.31242 28.4913C2.29484 28.4913 2.27476 28.4913 2.25718 28.4913C2.1467 28.4913 2.04375 28.5064 1.94583 28.5189C1.86297 28.5289 1.78764 28.5415 1.71733 28.5415C1.68469 28.5415 1.65456 28.5415 1.62443 28.5339C1.59932 28.5289 1.57672 28.5289 1.55161 28.5289C1.51646 28.5289 1.48382 28.534 1.45368 28.539C1.39844 28.4036 1.33818 28.2658 1.27541 28.1304C1.10467 27.772 1.02934 27.4111 1.0444 27.0302C1.04943 26.8848 1.05194 26.7395 1.05445 26.5941C1.05947 26.2683 1.06198 25.9625 1.10718 25.6643C1.1574 25.3259 1.25532 24.9951 1.35576 24.6442C1.3884 24.5365 1.41853 24.4287 1.44866 24.3234C1.51646 24.0803 1.57923 23.9024 1.65205 23.7495C1.74997 23.5415 1.8479 23.3435 1.97847 23.1931C1.97847 23.1931 2.01864 23.148 2.20696 23.148H2.24463C2.34255 23.1505 2.45052 23.1605 2.59364 23.1806C2.75434 23.2006 2.9276 23.2106 3.12345 23.2106C3.26406 23.2106 3.40467 23.2056 3.5478 23.1981C3.57542 23.1981 3.60304 23.1981 3.63066 23.1981C3.74867 23.1981 3.86919 23.2081 3.99725 23.2182C4.09016 23.2257 4.18306 23.2332 4.27596 23.2382L4.4693 23.2482C4.76559 23.2608 5.07444 23.2758 5.37826 23.2783C5.57913 23.2783 5.7775 23.2808 5.97837 23.2808C6.19682 23.2808 6.41778 23.2808 6.63623 23.2808H7.07062C7.17859 23.2808 7.28656 23.2783 7.39453 23.2758C7.51506 23.2758 7.63307 23.2758 7.75359 23.2758C7.81637 23.2758 7.87914 23.2758 7.94191 23.2758C8.12772 23.2758 8.31353 23.2833 8.50185 23.2883C8.66255 23.2933 8.82074 23.2984 8.98144 23.3009H9.02914C9.10698 23.3009 9.18733 23.2984 9.26517 23.2959C9.30786 23.2959 9.35305 23.2933 9.39825 23.2908C9.46604 23.2908 9.53384 23.2883 9.59912 23.2883C9.82008 23.2883 10.0461 23.2959 10.2645 23.3059C10.4729 23.3134 10.6914 23.3209 10.9048 23.3234H11.0078H11.5426C11.7761 23.3234 12.0523 23.3259 12.326 23.3485C12.3611 23.351 12.3963 23.3535 12.434 23.3535C12.5319 23.3535 12.6223 23.3435 12.7102 23.336L12.8006 23.3259C12.8508 23.3209 12.901 23.3209 12.9512 23.3209C13.0316 23.3209 13.1144 23.3259 13.1948 23.3284C13.2852 23.3334 13.3781 23.336 13.4685 23.336C13.6392 23.336 13.7798 23.3209 13.9079 23.2908C13.9305 23.2908 13.9706 23.2984 13.9882 23.3034C14.1389 23.3334 14.3372 23.371 14.5482 23.371C14.6787 23.371 14.8018 23.3585 14.9198 23.3309C14.9248 23.3309 14.9399 23.3284 14.975 23.3284C14.975 23.3284 15.3742 23.3309 15.5651 23.3334C15.9191 23.3385 16.2732 23.341 16.6272 23.341H16.6774C17.0716 23.341 17.4633 23.336 17.8576 23.3309C18.0685 23.3284 18.2794 23.3259 18.4878 23.3234C18.5455 23.3234 18.6033 23.3234 18.6636 23.3234H18.9147C19.0502 23.3234 19.1883 23.3234 19.3239 23.3184C19.5072 23.3134 19.693 23.3034 19.8763 23.2933C20.0395 23.2858 20.2002 23.2758 20.3785 23.2708C20.4162 23.2708 20.4564 23.2758 20.4965 23.2783C20.5543 23.2833 20.6145 23.2883 20.6723 23.2883H20.6924C20.8807 23.2858 21.069 23.2783 21.2548 23.2733C21.4708 23.2658 21.6842 23.2608 21.9001 23.2583H21.9428C22.0307 23.2583 22.1186 23.2608 22.2065 23.2658C22.3019 23.2708 22.3948 23.2733 22.4927 23.2733C22.5906 23.2733 22.6861 23.2658 22.7765 23.2608C22.8191 23.2583 22.8643 23.2532 22.907 23.2532C22.9372 23.2532 22.9673 23.2507 22.9949 23.2507H23.02C23.0878 23.2532 23.1556 23.2583 23.2234 23.2608C23.3389 23.2658 23.4544 23.2733 23.5674 23.2733C23.6854 23.2733 23.8059 23.2758 23.9239 23.2758C24.0369 23.2758 24.1474 23.2758 24.2604 23.2758C24.3483 23.2758 24.4412 23.2708 24.5366 23.2507C24.5793 23.2407 24.6195 23.2382 24.6672 23.2382C24.7074 23.2382 24.745 23.2407 24.7877 23.2457C24.8731 23.2558 24.961 23.2583 25.0689 23.2583C25.1342 23.2583 25.202 23.2583 25.2698 23.2558C25.3326 23.2558 25.3928 23.2532 25.4606 23.2532C25.5083 23.2532 25.7017 23.2532 25.7519 23.2532C25.8071 23.2532 25.8624 23.2532 25.9176 23.2507C26.0808 23.2457 26.2466 23.2332 26.4098 23.2232L26.5905 23.2131C26.7261 23.2432 26.8718 23.2558 27.045 23.2558C27.1354 23.2558 27.2233 23.2532 27.3137 23.2482C27.394 23.2457 27.4769 23.2407 27.5573 23.2407C27.6376 23.2407 27.7104 23.2432 27.7732 23.2507C27.7983 23.2532 27.8234 23.2558 27.846 23.2558C27.9038 23.2558 27.954 23.2482 27.9967 23.2432C28.0193 23.2407 28.0419 23.2357 28.0645 23.2357C28.2829 23.2382 28.5039 23.2432 28.7223 23.2507L28.9207 23.2558C28.9408 23.2583 28.9634 23.2608 28.9809 23.2608H29.0513L29.1065 23.2357C29.1366 23.2232 29.1793 23.2182 29.2396 23.2182C29.2747 23.2182 29.3099 23.2182 29.345 23.2207C29.3902 23.2207 29.4354 23.2257 29.4806 23.2257C29.5811 23.2257 29.6639 23.2157 29.7443 23.1956C29.7694 23.1881 29.7995 23.1856 29.8296 23.1856C29.8573 23.1856 29.8849 23.1881 29.9075 23.1931C30.0707 23.2282 30.2465 23.2457 30.4599 23.2457C30.5653 23.2457 30.6733 23.2407 30.7788 23.2382C30.8767 23.2357 30.9771 23.2307 31.0751 23.2307C31.1328 23.2307 31.1931 23.2307 31.2508 23.2357C31.4191 23.2457 31.5923 23.2507 31.7806 23.2507C31.989 23.2507 32.215 23.2432 32.4762 23.2307C32.5766 23.2257 32.6745 23.2232 32.775 23.2232C32.9357 23.2232 33.0964 23.2282 33.2571 23.2332C33.4228 23.2382 33.591 23.2432 33.7567 23.2432C33.8145 23.2432 33.8747 23.2432 33.9325 23.2432C34.0379 23.2407 34.1434 23.2382 34.2489 23.2357C34.4899 23.2282 34.7385 23.2207 34.9821 23.2207H35.1051C35.419 23.2257 35.7404 23.2382 36.0517 23.2507C36.1923 23.2558 36.3329 23.2633 36.4786 23.2683C36.5037 23.2708 36.5288 23.2733 36.5539 23.2733C36.5941 23.2733 36.6317 23.2683 36.6669 23.2583C36.7271 23.2407 36.7975 23.2332 36.8853 23.2332C36.9506 23.2332 37.0134 23.2382 37.0787 23.2407C37.154 23.2457 37.2318 23.2482 37.3072 23.2482C37.3549 23.2482 37.4001 23.2482 37.4478 23.2432C37.5206 23.2382 37.5934 23.2357 37.6662 23.2357C37.7215 23.2357 37.7792 23.2357 37.8345 23.2357C37.8947 23.2357 37.9525 23.2357 38.0127 23.2357H38.063C38.1383 23.2357 38.2136 23.2332 38.2889 23.2307C38.3743 23.2282 38.4597 23.2257 38.5451 23.2257H38.5827C38.648 23.2257 38.7158 23.2257 38.7811 23.2282C38.8715 23.2282 38.9619 23.2307 39.0548 23.2307C39.223 23.2307 39.3611 23.2232 39.4892 23.2106C39.5017 23.2106 39.5143 23.2106 39.5268 23.2106C39.5796 23.2106 39.6423 23.2207 39.7101 23.2282C39.788 23.2382 39.8758 23.2507 39.9688 23.2532H40.0391C40.1797 23.2532 40.3178 23.2482 40.4584 23.2432C40.5563 23.2407 40.6517 23.2357 40.7572 23.2357C40.8024 23.2357 40.8476 23.2407 40.8928 23.2457H40.9204C40.948 23.2583 40.9882 23.2683 41.0384 23.2683H41.1263L41.1941 23.2282C41.1991 23.2282 41.2066 23.2207 41.2368 23.2207C41.2744 23.2207 41.3096 23.2257 41.3472 23.2307C41.4025 23.2382 41.4653 23.2457 41.5331 23.2457C41.5958 23.2457 41.6536 23.2382 41.7088 23.2257C41.8545 23.2583 42.0076 23.2758 42.1934 23.2758C42.2914 23.2758 42.3893 23.2708 42.4897 23.2683C42.5801 23.2633 42.668 23.2608 42.7584 23.2608C42.7935 23.2608 42.8262 23.2608 42.8613 23.2608C42.9392 23.2633 43.017 23.2658 43.0974 23.2658C43.2681 23.2658 43.4389 23.2583 43.6046 23.2507C43.7502 23.2457 43.8933 23.2382 44.0515 23.2382C44.152 23.2382 44.2549 23.2482 44.3654 23.2558C44.4181 23.2608 44.4683 23.2658 44.5211 23.2683C44.5437 23.2733 44.5663 23.2733 44.5889 23.2733H44.6491L44.6943 23.2583C44.742 23.2432 44.7998 23.2357 44.8701 23.2357C44.9303 23.2357 44.9906 23.2407 45.0509 23.2457C45.1262 23.2507 45.2015 23.2558 45.2768 23.2558C45.3271 23.2558 45.3773 23.2558 45.4275 23.2482C45.4978 23.2407 45.5756 23.2382 45.6786 23.2382C45.7263 23.2382 45.774 23.2382 45.8217 23.2382C45.8719 23.2382 45.9247 23.2382 45.9749 23.2382H46.241C46.2762 23.2382 46.3113 23.2382 46.349 23.2382C46.4068 23.2382 46.4645 23.2307 46.5223 23.2257C46.5775 23.2207 46.6327 23.2157 46.6905 23.2157C46.7533 23.2157 46.7985 23.2232 46.8361 23.2382C46.8838 23.2558 46.9315 23.2658 46.9868 23.2658C47.0044 23.2658 47.0245 23.2658 47.0521 23.2633C47.2253 23.2583 47.3986 23.2532 47.5718 23.2482C47.9585 23.2357 48.3477 23.2257 48.7344 23.2182H48.8047C48.9428 23.2182 49.0809 23.2232 49.219 23.2282C49.3621 23.2332 49.5078 23.2382 49.6559 23.2382C49.8241 23.2382 49.9899 23.2332 50.1581 23.2282C50.3112 23.2232 50.4644 23.2182 50.6201 23.2182H50.6753C50.9315 23.2182 51.1876 23.2232 51.4437 23.2282L51.6772 23.2332C51.7977 23.2332 51.9182 23.2407 52.0388 23.2432C52.212 23.2507 52.3828 23.2558 52.556 23.2558C52.6414 23.2558 52.7268 23.2558 52.8121 23.2507C53.1059 23.2382 53.4198 23.2307 53.8014 23.2307C54.0626 23.2307 54.3237 23.2332 54.5848 23.2357C54.8485 23.2382 55.1121 23.2407 55.3758 23.2407C55.5792 23.2407 55.7851 23.2407 55.9935 23.2332C56.0161 23.2332 56.0387 23.2357 56.0613 23.2382C56.1014 23.2407 56.1441 23.2457 56.1843 23.2457C56.2596 23.2457 56.3274 23.2357 56.3902 23.2131C56.5434 23.2558 56.7091 23.2733 56.8974 23.2733C57.0531 23.2733 57.2037 23.2608 57.3494 23.2482C57.4875 23.2357 57.618 23.2257 57.7411 23.2232C57.7587 23.2232 57.7762 23.2282 57.7938 23.2332C57.8139 23.2382 57.8315 23.2407 57.849 23.2432L57.8666 23.2482C57.9043 23.2583 57.9595 23.2758 58.0273 23.2758C58.0499 23.2758 58.0725 23.2758 58.0926 23.2708C58.2031 23.2532 58.3211 23.2432 58.4617 23.2432C58.6023 23.2432 58.748 23.2532 58.9011 23.2608C59.0568 23.2708 59.215 23.2808 59.3782 23.2808H59.3983C59.4887 23.2808 59.5841 23.2758 59.6971 23.2382C59.7021 23.2382 59.7172 23.2382 59.7448 23.2482C59.8477 23.2808 59.9482 23.2808 60.026 23.2808C60.0461 23.2808 60.0637 23.2808 60.0838 23.2808H60.1742C60.3273 23.2908 60.483 23.2959 60.6487 23.2959C60.7667 23.2959 60.8848 23.2908 61.0028 23.2858L61.1208 23.2808C61.1584 23.2808 61.1961 23.2758 61.2363 23.2733C61.2664 23.2708 61.294 23.2658 61.3242 23.2658C61.3317 23.2658 61.3367 23.2658 61.3443 23.2658C61.4949 23.2908 61.6481 23.3034 61.8088 23.3034C61.982 23.3034 62.1628 23.2883 62.3612 23.2608C62.4064 23.2532 62.4591 23.2507 62.5244 23.2507C62.5771 23.2507 62.6298 23.2507 62.6826 23.2532H62.778C62.9211 23.2608 63.0642 23.2658 63.2074 23.2708C63.3379 23.2758 63.471 23.2808 63.6016 23.2833C63.8652 23.2908 64.1264 23.2959 64.39 23.3009L64.616 23.3059H64.6511C64.6763 23.3084 64.7014 23.3084 64.7265 23.3084C64.7641 23.3084 64.8018 23.3084 64.837 23.3009C64.8922 23.2908 64.955 23.2883 65.0278 23.2883C65.1132 23.2883 65.201 23.2933 65.2864 23.3009C65.3843 23.3084 65.4848 23.3134 65.5827 23.3134C65.6329 23.3134 65.6831 23.3134 65.7334 23.3084C65.8162 23.3034 65.8966 23.3009 65.9794 23.3009C66.105 23.3009 66.228 23.3059 66.3536 23.3109C66.4866 23.3159 66.6172 23.3209 66.7478 23.3209C66.8532 23.3209 66.9486 23.3184 67.0365 23.3109C67.0842 23.3084 67.1294 23.3059 67.1746 23.3059C67.2751 23.3059 67.373 23.3109 67.4709 23.3184C67.5814 23.3259 67.6919 23.3309 67.8024 23.3309C67.8978 23.3309 67.9831 23.3259 68.0635 23.3159C68.189 23.3009 68.3246 23.2933 68.4803 23.2933C68.6536 23.2933 68.8268 23.3009 69.0101 23.3109C69.1131 23.3159 69.216 23.3209 69.324 23.3259C69.3491 23.3284 69.3717 23.3309 69.3968 23.3309C69.447 23.3309 69.4922 23.3234 69.5374 23.3059C69.6027 23.2808 69.6755 23.2683 69.7659 23.2683C69.8488 23.2683 69.9366 23.2783 70.0295 23.2883C70.13 23.2984 70.2354 23.3109 70.3535 23.3109C70.3735 23.3109 70.3936 23.3159 70.4137 23.3159C70.474 23.3159 70.5292 23.3034 70.5769 23.2758C70.6297 23.2482 70.6849 23.2357 70.7627 23.2357C70.8305 23.2357 70.9059 23.2457 70.9837 23.2532C71.0791 23.2658 71.1745 23.2758 71.28 23.2758C71.3202 23.2758 71.3578 23.2758 71.398 23.2708C71.4859 23.2633 71.5838 23.2583 71.7018 23.2583C71.7897 23.2583 71.8776 23.2583 71.968 23.2633C72.0609 23.2633 72.1538 23.2683 72.2492 23.2683H72.3245C72.4199 23.2683 72.5103 23.2583 72.5982 23.2482C72.661 23.2432 72.7213 23.2357 72.784 23.2332C72.8895 23.2282 72.9975 23.2282 73.1029 23.2257C73.1833 23.2257 73.2636 23.2257 73.344 23.2207C73.4519 23.2182 73.5599 23.2131 73.6679 23.2106C73.8361 23.2056 74.0043 23.1981 74.1726 23.1956H74.2353C74.3207 23.1956 74.4036 23.1956 74.4889 23.2006C74.5618 23.2006 74.6346 23.2056 74.7074 23.2056C74.7802 23.2056 75.1066 23.2056 75.1066 23.2056C75.5034 24.0026 75.7444 24.8573 75.8273 25.7445C75.9227 26.767 75.8373 27.6668 75.5686 28.4838C75.526 28.4813 75.4833 28.4788 75.4381 28.4788C75.2422 28.4788 75.0464 28.4838 74.848 28.4863C74.6195 28.4913 74.3885 28.4938 74.145 28.4938C73.9742 28.4938 73.8035 28.4913 73.6327 28.4863C73.457 28.4813 73.2812 28.4788 73.0929 28.4788C72.9673 28.4788 72.8418 28.4838 72.7162 28.4913L72.6911 28.4638ZM50.3765 29.6116L50.3564 29.6793C50.3163 29.8197 50.2811 29.9525 50.2259 30.0653C50.138 30.2532 50.0928 30.4387 50.0727 30.6217C50.0476 30.5665 50.02 30.5139 49.9899 30.4613C49.8367 30.1831 49.7212 29.8898 49.6283 29.6116H50.3765V29.6116ZM45.0032 31.1931C44.9203 31.1856 44.8374 31.173 44.7571 31.158C44.6466 31.1405 44.5336 31.1229 44.4156 31.1154C44.1771 31.0979 43.941 31.0979 43.71 31.0979H43.4514C43.1677 31.0979 42.0302 31.0979 41.7465 31.0979C41.3523 31.0979 40.9581 31.0979 40.5638 31.0928C40.3027 31.0928 40.034 31.0753 39.7754 31.0603C39.5796 31.0502 39.3862 31.0377 39.1929 31.0327C38.9493 31.0252 38.7083 31.0227 38.4647 31.0202C38.2714 31.0202 38.078 31.0152 37.8847 31.0101C37.7466 31.0076 37.6085 31.0001 37.4704 30.9926C37.272 30.9826 37.0686 30.9725 36.8627 30.9725H36.8276C36.2727 30.9751 35.7077 30.9851 35.1628 30.9951C34.9143 31.0001 34.3794 31.0076 34.3593 31.0076C34.3342 30.6743 34.3342 30.3435 34.3342 29.9976C34.3342 29.8873 34.3342 29.7771 34.3342 29.6643C34.4849 29.6643 34.633 29.6643 34.7837 29.6618C35.0599 29.6618 35.3386 29.6593 35.6148 29.6543C35.768 29.6517 35.9211 29.6467 36.0743 29.6392C36.2375 29.6317 36.4007 29.6267 36.569 29.6242C36.6192 29.6242 36.6769 29.6317 36.7397 29.6367C36.8125 29.6442 36.8929 29.6543 36.9858 29.6543C37.1038 29.6543 37.2243 29.6467 37.3423 29.6392C37.4629 29.6317 37.5784 29.6267 37.6913 29.6267C37.7642 29.6267 37.8294 29.6292 37.8897 29.6342C38.073 29.6517 38.2513 29.6543 38.3869 29.6543C38.4572 29.6543 38.53 29.6543 38.6003 29.6543C38.6706 29.6543 38.7384 29.6543 38.8087 29.6543C38.8715 29.6543 38.9317 29.6543 38.9945 29.6543H39.0196C39.0698 29.6543 39.1201 29.6517 39.1678 29.6467C39.2004 29.6442 39.2305 29.6417 39.2707 29.6417C39.341 29.6417 39.4138 29.6417 39.4841 29.6442C39.5595 29.6442 39.6373 29.6492 39.7126 29.6492H39.7654C39.8532 29.6492 39.9411 29.6442 40.029 29.6392C40.1219 29.6342 40.2123 29.6292 40.3052 29.6292H40.3228C40.4634 29.6292 40.6065 29.6292 40.7471 29.6342C40.8928 29.6367 41.0359 29.6392 41.1815 29.6392H41.2543C41.4376 29.6392 41.6209 29.6342 41.8042 29.6292C41.9825 29.6242 42.1633 29.6192 42.3416 29.6192H42.4922C42.6931 29.6192 42.8915 29.6192 43.0923 29.6242H43.4539C43.4765 29.6267 43.4991 29.6292 43.5192 29.6292C43.5493 29.6292 43.582 29.6292 43.6121 29.6292C43.6598 29.6292 43.7075 29.6292 43.7552 29.6192C43.8381 29.6066 43.931 29.6016 44.0365 29.6016C44.1419 29.6016 44.2449 29.6066 44.3503 29.6116C44.4282 29.6142 44.5035 29.6192 44.5813 29.6217C44.6717 29.6217 44.7621 29.6242 44.8525 29.6242H45.0032C45.0308 30.0878 45.0258 30.8172 44.9981 31.1931H45.0032ZM43.8155 45.2157C43.8356 45.772 43.8607 46.3259 43.8883 46.8798C43.8983 47.0728 43.9084 47.2633 43.9209 47.4563C43.941 47.7871 43.9611 48.1304 43.9687 48.4638C43.9762 48.767 43.9737 49.0778 43.9687 49.3811C43.9687 49.6116 43.9636 49.8447 43.9687 50.0753C43.9712 50.366 43.9812 50.6568 43.9887 50.95C43.9938 51.1204 43.9988 51.2883 44.0038 51.4588C44.0063 51.6041 44.0088 51.747 44.0113 51.8923C44.0139 52.1405 44.0189 52.3986 44.0289 52.6542C44.039 52.8798 44.0565 53.1079 44.0741 53.3284C44.0842 53.4462 44.0917 53.564 44.1017 53.6818L43.9636 53.6743C43.6247 53.6568 43.2932 53.6417 42.9618 53.6267H42.9442C42.6228 53.6116 42.2914 53.5966 41.9624 53.5891H41.8997C41.7967 53.5891 41.6938 53.5941 41.5908 53.5991C41.5431 53.6016 41.4954 53.6041 41.4452 53.6066C41.4226 53.6066 41.4025 53.6091 41.3824 53.6116C41.3698 53.6116 41.3598 53.6141 41.3472 53.6141L41.169 53.6091C40.6844 53.5966 40.1972 53.5866 39.7126 53.5715C39.6524 53.5715 39.5921 53.564 39.5319 53.559C39.449 53.5515 39.3661 53.544 39.2808 53.544H39.2381C39.1326 53.544 39.0297 53.549 38.9242 53.5515C38.8665 53.554 38.8062 53.5565 38.7484 53.559C38.7208 53.559 38.6907 53.559 38.6631 53.559C38.6304 53.559 38.5953 53.559 38.5626 53.5565C38.5451 53.5565 38.5275 53.5515 38.5099 53.549C38.4697 53.544 38.4195 53.5365 38.3643 53.5365H38.3467C38.1684 53.5415 37.9901 53.5465 37.8119 53.554C37.5558 53.5615 37.2996 53.5715 37.0435 53.5766C36.8326 53.5816 36.6217 53.5816 36.4108 53.5816C36.1848 53.5816 35.9613 53.5816 35.7353 53.5866C35.6625 53.5866 35.5872 53.5891 35.5119 53.5916C35.5294 53.5264 35.5395 53.4563 35.542 53.3861C35.5571 53.0202 35.5696 52.6542 35.5822 52.2883L35.6073 51.5866C35.6223 51.173 35.6374 50.7595 35.65 50.346C35.655 50.1605 35.655 49.9725 35.6575 49.7871C35.6575 49.6492 35.6575 49.5089 35.6625 49.371C35.6625 49.2482 35.6625 49.1254 35.6625 49.0001C35.6625 48.7069 35.6575 48.4287 35.7002 48.1555C35.7102 48.0878 35.7127 48.0177 35.7052 47.94C35.6776 47.6317 35.7027 47.3234 35.7278 46.9951C35.7404 46.8522 35.7504 46.7094 35.7579 46.5665C35.783 46.0477 35.7881 45.5214 35.7906 45.0126C35.7906 44.8372 35.7906 44.6643 35.7956 44.4888C35.8006 44.0051 35.8082 43.4588 35.8031 42.9174C35.8031 42.6743 35.7956 42.4312 35.7881 42.1881C35.783 41.9951 35.778 41.8046 35.7755 41.6116C35.7755 41.5365 35.778 41.4613 35.783 41.3861C35.7881 41.2959 35.7931 41.2056 35.7906 41.1154C35.783 40.6643 35.773 40.2031 35.7579 39.7069C35.7579 39.6292 35.7454 39.559 35.7378 39.4938C35.7303 39.4362 35.7228 39.3836 35.7228 39.336C35.7203 39.1355 35.7203 38.935 35.7203 38.7344C35.7203 38.4688 35.7203 38.2006 35.7127 37.935C35.7077 37.6818 35.6927 37.4262 35.6801 37.1781C35.6726 37.0177 35.6625 36.8598 35.6575 36.6994C35.655 36.6167 35.6575 36.5365 35.6575 36.4537C35.6575 36.3786 35.6575 36.3059 35.6575 36.2307C35.6525 35.9976 35.6449 35.762 35.6374 35.5289L35.6299 35.2733C35.6299 35.2232 35.6299 35.168 35.6173 35.1054C35.5822 34.8698 35.5872 34.6267 35.5972 34.3585C35.6073 34.0653 35.5997 33.7746 35.5922 33.4913C35.5872 33.3485 35.5847 33.2056 35.5822 33.0628C35.5822 33.0177 35.5847 32.97 35.5897 32.9249C35.5947 32.8472 35.6023 32.7595 35.5947 32.6668C35.5822 32.4838 35.5571 32.2883 35.5194 32.0327C35.5144 32.0076 35.5119 31.9826 35.5068 31.9575C35.5621 31.9575 35.6148 31.9575 35.67 31.9575C36.1923 31.9675 36.7171 31.9801 37.2394 31.9951L37.5206 32.0026C38.2061 32.0227 38.9167 32.0427 39.6147 32.0703C39.8984 32.0828 40.1847 32.0979 40.4684 32.1154C40.7697 32.1329 41.0736 32.1505 41.3749 32.163C41.754 32.1781 42.1382 32.1831 42.5073 32.1881C42.6102 32.1881 42.7157 32.1906 42.8212 32.1931C42.8212 32.2683 42.8212 32.341 42.8212 32.4162V32.4863C42.8312 33.0603 42.8412 33.6517 42.9668 34.2407C42.9894 34.3485 42.9969 34.4638 43.0045 34.5891C43.007 34.6417 43.012 34.6943 43.0145 34.747C43.0296 34.9199 43.0421 35.0954 43.0572 35.2683L43.0723 35.4537V35.4813C43.0748 35.5239 43.0773 35.564 43.0848 35.6066C43.1451 35.9174 43.1652 36.2332 43.1852 36.5665C43.1928 36.6994 43.2028 36.8297 43.2129 36.96C43.2355 37.2332 43.2581 37.5064 43.2832 37.7796L43.4464 39.6542C43.4614 39.8397 43.479 40.0227 43.4966 40.2081C43.5318 40.6066 43.5694 41.0177 43.5995 41.4237C43.6221 41.7319 43.6372 42.0427 43.6523 42.3535C43.6673 42.6442 43.6824 42.935 43.7025 43.2257C43.7176 43.4437 43.7377 43.6618 43.7602 43.8798C43.7803 44.0878 43.8004 44.2933 43.8155 44.5014C43.823 44.6292 43.823 44.7595 43.823 44.8974C43.823 45.0076 43.823 45.1179 43.8255 45.2282L43.8155 45.2157ZM34.4297 48.1781C34.4322 48.3585 34.4347 48.5415 34.4322 48.7219C34.4297 48.9375 34.4221 49.153 34.4146 49.366C34.4096 49.5139 34.4045 49.6618 34.3995 49.8096C34.397 49.9375 34.392 50.0653 34.387 50.1931C34.3744 50.5465 34.3644 50.9124 34.3719 51.2758C34.3794 51.5615 34.3468 51.8397 34.3016 52.173C34.2413 52.6242 34.3217 53.0427 34.397 53.4487C34.4096 53.5189 34.4372 53.5816 34.4723 53.6367C34.1936 53.6568 33.9124 53.6868 33.6412 53.7144C33.5458 53.7244 33.4504 53.7344 33.355 53.7445L33.4378 53.3184C33.4454 53.2783 33.4529 53.2382 33.4579 53.1981C33.4705 53.0728 33.483 52.9475 33.4981 52.8222C33.5307 52.5189 33.5659 52.2031 33.5835 51.8873C33.5985 51.6066 33.6036 51.3259 33.6086 51.0527C33.6111 50.8623 33.6136 50.6693 33.6211 50.4788C33.6312 50.2056 33.6462 49.9324 33.6638 49.6568L33.6839 49.3234C33.6839 49.2833 33.6889 49.2432 33.6914 49.2031C33.6965 49.148 33.699 49.0928 33.7015 49.0377L33.7316 48.3886C33.7517 47.95 33.7718 47.5089 33.7944 47.0703C33.8044 46.8974 33.817 46.7244 33.8295 46.549C33.8471 46.3309 33.8622 46.1079 33.8722 45.8823C33.8923 45.3735 33.9049 44.945 33.8948 44.5114C33.8798 43.8422 33.8898 43.1605 33.8948 42.559C33.8948 42.4462 33.8898 42.336 33.8823 42.2282C33.8773 42.1605 33.8747 42.0928 33.8722 42.0252C33.8722 41.9725 33.8722 41.9199 33.8773 41.8698C33.8773 41.8247 33.8823 41.7771 33.8823 41.7319C33.8823 41.7319 33.8923 40.6492 33.8948 40.4237C33.8948 40.2282 33.8998 40.0327 33.9024 39.8397C33.9049 39.5916 33.9099 39.346 33.9124 39.0979C33.9124 39.0202 33.9124 38.9425 33.9099 38.8648C33.9099 38.7871 33.9074 38.7069 33.9099 38.6267C33.9099 38.544 33.9174 38.4613 33.9224 38.3786C33.925 38.3309 33.9325 38.2182 33.9325 38.2182C33.935 38.1756 33.9425 38.1104 33.925 38.0377C33.9024 37.935 33.9099 37.8222 33.9199 37.6918L33.925 37.6091C33.9425 37.3309 33.9425 37.0527 33.9425 36.7846C33.9425 36.6517 33.9425 36.5189 33.9425 36.3861C33.945 36.2157 33.9501 36.0477 33.9526 35.8773C33.9576 35.6593 33.9626 35.4412 33.9651 35.2232C33.9651 35.1179 33.9626 35.0101 33.9576 34.9049C33.9526 34.7946 33.9501 34.6918 33.9501 34.5891C33.9551 34.3034 33.9702 34.0051 33.9902 33.6818C34.0304 33.0828 34.0304 32.5966 33.9902 32.1505C34.0028 32.1505 34.0154 32.1505 34.0279 32.1505C34.166 32.1505 34.279 32.0878 34.3669 31.96H34.3794L34.3543 32.1329C34.3543 32.1329 34.3493 32.158 34.3468 32.1705C34.3342 32.2282 34.3142 32.3159 34.3292 32.4136C34.3593 32.5991 34.3518 32.7946 34.3418 33.0026C34.3342 33.1455 34.3292 33.2908 34.3342 33.4437C34.3518 33.8698 34.3568 34.3009 34.3619 34.6718C34.3644 34.8823 34.3669 35.0928 34.3669 35.3034C34.3669 35.5991 34.3694 35.8948 34.3769 36.1906C34.3819 36.3911 34.392 36.5941 34.4045 36.7871C34.4121 36.9349 34.4221 37.0853 34.4271 37.2332C34.4347 37.4437 34.4397 37.6568 34.4422 37.8698C34.4422 37.9976 34.4472 38.1229 34.4497 38.2507C34.4523 38.361 34.4598 38.4688 34.4648 38.5941C34.4698 38.6693 34.4749 38.7445 34.4799 38.8197C34.4899 38.96 34.5 39.1029 34.5025 39.2432C34.505 39.4011 34.505 39.5565 34.505 39.7144C34.505 39.8798 34.505 40.0477 34.51 40.2157C34.515 40.4036 34.5226 40.5891 34.5301 40.7771C34.5401 41.0277 34.5527 41.2883 34.5552 41.5415C34.5627 42.6242 34.5652 43.5891 34.5552 44.4863C34.5502 45.2708 34.5251 46.0502 34.505 46.6392C34.4974 46.8322 34.4799 47.0227 34.4598 47.2257C34.4497 47.3234 34.4397 47.4237 34.4322 47.5214L34.4271 47.5791C34.4196 47.6517 34.4146 47.7269 34.4146 47.8071C34.4146 47.9324 34.4146 48.0578 34.4171 48.1831L34.4297 48.1781ZM33.2596 29.6568C33.2545 30.1555 33.2797 30.6041 33.3374 31.0377C33.1842 31.0452 33.0235 31.0502 32.8402 31.0502C32.6318 31.0502 32.4234 31.0452 32.2175 31.0402C32.1497 31.0402 32.0794 31.0377 32.0116 31.0352L31.866 29.6568H33.2596V29.6568ZM26.7362 29.6618C26.8668 29.6618 26.9973 29.6643 27.1354 29.6718L27.1279 29.6969C27.0877 29.8372 27.05 29.97 26.9973 30.0853C26.9119 30.2658 26.8693 30.4462 26.8492 30.6242C26.8216 30.5615 26.7889 30.5014 26.7563 30.4387C26.6332 30.2157 26.5253 29.965 26.4223 29.6668C26.5253 29.6618 26.6282 29.6593 26.7362 29.6593V29.6618ZM4.1931 18.0928C4.43415 18.0928 4.64758 18.1279 4.79572 18.1906V18.2006C4.73295 18.3786 4.6752 18.5515 4.62247 18.7269C4.57225 18.8898 4.52706 19.0553 4.47935 19.2257C4.38142 19.2131 4.28099 19.2056 4.17553 19.2056C4.0776 19.2056 3.9847 19.2131 3.89681 19.2307L3.37203 18.2257C3.60555 18.143 3.90686 18.0928 4.1931 18.0928V18.0928ZM4.36134 21.9926H4.07258V20.371H4.31363C4.28099 20.9299 4.29605 21.4638 4.36134 21.9926V21.9926ZM5.02422 9.9926C5.00413 10.3134 5.00162 10.6342 4.99911 10.945C4.99911 11.0678 4.99911 11.1881 4.99409 11.3109L4.98404 11.9049C4.974 12.4111 4.96396 12.9375 4.96145 13.4537C4.95893 14.2708 4.96145 15.0878 4.96396 15.9049V16.9976L4.96647 17.2106C4.63503 17.0954 4.31112 17.0853 4.055 17.0753C4.03743 17.0753 4.02236 17.0753 4.00478 17.0753C3.70598 17.0753 3.4348 17.1655 3.18873 17.2908V16.4863C3.18622 15.6367 3.18622 14.7871 3.1812 13.935C3.1812 13.7996 3.17367 13.6643 3.16614 13.5289C3.16111 13.4337 3.15609 13.336 3.15358 13.2407C3.15358 13.1555 3.15358 13.0703 3.15358 12.9826C3.15358 12.8974 3.15358 12.8096 3.15358 12.7219C3.14605 12.356 3.13851 11.9901 3.12847 11.6242L3.11843 11.153C3.11592 10.9926 3.11089 10.8322 3.10587 10.6693C3.09583 10.3084 3.08579 9.93495 3.08579 9.57154C3.08579 9.48633 3.08579 9.40112 3.08579 9.3159C3.08076 8.99259 3.07574 8.68934 3.1586 8.40362L3.1812 8.32843L3.16362 8.25074C3.16111 8.23821 3.1586 8.22818 3.1586 8.22568C3.18622 8.19811 3.27913 8.1555 3.31177 8.14046C3.50762 8.04773 3.6859 7.97255 3.86166 7.97255C3.89933 7.97255 3.93448 7.97505 3.96963 7.98257C4.14791 8.01265 4.32116 8.02267 4.48939 8.0327C4.55468 8.0352 4.61996 8.04021 4.68524 8.04523C4.7907 8.05275 4.87356 8.13295 5.00162 8.26077L5.03175 8.29084C5.03677 8.31841 5.03928 8.36102 5.0418 8.39109C5.07695 8.92994 5.05435 9.4763 5.02171 9.99009L5.02422 9.9926ZM9.79749 3.20563C9.8477 3.16302 9.92303 3.10036 9.97074 2.99761C10.0611 2.7946 10.252 2.6743 10.4754 2.53144C10.5181 2.50387 10.5583 2.47881 10.601 2.45124C11.0755 2.14047 11.5953 1.8748 12.1502 1.65926C12.6248 1.4738 13.0692 1.34097 13.5086 1.25074C14.0008 1.15049 14.5833 1.04773 15.1759 1.04773H15.3416H15.6806C15.9693 1.04773 16.2079 1.06026 16.4389 1.11791C16.5996 1.15801 16.7578 1.17806 16.9109 1.19811C17.034 1.21315 17.152 1.23069 17.2625 1.25325L17.3503 1.27079C17.619 1.32844 17.8726 1.38107 18.0986 1.4763C18.5933 1.68182 19.0804 1.92493 19.5349 2.15801C19.7382 2.26077 19.9316 2.38357 20.135 2.51641L20.3032 2.62417C20.3509 2.65425 20.4036 2.69686 20.4564 2.74197C20.484 2.76453 20.5116 2.78708 20.5392 2.80713C21.0916 3.24322 21.5411 3.6743 21.9152 4.12793C22.3571 4.66177 22.7313 5.25074 23.0577 5.92743C23.3841 6.60162 23.6126 7.33345 23.7356 8.10287C23.7833 8.40613 23.8084 8.71189 23.831 9.0352C23.8411 9.17555 23.8511 9.31841 23.8637 9.45876C23.8486 10.4011 23.6779 11.3234 23.3389 12.2808C23.1054 12.94 22.7991 13.554 22.4299 14.1004C21.9504 14.8121 21.4507 15.3761 20.9058 15.8272C20.2806 16.3435 19.5901 16.7821 18.8519 17.1304C18.5154 17.2883 18.2116 17.4111 17.9203 17.5014C17.6265 17.5916 17.3127 17.6543 17.0064 17.7144L16.9109 17.7345C16.4715 17.8222 16.0095 17.8472 15.5626 17.8698C15.4621 17.8748 15.3617 17.8773 15.2613 17.8773C14.9625 17.8773 14.636 17.8548 14.2619 17.8096C13.3881 17.7044 12.5269 17.4487 11.7058 17.0502C11.1885 16.7996 10.7592 16.5515 10.3951 16.2908C10.0184 16.0202 9.66943 15.6818 9.3179 15.3309C9.0643 15.0778 8.8132 14.7871 8.55458 14.4462C8.09508 13.8397 7.78875 13.3109 7.58536 12.7846L7.55272 12.6969C7.4096 12.3234 7.26145 11.9375 7.14595 11.554C7.0656 11.2808 7.0204 10.9951 6.9727 10.6943L6.96014 10.6167C6.85719 9.97255 6.84213 9.29335 6.91495 8.53646C6.98023 7.84473 7.14595 7.1555 7.42215 6.42618C7.62805 5.88483 7.85403 5.42117 8.11768 5.01515C8.47172 4.46628 8.79563 4.02768 9.21746 3.68182C9.40829 3.52643 9.59661 3.36854 9.79246 3.20563H9.79749ZM16.0949 19.2131C16.2882 19.7871 16.4816 20.3535 16.6699 20.9224C16.6925 20.9851 16.7076 21.0502 16.7251 21.1154C16.7402 21.1781 16.7578 21.2407 16.7753 21.3034C16.8055 21.3986 16.8356 21.4938 16.8657 21.5891C16.9009 21.6944 16.9335 21.7996 16.9662 21.9049H14.523C14.8143 20.7395 15.0102 19.7821 15.1407 18.8748C15.2035 18.8748 15.2688 18.8798 15.3316 18.8848C15.4019 18.8898 15.4697 18.8949 15.54 18.8974H15.6002C15.7308 18.8974 15.8563 18.8898 15.9794 18.8823L16.0924 19.2131H16.0949ZM13.5262 21.6618C13.5162 21.747 13.5086 21.8322 13.4986 21.9174C13.476 21.9174 13.4509 21.9224 13.4283 21.9224C13.4609 21.8372 13.4936 21.7495 13.5237 21.6618H13.5262ZM26.9546 18.0928C27.2233 18.0928 27.4166 18.1329 27.5422 18.1856L27.2233 19.2282C27.1229 19.2157 27.0199 19.2056 26.9119 19.2056C26.8165 19.2056 26.7261 19.2131 26.6408 19.2307L26.116 18.2257C26.3445 18.143 26.6558 18.0928 26.9521 18.0928H26.9546ZM27.0475 21.1756C27.0551 21.4337 27.0802 21.6944 27.1028 21.9475C27.1028 21.955 27.1028 21.965 27.1028 21.9725L26.8165 21.9876V20.3735H27.0551C27.0551 20.3735 27.0551 20.3936 27.0551 20.4036C27.045 20.6693 27.0375 20.9174 27.045 21.1756H27.0475ZM27.7832 8.29585C27.7883 8.32342 27.7908 8.36603 27.7933 8.3961C27.8284 8.93746 27.8058 9.48382 27.7732 9.9951C27.7531 10.3159 27.7506 10.6392 27.7481 10.95C27.7481 11.0703 27.7481 11.1931 27.7431 11.3134L27.733 11.8873C27.723 12.3936 27.7129 12.9174 27.7129 13.4337C27.7129 14.2758 27.7129 15.1179 27.718 15.96V17.0477L27.7205 17.2131C27.394 17.0979 27.0777 17.0878 26.804 17.0778C26.7864 17.0778 26.7713 17.0778 26.7538 17.0778C26.4524 17.0778 26.1863 17.1655 25.9402 17.2908V16.4788C25.9377 15.6317 25.9352 14.7821 25.9327 13.935C25.9327 13.7996 25.9252 13.6643 25.9176 13.5314C25.9126 13.4337 25.9076 13.3385 25.9051 13.2407C25.9051 13.1555 25.9051 13.0703 25.9051 12.9826C25.9051 12.8949 25.9051 12.8096 25.9051 12.7219C25.8975 12.3485 25.89 11.9751 25.88 11.6016L25.8699 11.1555C25.8674 10.9976 25.8624 10.8372 25.8574 10.6793C25.8473 10.3159 25.8373 9.93996 25.8373 9.57405C25.8373 9.48884 25.8373 9.40613 25.8373 9.32092C25.8322 8.99761 25.8272 8.69184 25.9101 8.40613L25.9327 8.33094L25.9151 8.25325C25.9126 8.24072 25.9101 8.23069 25.9101 8.22818C25.9377 8.20062 26.0306 8.15801 26.0633 8.14297C26.2666 8.04773 26.4374 7.97505 26.6131 7.97505C26.6508 7.97505 26.686 7.97756 26.7211 7.98508C26.8969 8.01515 27.0701 8.02518 27.2384 8.0352C27.3037 8.03771 27.3714 8.04272 27.4367 8.04773C27.5422 8.05525 27.625 8.13545 27.7556 8.26327L27.7857 8.29335L27.7832 8.29585ZM36.5464 21.955C36.6317 21.7395 36.7071 21.5189 36.7774 21.2984C36.7648 21.4162 36.7146 21.8548 36.7045 21.955H36.5464ZM32.446 15.3309C32.3431 15.2056 32.2351 15.0853 32.1271 14.9625C31.974 14.7896 31.8308 14.6267 31.6978 14.4537C31.2332 13.8397 30.9194 13.3059 30.716 12.772L30.6633 12.6342C30.5277 12.2783 30.3846 11.9074 30.2766 11.5415C30.2213 11.3585 30.1887 11.163 30.1535 10.9575C30.1335 10.8347 30.1109 10.7119 30.0858 10.5891C30.033 10.3385 30.028 10.0803 30.0205 9.80713C30.018 9.65676 30.0129 9.50137 30.0004 9.34347C30.0054 9.25826 30.0079 9.17054 30.0104 9.08533C30.018 8.88483 30.023 8.69686 30.0456 8.51139C30.1385 7.77706 30.3092 7.08031 30.5503 6.4362C30.7562 5.88984 30.9872 5.42117 31.2558 5.00513C31.6074 4.45876 31.9313 4.02267 32.3581 3.6743C32.5439 3.52392 32.7272 3.37104 32.908 3.21816L32.9231 3.20563C32.9758 3.16302 33.0562 3.09535 33.1039 2.98758C33.1968 2.77706 33.4002 2.65425 33.6337 2.51139L33.7316 2.45124C34.0731 2.23821 34.4447 2.05275 34.8038 1.87229L34.8791 1.8347C34.9946 1.77706 35.1202 1.72944 35.2507 1.67931C35.3336 1.64673 35.4139 1.61666 35.4968 1.58157C35.9789 1.37856 36.4961 1.27079 36.8929 1.19811C37.3599 1.1129 37.8294 1.07781 38.2262 1.05525C38.3467 1.04773 38.4722 1.04523 38.6078 1.04523C38.8037 1.04523 39.0096 1.05275 39.2808 1.06778C39.3737 1.0728 39.4741 1.09285 39.5796 1.1154C39.69 1.13796 39.803 1.16052 39.9261 1.17305C40.2424 1.20062 40.5513 1.29084 40.8752 1.38608C40.9857 1.41866 41.0936 1.45124 41.2041 1.48132C41.3699 1.52643 41.5356 1.60162 41.7113 1.68182L41.8394 1.73946C42.4747 2.02267 43.007 2.31841 43.464 2.64673C43.8406 2.91741 44.1896 3.24072 44.511 3.54899C44.9128 3.92994 45.2668 4.36102 45.5706 4.82969C45.7263 5.07029 45.8694 5.33345 46.0075 5.58658L46.1255 5.80212C46.3465 6.20312 46.5223 6.66427 46.6629 7.21565C46.7231 7.45375 46.7683 7.69435 46.8135 7.94999C46.8361 8.0728 46.8587 8.1956 46.8813 8.3159C46.9818 8.82217 46.9767 9.34347 46.9617 9.8347C46.9516 10.138 46.9215 10.4312 46.8663 10.7044C46.7633 11.2357 46.6629 11.6593 46.5499 12.0377C46.3365 12.752 46.0075 13.4437 45.5681 14.0903C45.071 14.8247 44.5863 15.3761 44.0465 15.8197C43.4137 16.341 42.7232 16.7796 41.9951 17.1254C41.749 17.2407 41.4251 17.3886 41.0886 17.4913C40.8124 17.5741 40.5312 17.6317 40.2324 17.6944L40.0039 17.742C39.4917 17.8497 38.9719 17.8673 38.5752 17.8723H38.4923C38.1559 17.8723 37.7918 17.8522 37.3775 17.8071C36.5388 17.7169 35.6901 17.4663 34.849 17.0603C34.2815 16.7871 33.8722 16.549 33.5232 16.2908C33.1265 15.9976 32.7448 15.7044 32.441 15.336L32.446 15.3309ZM39.9085 21.9375C39.7654 21.9375 39.6348 21.9525 39.5143 21.9801C39.4138 21.9625 39.3059 21.955 39.1828 21.955C39.095 21.955 39.0071 21.96 38.9167 21.9625C38.8388 21.965 38.7585 21.97 38.6806 21.97C38.648 21.97 38.6129 21.97 38.5802 21.9675C38.4647 21.9625 38.3517 21.96 38.2362 21.96C38.1308 21.96 38.0278 21.96 37.9223 21.9625C37.8445 21.9625 37.7667 21.965 37.6888 21.965C37.7014 21.9274 37.7165 21.8898 37.729 21.8522C37.8144 21.6142 37.9023 21.371 37.9701 21.1179C38.083 20.6994 38.1935 20.2507 38.1885 19.7771C38.1885 19.7294 38.2036 19.6768 38.2237 19.6091C38.2437 19.544 38.2638 19.4713 38.2764 19.3886C38.299 19.2232 38.3166 19.0553 38.3367 18.8798C38.3542 18.8798 38.3693 18.8798 38.3869 18.8798C38.4722 18.8798 38.5576 18.8798 38.6455 18.8848C38.7384 18.8873 38.8288 18.8898 38.9192 18.8898C38.987 18.8898 39.0523 18.8898 39.1125 18.8848L39.2205 19.2081C39.4163 19.7846 39.6072 20.3535 39.798 20.9224C39.8181 20.9851 39.8357 21.0502 39.8507 21.1154C39.8658 21.1781 39.8834 21.2432 39.9035 21.3034C39.9336 21.3986 39.9637 21.4938 39.9939 21.5866C40.0315 21.7044 40.0717 21.8222 40.1069 21.9425C40.0416 21.9375 39.9738 21.935 39.906 21.935L39.9085 21.9375ZM50.1757 18.0928C50.4443 18.0928 50.6377 18.1329 50.7657 18.1856L50.4494 19.2282C50.3539 19.2157 50.2535 19.2081 50.1506 19.2081C50.0476 19.2081 49.9572 19.2157 49.8693 19.2332L49.3445 18.2282C49.553 18.153 49.8543 18.0954 50.1782 18.0954L50.1757 18.0928ZM50.3263 21.94H50.0652L50.0401 20.3735H50.2836C50.2535 20.965 50.2661 21.4688 50.3263 21.94ZM51.0068 8.29585C51.0118 8.32342 51.0143 8.36603 51.0168 8.3961C51.057 8.94999 51.0269 9.51139 50.9967 9.9926C50.9766 10.3109 50.9741 10.6317 50.9716 10.9425C50.9716 11.0653 50.9716 11.1881 50.9666 11.3109L50.9566 11.9049C50.9465 12.4136 50.9365 12.9375 50.934 13.4563C50.934 14.2883 50.934 15.1204 50.939 15.95C50.939 15.95 50.944 17.158 50.944 17.2157C50.6126 17.0979 50.2887 17.0878 50.03 17.0803C50.0125 17.0803 49.9974 17.0803 49.9798 17.0803C49.676 17.0803 49.4048 17.1705 49.1612 17.2933V16.3836C49.1612 15.569 49.1587 14.757 49.1562 13.9425C49.1562 13.8071 49.1487 13.6718 49.1412 13.5365C49.1361 13.4412 49.1311 13.3435 49.1286 13.2482C49.1286 13.1605 49.1286 13.0703 49.1286 12.9826C49.1286 12.8923 49.1286 12.7996 49.1286 12.7094C49.1236 12.4162 49.1161 12.1254 49.1085 11.8322L49.0834 10.8247C49.0734 10.3936 49.0633 9.96252 49.0583 9.53144C49.0558 9.2733 49.0608 8.9926 49.0784 8.67179C49.0859 8.53896 49.101 8.39861 49.1311 8.24322C49.3671 8.10036 49.5806 7.98508 49.8141 7.98508C49.8492 7.98508 49.8869 7.98758 49.9221 7.9926C50.1079 8.02016 50.2912 8.03019 50.4694 8.04272C50.5322 8.04523 50.595 8.05024 50.6578 8.05525C50.7607 8.06277 50.8461 8.14046 50.9741 8.26578L51.0068 8.29836V8.29585ZM55.426 15.3259C55.3205 15.1981 55.2101 15.0728 55.0996 14.95C54.954 14.7871 54.8158 14.6317 54.6903 14.4688C54.2208 13.8548 53.9069 13.3159 53.696 12.767L53.6583 12.6668C53.5152 12.2984 53.3696 11.9149 53.2566 11.5365C53.2038 11.3585 53.1737 11.1705 53.1386 10.97C53.116 10.8397 53.0959 10.7094 53.0682 10.5816C53.018 10.3485 53.0105 10.1079 53.003 9.85475C52.9979 9.69435 52.9929 9.52894 52.9753 9.36102C52.9829 9.26327 52.9879 9.16553 52.9954 9.06778C53.0105 8.83219 53.023 8.60914 53.0507 8.38608C53.1386 7.6342 53.3444 6.88232 53.6734 6.09034C53.9621 5.3961 54.3388 4.77706 54.7958 4.25325C54.9866 4.0327 55.2 3.81966 55.4084 3.61415L55.5716 3.45124C55.6219 3.40112 55.6846 3.3535 55.7524 3.3134C55.9257 3.21315 56.0537 3.07781 56.1441 2.89485C56.1441 2.89234 56.1592 2.86728 56.2195 2.81716C56.7016 2.41615 57.2891 2.07781 58.0675 1.74949C58.3688 1.62167 58.6375 1.51891 58.8911 1.42869C58.9815 1.3961 59.0844 1.37605 59.1924 1.35099C59.2426 1.34097 59.2928 1.32844 59.3456 1.3159C60.0988 1.13545 60.6789 1.05525 61.2262 1.05275H61.6054C61.7912 1.05275 62.0373 1.05275 62.2783 1.06528C62.3737 1.07029 62.4742 1.09034 62.5821 1.11039C62.6725 1.12793 62.7679 1.14548 62.8684 1.15801C63.2676 1.20312 63.6518 1.3159 64.0561 1.4362L64.2167 1.48382C64.4653 1.55651 64.7064 1.6743 64.9625 1.79961L65.083 1.85976C65.422 2.02267 65.7082 2.17555 65.9618 2.32844C66.1251 2.42618 66.2807 2.53896 66.4439 2.65926C66.5017 2.70187 66.562 2.74448 66.6222 2.78708C67.2248 3.21816 67.7747 3.76703 68.3071 4.46377C68.5958 4.84222 68.867 5.29084 69.1357 5.8347C69.3616 6.29585 69.5299 6.74197 69.6479 7.1956C69.7107 7.44122 69.7559 7.68934 69.8061 7.9525C69.8287 8.0753 69.8513 8.1956 69.8764 8.31841C69.9743 8.81214 69.9718 9.32844 69.9542 9.81214C69.9442 10.1279 69.9115 10.4287 69.8588 10.7094C69.7659 11.2081 69.6705 11.6091 69.565 11.9725C69.3466 12.7169 69.0126 13.4237 68.5707 14.0703C68.3899 14.3385 68.1765 14.6016 67.9731 14.8548C67.9053 14.9375 67.84 15.0202 67.7722 15.1029C67.4408 15.5189 67.024 15.8522 66.6975 16.0954C66.0799 16.554 65.5375 16.8823 64.9901 17.1229L64.9273 17.1505C64.6361 17.2783 64.3599 17.4011 64.0761 17.4888C63.7698 17.5841 63.4384 17.6492 63.1195 17.7119L63.019 17.7319C62.5922 17.8172 62.1251 17.8623 61.5903 17.8648H61.5351C61.161 17.8648 60.7743 17.8447 60.3926 17.8021C59.5414 17.7094 58.6827 17.4563 57.8415 17.0477C57.4523 16.8598 56.9526 16.6016 56.5183 16.2783C56.0814 15.9525 55.7273 15.6768 55.436 15.3234L55.426 15.3259ZM62.7855 21.8898C62.5445 21.8898 62.3034 21.8773 62.0498 21.8623H62.0172C61.9845 21.8598 61.9519 21.8573 61.9193 21.8573C61.8113 21.8573 61.7083 21.8648 61.6079 21.8748C61.5451 21.8798 61.4849 21.8848 61.4221 21.8873H61.402C61.3769 21.8873 61.3518 21.8873 61.3267 21.8873C61.294 21.8873 61.2589 21.8848 61.2262 21.8848H60.7843C61.0128 21.163 61.3694 19.6342 61.412 18.8773C61.4221 18.8773 61.4321 18.8798 61.4397 18.8823C61.5075 18.8923 61.5828 18.9024 61.6631 18.9024C61.6857 18.9024 61.7058 18.9024 61.7284 18.9024C61.8515 18.8923 61.9745 18.8873 62.1 18.8823C62.208 19.2182 62.321 19.554 62.429 19.8823C62.6474 20.534 62.8709 21.2056 63.0617 21.8873C62.9738 21.8923 62.8834 21.8949 62.783 21.8949L62.7855 21.8898ZM60.1265 19.9976C60.2269 19.6116 60.3298 19.2131 60.4479 18.8272H60.4755C60.4579 18.8923 60.4428 18.955 60.4227 19.0152C60.2646 19.534 60.1365 20.0903 60.031 20.7144C60.016 20.7996 59.9984 20.8848 59.9808 20.97C59.9582 21.0703 59.9381 21.1705 59.9206 21.2733C59.8929 21.4412 59.8754 21.6192 59.8653 21.7971C59.8653 21.8272 59.8653 21.8598 59.8653 21.8974C59.8101 21.9024 59.7548 21.9074 59.6996 21.9174C59.6795 21.9199 59.6594 21.9224 59.6368 21.9224C59.6092 21.9224 59.5791 21.9224 59.5464 21.9174C59.79 21.2858 59.9582 20.6342 60.1239 20.0001L60.1265 19.9976ZM73.7382 8.27831L73.7583 8.29836C73.7608 8.32092 73.7633 8.356 73.7658 8.38357C73.801 8.92743 73.7758 9.47129 73.7482 9.98508C73.7281 10.366 73.7256 10.752 73.7231 11.1254C73.7231 11.3109 73.7206 11.4964 73.7181 11.6818C73.7181 11.752 73.7131 11.8247 73.708 11.8949C73.703 11.9826 73.698 12.0703 73.6955 12.1605C73.693 12.5314 73.6905 12.9024 73.6905 13.2733L73.6854 14.3009C73.6829 14.7996 73.6804 15.3009 73.6804 15.7996C73.6804 16.0477 73.6829 16.2959 73.6854 16.544C73.6854 16.6918 73.688 16.8422 73.6905 16.9901C73.6905 17.0628 73.6905 17.1355 73.6905 17.2081C73.3816 17.1004 73.0728 17.0878 72.7891 17.0753C72.769 17.0753 72.7464 17.0753 72.7263 17.0753C72.4275 17.0753 72.1588 17.163 71.9102 17.2908V16.3535C71.9102 15.5515 71.9077 14.747 71.9052 13.945C71.9052 13.8096 71.8977 13.6743 71.8901 13.5415C71.8851 13.4387 71.8801 13.3334 71.8776 13.2307C71.8776 13.1405 71.8776 13.0477 71.8801 12.9575C71.8826 12.8598 71.8851 12.762 71.8826 12.6643C71.8776 12.4036 71.8726 12.143 71.865 11.8823C71.8575 11.574 71.85 11.2658 71.8449 10.9575C71.8349 10.2031 71.8249 9.46628 71.8249 8.73194C71.8249 8.57154 71.8525 8.40362 71.8801 8.2357C72.1186 8.09535 72.3371 7.98006 72.5706 7.98006C72.6083 7.98006 72.6484 7.98257 72.6861 7.99009C72.8468 8.01515 73.005 8.02518 73.1582 8.0352C73.2435 8.04021 73.3289 8.04523 73.4143 8.05275C73.5197 8.06277 73.6076 8.14548 73.7357 8.27831H73.7382ZM72.9297 18.0903C73.1983 18.0903 73.3917 18.1304 73.5172 18.1831L73.1983 19.2257C73.0979 19.2131 72.9949 19.2031 72.887 19.2031C72.7916 19.2031 72.7012 19.2106 72.6158 19.2282L72.091 18.2232C72.3195 18.1405 72.6309 18.0903 72.9272 18.0903H72.9297ZM73.0703 21.8773H72.8167L72.7891 20.371H73.0351C73.01 20.8773 73.005 21.3761 73.0703 21.8773ZM4.36887 29.7319C4.33371 29.8548 4.29856 29.9725 4.25085 30.0728C4.16297 30.2583 4.11778 30.4437 4.1002 30.6242C4.08513 30.5966 4.07258 30.5665 4.05751 30.539C3.91439 30.2608 3.79638 30.0101 3.70347 29.752C3.92443 29.7445 4.1454 29.737 4.36636 29.7319H4.36887Z" fill="white"/>
</svg>
